<?xml version="1.0" encoding="UTF-8"?>
<svg id="Capa_2" data-name="Capa 2" xmlns="http://www.w3.org/2000/svg" viewBox="0 0 501.54 478.75">
  <defs>
    <style>
      .cls-1 {
        fill: #fff;
      }
    </style>
  </defs>
  <g id="Capa_1-2" data-name="Capa 1">
    <g>
      <rect class="cls-1" width="501.54" height="478.75" rx="122.13" ry="122.13"/>
      <rect x="26.02" y="24.83" width="449.51" height="429.08" rx="109.46" ry="109.46"/>
      <g>
        <path class="cls-1" d="M234.48,163.49h30.43c7.96.47,15.45,3.77,22.23,7.78,6.43,3.86,12.48,8.5,17.23,14.35,5.46,6.56,9.22,14.29,12.7,22.03,3.05,6.62,6,13.5,11.03,18.9,2.62,2.81,5.82,5.08,9.35,6.6,4.38,1.92,9.17,2.67,13.92,2.92,4.25.38,8.52.29,12.78.3,9.25.05,18.49-.25,27.74-.12,3.47.07,6.98-.11,10.4.6,7.88,1.54,14.98,6.02,20.4,11.86,2.1,2.25,3.86,4.8,5.3,7.51,2.98,5.15,4.64,11.03,4.9,16.97v2.28c-.17,6.7-2.21,13.34-5.84,18.97-4.55,7.12-11.52,12.61-19.44,15.5-4.49,1.68-9.28,2.41-14.06,2.57-8.18-.36-16.35-2.98-22.96-7.86-3.31-2.45-6.07-5.58-8.33-9.01-2.44-3.74-4.7-7.6-6.76-11.56-5.32-9.77-10.95-19.37-16.73-28.87-4.42-6.99-11.59-12.18-19.64-14.08-5.07-1.32-10.34-1.04-15.53-1.17-27.17-.38-54.35.01-81.53-.27-1.86-.05-3.74.06-5.58-.23-7-.94-13.57-4.2-18.83-8.86-6.61-5.85-11.32-13.92-12.78-22.65-.75-4.18-.47-8.45.05-12.64,1.78-11.77,9.78-22.19,20.27-27.63,4.82-2.51,10.23-3.94,15.67-3.95,4.54-.12,9.08-.01,13.61-.23Z"/>
        <path class="cls-1" d="M142.1,237.02c7.44-.95,15.15.15,21.98,3.28,7.32,3.31,13.6,8.92,17.61,15.89,5.21,8.93,6.35,20.09,3.07,29.88-2.61,7.96-8.04,14.91-14.98,19.55-5.79,3.91-12.63,6.21-19.59,6.69-1.93.25-3.88.24-5.81,0-8.79-.6-17.36-4.18-23.89-10.09-6.77-6.05-11.3-14.6-12.25-23.65-.94-8.33,1.1-16.95,5.67-23.97,6.18-9.66,16.84-16.19,28.19-17.57Z"/>
      </g>
    </g>
  </g>
</svg>