<?xml version="1.0" encoding="UTF-8"?>
<svg id="Capa_2" data-name="Capa 2" xmlns="http://www.w3.org/2000/svg" viewBox="0 0 1063.26 1215.33">
  <defs>
    <style>
      .cls-1 {
        fill: #fff;
      }

      .cls-2 {
        fill: #37f495;
        opacity: .23;
      }

      .cls-3 {
        fill: #13e27a;
        opacity: .38;
      }

      .cls-4 {
        fill: #00bf63;
      }
    </style>
  </defs>
  <g id="Capa_1-2" data-name="Capa 1">
    <g>
      <path class="cls-4" d="M.02,0h1063.21c.02,131.39.03,262.78.03,394.17,0,108.19,0,216.38-.02,324.57-22.07,32.55-54.25,74.13-99.17,116.38-77.52,72.9-152.32,109.57-176.7,120.9-41.79,19.43-163.11,73.98-324.88,58.28-22.72-2.2-133.93-14.28-257.3-85.56C100.09,868.01,34.71,792.36.02,745.61c0-248.54,0-497.07,0-745.61Z"/>
      <path class="cls-3" d="M808.57,942.77c99.37-51.36,187.36-130.04,254.67-227.03-.07,52.7.02,105.4-.05,158.1-97.75,110.9-200.25,162.37-257.22,185.82-228.49,94.06-488.7,51.93-671.38-73.34C70.77,942.56,26.67,895.68.03,863.91c0-40.43.02-80.87-.02-121.32,52.25,68.79,115.27,127.15,185.33,171.56,81.27,51.62,172.04,84.13,264.87,94.85,121.85,14.37,247.09-8.33,358.35-66.23Z"/>
      <path class="cls-2" d="M.03,860.18c40.2,46.75,85.51,87.95,134.55,122.4,26.78,18.81,165.46,110.98,370.41,120.89,154.79,7.48,268.84-35.91,291.27-44.72,139.87-54.94,226.45-143.65,266.89-191.16,0,1.99.02,36.14.03,72.28,0,34.89.01,67.92.01,69.77-42.35,39.68-105.98,91.12-191.09,132.64-211.32,103.09-402.33,70.56-466.58,58.64C203.51,1163.46,64.59,1054.58,0,996.27c.03-22.69.04-45.36.03-136.08Z"/>
      <path class="cls-1" d="M507.32,180.4c1.42-.04,2.85.02,4.27-.04,5.17,0,10.35,0,15.52,0,2.15-.06,4.3-.02,6.45-.03,4.83.06,9.66.02,14.49.03,2.53-.02,5.06.05,7.59.03,1.71.04,3.58.76,4.43,2.34.97,2.02,2.05,3.97,3.11,5.94,1.1,2,2.18,4.01,3.32,5.99.59-.05,1.23.06,1.79-.14-.28-.5-.55-1.01-.64-1.58-.14-.73-.11-1.61.45-2.16.35-.36.88-.43,1.36-.47,1.37-.08,2.75.13,4.08.47,1.01.29,2.05.63,2.88,1.28.46.34.69.91.73,1.47v.16c-.07,1.43-1.11,2.93-2.61,3.11-2.27.02-4.55,0-6.83,0,.93,1.41,1.93,2.78,2.92,4.15-.19.18-.29.43-.41.65-1.23,2.21-2.46,4.42-3.69,6.63-1.94.24-3.81.85-5.59,1.67-1.46.67-2.91,1.39-4.21,2.34-.54.4-1.05.85-1.42,1.41-1.76.34-3.53.68-5.29,1.01.12-1.01-.12-2.2-1.02-2.8-1.01-.7-2.3-.6-3.46-.56-5.51,0-11.01.11-16.52.08-1.47-.06-2.95.02-4.42-.05-2.23.02-4.45-.05-6.68-.03-1.24-.03-2.62-.19-3.69.55-.89.6-1.13,1.79-1.01,2.8-1.69-.31-3.37-.65-5.05-.96-.13-.01-.26-.07-.33-.19-.71-.96-1.75-1.61-2.76-2.21-2.55-1.43-5.28-2.67-8.2-3.06-.11,0-.19-.06-.24-.16-1.32-2.39-2.65-4.77-3.98-7.15l-.07.06c1-1.4,1.99-2.8,2.98-4.2-2.29,0-4.57,0-6.86,0-1.47-.17-2.49-1.61-2.61-3.01v-.26c.04-.4.14-.8.39-1.12.47-.59,1.19-.9,1.86-1.19,1.66-.62,3.44-.97,5.22-.93.55.03,1.18.07,1.59.49.53.52.58,1.34.47,2.03-.07.62-.37,1.17-.66,1.71.57.19,1.2.08,1.79.13,2.01-3.57,3.98-7.16,5.87-10.79.33-.63.57-1.33,1.07-1.86.9-1.02,2.28-1.49,3.61-1.6ZM507.52,182.47c-.59.08-1.17.31-1.58.74-.37.33-.54.82-.78,1.24-1.97,3.81-3.94,7.61-5.91,11.42-.15.29-.27.67-.06.96.17.21.46.26.71.27,13.15,0,26.3,0,39.45,0,.35-1.82,1.31-3.51,2.7-4.73,1.48-1.32,3.43-2.08,5.41-2.1,1.82-.04,3.64.53,5.1,1.61,1.7,1.23,2.92,3.14,3.29,5.21,2.45,0,4.9,0,7.34,0,.35,0,.8-.07.93-.44.06-.28-.02-.56-.15-.8-2.11-4.07-4.22-8.15-6.33-12.22-.41-.67-1.17-1.09-1.94-1.18-1.24-.05-2.48-.05-3.71-.04-5.51.02-11.02-.04-16.53-.03-1.62.02-3.25-.06-4.87-.03-3.96.08-7.93-.01-11.89.06h-9.06c-.71,0-1.43-.02-2.14.04ZM544.22,193.63c-1.22.81-2.1,2.08-2.5,3.48,3.94.02,7.87,0,11.81,0-.5-1.89-1.96-3.49-3.81-4.16-1.8-.67-3.92-.42-5.5.67Z"/>
      <path class="cls-1" d="M488.39,206.97c1.3-1.84,2.61-3.68,3.91-5.53,1.25,2.25,2.51,4.5,3.75,6.75-1.04-.11-2.1-.02-3.11.26-1.14.32-2.28,1.07-2.65,2.25-.22.75-.3,1.59-.04,2.34.28.8,1.07,1.26,1.83,1.52,1.48.5,3.04.67,4.58.88,2.63.31,5.27.62,7.92.75.87,0,1.76.05,2.62-.14.33-.09.67-.22.87-.51.23-.37.26-.82.17-1.24,1.69.34,3.39.64,5.08.98.16.79.4,1.56.59,2.35.76,2.95,1.46,5.92,2.31,8.84.28,1,.7,1.99,1.44,2.73.75.74,1.77,1.13,2.78,1.35,1.74.36,3.54.34,5.31.33,4.6,0,9.21,0,13.81,0,1.77-.07,3.64-.16,5.22-1.04,1.19-.66,1.87-1.93,2.23-3.2,1.08-3.76,1.98-7.57,2.94-11.36,1.69-.34,3.39-.65,5.09-.98-.15.58,0,1.35.62,1.6.89.38,1.88.28,2.82.3,1.82-.07,3.63-.25,5.44-.44,1.77-.2,3.55-.38,5.3-.69,1.13-.24,2.35-.44,3.25-1.22.74-.65.78-1.73.62-2.64-.13-1.03-.87-1.9-1.78-2.36-1.25-.64-2.71-.77-4.1-.66,1.24-2.25,2.5-4.5,3.75-6.75,1.3,1.85,2.61,3.69,3.91,5.53.46.7.73,1.5.94,2.31.27,1.06.15,2.15.17,3.23.02.7-.03,1.4-.03,2.1.24.26.48.54.59.88.17.46.14.96.14,1.44,0,8.08,0,16.16,0,24.24.01.73-.35,1.46-.98,1.84-.41.28-.92.34-1.4.34-2.11,0-4.23,0-6.34,0-.5,0-1.03-.08-1.44-.39-.55-.37-.88-1.02-.9-1.68-.02-.93.01-1.87-.01-2.8-.84,0-1.68,0-2.51,0-.61.03-1.27-.03-1.76-.43-.66-.47-.89-1.32-.84-2.09-2.11,0-4.23,0-6.34,0-1.21.01-2.45.02-3.61-.35-1.02-.31-1.97-.84-3.04-1.02-1.58-.3-3.19-.15-4.78-.18-4-.01-8,.01-12,.03-4.27-.06-8.53-.02-12.8-.03-1.07,0-2.15.1-3.16.44-.73.23-1.42.59-2.16.8-.95.28-1.95.33-2.93.32h-6.9c0,.48-.02,1-.27,1.43-.36.68-1.12,1.11-1.89,1.09-.99,0-1.97,0-2.96,0-.03.99.02,1.98-.02,2.96-.07,1.06-1.06,1.93-2.12,1.9-2.11.02-4.22,0-6.33.01-.52,0-1.08-.01-1.54-.3-.67-.37-1.07-1.13-1.06-1.89,0-8.3,0-16.61,0-24.91-.03-.65.34-1.2.73-1.68,0-.69-.05-1.37-.02-2.06.03-1.05-.09-2.12.15-3.15.19-.84.49-1.67.96-2.39ZM490.82,224.94c-.29.06-.55.28-.6.58-.02.53,0,1.07.07,1.59.21,1.61.64,3.28,1.72,4.53.64.76,1.61,1.21,2.61,1.19,4.37,0,8.74,0,13.11,0,.68,0,1.38.03,2.05-.1.66-.21,1.26-.58,1.88-.89.32-.2.71-.35.92-.67.14-.31-.16-.54-.38-.7-1.38-1.02-2.83-1.95-4.27-2.88-.7-.45-1.54-.58-2.35-.71-4.46-.74-8.93-1.49-13.43-1.94-.44-.03-.9-.13-1.34,0ZM570.69,224.98c-4.48.48-8.93,1.21-13.38,1.96-.72.12-1.45.29-2.07.7-1.41.92-2.83,1.83-4.19,2.84-.22.16-.52.38-.38.69.23.36.65.51.99.72.84.43,1.67,1,2.65.94,4.7.02,9.4,0,14.11.01.68,0,1.39-.1,1.98-.47.87-.54,1.47-1.43,1.85-2.37.56-1.38.82-2.88.8-4.36.01-.33-.24-.6-.55-.68-.59-.17-1.2,0-1.8.02Z"/>
      <path class="cls-1" d="M515.6,213.49c10.66-.01,21.32,0,31.98,0,.31,0,.61.22.7.52.19.47-.18,1.06-.7,1.06-10.66,0-21.33,0-31.99,0-.88-.07-.88-1.5,0-1.57Z"/>
      <path class="cls-1" d="M516.15,216.31c1.38-.06,2.77,0,4.15-.03h26.6c.47,0,.85.54.7.99-.08.36-.45.61-.81.59-10.11,0-20.22,0-30.34,0-.36.02-.74-.22-.81-.59-.14-.39.12-.84.51-.96Z"/>
      <path class="cls-1" d="M517.05,219.01c9.61-.03,19.23,0,28.84-.01.38-.05.81.16.91.55.18.46-.19,1.03-.68,1.03-9.66,0-19.32,0-28.98,0-.5,0-.88-.58-.7-1.03.08-.27.32-.49.61-.53Z"/>
      <path class="cls-1" d="M517.63,221.74c.23-.12.5-.07.75-.07,8.99,0,17.97,0,26.96,0,.45.02.78.5.68.93-.06.38-.43.66-.81.64-9.06,0-18.12,0-27.18,0-.34,0-.67-.21-.77-.54-.13-.36.04-.79.37-.97Z"/>
      <path class="cls-1" d="M518.66,224.47c8.59-.02,17.18,0,25.76-.01.5-.03.93.53.76,1.01-.09.33-.41.57-.75.57-8.53,0-17.06,0-25.59,0-.5.03-.91-.51-.77-.98.06-.29.31-.52.59-.59Z"/>
      <path class="cls-1" d="M519.21,227.18c.13-.08.27-.12.42-.11,7.85,0,15.7,0,23.54,0,.33,0,.72-.06.98.2.39.3.35.96-.05,1.24-.2.16-.46.14-.7.14-7.99,0-15.97,0-23.96,0-.69-.1-.85-1.14-.24-1.46Z"/>
      <path class="cls-1" d="M521.81,123.68c2.81-1.61,6.03-2.48,9.27-2.6.73-.04,1.45.03,2.18.08,3.85.29,7.58,1.77,10.61,4.15,1.19.93,2.26,2.01,3.23,3.16.79.94,1.51,1.95,2.13,3.01,1.48,2.5,2.41,5.32,2.67,8.21.31,3.25-.18,6.55-1.27,9.61-.92,2.62-2.24,5.09-3.79,7.38-1.49,2.16-3.08,4.26-4.68,6.34-3.44,4.47-6.96,8.88-10.51,13.26-.99-1.15-1.91-2.36-2.87-3.53-3.49-4.38-6.99-8.75-10.32-13.26-.72-.98-1.44-1.95-2.12-2.96-1.31-1.96-2.46-4.05-3.33-6.25-1.01-2.54-1.62-5.24-1.73-7.97v-1.35c.05-.94.13-1.88.3-2.81.46-2.68,1.49-5.25,2.99-7.51,1.84-2.84,4.31-5.3,7.26-6.98ZM530.39,132.07c-2.68.3-5.2,1.74-6.82,3.9-1.28,1.68-1.98,3.79-1.93,5.91,0,1.54.42,3.07,1.15,4.43.92,1.7,2.36,3.1,4.07,4,3.05,1.63,6.93,1.56,9.91-.21,1.32-.77,2.47-1.85,3.3-3.14,1.05-1.6,1.6-3.52,1.55-5.43-.03-1.61-.48-3.21-1.3-4.6-1.03-1.76-2.62-3.18-4.48-4.02-1.69-.77-3.6-1.05-5.45-.83Z"/>
      <g>
        <path class="cls-1" d="M786.16,677.16c2.37-3.23,3.67-6.97,3.63-10.65-.07-5.04-2.65-9.93-7.02-13.29-3.39,4.35-4.67,9.73-3.46,14.62.89,3.62,3.13,6.95,6.29,9.49-.12,2.53-.3,5.05-.55,7.56-.19-1.92-.69-3.77-1.49-5.46-2.17-4.55-6.57-7.9-11.95-9.11-1.25,5.37-.15,10.79,2.99,14.73,2.33,2.92,5.77,5.01,9.72,5.98-.2,1.4-.41,2.79-.65,4.18-.55,3.33-1.22,6.63-2,9.91-.13-1.92-.55-3.78-1.27-5.51-2.06-4.94-6.53-8.73-12.17-10.31-1.62,5.63-.75,11.43,2.37,15.78,2.19,3.06,5.47,5.37,9.33,6.66-1.42,4.94-3.1,9.8-5.02,14.55.3-2.83.03-5.64-.82-8.23-1.86-5.66-6.51-10.24-12.63-12.48-2.27,6.11-1.81,12.61,1.29,17.7,2.19,3.61,5.69,6.48,9.91,8.24-2.25,4.95-4.78,9.76-7.54,14.44.58-3.33.46-6.67-.38-9.79-1.78-6.55-6.8-12.05-13.64-14.96-2.95,6.82-2.81,14.26.42,20.24,2.21,4.11,5.86,7.5,10.37,9.76-1.42,2.22-2.9,4.41-4.41,6.57l-2.53,3.44-1.27,1.72-.63.86-.68.83c-.96,1.16-1.91,2.33-2.87,3.5,1.63-3.67,2.4-7.56,2.16-11.37-.45-7.23-4.5-14.05-11.01-18.57-4.56,6.48-6.01,14.28-3.94,21.22,1.48,4.98,4.76,9.46,9.26,12.85-1.61,1.76-3.2,3.54-4.84,5.28-2.02,2.02-4.07,4.02-6.08,6.07h0s0,.13,0,.13h.14c2.21-1.82,4.37-3.71,6.57-5.57,2.09-1.98,4.11-4.02,6.17-6.04,1.03-1.01,1.94-2.12,2.91-3.19l2.87-3.24c.21-.24.42-.47.62-.71,4.82,3,10.24,4.44,15.45,4.01,7.22-.6,13.95-4.8,18.33-11.4-6.58-4.42-14.4-5.7-21.3-3.49-2.46.79-4.78,2.02-6.91,3.62,3.13-4.36,5.96-8.93,8.52-13.65,4.77,2.36,9.95,3.21,14.77,2.33,6.68-1.22,12.59-5.75,16.07-12.31-6.54-3.53-13.96-4.01-20.2-1.31-2.91,1.26-5.55,3.21-7.76,5.68,1.57-3.23,3.01-6.52,4.34-9.85.86-2.15,1.67-4.32,2.43-6.5,4.49,1.55,9.17,1.7,13.32.34,5.66-1.85,10.25-6.49,12.5-12.6-6.1-2.29-12.61-1.83-17.71,1.25-2.73,1.65-5.03,4.04-6.76,6.93,1.85-5.87,3.33-11.86,4.44-17.92,4.32.19,8.44-.9,11.69-3.18,4.39-3.07,7.12-8.26,7.46-14.1-5.84-.37-11.32,1.72-14.9,5.7-1.39,1.54-2.48,3.36-3.25,5.36.76-5.55,1.2-11.15,1.33-16.74Z"/>
        <path class="cls-1" d="M277.1,677.16c-2.37-3.23-3.67-6.97-3.63-10.65.07-5.04,2.65-9.93,7.02-13.29,3.39,4.35,4.67,9.73,3.46,14.62-.89,3.62-3.13,6.95-6.29,9.49.12,2.53.3,5.05.55,7.56.19-1.92.69-3.77,1.49-5.46,2.17-4.55,6.57-7.9,11.95-9.11,1.25,5.37.15,10.79-2.99,14.73-2.33,2.92-5.77,5.01-9.72,5.98.2,1.4.41,2.79.65,4.18.55,3.33,1.22,6.63,2,9.91.13-1.92.55-3.78,1.27-5.51,2.06-4.94,6.53-8.73,12.17-10.31,1.62,5.63.75,11.43-2.37,15.78-2.19,3.06-5.47,5.37-9.33,6.66,1.42,4.94,3.1,9.8,5.02,14.55-.3-2.83-.03-5.64.82-8.23,1.86-5.66,6.51-10.24,12.63-12.48,2.27,6.11,1.81,12.61-1.29,17.7-2.19,3.61-5.69,6.48-9.91,8.24,2.25,4.95,4.78,9.76,7.54,14.44-.58-3.33-.46-6.67.38-9.79,1.78-6.55,6.8-12.05,13.64-14.96,2.95,6.82,2.81,14.26-.42,20.24-2.21,4.11-5.86,7.5-10.37,9.76,1.42,2.22,2.9,4.41,4.41,6.57l2.53,3.44,1.27,1.72.63.86.68.83c.96,1.16,1.91,2.33,2.87,3.5-1.63-3.67-2.4-7.56-2.16-11.37.45-7.23,4.5-14.05,11.01-18.57,4.56,6.48,6.01,14.28,3.94,21.22-1.48,4.98-4.76,9.46-9.26,12.85,1.61,1.76,3.2,3.54,4.84,5.28,2.02,2.02,4.07,4.02,6.08,6.07h0s0,.13,0,.13h-.14c-2.21-1.82-4.37-3.71-6.57-5.57-2.09-1.98-4.11-4.02-6.17-6.04-1.03-1.01-1.94-2.12-2.91-3.19l-2.87-3.24c-.21-.24-.42-.47-.62-.71-4.82,3-10.24,4.44-15.45,4.01-7.22-.6-13.95-4.8-18.33-11.4,6.58-4.42,14.4-5.7,21.3-3.49,2.46.79,4.78,2.02,6.91,3.62-3.13-4.36-5.96-8.93-8.52-13.65-4.77,2.36-9.95,3.21-14.77,2.33-6.68-1.22-12.59-5.75-16.07-12.31,6.54-3.53,13.96-4.01,20.2-1.31,2.91,1.26,5.55,3.21,7.76,5.68-1.57-3.23-3.01-6.52-4.34-9.85-.86-2.15-1.67-4.32-2.43-6.5-4.49,1.55-9.17,1.7-13.32.34-5.66-1.85-10.25-6.49-12.5-12.6,6.1-2.29,12.61-1.83,17.71,1.25,2.73,1.65,5.03,4.04,6.76,6.93-1.85-5.87-3.33-11.86-4.44-17.92-4.32.19-8.44-.9-11.69-3.18-4.39-3.07-7.12-8.26-7.46-14.1,5.84-.37,11.32,1.72,14.9,5.7,1.39,1.54,2.48,3.36,3.25,5.36-.76-5.55-1.2-11.15-1.33-16.74Z"/>
      </g>
    </g>
  </g>
</svg>