<?xml version="1.0" encoding="UTF-8"?>
<svg id="Capa_2" data-name="Capa 2" xmlns="http://www.w3.org/2000/svg" viewBox="0 0 86.57 72.83">
  <defs>
    <style>
      .cls-1 {
        fill: #8f8f8f;
      }
    </style>
  </defs>
  <g id="Capa_1-2" data-name="Capa 1">
    <g>
      <path class="cls-1" d="M25.52,4.59C31.76,1.11,39.04-.46,46.16.12c7.17.54,14.15,3.28,19.78,7.76,4.58,3.6,8.29,8.29,10.77,13.56,2.2,4.7,3.36,9.87,3.47,15.05,1.51.5,2.91,1.35,3.97,2.54,1.53,1.65,2.36,3.88,2.43,6.12v18.74c-.05,2.08-.82,4.11-2.15,5.71-1.57,1.94-3.97,3.19-6.48,3.23-2.42.03-4.85,0-7.27.01,0-9.77,0-19.54,0-29.31-.02-4.23.16-8.53-.81-12.68-1.61-7.04-6.13-13.37-12.29-17.14-6.85-4.34-15.71-5.29-23.33-2.52-6.61,2.31-12.21,7.31-15.33,13.58-1.59,3.16-2.55,6.62-2.83,10.14-.05,1.35-.19,2.7-.16,4.06,0,11.29,0,22.59,0,33.88-2.03,0-4.07,0-6.1,0-1.32.02-2.67-.05-3.91-.54-3.43-1.26-5.83-4.76-5.9-8.4v-18.75c.06-1.22.28-2.43.77-3.55,1.01-2.41,3.12-4.32,5.61-5.1.13-6.36,1.84-12.71,5.12-18.17,3.33-5.71,8.24-10.49,14.01-13.73Z"/>
      <path class="cls-1" d="M21.37,36.84c1.15-.27,2.43.15,3.18,1.08.52.61.75,1.41.74,2.2,0,9.75,0,19.51,0,29.26.02.84-.23,1.7-.81,2.33-.76.88-2.03,1.27-3.16.98-1.16-.28-2.11-1.26-2.34-2.43-.09-.51-.08-1.03-.08-1.55,0-9.58,0-19.15,0-28.73-.04-1.45,1.04-2.83,2.47-3.13Z"/>
      <path class="cls-1" d="M63.81,36.83c1.27-.29,2.67.3,3.36,1.41.41.6.52,1.34.51,2.05,0,9.75,0,19.5,0,29.25.02,1.11-.57,2.19-1.51,2.76-1.13.72-2.71.61-3.72-.27-.79-.63-1.18-1.66-1.15-2.66,0-9.8,0-19.6,0-29.4-.03-1.47,1.08-2.87,2.52-3.15Z"/>
    </g>
  </g>
</svg>