<?xml version="1.0" encoding="UTF-8"?>
<svg id="Capa_2" data-name="Capa 2" xmlns="http://www.w3.org/2000/svg" viewBox="0 0 1834.6 31.57">
  <defs>
    <style>
      .cls-1 {
        fill: #c1342a;
      }

      .cls-2 {
        fill: #ba9f13;
      }

      .cls-3 {
        fill: #0063c6;
      }

      .cls-4 {
        fill: #747570;
      }
    </style>
  </defs>
  <g id="Capa_1-2" data-name="Capa 1">
    <g>
      <path class="cls-4" d="M1834.6,0v31.57h-167.02c0-10.46,0-20.92,0-31.37,55.67-.07,111.35-.13,167.02-.2Z"/>
      <path class="cls-1" d="M1339.43,0l.68.19c-.52.01-1.03.03-1.53.04,0,10.45,0,20.9,0,31.35h-586.97c0-10.48,0-20.96,0-31.45,195.94-.04,391.88-.08,587.82-.12Z"/>
      <path class="cls-3" d="M.11.13c250.5,0,501,0,751.5,0,0,10.48,0,20.96,0,31.45H0C.04,21.09.08,10.61.11.13Z"/>
      <path class="cls-2" d="M1338.57,0c109.67.07,219.33.13,329,.2,0,10.46,0,20.92,0,31.37h-329c0-10.52,0-21.05,0-31.57Z"/>
    </g>
  </g>
</svg>