<?xml version="1.0" encoding="UTF-8"?>
<svg xmlns="http://www.w3.org/2000/svg" xmlns:xlink="http://www.w3.org/1999/xlink" viewBox="0 0 155.42 155.42">
  <defs>
    <style>
      .cls-1 {
        fill: #00a152;
      }

      .cls-2 {
        fill: url(#linear-gradient-2);
      }

      .cls-2, .cls-3, .cls-4, .cls-5, .cls-6 {
        mix-blend-mode: screen;
      }

      .cls-7 {
        fill: url(#Degradado_sin_nombre_227);
      }

      .cls-3 {
        fill: url(#radial-gradient);
      }

      .cls-8 {
        isolation: isolate;
      }

      .cls-4 {
        fill: url(#radial-gradient-3);
      }

      .cls-5 {
        fill: url(#linear-gradient-3);
      }

      .cls-9 {
        fill: url(#radial-gradient-2);
        mix-blend-mode: multiply;
      }

      .cls-10 {
        fill: url(#Degradado_sin_nombre_227-2);
      }

      .cls-6 {
        fill: url(#linear-gradient);
      }
    </style>
    <radialGradient id="radial-gradient" cx="-9.52" cy="-4" fx="-9.52" fy="-4" r="244.04" gradientUnits="userSpaceOnUse">
      <stop offset="0" stop-color="#636363"/>
      <stop offset=".03" stop-color="#5c5c5c"/>
      <stop offset=".21" stop-color="#3a3a3a"/>
      <stop offset=".4" stop-color="#212121"/>
      <stop offset=".59" stop-color="#0e0e0e"/>
      <stop offset=".78" stop-color="#030303"/>
      <stop offset="1" stop-color="#000"/>
    </radialGradient>
    <linearGradient id="linear-gradient" x1="6.04" y1="-3.14" x2="148.93" y2="158.06" gradientUnits="userSpaceOnUse">
      <stop offset=".31" stop-color="#000"/>
      <stop offset=".67" stop-color="#292929"/>
      <stop offset=".78" stop-color="#141414"/>
      <stop offset=".9" stop-color="#050505"/>
      <stop offset="1" stop-color="#000"/>
    </linearGradient>
    <linearGradient id="linear-gradient-2" x1="15.06" y1="2.78" x2="142.88" y2="155.66" gradientUnits="userSpaceOnUse">
      <stop offset="0" stop-color="#e8e8e8"/>
      <stop offset=".05" stop-color="#b7b7b7"/>
      <stop offset=".11" stop-color="gray"/>
      <stop offset=".17" stop-color="#525252"/>
      <stop offset=".23" stop-color="#2e2e2e"/>
      <stop offset=".29" stop-color="#141414"/>
      <stop offset=".34" stop-color="#050505"/>
      <stop offset=".38" stop-color="#000"/>
      <stop offset=".66" stop-color="#adadad"/>
      <stop offset=".69" stop-color="#989898"/>
      <stop offset=".76" stop-color="#696969"/>
      <stop offset=".83" stop-color="#444"/>
      <stop offset=".9" stop-color="#292929"/>
      <stop offset=".96" stop-color="#191919"/>
      <stop offset="1" stop-color="#141414"/>
    </linearGradient>
    <radialGradient id="Degradado_sin_nombre_227" data-name="Degradado sin nombre 227" cx="-68.58" cy="203.45" fx="-68.58" fy="203.45" r="424.44" gradientTransform="translate(131.42 52.05) rotate(-180) scale(.5 -.5)" gradientUnits="userSpaceOnUse">
      <stop offset="0" stop-color="#cbff4e"/>
      <stop offset=".1" stop-color="#c3fb4e"/>
      <stop offset=".25" stop-color="#aef24e"/>
      <stop offset=".44" stop-color="#8de24f"/>
      <stop offset=".65" stop-color="#5ecc50"/>
      <stop offset=".88" stop-color="#23b151"/>
      <stop offset="1" stop-color="#00a152"/>
    </radialGradient>
    <radialGradient id="Degradado_sin_nombre_227-2" data-name="Degradado sin nombre 227" cx="245.08" cy="-75.99" fx="245.08" fy="-75.99" r="443.41" xlink:href="#Degradado_sin_nombre_227"/>
    <radialGradient id="radial-gradient-2" cx="98.15" cy="66.6" fx="98.15" fy="66.6" r="162.62" gradientTransform="translate(131.42 52.05) rotate(-180) scale(.5 -.5)" gradientUnits="userSpaceOnUse">
      <stop offset=".61" stop-color="#fff"/>
      <stop offset=".65" stop-color="#fbfcfd"/>
      <stop offset=".68" stop-color="#f1f4f9"/>
      <stop offset=".71" stop-color="#dfe7f2"/>
      <stop offset=".74" stop-color="#c7d4e9"/>
      <stop offset=".77" stop-color="#a7bcdd"/>
      <stop offset=".8" stop-color="#809ece"/>
      <stop offset=".83" stop-color="#527bbc"/>
      <stop offset=".85" stop-color="#1e53a7"/>
      <stop offset=".87" stop-color="#003c9c"/>
    </radialGradient>
    <radialGradient id="radial-gradient-3" cx="125.01" cy="28.92" fx="125.01" fy="28.92" r="173.13" gradientTransform="translate(131.42 52.05) rotate(-180) scale(.5 -.5)" gradientUnits="userSpaceOnUse">
      <stop offset=".61" stop-color="#000"/>
      <stop offset=".65" stop-color="#000203"/>
      <stop offset=".68" stop-color="#000c0d"/>
      <stop offset=".71" stop-color="#001b1f"/>
      <stop offset=".74" stop-color="#003137"/>
      <stop offset=".77" stop-color="#004c57"/>
      <stop offset=".8" stop-color="#006f7e"/>
      <stop offset=".83" stop-color="#0097ac"/>
      <stop offset=".85" stop-color="#00c5e0"/>
      <stop offset=".87" stop-color="#00e0fe"/>
    </radialGradient>
    <linearGradient id="linear-gradient-3" x1="-6.34" y1="11.24" x2="90.84" y2="120.89" gradientUnits="userSpaceOnUse">
      <stop offset="0" stop-color="#4f4f4f"/>
      <stop offset=".27" stop-color="#4b4b4b"/>
      <stop offset=".48" stop-color="#414141"/>
      <stop offset=".67" stop-color="#313131"/>
      <stop offset=".85" stop-color="#191919"/>
      <stop offset="1" stop-color="#000"/>
    </linearGradient>
  </defs>
  <g class="cls-8">
    <g id="Capa_2" data-name="Capa 2">
      <g id="Layer_1" data-name="Layer 1">
        <path class="cls-3" d="M15.52,3.23h124.38c6.78,0,12.29,5.51,12.29,12.29v124.38c0,6.78-5.51,12.29-12.29,12.29H15.52c-6.78,0-12.29-5.51-12.29-12.29V15.52c0-6.78,5.51-12.29,12.29-12.29Z"/>
        <path class="cls-6" d="M15.52,3.23h124.38c6.78,0,12.29,5.51,12.29,12.29v124.38c0,6.78-5.51,12.29-12.29,12.29H15.52c-6.78,0-12.29-5.51-12.29-12.29V15.52c0-6.78,5.51-12.29,12.29-12.29Z"/>
        <path class="cls-2" d="M139.9,0H15.52C6.96,0,0,6.96,0,15.52v124.38c0,8.56,6.96,15.52,15.52,15.52h124.38c8.56,0,15.52-6.96,15.52-15.52V15.52c0-8.56-6.96-15.52-15.52-15.52ZM152.19,139.9c0,6.79-5.5,12.29-12.29,12.29H15.52c-6.79,0-12.29-5.5-12.29-12.29V15.52c0-6.79,5.5-12.29,12.29-12.29h124.38c6.79,0,12.29,5.5,12.29,12.29v124.38Z"/>
        <path class="cls-7" d="M14.05,77.7c0,35.15,28.51,63.65,63.67,63.65s63.65-28.5,63.65-63.65S112.86,14.06,77.72,14.06,14.05,42.55,14.05,77.7Z"/>
        <path class="cls-10" d="M17.92,77.7c0,33.02,26.77,59.79,59.79,59.79s59.79-26.77,59.79-59.79-26.77-59.79-59.79-59.79-59.79,26.77-59.79,59.79Z"/>
        <path class="cls-9" d="M16.96,77.94c0,33.02,26.77,59.79,59.79,59.79s59.79-26.77,59.79-59.79-26.77-59.79-59.79-59.79-59.79,26.77-59.79,59.79Z"/>
        <path class="cls-4" d="M13.82,76.99c0,35.16,28.5,63.66,63.66,63.66s63.65-28.49,63.65-63.66S112.63,13.34,77.48,13.34,13.82,41.84,13.82,76.99Z"/>
        <g>
          <path class="cls-1" d="M72.64,44.6c5.22-.74,10.61-.32,15.65,1.27,4.44,1.38,8.57,3.69,12.12,6.67-2.57.99-5.07,2.35-7.01,4.33-3.64-2.5-7.93-3.99-12.31-4.49-6.78-.79-13.92.74-19.51,4.73-1.86-2.02-4.32-3.38-6.83-4.42,5.03-4.33,11.32-7.17,17.89-8.09Z"/>
          <path class="cls-1" d="M49.1,53.3c.26-.44.79-.59,1.27-.62,1.07-.06,2.13.21,3.14.53,1.29.42,2.53.99,3.71,1.65,1.51.88,2.98,1.9,4.07,3.28.57.74,1.06,1.63,1.01,2.59-.01.63-.34,1.26-.89,1.58-.44.29-.97.39-1.47.51-1.48-1.07-2.95-2.15-4.44-3.21,1.42,1.16,2.85,2.3,4.28,3.44.08.98.23,2.11-.39,2.96-.68.71-1.74.82-2.66.93-1.54-1.17-3.06-2.36-4.61-3.51,1.45,1.24,2.91,2.47,4.37,3.7-.05.78-.06,1.62-.49,2.3-.47.56-1.23.72-1.91.88-1.51-.99-3-2.02-4.53-3,1.43,1.1,2.9,2.15,4.34,3.24-.07.56-.07,1.17-.39,1.66-.44.47-1.2.76-1.79.42-.93-.5-1.86-.99-2.79-1.47-1.7-.86-3.2-2.06-4.75-3.15-.67-.46-.59-1.39-.45-2.09.11-.5.66-.76.76-1.24-.32-.93-.85-1.95-.48-2.95.38-.67,1.12-1.04,1.82-1.27.26-.06.34-.38.24-.6-.25-.82-.51-1.72-.25-2.57.3-.74,1.06-1.13,1.75-1.44.28-.15.66-.17.87-.42.2-.71.23-1.49.65-2.12Z"/>
          <path class="cls-1" d="M101.32,53.18c1.12-.33,2.29-.65,3.46-.45.5.08.89.46,1.07.92.23.52.32,1.09.42,1.65.06.31.43.33.66.44.75.3,1.57.68,1.96,1.43.39.95-.03,1.97-.24,2.9,0,.44.54.42.83.59.51.28,1.1.6,1.32,1.18.28.98-.21,1.93-.52,2.84.02.34.38.53.54.82.33.42.31.98.31,1.49,0,.43-.24.85-.6,1.09-1.21.85-2.39,1.75-3.65,2.53-1.24.71-2.53,1.33-3.78,2.02-.63.39-1.47.07-1.9-.47-.25-.49-.27-1.06-.32-1.61,1.47-1.07,2.92-2.17,4.39-3.25-1.55.97-3.05,2.03-4.59,3.03-.68-.18-1.45-.32-1.91-.9-.42-.68-.41-1.52-.48-2.29,1.46-1.21,2.92-2.44,4.36-3.68-1.55,1.15-3.06,2.34-4.6,3.51-.93-.12-2-.22-2.67-.95-.6-.85-.45-1.96-.38-2.93,1.48-1.19,2.97-2.37,4.45-3.57-1.55,1.1-3.07,2.22-4.61,3.33-.67-.17-1.41-.33-1.88-.89-.63-.69-.55-1.75-.2-2.56.61-1.38,1.76-2.42,2.94-3.31,1.71-1.26,3.64-2.23,5.66-2.89Z"/>
          <path class="cls-1" d="M89.22,55.46c1.26.57,2.46,1.26,3.61,2.02-.76.98-1.34,2.15-1.28,3.42-.58-.35-.91-.97-1.16-1.58-.47-1.09-.61-2.29-1.11-3.37-.07-.16-.05-.33-.06-.5Z"/>
          <path class="cls-1" d="M62.12,57.75c1.09-.77,2.23-1.46,3.43-2.02-.54,1.19-.72,2.49-1.22,3.69-.25.57-.57,1.16-1.13,1.48.06-1.14-.41-2.24-1.08-3.15Z"/>
          <path class="cls-1" d="M71.54,68.39c2.03-.92,4.25-1.41,6.48-1.35,1.85.03,3.67.46,5.37,1.17,2.1.88,4.06,2.06,5.87,3.43,1.76,1.29,3.43,2.72,5.37,3.73,1.5.81,3.17,1.29,4.87,1.42.52,1.07.9,2.26.7,3.46-.2,1.25-.9,2.33-1.56,3.38-.08.09-.14.3-.29.22-2.01-.69-4.23-.71-6.27-.11-3.1.89-5.77,2.93-7.77,5.43-1.3,1.64-2.33,3.5-2.94,5.5-.56,1.82-.74,3.76-.4,5.64-.61.49-1.32.85-2.08,1.02-.54.13-1.09.09-1.64.1-1.06-.02-2.06-.48-2.9-1.1.41-2.27.07-4.62-.77-6.76-1.2-3.02-3.27-5.69-5.88-7.61-1.92-1.41-4.19-2.41-6.58-2.61-1.44-.14-2.89.1-4.27.54-.77-1.14-1.54-2.34-1.74-3.73-.18-1.17.22-2.32.71-3.36,1.8-.13,3.55-.67,5.12-1.56,1.8-.99,3.38-2.31,5.02-3.52,1.73-1.3,3.58-2.48,5.57-3.33ZM76.65,69.14c-1.55.26-2.98,1.16-3.89,2.44-.78,1.07-1.18,2.41-1.12,3.74.06,2.15,1.38,4.22,3.32,5.17,1.24.63,2.7.81,4.05.5,1.57-.35,2.98-1.37,3.82-2.74.76-1.22,1.05-2.72.81-4.14-.26-1.61-1.21-3.1-2.57-4.01-1.27-.88-2.88-1.2-4.4-.95ZM76.61,82.8c-.74.06-1.48.19-2.18.45-.45.17-.9.4-1.2.78-.34.41-.42,1.03-.15,1.5.26.47.74.77,1.22.96.94.37,1.95.49,2.95.53,1.21.03,2.44-.07,3.59-.46.57-.2,1.12-.54,1.42-1.08.24-.49.13-1.12-.25-1.52-.45-.49-1.11-.73-1.74-.9-1.19-.3-2.44-.34-3.66-.26Z"/>
          <path class="cls-1" d="M111.25,68.63c2.57,7.85,2.25,16.6-.87,24.24-2.48,6.12-6.74,11.48-12.09,15.34-5.91,4.3-13.19,6.64-20.49,6.64-4.57.02-9.14-.85-13.38-2.56-7.19-2.89-13.33-8.24-17.24-14.92-2.11-3.58-3.56-7.54-4.28-11.63-.98-5.57-.63-11.38,1.07-16.78,1.24.84,2.42,1.79,3.73,2.54,1.23.68,2.49,1.31,3.74,1.98.03.8.12,1.66.66,2.3.65.81,1.74,1.04,2.73,1.06-.49,1.1-.79,2.33-.59,3.54.23,1.43.99,2.69,1.79,3.87-.66.35-1.37.66-1.89,1.21-.85.96-1,2.36-.79,3.59.22,1.15.7,2.23,1.19,3.28,1.7,3.44,4.51,6.21,7.61,8.41,1.71,1.22,3.52,2.3,5.38,3.28,1.04.52,2.24.74,3.4.57.87-.13,1.76-.53,2.27-1.28.42-.63.68-1.35.92-2.06,2.05,1.47,5.05,1.49,7.1,0,.36.99.69,2.12,1.62,2.74,1.07.72,2.46.77,3.69.49.96-.21,1.8-.75,2.65-1.22,2.94-1.67,5.77-3.59,8.12-6.04,1.95-2.02,3.52-4.43,4.41-7.09.38-1.07.51-2.25.2-3.35-.18-.64-.53-1.26-1.08-1.66-.47-.34-1-.61-1.52-.86.8-1.21,1.59-2.48,1.8-3.94.17-1.19-.12-2.39-.6-3.47.93-.01,1.94-.21,2.6-.91.69-.72.81-1.78.76-2.73,1.17-.64,2.37-1.21,3.52-1.88,1.33-.83,2.58-1.78,3.86-2.68Z"/>
          <path class="cls-1" d="M77.07,69.99c1.31-.16,2.68.21,3.72,1.03,1.26.95,2.03,2.51,2.01,4.09.02,1.58-.76,3.13-2.01,4.08-1.12.86-2.59,1.23-3.98.98-1.2-.19-2.3-.85-3.09-1.77-1.13-1.33-1.5-3.26-.94-4.92.59-1.87,2.34-3.29,4.29-3.5Z"/>
          <path class="cls-1" d="M76.83,83.69c1.13-.07,2.28-.01,3.38.29.41.13.86.27,1.16.62.19.2.13.53-.08.7-.45.39-1.05.54-1.62.66-1.62.28-3.33.28-4.91-.24-.4-.16-1.03-.42-.93-.96.2-.45.72-.6,1.15-.75.6-.19,1.22-.27,1.85-.32Z"/>
        </g>
        <path class="cls-5" d="M95.15,3.23H15.52c-6.79,0-12.29,5.5-12.29,12.29v124.38c0,6.79,5.5,12.29,12.29,12.29h32.53l4.86-15.83-1.58-4.97s15.51-12.49,26.37-53.67c10.86-41.18,9.6-58.88,9.6-58.88l4.59-3.18,3.25-12.41Z"/>
      </g>
    </g>
  </g>
</svg>