<?xml version="1.0" encoding="UTF-8"?>
<svg id="Capa_2" data-name="Capa 2" xmlns="http://www.w3.org/2000/svg" viewBox="0 0 212.38 57.44">
  <defs>
    <style>
      .cls-1 {
        fill: #5b6e30;
      }

      .cls-2 {
        fill: #6fa02e;
      }

      .cls-3 {
        fill: #a1c568;
      }

      .cls-4 {
        fill: #819b53;
      }

      .cls-5 {
        fill: #93af56;
      }

      .cls-6 {
        fill: #1f3b5e;
      }

      .cls-7 {
        fill: #b3ce48;
      }

      .cls-8 {
        fill: #642482;
      }
    </style>
  </defs>
  <g id="Capa_1-2" data-name="Capa 1">
    <g>
      <rect class="cls-3" x="3.25" y="5.95" width="206.54" height="46.34"/>
      <polygon class="cls-1" points="210.16 23.95 210.16 49.52 154.01 49.52 158.15 53.66 122.07 53.66 122.07 53.08 156.74 53.08 152.61 48.94 209.58 48.94 209.58 23.37 210.16 23.95"/>
      <polygon class="cls-8" points="210.64 24.44 211.48 24.44 211.48 25.28 210.64 24.44"/>
      <path class="cls-1" d="M72.8,49.85l-.62.62-.07-.07-4.42-4.42-2.77-2.77c-1.65,0-14.26.03-26.89.05-7.87,0-14.14.01-18.64,0q-8.67,0-8.84-.18c-.18-.18-.21-.21-.17-9.23.01-3.89.04-7.77.05-8.64l-.78-.78-.05-.05h1.23l.05.05.42.42v.18c-.05,6.22-.09,15.42-.03,17.32,3.79.08,36.36.02,53.84-.02h.18s3.64,3.64,3.64,3.64l3.87,3.87Z"/>
      <polygon class="cls-1" points="130.38 54.99 .9 54.99 .9 24.44 5.81 24.44 5.81 24.39 6.1 24.39 6.1 50.4 125.79 50.4 128.46 53.08 129.05 53.66 130.38 54.99"/>
      <polygon class="cls-2" points="89.77 57.31 51.63 57.31 45.28 50.96 14.58 50.96 10.55 54.99 8.1 57.44 .9 50.23 0 49.33 0 24.44 5.81 24.44 5.81 45.98 78.47 45.98 78.87 46.38 78.83 46.38 82.85 50.4 87.44 54.99 89.77 57.31"/>
      <polygon class="cls-7" points="82.68 46.5 82.28 46.11 87.19 46.11 87.58 46.5 87.55 46.5 98.48 57.44 93.58 57.44 82.64 46.5 82.68 46.5"/>
      <polygon class="cls-4" points="90.77 46.5 90.37 46.11 95.28 46.11 95.67 46.5 95.64 46.5 106.57 57.44 101.67 57.44 90.73 46.5 90.77 46.5"/>
      <polygon class="cls-1" points="98.86 46.5 98.47 46.11 103.37 46.11 103.76 46.5 103.73 46.5 114.67 57.44 109.76 57.44 98.82 46.5 98.86 46.5"/>
      <polygon class="cls-4" points="10.3 57.33 15.28 52.35 44 52.35 48.98 57.33 43.45 57.33 40.84 54.72 18.44 54.72 15.83 57.33 10.3 57.33"/>
      <polygon class="cls-1" points="65.97 48.62 71.46 54.1 74.73 54.1 69.24 48.62 65.97 48.62"/>
      <polygon class="cls-1" points="59.76 48.62 65.25 54.1 68.51 54.1 63.02 48.62 59.76 48.62"/>
      <polygon class="cls-1" points="53.55 48.62 59.04 54.1 62.3 54.1 56.81 48.62 53.55 48.62"/>
      <polygon class="cls-6" points="210.16 23.95 210.64 24.44 209.58 24.44 209.58 23.37 210.16 23.95"/>
      <polygon class="cls-1" points="91.59 4.48 91.59 5.06 56.91 5.06 61.04 9.19 4.07 9.19 4.07 35.34 3.49 34.76 3.49 8.61 59.64 8.61 55.5 4.48 91.59 4.48"/>
      <path class="cls-2" d="M201.83,14.36c.18.18.21.21.17,9.23,0,1.47-.01,2.94-.02,4.24h-.87c.03-5.44.04-11.27,0-12.75-3.79-.08-36.36-.02-53.84.02h-.18l-3.64-3.64-3.87-3.87.54-.54.08-.08,4.49,4.49,2.77,2.77c1.65,0,14.26-.03,26.89-.05,7.87,0,14.14-.01,18.64,0q8.67.01,8.84.18Z"/>
      <polygon class="cls-1" points="211.48 2.45 211.48 27.83 206.28 27.83 206.28 7.04 86.59 7.04 84.6 5.06 84.02 4.48 82 2.45 211.48 2.45"/>
      <polygon class="cls-2" points="212.38 8.1 212.38 27.83 206.56 27.83 206.56 11.46 133.91 11.46 133.51 11.06 133.55 11.06 129.53 7.04 124.94 2.45 122.61 .12 160.74 .12 163.07 2.45 167.1 6.48 197.79 6.48 201.82 2.45 204.27 0 212.38 8.1"/>
      <polygon class="cls-1" points="129.7 10.94 130.09 11.33 125.19 11.33 124.8 10.94 124.83 10.94 113.89 0 118.8 0 129.74 10.94 129.7 10.94"/>
      <polygon class="cls-4" points="121.61 10.94 122 11.33 117.1 11.33 116.7 10.94 116.74 10.94 105.8 0 110.71 0 121.65 10.94 121.61 10.94"/>
      <polygon class="cls-7" points="113.52 10.94 113.91 11.33 109.01 11.33 108.61 10.94 108.65 10.94 97.71 0 102.62 0 113.56 10.94 113.52 10.94"/>
      <polygon class="cls-1" points="202.08 .11 197.1 5.09 168.38 5.09 163.4 .11 168.93 .11 171.54 2.72 193.94 2.72 196.55 .11 202.08 .11"/>
      <polygon class="cls-1" points="146.4 8.83 140.92 3.34 137.65 3.34 143.14 8.83 146.4 8.83"/>
      <polygon class="cls-7" points="152.62 8.83 147.13 3.34 143.87 3.34 149.35 8.83 152.62 8.83"/>
      <polygon class="cls-5" points="158.83 8.83 153.34 3.34 150.08 3.34 155.57 8.83 158.83 8.83"/>
    </g>
  </g>
</svg>