<?xml version="1.0" encoding="UTF-8"?>
<svg id="Capa_2" data-name="Capa 2" xmlns="http://www.w3.org/2000/svg" viewBox="0 0 25.93 29.99">
  <defs>
    <style>
      .cls-1 {
        fill: #a1c568;
      }
    </style>
  </defs>
  <g id="Capa_1-2" data-name="Capa 1">
    <g>
      <path class="cls-1" d="M.17,5.81c.44-1.78,1.5-3.4,2.9-4.58.56-.5,1.29-.76,2.03-.85,2.21,2.61,3.3,6.13,3.03,9.54-.61.35-1.24.66-1.76,1.14-.27.35-.25.84-.07,1.22.93,2.36,2.43,4.43,3.96,6.44,1.03,1.27,2.12,2.52,3.43,3.52.32.26.77.44,1.18.3.56-.34,1.05-.78,1.52-1.24.14-.18.38-.07.57-.04,3.07.81,5.91,2.69,7.66,5.36.3.32-.09.66-.25.93-.34.57-.9.94-1.46,1.26-1.49.81-3.21,1.28-4.91,1.13-2.89-.42-5.53-1.87-7.82-3.64-1.5-1.19-2.87-2.53-4.1-4-1.09-1.42-2.2-2.83-3.05-4.42C1.78,15.76.84,13.43.34,11,0,9.29-.13,7.52.17,5.81Z"/>
      <path class="cls-1" d="M6.29.32c.15-.3.51-.26.79-.29.45-.01.98-.11,1.34.22.57.44.97,1.05,1.31,1.68.46.8.79,1.67,1.08,2.55.29.98.55,2,.49,3.03-.03.34-.12.73-.45.92-.46.3-.94.58-1.43.82-.23.09-.35-.18-.32-.37.01-2.3-.55-4.6-1.61-6.64-.37-.65-.8-1.28-1.21-1.91Z"/>
      <path class="cls-1" d="M17.98,19.65c.33-.31.65-.65,1.06-.85.64-.08,1.25.2,1.83.45,1.49.73,2.85,1.74,3.99,2.94.44.59,1.08,1.18,1.07,1.98-.08.48-.28.93-.48,1.37-.05.17-.33.19-.41.02-1.77-2.42-4.38-4.17-7.25-5.02-.15-.03-.4-.15-.3-.35.14-.2.32-.37.49-.55Z"/>
    </g>
  </g>
</svg>