<?xml version="1.0" encoding="UTF-8"?>
<svg id="Capa_2" data-name="Capa 2" xmlns="http://www.w3.org/2000/svg" viewBox="0 0 435.74 308.44">
  <defs>
    <style>
      .cls-1 {
        fill: #000001;
      }
    </style>
  </defs>
  <g id="Layer_1" data-name="Layer 1">
    <path class="cls-1" d="M79.57,25.23C85.32,10.37,100.65.23,116.51.12c52.66-.2,105.32-.11,157.99-.06,6.73.06,13.61-.29,20.16,1.63,12.76,3.52,23.27,13.85,27.32,26.43-4.69,1.15-9.33,2.48-13.97,3.81-5.64-12.52-18.82-21-32.57-20.82-50.31-.02-100.63-.04-150.94,0-14.09-.05-27.67,9.06-32.69,22.26-5.51,14.95-10.89,29.96-16.34,44.93-1.32,3.87-3.38,7.7-2.9,11.92.36,6.58,6.38,12.08,12.9,12.24,41.84.11,83.69-.07,125.53.09-.21,20.49.07,40.98-.14,61.47-19.79-.19-39.58-.07-59.36-.07-7.65-.07-14.69,6.54-14.77,14.25-.07,6.03-.03,12.07-.02,18.11-.16,5.85,3.63,11.5,9.01,13.74,2.77,1.18,5.82,1.31,8.8,1.3,20.39-.07,40.79.05,61.19-.06,1.67,5.35,3.61,10.61,5.89,15.73-28.02.61-56.06.65-84.09,1.01-32.35.58-64.71.72-97.07,1.12-4.38.42-8.76-2.07-10.61-6.06-1.31-2.43-1.04-5.27-1.08-7.92.14-25,.05-50,.15-75,.08-6.96,3.08-13.7,7.88-18.69,2.57-2.16,1.89-6.81-1.4-7.83-8.71-3.44-17.51-6.65-26.15-10.27-4.35-1.8-8.68-5.19-9.11-10.22-.79-4.64,2.53-9.42,7.27-9.99,8.78-.98,17.87-2.26,26.59-.17,4.5,1.8,5.81,6.96,8.11,10.75,2.13,2.32,5.68,1.58,8.49,1.6,2.12,0,4.02-1.45,4.63-3.47,8.09-22.23,16.02-44.52,24.36-66.66ZM61.97,135.96c-8.94,2.47-15.17,12.14-13.43,21.29,1.25,8.63,9.16,15.83,17.94,15.88,10.04,0,20.08.24,30.12-.01,8.34-.11,15.93-6.69,17.58-14.8,1.65-6.7-.98-14.13-6.2-18.55-5.26-4.83-12.75-4.91-19.45-4.68-8.84.39-17.84-.87-26.56.87Z"/>
    <path class="cls-1" d="M119.47,20.91c2.95-.57,5.97-.47,8.97-.48,49.35.04,98.71-.04,148.07.04,9.33.01,18.05,5.76,22.45,13.88-28.08,7.72-56.18,15.38-84.26,23.12-2.26.42-3.93,2.59-3.76,4.88-.05,10.32.03,20.63-.04,30.95-41.51-.15-83.04-.01-124.55-.06-3.05.27-5.58-2.99-4.33-5.85,6.02-16.74,12.13-33.45,18.2-50.18,3.02-8.27,10.59-14.69,19.25-16.3Z"/>
    <path class="cls-1" d="M220.14,65.57c35.83-9.94,71.75-19.58,107.57-29.58,36.02,9.83,72.06,19.61,108.03,29.66-.08,33.84-.01,67.69-.03,101.54-.06,6.35.2,12.71-.42,19.04-1.47,21.15-9.78,41.46-22.19,58.51-17.69,24.3-42.42,42.68-68.93,56.39-5.22,2.71-10.6,5.08-16.04,7.31-14.96-5.55-28.93-13.53-42.14-22.42-17.22-11.79-32.96-26.1-44.88-43.31-9.84-14.17-16.84-30.42-19.54-47.49-1.93-11.23-1.34-22.64-1.42-33.96-.01-31.9.01-63.79-.01-95.69ZM324.93,56.91c-27.16,7.49-54.34,14.88-81.5,22.36-2.27.41-4.03,2.54-3.81,4.88-.03,31.36-.01,62.72-.01,94.09-.02,16.45,4.82,32.76,13.25,46.84,9.67,16.33,23.44,29.88,38.63,41.1,10.78,7.89,22.31,14.8,34.45,20.39,2.29,1.16,4.64-.33,6.69-1.31,24.1-12.02,46.64-28.23,63.14-49.73,12.56-16.33,20.51-36.54,20.49-57.29.02-31.37.04-62.75-.01-94.12.18-2.29-1.52-4.39-3.74-4.81-27.37-7.55-54.76-15-82.12-22.54-1.8-.61-3.69-.42-5.46.14Z"/>
    <path class="cls-1" d="M248.86,87.34c25.89-7.07,51.77-14.17,77.65-21.28,1.65-.68,3.32.22,4.94.57,25.19,6.98,50.42,13.8,75.61,20.77-.04,30.49.03,60.99-.04,91.48-.18,18.05-7,35.59-17.74,49.94-15.92,21.1-37.93,37.02-61.56,48.48-18.4-9.06-35.7-20.64-50.14-35.27-9.33-9.66-17.43-20.69-22.55-33.16-4.14-10.01-6.3-20.83-6.2-31.66.02-29.96-.04-59.92.03-89.87ZM356.31,129.08c-14.3,14.34-28.68,28.61-42.93,42.99-4.13-4.11-8.26-8.23-12.37-12.36-2.47-2.59-5.14-5.14-8.52-6.48-7.7-3.45-17.37-1.27-22.94,5.03-7.4,7.87-6.72,21.41,1.41,28.52,9.52,9.47,18.98,19,28.5,28.47,7.42,7.45,20.6,7.33,27.97-.13,19.36-19.3,38.67-38.66,58-57.98,6.19-5.97,7.86-16.01,3.83-23.62-3.39-6.95-11.12-11.45-18.83-10.99-5.37.1-10.47,2.69-14.12,6.55Z"/>
    <path class="cls-1" d="M366.86,132.63c4.84-2.25,11.15-.27,13.8,4.37,2.65,4.22,1.86,10.15-1.74,13.58-19.15,19.18-38.34,38.34-57.5,57.52-3.93,4.33-11.28,4.72-15.47.57-9.69-9.61-19.29-19.3-28.96-28.93-4.56-4.09-4.46-12.05.16-16.05,4-3.78,10.83-3.82,14.81.03,6.12,5.91,11.97,12.1,18.12,17.98,2.07,2.19,5.5,1.57,7.29-.65,14.37-14.26,28.65-28.63,42.98-42.94,2.03-1.96,3.86-4.31,6.51-5.48Z"/>
    <path class="cls-1" d="M65.72,144.6c9.93-.24,19.88-.03,29.82-.1,5.27-.32,10.04,4.48,9.82,9.73.21,5.25-4.59,10.05-9.87,9.71-9.66-.03-19.32.05-28.97-.04-4.94-.13-9.14-4.78-8.93-9.69-.17-4.63,3.52-9.04,8.13-9.61Z"/>
    <path class="cls-1" d="M145.98,178.31c.09-3.22,3.39-5.36,6.42-5.08,19.51-.08,39.01.05,58.53-.02-.21,9.63.57,19.28,2.43,28.74-20.62-.04-41.24.02-61.86-.03-3.05.23-5.77-2.65-5.56-5.65,0-5.99-.09-11.98.04-17.96Z"/>
    <path class="cls-1" d="M28.73,261.27c-.12-8.63.06-17.26.03-25.88,3.27,1.85,6.93,3.11,10.73,3.11,16.48-.09,32.96-.52,49.44-.65-.03,7.81.05,15.62-.03,23.44.1,4.97-4.48,9.34-9.42,9.14-13.67.02-27.35,0-41.02.01-5.06.35-9.91-4.05-9.73-9.17Z"/>
  </g>
</svg>