<?xml version="1.0" encoding="UTF-8"?>
<svg id="Capa_2" data-name="Capa 2" xmlns="http://www.w3.org/2000/svg" viewBox="0 0 451.97 98.33">
  <defs>
    <style>
      .cls-1 {
        fill: #6fa02e;
      }

      .cls-2 {
        fill: #fff;
      }

      .cls-3 {
        fill: #109b39;
      }
    </style>
  </defs>
  <g id="Capa_1-2" data-name="Capa 1">
    <g>
      <path class="cls-1" d="M139.21.31c28.31-.43,56.63-.1,84.95-.2,56,0,112-.05,168-.04,9.29.07,18.97-.88,27.74,2.91,16.49,5.97,29.27,21.27,31.77,38.68.32,7.51.96,15.37-1.83,22.53-2.71,7.61-6.66,14.98-12.67,20.51-8.86,8.27-20.72,13.94-33.02,13.62-64.35,0-128.7,0-193.05-.06-6.94.21-12.54-4.86-16.29-10.2-8.32-12.2-11.72-26.81-17.95-40.05-6.41-13.49-14.43-26.38-25.05-36.96-3.8-4.04-8.45-7.11-12.6-10.74Z"/>
      <path class="cls-2" d="M0,.2c34.73-.16,69.47-.01,104.2-.11,7.09-.37,12.6,4.7,17.45,9.17,12.36,11.94,21.4,26.9,28.41,42.49,4.83,11.44,8.22,23.58,14.84,34.19,2.83,5.06,7.4,8.8,12.29,11.76-34.7-.13-69.41,0-104.11-.06-6.28.21-11.95-3.37-15.61-8.28-7.71-10.05-11.3-22.42-15.87-34.05-6.91-16.3-15.85-32.04-28.34-44.72C9.36,6.5,4.62,3.39,0,.2Z"/>
      <path class="cls-2" d="M117.18.06c5.45.3,11.58-1.13,16.36,2.21,8.23,5.61,15.14,13,20.94,21.06,3.45,4.74,6.91,9.59,8.95,15.14-4.68,1.26-10.94,1.61-13.86-3.09C141.28,21.66,131.42,8.1,117.18.06Z"/>
      <path class="cls-2" d="M161.11,59.8c3.49-.69,7.13-1.51,10.67-.67,2.39.39,2.99,3.11,3.86,4.97,2.83,8.07,6.13,16.06,10.82,23.26,2.88,4.45,7.14,7.76,11.69,10.39-6.9.09-14.8.3-19.99-5.11-8.76-8.98-12.8-21.31-17.05-32.84Z"/>
      <path class="cls-3" d="M77.01,28.55c3.69-.57,7.43-.57,11.15-.77,4.31-.21,8.63-.13,12.94.1,2.71.16,5.46-.22,8.14.31,1.78.33,2.98,1.84,3.77,3.36.7,1.46,1.66,2.77,2.29,4.26.41.72.6,1.76,1.48,2.05,1.02-.15,1.42-1.26,2.29-1.67,1.37-.36,2.86.02,4,.85.65.49.96,1.37.8,2.17-.25.71-1.05,1.01-1.73,1.13-1.36.29-2.75.19-4.13.2,2.06,1.68,4.26,3.5,5.12,6.11.78,2.53.58,5.2.59,7.8.07,4.36.68,8.75.09,13.1-.22,1.07-.47,2.32-1.4,3-1.29.59-2.77.3-4.15.38-1.2,0-2.81.07-3.42-1.2-.38-1.17-.22-2.44-.25-3.65-14.22-.54-28.47-.53-42.7,0-.02,1.14.09,2.29-.15,3.42-.24.87-1.16,1.34-2.01,1.4-1.3.08-2.6.04-3.91.02-.8-.04-1.76-.1-2.27-.82-.67-.93-.89-2.1-1-3.22-.23-2.11-.11-4.23-.03-6.35.12-4.29-.03-8.59.23-12.88,0-.87.63-1.53,1.12-2.18,1.43-1.74,2.97-3.38,4.6-4.93-1.54-.01-3.11,0-4.61-.37-.6-.16-1.3-.53-1.37-1.22-.03-.86.48-1.7,1.21-2.15,1.04-.6,2.3-.86,3.49-.63.91.31,1.29,1.27,1.89,1.94.52.28.82-.35,1.06-.7,1.32-2.49,2.57-5.06,4.4-7.23.66-.73,1.42-1.53,2.45-1.63ZM78.36,29.92c-.97.13-2.06.06-2.86.73-.8.71-1.18,1.74-1.7,2.65-1.19,2.18-2.44,4.33-3.35,6.65,6.16.06,12.29-.53,18.44-.81,4.61-.11,9.24-.08,13.84.24,4.43.24,8.87.5,13.31.57-1.53-2.92-2.96-5.9-4.58-8.77-.5-1-1.69-1.14-2.68-1.21-2.24-.33-4.51-.4-6.77-.44-4.78-.18-9.56-.16-14.34-.07-3.1.14-6.23.06-9.31.46ZM85.07,49.68c-1.83.09-3.37,1.75-3.42,3.56-.04,1.29-.14,2.61.14,3.87.43,1.62,2.07,2.79,3.74,2.75,5.16,0,10.32,0,15.49,0,1.9.04,3.72-1.51,3.84-3.43.04-1.23.09-2.47-.04-3.69-.28-1.77-1.98-3.18-3.79-3.09-5.32.01-10.64-.03-15.96.02ZM65.16,52.35c-.09,1.09-.18,2.33.54,3.24.77,1.06,2.09,1.48,3.34,1.66,2.45.24,4.95-.17,7.27-.98,1.17-.38,1.98-1.37,2.61-2.38-.88-.54-1.91-.76-2.91-.98-3.57-.64-7.24-.93-10.85-.56ZM113.15,52.49c-1.87.32-3.87.42-5.55,1.4.63,1.02,1.45,2,2.62,2.38,2.34.82,4.85,1.24,7.33.98,1.22-.18,2.52-.61,3.27-1.65.72-.91.63-2.15.54-3.24-2.73-.32-5.49-.14-8.21.14Z"/>
    </g>
  </g>
</svg>