<?xml version="1.0" encoding="UTF-8"?>
<svg id="Capa_2" data-name="Capa 2" xmlns="http://www.w3.org/2000/svg" viewBox="0 0 30.44 21.38">
  <defs>
    <style>
      .cls-1 {
        fill: #a1c568;
      }
    </style>
  </defs>
  <g id="Capa_1-2" data-name="Capa 1">
    <path class="cls-1" d="M7.2.44c1.82-.28,3.67-.28,5.51-.38,2.13-.1,4.26-.06,6.39.05,1.34.08,2.7-.11,4.02.15.88.16,1.47.91,1.86,1.66.35.72.82,1.37,1.13,2.11.2.36.3.87.73,1.01.5-.07.7-.62,1.13-.83.68-.18,1.42,0,1.97.42.32.24.47.68.4,1.07-.12.35-.52.5-.86.56-.67.14-1.36.1-2.04.1,1.02.83,2.1,1.73,2.53,3.02.39,1.25.29,2.57.29,3.85.03,2.15.34,4.32.04,6.47-.11.53-.23,1.14-.69,1.48-.64.29-1.37.15-2.05.19-.59,0-1.39.03-1.69-.59-.19-.58-.11-1.2-.12-1.8-7.03-.27-14.06-.26-21.09,0-.01.56.04,1.13-.07,1.69-.12.43-.57.66-.99.69-.64.04-1.29.02-1.93.01-.39-.02-.87-.05-1.12-.4-.33-.46-.44-1.04-.49-1.59-.11-1.04-.06-2.09-.02-3.13.06-2.12-.01-4.24.12-6.36,0-.43.31-.75.55-1.07.71-.86,1.47-1.67,2.27-2.43-.76,0-1.53,0-2.28-.18-.29-.08-.64-.26-.68-.6-.01-.43.24-.84.6-1.06.52-.29,1.13-.42,1.72-.31.45.15.64.63.93.96.26.14.41-.17.52-.35.65-1.23,1.27-2.5,2.17-3.57.33-.36.7-.75,1.21-.81ZM7.86,1.12c-.48.06-1.02.03-1.41.36-.4.35-.58.86-.84,1.31-.59,1.08-1.21,2.14-1.65,3.29,3.04.03,6.07-.26,9.11-.4,2.28-.05,4.56-.04,6.84.12,2.19.12,4.38.25,6.58.28-.75-1.44-1.46-2.91-2.26-4.33-.25-.49-.84-.56-1.32-.6-1.11-.16-2.23-.2-3.35-.22-2.36-.09-4.72-.08-7.08-.03-1.53.07-3.08.03-4.6.23ZM11.18,10.87c-.9.04-1.66.86-1.69,1.76-.02.64-.07,1.29.07,1.91.21.8,1.02,1.38,1.85,1.36,2.55,0,5.1,0,7.65,0,.94.02,1.84-.75,1.9-1.7.02-.61.04-1.22-.02-1.82-.14-.88-.98-1.57-1.87-1.53-2.63,0-5.26-.02-7.88.01ZM1.34,12.19c-.05.54-.09,1.15.27,1.6.38.52,1.03.73,1.65.82,1.21.12,2.45-.08,3.59-.49.58-.19.98-.68,1.29-1.18-.44-.27-.94-.38-1.44-.48-1.76-.31-3.57-.46-5.36-.28ZM25.05,12.27c-.93.16-1.91.21-2.74.69.31.5.71.99,1.29,1.17,1.15.4,2.4.61,3.62.48.6-.09,1.24-.3,1.62-.82.36-.45.31-1.06.27-1.6-1.35-.16-2.71-.07-4.05.07Z"/>
  </g>
</svg>