<?xml version="1.0" encoding="UTF-8"?>
<svg id="Capa_2" data-name="Capa 2" xmlns="http://www.w3.org/2000/svg" viewBox="0 0 391.15 157.79">
  <defs>
    <style>
      .cls-1 {
        fill: #fff;
      }
    </style>
  </defs>
  <g id="Layer_1" data-name="Layer 1">
    <g>
      <path class="cls-1" d="M98.65.12c44.38-.21,88.76.03,133.14-.12,9.1,8.9,14.94,20.42,20.04,31.93,4.39,9.41,8.68,19.54,17.21,26,6.84,5.54,15.74,7.52,24.35,7.95,19,.66,38.02-.34,57.02.26,19.82,2.04,36.64,18.72,40,38.18,3.03,15.61-3.49,32.39-15.76,42.36-8.41,7.07-19.33,10.77-30.25,11.11-11.57-.4-23.25-4.48-31.79-12.46-5.24-5.05-8.87-11.46-12.46-17.72-6.98-12.85-14.29-25.51-21.88-38.01-5.31-8.68-13.98-15.44-23.96-17.74-3.86-1.07-7.88-1.22-11.86-1.4-36.89-.64-73.79,0-110.67-.49-22.83-2.4-41.37-24.65-39.75-47.54.09-7.9,2.63-15.55,6.62-22.31Z"/>
      <path class="cls-1" d="M38.99,67.21c10.74-1.68,21.98.07,31.59,5.17,10.99,5.97,19.55,16.5,22.59,28.69,2.62,10,1.61,20.95-3.02,30.21-5.93,12.28-17.49,21.67-30.72,24.94-12.23,3.12-25.7,1.38-36.55-5.13-10.34-5.93-18.32-15.98-21.35-27.55-3.26-11.71-1.24-24.71,5.26-34.96,6.94-11.38,19.15-19.1,32.2-21.37Z"/>
    </g>
  </g>
</svg>