<?xml version="1.0" encoding="UTF-8"?>
<svg id="Capa_2" data-name="Capa 2" xmlns="http://www.w3.org/2000/svg" viewBox="0 0 391.11 179.4">
  <defs>
    <style>
      .cls-1 {
        fill: #fff;
      }
    </style>
  </defs>
  <g id="Layer_1" data-name="Layer 1">
    <g>
      <path class="cls-1" d="M129.35.82c14.76-1.21,29.63-.61,44.43-.77,8.92.25,18.17-1.04,26.71,2.22,17.72,6.31,33.83,18.37,43.17,34.9,4.24,7.32,7.55,15.11,11.13,22.76,3.73,7.77,8.25,15.61,15.55,20.53,7.05,5.2,15.98,6.68,24.52,7.06,18.32.61,36.65-.24,54.97.26,20.72,1.82,38.37,19.78,40.88,40.27,1.82,12.75-2.58,26.18-11.33,35.59-10.31,11.41-26.43,17.64-41.71,15.15-12.48-1.81-24.47-8.57-31.36-19.31-7.54-11.61-13.52-24.14-20.75-35.94-4.73-7.51-8.43-15.98-15.38-21.79-7.17-6.39-16.8-9.45-26.3-9.55-35.36-.71-70.72-.14-106.07-.46-21.73,1.12-41.63-16.66-45.24-37.71-1.62-10.69-.2-22.18,5.64-31.45,6.67-11.21,18.24-19.53,31.14-21.76Z"/>
      <path class="cls-1" d="M39.35,88.81c12.35-2.05,25.51.79,35.73,8.08,10.82,7.57,18.42,19.91,19.3,33.19.88,10.17-1.91,20.56-7.78,28.91-7.4,10.89-19.71,18.13-32.71,19.85-15.77,2.58-32.47-3.86-42.93-15.82C4.07,155.06,0,144.67,0,134.13c-.24-12.05,4.95-23.94,13.51-32.35,7.03-6.82,16.18-11.35,25.83-12.97Z"/>
    </g>
  </g>
</svg>