<?xml version="1.0" encoding="UTF-8"?>
<svg id="Capa_2" data-name="Capa 2" xmlns="http://www.w3.org/2000/svg" viewBox="0 0 142.29 65.27">
  <defs>
    <style>
      .cls-1 {
        fill: #8f8f8f;
      }
    </style>
  </defs>
  <g id="Capa_1-2" data-name="Capa 1">
    <g>
      <path class="cls-1" d="M55.39,0h13.33c3.49.21,6.77,1.65,9.74,3.41,2.81,1.69,5.47,3.72,7.55,6.29,2.39,2.87,4.04,6.26,5.56,9.65,1.33,2.9,2.63,5.91,4.83,8.28,1.15,1.23,2.55,2.22,4.1,2.89,1.92.84,4.02,1.17,6.1,1.28,1.86.17,3.73.13,5.6.13,4.05.02,8.1-.11,12.15-.05,1.52.03,3.06-.05,4.56.26,3.45.67,6.56,2.64,8.94,5.19.92.98,1.69,2.1,2.32,3.29,1.31,2.26,2.03,4.83,2.15,7.43v1c-.07,2.94-.97,5.84-2.56,8.31-1.99,3.12-5.05,5.52-8.51,6.79-1.97.74-4.07,1.05-6.16,1.13-3.58-.16-7.16-1.3-10.06-3.44-1.45-1.07-2.66-2.44-3.65-3.95-1.07-1.64-2.06-3.33-2.96-5.06-2.33-4.28-4.8-8.48-7.33-12.65-1.94-3.06-5.07-5.34-8.6-6.17-2.22-.58-4.53-.46-6.8-.51-11.9-.16-23.81,0-35.71-.12-.82-.02-1.64.03-2.44-.1-3.06-.41-5.95-1.84-8.25-3.88-2.9-2.56-4.96-6.1-5.6-9.92-.33-1.83-.2-3.7.02-5.53.78-5.16,4.29-9.72,8.88-12.1,2.11-1.1,4.48-1.73,6.86-1.73,1.99-.05,3.98,0,5.96-.1Z"/>
      <path class="cls-1" d="M14.93,32.21c3.26-.42,6.64.07,9.63,1.43,3.21,1.45,5.96,3.91,7.71,6.96,2.28,3.91,2.78,8.8,1.34,13.09-1.15,3.49-3.52,6.53-6.56,8.56-2.53,1.71-5.53,2.72-8.58,2.93-.84.11-1.7.11-2.54,0-3.85-.26-7.6-1.83-10.47-4.42-2.96-2.65-4.95-6.39-5.36-10.36-.41-3.65.48-7.42,2.48-10.5,2.7-4.23,7.37-7.09,12.35-7.7Z"/>
    </g>
  </g>
</svg>