<?xml version="1.0" encoding="UTF-8"?>
<svg id="Capa_2" data-name="Capa 2" xmlns="http://www.w3.org/2000/svg" viewBox="0 0 487.55 554.36">
  <defs>
    <style>
      .cls-1 {
        fill: #363a2f;
      }
    </style>
  </defs>
  <g id="Layer_1" data-name="Layer 1">
    <path class="cls-1" d="M452.84.8c9.19-.42,18.41-.88,27.61-.79,4.25-.03,7.41,4.35,7.06,8.38-.02,170.29-.01,340.58-.01,510.87-.05,3.75.66,8.06-2.11,11.1-3.45,4.02-9.16,3.21-13.89,3.54-147,6.59-293.99,13.2-440.99,19.76-8.03.31-16.07.92-24.11.62-3.88-.23-6.72-4.24-6.37-7.98C0,374.3.03,202.29.02,30.29c-.12-2.75.81-5.63,3.07-7.33,2.79-2.56,6.84-2.11,10.33-2.36,108.16-4.86,216.31-9.78,324.46-14.66,38.32-1.82,76.65-3.22,114.96-5.14Z"/>
  </g>
</svg>