<?xml version="1.0" encoding="UTF-8"?>
<svg id="Capa_2" data-name="Capa 2" xmlns="http://www.w3.org/2000/svg" viewBox="0 0 780.21 782.16">
  <defs>
    <style>
      .cls-1 {
        fill: none;
      }
    </style>
  </defs>
  <g id="Layer_1" data-name="Layer 1">
    <g>
      <g>
        <path d="M501.6,701.32c8.71-2.08,18.36-.22,25.53,5.21,5.84,4.75,10.3,11.41,11.66,18.89.8,6.15.53,12.65-2.28,18.3-4.75,9.97-15.14,17.79-26.39,17.86-16.41,1.32-32.22-13.55-31.64-30.07-.74-13.82,9.65-27.22,23.12-30.19ZM502.63,708.35c-8.96,2.64-16.18,10.88-17.09,20.26-1.52,12.84,9.56,25.61,22.54,25.62,12.43.77,23.84-10.36,24.03-22.68.35-8.35-4.49-16.38-11.54-20.66-5.23-3.49-11.95-3.96-17.94-2.54Z"/>
        <path d="M498.1,716.55c4.69.04,9.38-.09,14.07.03,4.64.09,9.03,4.13,8.76,8.92.27,3.48-1.88,6.49-4.55,8.49,1.97,3.47,3.78,7.03,5.68,10.56-2.24-.01-4.48-.01-6.71,0-1.6-3.09-3.21-6.17-4.8-9.25-2.14-.01-4.27,0-6.4,0,0,3.08-.01,6.16,0,9.25-2.03-.01-4.04-.01-6.05,0v-28ZM504.15,721.06c-.01,3.15-.01,6.32,0,9.48,2.26-.02,4.57.2,6.83-.22,3.4-1.01,4.13-6.06,1.83-8.4-2.68-1.36-5.79-.77-8.66-.86Z"/>
      </g>
      <g>
        <rect class="cls-1" width="780.21" height="782.16"/>
        <path d="M2.33,0c214.68.23,429.35.02,644.03.12,4.24.4,8.96,1.05,11.88,4.55,23.81,24.69,48.63,48.4,72.38,73.15,16.34,15.78,31.68,32.6,48.58,47.79.28,218.65.56,437.3.84,655.95h-177.43l-.2-305.88c-.53-3.45,2.28-5.78,4.37-8.01,14.34-13.73,27.98-28.18,42.51-41.73,2.49-2.7,6.19-5.38,5.81-9.49-.07-54.14.21-108.29-.15-162.43-174.81,174.28-349.61,348.54-524.42,522.82-2.28,3.35-7.03,2.48-9.24-.46-35.73-36.37-72.08-72.13-107.99-108.34-3.94-4.16-8.5-7.77-11.93-12.39.03-2.58,2.54-4.01,3.97-5.79C179.51,475.57,353.67,301.28,527.83,126.99c-53.5-.86-107.05-.07-160.58-.4-3.05.21-6.83-.73-9.03,2.03-15.86,15.89-31.81,31.7-47.57,47.69-1.65,1.55-3.43,3.48-5.94,3.1-100.72-.01-201.44-.05-302.17-.07-.56-.53-1.67-1.58-2.23-2.11-.22-52.86-.02-105.73-.08-158.59C.38,12.36-.73,5.78,2.33,0Z"/>
        <rect class="cls-1" width="15.77" height="180.08"/>
        <path d="M2.42,0h10.68C13.39,0,13.68.06,13.95.17c.27.11.51.27.72.48.21.21.37.45.48.72.11.27.17.55.17.85v174.91c0,.29-.06.57-.17.85-.11.27-.27.51-.48.72-.21.21-.45.37-.72.48-.27.11-.55.17-.85.17H2.42c-.29,0-.57-.06-.85-.17-.27-.11-.51-.27-.72-.48-.21-.21-.37-.45-.48-.72-.11-.27-.17-.55-.17-.85V2.21c0-.29.06-.57.17-.85.11-.27.27-.51.48-.72.21-.21.45-.37.72-.48C1.85.06,2.13,0,2.42,0Z"/>
        <rect class="cls-1" y="629.95" width="151.07" height="151.08"/>
        <path d="M.96,654.21l22.79-22.79c.21-.21.45-.37.72-.48.27-.11.55-.17.85-.17s.58.06.85.17c.27.11.51.27.72.48l123,123c.21.21.37.44.48.72.11.27.17.55.17.85s-.06.58-.17.85c-.11.27-.27.51-.48.72l-22.79,22.79c-.21.21-.45.37-.72.48-.27.11-.55.17-.85.17s-.58-.05-.85-.17c-.27-.11-.51-.27-.71-.48L.96,657.33c-.21-.21-.37-.45-.48-.72-.11-.27-.17-.55-.17-.85s.06-.58.17-.85c.11-.27.27-.51.48-.72Z"/>
      </g>
    </g>
  </g>
</svg>