<?xml version="1.0" encoding="UTF-8"?>
<svg id="Capa_2" data-name="Capa 2" xmlns="http://www.w3.org/2000/svg" viewBox="0 0 283.06 129.84">
  <defs>
    <style>
      .cls-1 {
        fill: #7cb92b;
      }
    </style>
  </defs>
  <g id="Capa_1-2" data-name="Capa 1">
    <path class="cls-1" d="M110.18,0h26.51c6.94.41,13.46,3.29,19.37,6.78,5.6,3.36,10.87,7.41,15.01,12.5,4.76,5.71,8.04,12.45,11.06,19.19,2.65,5.77,5.23,11.76,9.61,16.47,2.28,2.45,5.07,4.42,8.15,5.75,3.81,1.67,7.99,2.32,12.13,2.54,3.7.33,7.42.25,11.14.26,8.06.04,16.11-.21,24.17-.11,3.02.07,6.08-.09,9.07.52,6.86,1.34,13.05,5.25,17.77,10.33,1.83,1.96,3.36,4.18,4.62,6.54,2.6,4.49,4.04,9.61,4.27,14.79v1.99c-.15,5.84-1.92,11.62-5.09,16.53-3.96,6.2-10.04,10.99-16.94,13.51-3.91,1.46-8.09,2.1-12.25,2.24-7.13-.31-14.24-2.59-20.01-6.85-2.89-2.13-5.29-4.86-7.26-7.85-2.12-3.26-4.1-6.62-5.89-10.07-4.63-8.51-9.54-16.88-14.58-25.16-3.85-6.09-10.09-10.61-17.11-12.27-4.42-1.15-9.01-.91-13.53-1.02-23.68-.33-47.36.01-71.03-.24-1.62-.04-3.26.05-4.86-.2-6.1-.82-11.83-3.66-16.41-7.72-5.76-5.09-9.86-12.13-11.14-19.74-.65-3.64-.41-7.36.05-11.01,1.55-10.26,8.52-19.33,17.67-24.08,4.2-2.18,8.91-3.43,13.65-3.44,3.95-.1,7.91-.01,11.86-.2Z"/>
    <path class="cls-1" d="M29.7,64.07c6.48-.83,13.2.13,19.15,2.85,6.38,2.89,11.85,7.77,15.35,13.85,4.54,7.78,5.53,17.5,2.67,26.04-2.28,6.93-7,12.99-13.06,17.04-5.04,3.41-11,5.41-17.07,5.83-1.68.22-3.38.21-5.06,0-7.66-.53-15.12-3.64-20.82-8.79-5.9-5.27-9.84-12.72-10.67-20.61-.82-7.26.96-14.77,4.94-20.89,5.38-8.42,14.67-14.11,24.56-15.31Z"/>
  </g>
</svg>