<?xml version="1.0" encoding="UTF-8"?>
<svg id="Capa_2" data-name="Capa 2" xmlns="http://www.w3.org/2000/svg" viewBox="0 0 89.31 30.55">
  <defs>
    <style>
      .cls-1 {
        fill: #747575;
      }
    </style>
  </defs>
  <g id="Capa_1-2" data-name="Capa 1">
    <g>
      <path class="cls-1" d="M25.38,18.85l-10.75,2.93,9.69-1.27-5.61,8.94c-.23.35-.52,1-.99,1.06l-13.21.02L0,.03h9.53s3.21,21.9,3.21,21.9L25.87,1.02c.27-.6.76-1.01,1.42-1.01l9.84.07-11.75,18.77Z"/>
      <path class="cls-1" d="M55.74,30.5l-10.65.03,8.87-14.18,21.25-2.98c1.19-.17,2.24-.44,3.17-1.12,1.39-1.16,1.76-3.03.96-4.55-.85-1.62-2.68-2.2-4.5-1.73l-17.12,4.44L63.65.94c.32-.52.7-.83,1.34-.94l17.94.11c1.74.01,3.43.78,4.52,1.92,3.56,3.7,2.26,14.29-6.35,17.39-2.41.87-4.81,1.14-7.39,1.16l-11.72.08-6.27,9.84Z"/>
      <path class="cls-1" d="M47.94,12.98l-12.75,3.29L44.68,1.09c.35-.48.64-.9,1.22-1.06h10.12s-8.08,12.95-8.08,12.95Z"/>
      <path class="cls-1" d="M26.25,30.51l6.55-10.49c.25-.64.79-1,1.5-.9l10.66-1.47-7.48,11.97c-.23.58-.69.93-1.32.92l-9.91-.03Z"/>
    </g>
  </g>
</svg>