<svg xmlns="http://www.w3.org/2000/svg" xmlns:xlink="http://www.w3.org/1999/xlink" width="1080" zoomAndPan="magnify" viewBox="0 0 810 374.999991" height="500" preserveAspectRatio="xMidYMid meet" version="1.0"><defs><filter x="0%" y="0%" width="100%" height="100%" id="41d3ad0f0d"><feColorMatrix values="0 0 0 0 1 0 0 0 0 1 0 0 0 0 1 0 0 0 1 0" color-interpolation-filters="sRGB"/></filter><g/><clipPath id="2bed389025"><path d="M 202.664062 0 L 643.664062 0 L 643.664062 375 L 202.664062 375 Z M 202.664062 0 " clip-rule="nonzero"/></clipPath><linearGradient x1="86.739005" gradientTransform="matrix(0.749573, 0, 0, 0.750486, 137.645362, 112.6494)" y1="86" x2="675.074013" gradientUnits="userSpaceOnUse" y2="86" id="a44d2a0ff6"><stop stop-opacity="1" stop-color="rgb(98.039246%, 100%, 0%)" offset="0"/><stop stop-opacity="1" stop-color="rgb(98.039246%, 100%, 0%)" offset="0.25"/><stop stop-opacity="1" stop-color="rgb(98.039246%, 100%, 0%)" offset="0.375"/><stop stop-opacity="1" stop-color="rgb(98.039246%, 100%, 0%)" offset="0.40625"/><stop stop-opacity="1" stop-color="rgb(98.039246%, 100%, 0%)" offset="0.414062"/><stop stop-opacity="1" stop-color="rgb(96.824646%, 100%, 0.790405%)" offset="0.417969"/><stop stop-opacity="1" stop-color="rgb(95.610046%, 100%, 1.582336%)" offset="0.421875"/><stop stop-opacity="1" stop-color="rgb(93.280029%, 100%, 3.100586%)" offset="0.425781"/><stop stop-opacity="1" stop-color="rgb(90.951538%, 100%, 4.620361%)" offset="0.429688"/><stop stop-opacity="1" stop-color="rgb(88.621521%, 100%, 6.138611%)" offset="0.433594"/><stop stop-opacity="1" stop-color="rgb(86.29303%, 100%, 7.658386%)" offset="0.4375"/><stop stop-opacity="1" stop-color="rgb(83.963013%, 100%, 9.176636%)" offset="0.441406"/><stop stop-opacity="1" stop-color="rgb(81.632996%, 100%, 10.694885%)" offset="0.445313"/><stop stop-opacity="1" stop-color="rgb(79.302979%, 100%, 12.213135%)" offset="0.449219"/><stop stop-opacity="1" stop-color="rgb(76.974487%, 100%, 13.73291%)" offset="0.453125"/><stop stop-opacity="1" stop-color="rgb(74.64447%, 100%, 15.25116%)" offset="0.457031"/><stop stop-opacity="1" stop-color="rgb(72.314453%, 100%, 16.770935%)" offset="0.460938"/><stop stop-opacity="1" stop-color="rgb(69.984436%, 100%, 18.289185%)" offset="0.464844"/><stop stop-opacity="1" stop-color="rgb(67.655945%, 100%, 19.80896%)" offset="0.46875"/><stop stop-opacity="1" stop-color="rgb(65.325928%, 100%, 21.327209%)" offset="0.472656"/><stop stop-opacity="1" stop-color="rgb(62.995911%, 100%, 22.846985%)" offset="0.476562"/><stop stop-opacity="1" stop-color="rgb(60.665894%, 100%, 24.365234%)" offset="0.480469"/><stop stop-opacity="1" stop-color="rgb(58.337402%, 100%, 25.883484%)" offset="0.484375"/><stop stop-opacity="1" stop-color="rgb(56.007385%, 100%, 27.401733%)" offset="0.488281"/><stop stop-opacity="1" stop-color="rgb(53.678894%, 100%, 28.921509%)" offset="0.492188"/><stop stop-opacity="1" stop-color="rgb(51.348877%, 100%, 30.439758%)" offset="0.496094"/><stop stop-opacity="1" stop-color="rgb(49.01886%, 100%, 31.959534%)" offset="0.5"/><stop stop-opacity="1" stop-color="rgb(46.688843%, 100%, 33.477783%)" offset="0.503906"/><stop stop-opacity="1" stop-color="rgb(44.360352%, 100%, 34.997559%)" offset="0.507812"/><stop stop-opacity="1" stop-color="rgb(42.030334%, 100%, 36.515808%)" offset="0.511719"/><stop stop-opacity="1" stop-color="rgb(39.700317%, 100%, 38.034058%)" offset="0.515625"/><stop stop-opacity="1" stop-color="rgb(37.3703%, 100%, 39.552307%)" offset="0.519531"/><stop stop-opacity="1" stop-color="rgb(35.041809%, 100%, 41.072083%)" offset="0.523438"/><stop stop-opacity="1" stop-color="rgb(32.711792%, 100%, 42.590332%)" offset="0.527344"/><stop stop-opacity="1" stop-color="rgb(30.383301%, 100%, 44.110107%)" offset="0.53125"/><stop stop-opacity="1" stop-color="rgb(28.053284%, 100%, 45.628357%)" offset="0.535156"/><stop stop-opacity="1" stop-color="rgb(25.723267%, 100%, 47.148132%)" offset="0.539063"/><stop stop-opacity="1" stop-color="rgb(23.39325%, 100%, 48.666382%)" offset="0.542969"/><stop stop-opacity="1" stop-color="rgb(21.064758%, 100%, 50.184631%)" offset="0.546875"/><stop stop-opacity="1" stop-color="rgb(18.734741%, 100%, 51.702881%)" offset="0.550781"/><stop stop-opacity="1" stop-color="rgb(16.404724%, 100%, 53.222656%)" offset="0.554688"/><stop stop-opacity="1" stop-color="rgb(14.074707%, 100%, 54.740906%)" offset="0.558594"/><stop stop-opacity="1" stop-color="rgb(11.746216%, 100%, 56.260681%)" offset="0.5625"/><stop stop-opacity="1" stop-color="rgb(9.416199%, 100%, 57.778931%)" offset="0.566406"/><stop stop-opacity="1" stop-color="rgb(7.086182%, 100%, 59.298706%)" offset="0.570312"/><stop stop-opacity="1" stop-color="rgb(4.756165%, 100%, 60.816956%)" offset="0.574219"/><stop stop-opacity="1" stop-color="rgb(2.427673%, 100%, 62.335205%)" offset="0.578125"/><stop stop-opacity="1" stop-color="rgb(1.213074%, 100%, 63.127136%)" offset="0.582031"/><stop stop-opacity="1" stop-color="rgb(0%, 100%, 63.919067%)" offset="0.585938"/><stop stop-opacity="1" stop-color="rgb(0%, 100%, 63.919067%)" offset="0.59375"/><stop stop-opacity="1" stop-color="rgb(0%, 100%, 63.919067%)" offset="0.625"/><stop stop-opacity="1" stop-color="rgb(0%, 100%, 63.919067%)" offset="0.75"/><stop stop-opacity="1" stop-color="rgb(0%, 100%, 63.919067%)" offset="1"/></linearGradient><clipPath id="ba797387d0"><rect x="0" width="810" y="0" height="375"/></clipPath><clipPath id="224e1b9781"><rect x="0" width="810" y="0" height="375"/></clipPath><clipPath id="f2b8ece013"><rect x="0" width="810" y="0" height="375"/></clipPath><mask id="c7f34ce096"><g filter="url(#41d3ad0f0d)"><g transform="matrix(1, 0, 0, 1, 0, 0)"><g clip-path="url(#f2b8ece013)"><g transform="matrix(1, 0, 0, 1, 0, 0)"><g clip-path="url(#224e1b9781)"><g fill="#000000" fill-opacity="1"><g transform="translate(386.822713, 192.191229)"><g><path d="M 37.421875 2.390625 L 24.421875 2.390625 L 24.421875 -36.6875 C 22.453125 -36.6875 19.132812 -36.59375 14.46875 -36.40625 C 9.800781 -36.21875 4.148438 -35.695312 -2.484375 -34.84375 L -2.484375 -45.4375 C -2.484375 -45.4375 -1.6875 -45.546875 -0.09375 -45.765625 C 1.5 -45.984375 3.691406 -46.226562 6.484375 -46.5 C 9.285156 -46.78125 12.515625 -47.007812 16.171875 -47.1875 C 19.828125 -47.375 23.6875 -47.4375 27.75 -47.375 C 27.75 -47.375 27.882812 -47.375 28.15625 -47.375 C 28.4375 -47.375 29.25 -47.375 30.59375 -47.375 C 31.945312 -47.375 34.222656 -47.34375 37.421875 -47.28125 Z M 37.421875 2.390625 "/></g></g></g></g></g></g></g></g></mask><clipPath id="8742d7d010"><path d="M 202.664062 0 L 643.664062 0 L 643.664062 375 L 202.664062 375 Z M 202.664062 0 " clip-rule="nonzero"/></clipPath><clipPath id="7a2c6f73db"><rect x="0" width="810" y="0" height="375"/></clipPath><clipPath id="8ae52aa0d2"><rect x="0" width="810" y="0" height="375"/></clipPath><clipPath id="4df01a8c83"><rect x="0" width="501" y="0" height="28"/></clipPath></defs><g fill="#ffffff" fill-opacity="1"><g transform="translate(157.498506, 192.191229)"><g><path d="M 81.671875 -1.109375 C 81.671875 -1.109375 80.148438 -0.816406 77.109375 -0.234375 C 74.066406 0.347656 69.457031 0.945312 63.28125 1.5625 C 57.101562 2.175781 49.3125 2.484375 39.90625 2.484375 C 30.6875 2.484375 22.972656 2.175781 16.765625 1.5625 C 10.566406 0.945312 5.898438 0.347656 2.765625 -0.234375 C -0.367188 -0.816406 -1.9375 -1.109375 -1.9375 -1.109375 L -1.9375 -47.375 L 10.875 -47.375 L 10.875 -9.578125 C 14.132812 -9.148438 18.160156 -8.78125 22.953125 -8.46875 C 27.742188 -8.164062 33.394531 -8.015625 39.90625 -8.015625 C 47.59375 -7.953125 53.847656 -8.101562 58.671875 -8.46875 C 63.492188 -8.84375 66.859375 -9.15625 68.765625 -9.40625 L 68.765625 -47.375 L 81.671875 -47.375 Z M 81.671875 -1.109375 "/></g></g></g><g fill="#ffffff" fill-opacity="1"><g transform="translate(272.155527, 192.191229)"><g><path d="M 81.671875 2.125 L 68.765625 2.125 L 68.765625 -35.671875 C 65.503906 -36.097656 61.476562 -36.460938 56.6875 -36.765625 C 51.894531 -37.078125 46.269531 -37.234375 39.8125 -37.234375 C 32.195312 -37.296875 25.945312 -37.125 21.0625 -36.71875 C 16.175781 -36.320312 12.78125 -36.003906 10.875 -35.765625 L 10.875 2.125 L -1.9375 2.125 L -1.9375 -44.0625 C -1.9375 -44.0625 -0.414062 -44.367188 2.625 -44.984375 C 5.664062 -45.597656 10.289062 -46.210938 16.5 -46.828125 C 22.707031 -47.441406 30.476562 -47.75 39.8125 -47.75 C 49.03125 -47.75 56.742188 -47.441406 62.953125 -46.828125 C 69.160156 -46.210938 73.832031 -45.597656 76.96875 -44.984375 C 80.101562 -44.367188 81.671875 -44.0625 81.671875 -44.0625 Z M 81.671875 2.125 "/></g></g></g><g fill="#ffffff" fill-opacity="1"><g transform="translate(459.361771, 192.191229)"><g><path d="M 80.65625 -1.109375 C 80.65625 -1.109375 79.070312 -0.816406 75.90625 -0.234375 C 72.738281 0.347656 68.097656 0.945312 61.984375 1.5625 C 55.867188 2.175781 48.328125 2.484375 39.359375 2.484375 C 30.390625 2.484375 22.832031 2.175781 16.6875 1.5625 C 10.539062 0.945312 5.898438 0.347656 2.765625 -0.234375 C -0.367188 -0.816406 -1.9375 -1.109375 -1.9375 -1.109375 L -1.9375 -43.78125 C -1.9375 -43.78125 -0.382812 -44.070312 2.71875 -44.65625 C 5.820312 -45.238281 10.429688 -45.835938 16.546875 -46.453125 C 22.660156 -47.066406 30.265625 -47.375 39.359375 -47.375 C 48.390625 -47.375 55.960938 -47.066406 62.078125 -46.453125 C 68.191406 -45.835938 72.816406 -45.238281 75.953125 -44.65625 C 79.085938 -44.070312 80.65625 -43.78125 80.65625 -43.78125 L 80.65625 -33.28125 C 80.65625 -33.28125 79.007812 -33.570312 75.71875 -34.15625 C 72.425781 -34.738281 67.691406 -35.335938 61.515625 -35.953125 C 55.347656 -36.566406 47.960938 -36.875 39.359375 -36.875 C 31.796875 -36.875 25.632812 -36.703125 20.875 -36.359375 C 16.113281 -36.023438 12.75 -35.734375 10.78125 -35.484375 L 10.875 -9.40625 C 12.65625 -9.15625 15.863281 -8.859375 20.5 -8.515625 C 25.144531 -8.179688 31.367188 -8.015625 39.171875 -8.015625 C 48.023438 -8.015625 55.535156 -8.320312 61.703125 -8.9375 C 67.878906 -9.550781 72.582031 -10.164062 75.8125 -10.78125 C 79.039062 -11.394531 80.65625 -11.703125 80.65625 -11.703125 Z M 80.65625 -1.109375 "/></g></g></g><g fill="#ffffff" fill-opacity="1"><g transform="translate(574.018792, 192.191229)"><g><path d="M 80.828125 -0.921875 C 80.828125 -0.921875 79.257812 -0.628906 76.125 -0.046875 C 73 0.535156 68.363281 1.117188 62.21875 1.703125 C 56.070312 2.285156 48.515625 2.578125 39.546875 2.578125 C 30.515625 2.515625 22.925781 2.191406 16.78125 1.609375 C 10.632812 1.023438 6.007812 0.441406 2.90625 -0.140625 C -0.195312 -0.722656 -1.75 -1.015625 -1.75 -1.015625 L -1.75 -43.59375 C -1.75 -43.59375 -0.242188 -43.882812 2.765625 -44.46875 C 5.773438 -45.050781 10.335938 -45.648438 16.453125 -46.265625 C 22.566406 -46.878906 30.265625 -47.1875 39.546875 -47.1875 C 48.640625 -47.1875 56.242188 -46.878906 62.359375 -46.265625 C 68.472656 -45.648438 73.078125 -45.050781 76.171875 -44.46875 C 79.273438 -43.882812 80.828125 -43.59375 80.828125 -43.59375 Z M 68.015625 -35.125 C 64.828125 -35.550781 60.863281 -35.914062 56.125 -36.21875 C 51.394531 -36.53125 45.835938 -36.6875 39.453125 -36.6875 C 31.890625 -36.75 25.710938 -36.59375 20.921875 -36.21875 C 16.128906 -35.851562 12.8125 -35.546875 10.96875 -35.296875 L 10.96875 -9.21875 C 13 -8.96875 16.5 -8.660156 21.46875 -8.296875 C 26.445312 -7.929688 32.503906 -7.75 39.640625 -7.75 C 46.023438 -7.75 51.535156 -7.882812 56.171875 -8.15625 C 60.816406 -8.4375 64.738281 -8.757812 67.9375 -9.125 L 68.015625 -35.203125 Z M 68.015625 -35.125 "/></g></g></g><g transform="matrix(1, 0, 0, 1, 0, 0)"><g clip-path="url(#8ae52aa0d2)"><g mask="url(#c7f34ce096)"><g transform="matrix(1, 0, 0, 1, 0, 0)"><g clip-path="url(#7a2c6f73db)"><g clip-path="url(#8742d7d010)"><path fill="url(#a44d2a0ff6)" d="M 202.664062 0 L 202.664062 375 L 643.664062 375 L 643.664062 0 Z M 202.664062 0 " fill-rule="nonzero"/></g></g></g></g></g></g><g transform="matrix(1, 0, 0, 1, 159, 222)"><g clip-path="url(#4df01a8c83)"><g fill="#ffffff" fill-opacity="1"><g transform="translate(0.316186, 21.742265)"><g><path d="M 2.5 -15.34375 L 4.125 -15.34375 L 4.125 0 L 2.5 0 Z M 2.5 -15.34375 "/></g></g></g><g fill="#ffffff" fill-opacity="1"><g transform="translate(16.142737, 21.742265)"><g><path d="M 2.5 -15.34375 L 8.75 -15.34375 C 10.375 -15.34375 11.804688 -15.015625 13.046875 -14.359375 C 14.285156 -13.710938 15.25 -12.804688 15.9375 -11.640625 C 16.625 -10.484375 16.96875 -9.160156 16.96875 -7.671875 C 16.96875 -6.179688 16.625 -4.851562 15.9375 -3.6875 C 15.25 -2.53125 14.285156 -1.625 13.046875 -0.96875 C 11.804688 -0.320312 10.375 0 8.75 0 L 2.5 0 Z M 8.65625 -1.40625 C 10 -1.40625 11.175781 -1.671875 12.1875 -2.203125 C 13.195312 -2.734375 13.976562 -3.46875 14.53125 -4.40625 C 15.09375 -5.351562 15.375 -6.441406 15.375 -7.671875 C 15.375 -8.898438 15.09375 -9.984375 14.53125 -10.921875 C 13.976562 -11.867188 13.195312 -12.609375 12.1875 -13.140625 C 11.175781 -13.671875 10 -13.9375 8.65625 -13.9375 L 4.125 -13.9375 L 4.125 -1.40625 Z M 8.65625 -1.40625 "/></g></g></g><g fill="#ffffff" fill-opacity="1"><g transform="translate(43.451604, 21.742265)"><g><path d="M 13.34375 -1.40625 L 13.34375 0 L 2.5 0 L 2.5 -15.34375 L 13.015625 -15.34375 L 13.015625 -13.9375 L 4.125 -13.9375 L 4.125 -8.484375 L 12.0625 -8.484375 L 12.0625 -7.109375 L 4.125 -7.109375 L 4.125 -1.40625 Z M 13.34375 -1.40625 "/></g></g></g><g fill="#ffffff" fill-opacity="1"><g transform="translate(67.32016, 21.742265)"><g><path d="M 15.328125 -15.34375 L 15.328125 0 L 13.984375 0 L 4.125 -12.453125 L 4.125 0 L 2.5 0 L 2.5 -15.34375 L 3.84375 -15.34375 L 13.71875 -2.890625 L 13.71875 -15.34375 Z M 15.328125 -15.34375 "/></g></g></g><g fill="#ffffff" fill-opacity="1"><g transform="translate(94.344152, 21.742265)"><g><path d="M 5.484375 -13.9375 L 0.09375 -13.9375 L 0.09375 -15.34375 L 12.5 -15.34375 L 12.5 -13.9375 L 7.109375 -13.9375 L 7.109375 0 L 5.484375 0 Z M 5.484375 -13.9375 "/></g></g></g><g fill="#ffffff" fill-opacity="1"><g transform="translate(116.130991, 21.742265)"><g><path d="M 2.5 -15.34375 L 4.125 -15.34375 L 4.125 0 L 2.5 0 Z M 2.5 -15.34375 "/></g></g></g><g fill="#ffffff" fill-opacity="1"><g transform="translate(131.957542, 21.742265)"><g><path d="M 2.5 -15.34375 L 8.75 -15.34375 C 10.375 -15.34375 11.804688 -15.015625 13.046875 -14.359375 C 14.285156 -13.710938 15.25 -12.804688 15.9375 -11.640625 C 16.625 -10.484375 16.96875 -9.160156 16.96875 -7.671875 C 16.96875 -6.179688 16.625 -4.851562 15.9375 -3.6875 C 15.25 -2.53125 14.285156 -1.625 13.046875 -0.96875 C 11.804688 -0.320312 10.375 0 8.75 0 L 2.5 0 Z M 8.65625 -1.40625 C 10 -1.40625 11.175781 -1.671875 12.1875 -2.203125 C 13.195312 -2.734375 13.976562 -3.46875 14.53125 -4.40625 C 15.09375 -5.351562 15.375 -6.441406 15.375 -7.671875 C 15.375 -8.898438 15.09375 -9.984375 14.53125 -10.921875 C 13.976562 -11.867188 13.195312 -12.609375 12.1875 -13.140625 C 11.175781 -13.671875 10 -13.9375 8.65625 -13.9375 L 4.125 -13.9375 L 4.125 -1.40625 Z M 8.65625 -1.40625 "/></g></g></g><g fill="#ffffff" fill-opacity="1"><g transform="translate(159.047214, 21.742265)"><g><path d="M 12.125 -4.09375 L 3.578125 -4.09375 L 1.734375 0 L 0.046875 0 L 7.0625 -15.34375 L 8.65625 -15.34375 L 15.671875 0 L 13.96875 0 Z M 11.53125 -5.421875 L 7.84375 -13.65625 L 4.171875 -5.421875 Z M 11.53125 -5.421875 "/></g></g></g><g fill="#ffffff" fill-opacity="1"><g transform="translate(183.967577, 21.742265)"><g><path d="M 2.5 -15.34375 L 8.75 -15.34375 C 10.375 -15.34375 11.804688 -15.015625 13.046875 -14.359375 C 14.285156 -13.710938 15.25 -12.804688 15.9375 -11.640625 C 16.625 -10.484375 16.96875 -9.160156 16.96875 -7.671875 C 16.96875 -6.179688 16.625 -4.851562 15.9375 -3.6875 C 15.25 -2.53125 14.285156 -1.625 13.046875 -0.96875 C 11.804688 -0.320312 10.375 0 8.75 0 L 2.5 0 Z M 8.65625 -1.40625 C 10 -1.40625 11.175781 -1.671875 12.1875 -2.203125 C 13.195312 -2.734375 13.976562 -3.46875 14.53125 -4.40625 C 15.09375 -5.351562 15.375 -6.441406 15.375 -7.671875 C 15.375 -8.898438 15.09375 -9.984375 14.53125 -10.921875 C 13.976562 -11.867188 13.195312 -12.609375 12.1875 -13.140625 C 11.175781 -13.671875 10 -13.9375 8.65625 -13.9375 L 4.125 -13.9375 L 4.125 -1.40625 Z M 8.65625 -1.40625 "/></g></g></g><g fill="#ffffff" fill-opacity="1"><g transform="translate(211.276444, 21.742265)"><g/></g></g><g fill="#ffffff" fill-opacity="1"><g transform="translate(226.226487, 21.742265)"><g><path d="M 2.5 -15.34375 L 8.75 -15.34375 C 10.375 -15.34375 11.804688 -15.015625 13.046875 -14.359375 C 14.285156 -13.710938 15.25 -12.804688 15.9375 -11.640625 C 16.625 -10.484375 16.96875 -9.160156 16.96875 -7.671875 C 16.96875 -6.179688 16.625 -4.851562 15.9375 -3.6875 C 15.25 -2.53125 14.285156 -1.625 13.046875 -0.96875 C 11.804688 -0.320312 10.375 0 8.75 0 L 2.5 0 Z M 8.65625 -1.40625 C 10 -1.40625 11.175781 -1.671875 12.1875 -2.203125 C 13.195312 -2.734375 13.976562 -3.46875 14.53125 -4.40625 C 15.09375 -5.351562 15.375 -6.441406 15.375 -7.671875 C 15.375 -8.898438 15.09375 -9.984375 14.53125 -10.921875 C 13.976562 -11.867188 13.195312 -12.609375 12.1875 -13.140625 C 11.175781 -13.671875 10 -13.9375 8.65625 -13.9375 L 4.125 -13.9375 L 4.125 -1.40625 Z M 8.65625 -1.40625 "/></g></g></g><g fill="#ffffff" fill-opacity="1"><g transform="translate(253.535354, 21.742265)"><g><path d="M 13.34375 -1.40625 L 13.34375 0 L 2.5 0 L 2.5 -15.34375 L 13.015625 -15.34375 L 13.015625 -13.9375 L 4.125 -13.9375 L 4.125 -8.484375 L 12.0625 -8.484375 L 12.0625 -7.109375 L 4.125 -7.109375 L 4.125 -1.40625 Z M 13.34375 -1.40625 "/></g></g></g><g fill="#ffffff" fill-opacity="1"><g transform="translate(277.403909, 21.742265)"><g/></g></g><g fill="#ffffff" fill-opacity="1"><g transform="translate(292.353951, 21.742265)"><g><path d="M 8.25 -15.34375 C 10.207031 -15.34375 11.738281 -14.875 12.84375 -13.9375 C 13.957031 -13.007812 14.515625 -11.722656 14.515625 -10.078125 C 14.515625 -8.441406 13.957031 -7.160156 12.84375 -6.234375 C 11.738281 -5.304688 10.207031 -4.84375 8.25 -4.84375 L 4.125 -4.84375 L 4.125 0 L 2.5 0 L 2.5 -15.34375 Z M 8.203125 -6.265625 C 9.722656 -6.265625 10.882812 -6.597656 11.6875 -7.265625 C 12.488281 -7.929688 12.890625 -8.867188 12.890625 -10.078125 C 12.890625 -11.328125 12.488281 -12.28125 11.6875 -12.9375 C 10.882812 -13.601562 9.722656 -13.9375 8.203125 -13.9375 L 4.125 -13.9375 L 4.125 -6.265625 Z M 8.203125 -6.265625 "/></g></g></g><g fill="#ffffff" fill-opacity="1"><g transform="translate(317.077018, 21.742265)"><g><path d="M 12.984375 0 L 9.46875 -4.9375 C 9.070312 -4.882812 8.664062 -4.859375 8.25 -4.859375 L 4.125 -4.859375 L 4.125 0 L 2.5 0 L 2.5 -15.34375 L 8.25 -15.34375 C 10.207031 -15.34375 11.738281 -14.875 12.84375 -13.9375 C 13.957031 -13.007812 14.515625 -11.722656 14.515625 -10.078125 C 14.515625 -8.878906 14.207031 -7.867188 13.59375 -7.046875 C 12.988281 -6.222656 12.125 -5.628906 11 -5.265625 L 14.75 0 Z M 8.203125 -6.25 C 9.722656 -6.25 10.882812 -6.582031 11.6875 -7.25 C 12.488281 -7.925781 12.890625 -8.867188 12.890625 -10.078125 C 12.890625 -11.328125 12.488281 -12.28125 11.6875 -12.9375 C 10.882812 -13.601562 9.722656 -13.9375 8.203125 -13.9375 L 4.125 -13.9375 L 4.125 -6.25 Z M 8.203125 -6.25 "/></g></g></g><g fill="#ffffff" fill-opacity="1"><g transform="translate(342.128898, 21.742265)"><g><path d="M 13.34375 -1.40625 L 13.34375 0 L 2.5 0 L 2.5 -15.34375 L 13.015625 -15.34375 L 13.015625 -13.9375 L 4.125 -13.9375 L 4.125 -8.484375 L 12.0625 -8.484375 L 12.0625 -7.109375 L 4.125 -7.109375 L 4.125 -1.40625 Z M 13.34375 -1.40625 "/></g></g></g><g fill="#ffffff" fill-opacity="1"><g transform="translate(365.909776, 21.742265)"><g><path d="M 9.15625 0.125 C 7.644531 0.125 6.273438 -0.207031 5.046875 -0.875 C 3.828125 -1.550781 2.867188 -2.484375 2.171875 -3.671875 C 1.484375 -4.859375 1.140625 -6.191406 1.140625 -7.671875 C 1.140625 -9.148438 1.484375 -10.484375 2.171875 -11.671875 C 2.867188 -12.859375 3.832031 -13.789062 5.0625 -14.46875 C 6.289062 -15.144531 7.664062 -15.484375 9.1875 -15.484375 C 10.320312 -15.484375 11.367188 -15.289062 12.328125 -14.90625 C 13.296875 -14.53125 14.117188 -13.972656 14.796875 -13.234375 L 13.765625 -12.203125 C 12.566406 -13.421875 11.054688 -14.03125 9.234375 -14.03125 C 8.015625 -14.03125 6.90625 -13.75 5.90625 -13.1875 C 4.914062 -12.632812 4.140625 -11.875 3.578125 -10.90625 C 3.015625 -9.945312 2.734375 -8.867188 2.734375 -7.671875 C 2.734375 -6.472656 3.015625 -5.390625 3.578125 -4.421875 C 4.140625 -3.460938 4.914062 -2.703125 5.90625 -2.140625 C 6.90625 -1.585938 8.015625 -1.3125 9.234375 -1.3125 C 11.066406 -1.3125 12.578125 -1.925781 13.765625 -3.15625 L 14.796875 -2.125 C 14.117188 -1.394531 13.296875 -0.835938 12.328125 -0.453125 C 11.359375 -0.0664062 10.300781 0.125 9.15625 0.125 Z M 9.15625 0.125 "/></g></g></g><g fill="#ffffff" fill-opacity="1"><g transform="translate(390.873949, 21.742265)"><g><path d="M 2.5 -15.34375 L 4.125 -15.34375 L 4.125 0 L 2.5 0 Z M 2.5 -15.34375 "/></g></g></g><g fill="#ffffff" fill-opacity="1"><g transform="translate(406.700514, 21.742265)"><g><path d="M 6.734375 0.125 C 5.585938 0.125 4.492188 -0.0546875 3.453125 -0.421875 C 2.410156 -0.785156 1.601562 -1.265625 1.03125 -1.859375 L 1.671875 -3.109375 C 2.222656 -2.554688 2.957031 -2.109375 3.875 -1.765625 C 4.800781 -1.421875 5.753906 -1.25 6.734375 -1.25 C 8.109375 -1.25 9.132812 -1.5 9.8125 -2 C 10.5 -2.507812 10.84375 -3.164062 10.84375 -3.96875 C 10.84375 -4.582031 10.65625 -5.070312 10.28125 -5.4375 C 9.914062 -5.800781 9.460938 -6.082031 8.921875 -6.28125 C 8.378906 -6.476562 7.628906 -6.691406 6.671875 -6.921875 C 5.515625 -7.210938 4.59375 -7.492188 3.90625 -7.765625 C 3.21875 -8.035156 2.628906 -8.445312 2.140625 -9 C 1.648438 -9.5625 1.40625 -10.316406 1.40625 -11.265625 C 1.40625 -12.046875 1.609375 -12.753906 2.015625 -13.390625 C 2.421875 -14.023438 3.046875 -14.53125 3.890625 -14.90625 C 4.742188 -15.289062 5.800781 -15.484375 7.0625 -15.484375 C 7.9375 -15.484375 8.789062 -15.359375 9.625 -15.109375 C 10.46875 -14.867188 11.195312 -14.539062 11.8125 -14.125 L 11.265625 -12.828125 C 10.617188 -13.242188 9.929688 -13.554688 9.203125 -13.765625 C 8.472656 -13.984375 7.757812 -14.09375 7.0625 -14.09375 C 5.71875 -14.09375 4.703125 -13.832031 4.015625 -13.3125 C 3.335938 -12.800781 3 -12.132812 3 -11.3125 C 3 -10.695312 3.1875 -10.203125 3.5625 -9.828125 C 3.9375 -9.453125 4.40625 -9.164062 4.96875 -8.96875 C 5.53125 -8.78125 6.285156 -8.566406 7.234375 -8.328125 C 8.359375 -8.046875 9.265625 -7.769531 9.953125 -7.5 C 10.648438 -7.238281 11.238281 -6.832031 11.71875 -6.28125 C 12.207031 -5.726562 12.453125 -4.988281 12.453125 -4.0625 C 12.453125 -3.28125 12.242188 -2.570312 11.828125 -1.9375 C 11.410156 -1.300781 10.769531 -0.796875 9.90625 -0.421875 C 9.039062 -0.0546875 7.984375 0.125 6.734375 0.125 Z M 6.734375 0.125 "/></g></g></g><g fill="#ffffff" fill-opacity="1"><g transform="translate(429.385746, 21.742265)"><g><path d="M 2.5 -15.34375 L 4.125 -15.34375 L 4.125 0 L 2.5 0 Z M 2.5 -15.34375 "/></g></g></g><g fill="#ffffff" fill-opacity="1"><g transform="translate(445.212311, 21.742265)"><g><path d="M 9.203125 0.125 C 7.679688 0.125 6.300781 -0.210938 5.0625 -0.890625 C 3.832031 -1.566406 2.867188 -2.492188 2.171875 -3.671875 C 1.484375 -4.859375 1.140625 -6.191406 1.140625 -7.671875 C 1.140625 -9.148438 1.484375 -10.476562 2.171875 -11.65625 C 2.867188 -12.84375 3.832031 -13.773438 5.0625 -14.453125 C 6.300781 -15.140625 7.679688 -15.484375 9.203125 -15.484375 C 10.722656 -15.484375 12.09375 -15.144531 13.3125 -14.46875 C 14.53125 -13.789062 15.488281 -12.859375 16.1875 -11.671875 C 16.894531 -10.484375 17.25 -9.148438 17.25 -7.671875 C 17.25 -6.191406 16.894531 -4.859375 16.1875 -3.671875 C 15.488281 -2.484375 14.53125 -1.550781 13.3125 -0.875 C 12.09375 -0.207031 10.722656 0.125 9.203125 0.125 Z M 9.203125 -1.3125 C 10.421875 -1.3125 11.519531 -1.582031 12.5 -2.125 C 13.476562 -2.675781 14.242188 -3.4375 14.796875 -4.40625 C 15.347656 -5.382812 15.625 -6.472656 15.625 -7.671875 C 15.625 -8.867188 15.347656 -9.953125 14.796875 -10.921875 C 14.242188 -11.898438 13.476562 -12.660156 12.5 -13.203125 C 11.519531 -13.753906 10.421875 -14.03125 9.203125 -14.03125 C 7.992188 -14.03125 6.894531 -13.753906 5.90625 -13.203125 C 4.914062 -12.660156 4.140625 -11.898438 3.578125 -10.921875 C 3.015625 -9.953125 2.734375 -8.867188 2.734375 -7.671875 C 2.734375 -6.472656 3.015625 -5.382812 3.578125 -4.40625 C 4.140625 -3.4375 4.914062 -2.675781 5.90625 -2.125 C 6.894531 -1.582031 7.992188 -1.3125 9.203125 -1.3125 Z M 10.78125 -19.3125 L 12.859375 -19.3125 L 9.3125 -16.59375 L 7.78125 -16.59375 Z M 10.78125 -19.3125 "/></g></g></g><g fill="#ffffff" fill-opacity="1"><g transform="translate(472.806024, 21.742265)"><g><path d="M 15.328125 -15.34375 L 15.328125 0 L 13.984375 0 L 4.125 -12.453125 L 4.125 0 L 2.5 0 L 2.5 -15.34375 L 3.84375 -15.34375 L 13.71875 -2.890625 L 13.71875 -15.34375 Z M 15.328125 -15.34375 "/></g></g></g></g></g></svg>