<?xml version="1.0" encoding="UTF-8"?>
<svg id="Capa_2" data-name="Capa 2" xmlns="http://www.w3.org/2000/svg" xmlns:xlink="http://www.w3.org/1999/xlink" viewBox="0 0 328.21 59.12">
  <defs>
    <style>
      .cls-1 {
        fill: url(#Degradado_sin_nombre_48);
      }

      .cls-2 {
        fill: #fff;
      }
    </style>
    <linearGradient id="Degradado_sin_nombre_48" data-name="Degradado sin nombre 48" x1="145.32" y1="17.25" x2="172.17" y2="17.25" gradientUnits="userSpaceOnUse">
      <stop offset="0" stop-color="#acc90f"/>
      <stop offset="1" stop-color="#73bb6f"/>
    </linearGradient>
  </defs>
  <g id="Capa_1-2" data-name="Capa 1">
    <g>
      <path class="cls-1" d="M163.43,33.99V7.71c-2.67,0-9.17.12-18.1,1.24V1.82s9.36-1.43,20.33-1.3l6.51.06v33.42h-8.74Z"/>
      <g>
        <path class="cls-2" d="M4.61,58.88v-13.73h2.28v13.73h-2.28Z"/>
        <path class="cls-2" d="M25.16,44.81v14.08h-1.99v-1.63c-.67,1.1-1.94,1.87-3.54,1.87-2.68,0-4.86-2.11-4.86-5.1s2.09-5,4.81-5c1.48,0,2.64.6,3.36,1.49v-5.72h2.21ZM22.94,54.01c0-2.16-1.72-3.14-3.16-3.14-1.68,0-2.9,1.32-2.9,3.18s1.29,3.24,2.94,3.24c1.75,0,3.11-1.36,3.12-3.28Z"/>
        <path class="cls-2" d="M42.08,54.98l-7.38.03c.38,1.44,1.7,2.25,4.03,2.25,1.15,0,2.03-.26,2.83-.6v1.72c-.94.45-1.92.74-3.25.74-3.47,0-5.67-1.92-5.67-5.12s2.01-4.98,4.89-4.98,4.6,2.11,4.6,4.62c0,.27-.03.93-.07,1.34ZM34.69,53.25h5.51c-.05-1.29-1.03-2.4-2.68-2.4-1.54,0-2.56,1.03-2.83,2.4Z"/>
        <path class="cls-2" d="M59.28,58.88h-2.21v-7.79h-5.29v7.79h-2.21v-9.61h9.72v9.61Z"/>
        <path class="cls-2" d="M70.36,51.31v3.4c0,1.7.69,2.61,2.11,2.61.45,0,1.08-.12,1.6-.27v1.73c-.72.19-1.58.34-2.32.34-2.42,0-3.61-1.44-3.61-3.85v-3.97h-1.77v-1.84h1.97l.48-2.01h1.53v2.01h3.72v1.84h-3.72Z"/>
        <path class="cls-2" d="M81.03,46.42c0-.72.55-1.2,1.37-1.2s1.36.48,1.36,1.2-.55,1.2-1.36,1.2-1.37-.48-1.37-1.2ZM83.51,58.88h-2.21v-9.61h2.21v9.61Z"/>
        <path class="cls-2" d="M101.38,44.81v14.08h-1.99v-1.63c-.67,1.1-1.94,1.87-3.54,1.87-2.68,0-4.86-2.11-4.86-5.1s2.09-5,4.81-5c1.48,0,2.64.6,3.36,1.49v-5.72h2.21ZM99.16,54.01c0-2.16-1.72-3.14-3.16-3.14-1.68,0-2.9,1.32-2.9,3.18s1.29,3.24,2.94,3.24c1.75,0,3.11-1.36,3.12-3.28Z"/>
        <path class="cls-2" d="M119.3,57.49v1.39h-3.09l-.09-1.05c-.79.81-1.97,1.29-3.48,1.29-2.4,0-3.91-1.24-3.91-3.12s1.46-3.09,4.24-3.09c.96,0,2.03.12,2.87.31v-2.18h-6.51v-1.77h8.72v8.22h1.25ZM115.83,54.83v-.02c-.86-.21-1.85-.27-2.44-.27-1.8,0-2.64.48-2.64,1.36,0,.96,1.05,1.34,2.09,1.34,1.65,0,2.99-.79,2.99-2.4Z"/>
        <path class="cls-2" d="M136.23,44.81v14.08h-1.99v-1.63c-.67,1.1-1.94,1.87-3.54,1.87-2.68,0-4.86-2.11-4.86-5.1s2.09-5,4.81-5c1.48,0,2.64.6,3.36,1.49v-5.72h2.21ZM134.01,54.01c0-2.16-1.72-3.14-3.16-3.14-1.68,0-2.9,1.32-2.9,3.18s1.29,3.24,2.94,3.24c1.75,0,3.11-1.36,3.12-3.28Z"/>
        <path class="cls-2" d="M164.03,44.81v14.08h-1.99v-1.63c-.67,1.1-1.94,1.87-3.54,1.87-2.68,0-4.86-2.11-4.86-5.1s2.09-5,4.81-5c1.48,0,2.64.6,3.36,1.49v-5.72h2.21ZM161.82,54.01c0-2.16-1.72-3.14-3.16-3.14-1.68,0-2.9,1.32-2.9,3.18s1.29,3.24,2.94,3.24c1.75,0,3.11-1.36,3.12-3.28Z"/>
        <path class="cls-2" d="M180.96,54.98l-7.38.03c.38,1.44,1.7,2.25,4.03,2.25,1.15,0,2.03-.26,2.83-.6v1.72c-.94.45-1.92.74-3.25.74-3.47,0-5.67-1.92-5.67-5.12s2.01-4.98,4.89-4.98,4.6,2.11,4.6,4.62c0,.27-.03.93-.07,1.34ZM173.56,53.25h5.51c-.05-1.29-1.03-2.4-2.68-2.4-1.54,0-2.56,1.03-2.83,2.4Z"/>
        <path class="cls-2" d="M210.33,50.09c0,2.97-1.97,4.96-5.24,4.96h-3.9v3.83h-2.28v-13.73h6.18c3.26,0,5.24,1.97,5.24,4.94ZM208.17,50.09c0-1.82-1.25-3.07-3.33-3.07h-3.64v6.16h3.64c2.03,0,3.33-1.27,3.33-3.09Z"/>
        <path class="cls-2" d="M223.46,51.19l-3.59-.02v7.71h-2.21v-9.61h2.21v.02l3.59.02v1.89Z"/>
        <path class="cls-2" d="M239.14,54.98l-7.38.03c.38,1.44,1.7,2.25,4.03,2.25,1.15,0,2.03-.26,2.83-.6v1.72c-.94.45-1.92.74-3.25.74-3.47,0-5.67-1.92-5.67-5.12s2.01-4.98,4.89-4.98,4.6,2.11,4.6,4.62c0,.27-.03.93-.07,1.34ZM231.74,53.25h5.51c-.05-1.29-1.03-2.4-2.68-2.4-1.54,0-2.56,1.03-2.83,2.4Z"/>
        <path class="cls-2" d="M254.02,58.56c-.76.34-1.48.57-2.68.57-3.16,0-5.34-2.01-5.34-5.03s2.18-5.06,5.34-5.06c1.18,0,2.06.17,2.68.43v1.91c-.81-.34-1.54-.45-2.39-.45-2.15,0-3.52,1.29-3.52,3.18s1.37,3.14,3.6,3.14c.86,0,1.49-.15,2.3-.57v1.89Z"/>
        <path class="cls-2" d="M261.26,46.42c0-.72.55-1.2,1.37-1.2s1.36.48,1.36,1.2-.55,1.2-1.36,1.2-1.37-.48-1.37-1.2ZM263.74,58.88h-2.21v-9.61h2.21v9.61Z"/>
        <path class="cls-2" d="M271.46,58.35v-1.99c1.05.55,2.33.91,3.69.91s2.2-.34,2.2-1.06c0-.43-.29-.79-1.67-1.03l-1-.17c-1.72-.29-3.33-1.01-3.33-3,0-2.16,1.68-2.97,4.26-2.97.82,0,2.01.15,3.26.57v1.99c-1.06-.4-2.23-.67-3.43-.67-1.12,0-2.01.22-2.01.98,0,.52.41.81,1.75,1.05l.84.15c1.46.27,3.4.84,3.4,2.94s-1.67,3.09-4.26,3.09c-1.41,0-2.71-.31-3.71-.77Z"/>
        <path class="cls-2" d="M286.53,46.42c0-.72.55-1.2,1.37-1.2s1.36.48,1.36,1.2-.55,1.2-1.36,1.2-1.37-.48-1.37-1.2ZM289,58.88h-2.21v-9.61h2.21v9.61Z"/>
        <path class="cls-2" d="M296.49,53.99c0-2.92,2.18-4.96,5.22-4.96s5.22,2.04,5.22,4.96-2.18,5.13-5.22,5.13-5.22-2.11-5.22-5.13ZM304.82,54.01c0-1.84-1.34-3.12-3.11-3.12s-3.11,1.29-3.11,3.12,1.32,3.26,3.11,3.26,3.11-1.37,3.11-3.26ZM304.37,46.18l-4.6,1.67-.5-1.27,4.5-1.97.6,1.58Z"/>
        <path class="cls-2" d="M324.13,58.88h-2.21v-7.79h-5.29v7.79h-2.21v-9.61h9.72v9.61Z"/>
      </g>
      <path class="cls-2" d="M28.46,34.16c-18.8,0-28.46-2.44-28.46-2.44V.25h8.71v25.7c4.45.56,10.91,1.07,19.75,1.07,10.47.06,17.05-.63,19.62-.94V.25h8.78v31.47s-9.28,2.44-28.4,2.44Z"/>
      <path class="cls-2" d="M126.05,33.91V8.21c-4.45-.56-10.91-1.07-19.68-1.07-10.41-.06-17.11.69-19.68,1v25.76h-8.71V2.51s9.28-2.51,28.4-2.51,28.46,2.51,28.46,2.51v31.4h-8.78Z"/>
      <path class="cls-2" d="M222.02,34.16c-18.37,0-28.08-2.44-28.08-2.44V2.7s9.53-2.44,28.08-2.44,28.08,2.44,28.08,2.44v7.15s-10.53-2.38-28.08-2.44c-10.28,0-16.8.63-19.43.94l.06,17.74c2.44.31,8.65.94,19.24.94,18.05,0,28.21-2.51,28.21-2.51v7.21s-9.84,2.44-28.08,2.44Z"/>
      <path class="cls-2" d="M300.12,34.22c-18.49-.06-28.08-2.44-28.08-2.44V2.82s9.09-2.44,28.08-2.44,28.08,2.44,28.08,2.44v29.02s-9.78,2.38-28.08,2.38ZM300.06,7.52c-10.28-.06-16.86.63-19.37.94v17.74c2.76.31,9.78,1,19.5,1,8.71,0,14.92-.44,19.24-.94l.06-17.74v.06c-4.39-.56-10.78-1.07-19.43-1.07Z"/>
    </g>
  </g>
</svg>