<?xml version="1.0" encoding="UTF-8"?>
<svg id="Capa_2" data-name="Capa 2" xmlns="http://www.w3.org/2000/svg" viewBox="0 0 757.04 65.61">
  <g id="Capa_1-2" data-name="Capa 1">
    <g>
      <path d="M52.04,4.17h12.36c3.24.19,6.28,1.53,9.03,3.16,2.61,1.57,5.07,3.45,7,5.83,2.22,2.67,3.74,5.8,5.15,8.95,1.24,2.69,2.44,5.49,4.48,7.68,1.06,1.14,2.37,2.07,3.8,2.68,1.78.78,3.73,1.08,5.65,1.18,1.73.15,3.46.12,5.19.12,3.76.02,7.51-.1,11.26-.05,1.41.03,2.84-.04,4.23.25,3.2.63,6.09,2.45,8.29,4.82.85.91,1.57,1.95,2.16,3.05,1.21,2.09,1.89,4.48,1.99,6.9v.93c-.07,2.72-.89,5.42-2.37,7.7-1.84,2.89-4.68,5.12-7.89,6.3-1.83.68-3.77.97-5.71,1.04-3.32-.15-6.64-1.21-9.33-3.19-1.35-.99-2.46-2.27-3.38-3.66-.99-1.52-1.91-3.08-2.75-4.69-2.16-3.97-4.45-7.87-6.8-11.73-1.8-2.84-4.71-4.95-7.98-5.72-2.06-.54-4.2-.42-6.31-.48-11.04-.15-22.08,0-33.11-.11-.75-.02-1.52.02-2.27-.09-2.84-.38-5.52-1.7-7.65-3.6-2.68-2.38-4.6-5.66-5.19-9.2-.3-1.7-.19-3.43.02-5.13.72-4.78,3.97-9.01,8.24-11.23,1.96-1.02,4.16-1.6,6.37-1.61,1.84-.05,3.69,0,5.53-.09h-.01Z"/>
      <path d="M9.63,35.5c8.91-4.44,20.8,1.79,22.35,11.57,1.8,9.27-6.63,18.54-15.95,18.1C7.41,65.32-.58,57.51.03,48.79c.43-5.77,4.25-11.07,9.59-13.28Z"/>
      <path d="M748.37,51.73c.48-.09,1.2-.15,1.93-.15,1.01,0,1.69.17,2.16.56.39.32.6.81.6,1.4,0,.9-.61,1.51-1.27,1.75v.03c.5.18.8.67.97,1.35.22.87.4,1.68.55,1.95h-1.32c-.1-.21-.27-.78-.47-1.65-.2-.91-.53-1.2-1.26-1.23h-.64v2.87h-1.27v-6.9h0ZM749.64,54.82h.76c.86,0,1.4-.46,1.4-1.15,0-.77-.54-1.12-1.37-1.12-.4,0-.66.03-.79.06v2.21Z"/>
      <path d="M750.64,61.51c-1.71,0-3.32-.67-4.53-1.88-1.21-1.21-1.88-2.82-1.88-4.53s.67-3.32,1.88-4.53c1.21-1.21,2.82-1.88,4.53-1.88s3.32.67,4.53,1.88c1.21,1.21,1.88,2.82,1.88,4.53s-.67,3.32-1.88,4.53c-1.21,1.21-2.82,1.88-4.53,1.88ZM750.64,49.88c-2.88,0-5.22,2.34-5.22,5.22s2.34,5.22,5.22,5.22,5.22-2.34,5.22-5.22-2.34-5.22-5.22-5.22Z"/>
      <path d="M400,42.49c0-14.01,0-28.02,0-42.03,3.03-.06,6.06-.06,9.08,0v42.6c-.13,5.11-2.08,10.16-5.44,14.02-3.21,3.76-7.68,6.44-12.53,7.42-5.63,1.17-11.7.14-16.59-2.91-4.27-2.66-7.67-6.74-9.37-11.48-1.96-5.32-1.8-11.37.44-16.58,1.86-4.38,5.14-8.14,9.22-10.6,5.3-3.17,11.93-4.11,17.85-2.33,1.24.29,2.41.99,3.06,2.11,1.07,1.62.85,3.89-.4,5.35-.88,1.07-2.29,1.69-3.67,1.58-.96-.09-1.88-.44-2.83-.58-5.26-1.05-10.95,1.5-13.78,6.04-1.71,2.63-2.45,5.87-2.05,8.98.34,2.68,1.51,5.24,3.29,7.26,1.83,2.08,4.31,3.57,7,4.22,2.55.64,5.28.48,7.75-.42,2.7-.99,5.08-2.86,6.66-5.27,1.45-2.17,2.22-4.77,2.27-7.39h.02Z"/>
      <path d="M190.04,2.53c1.67-1.96,5.06-2.07,6.82-.18.64.67.95,1.55,1.36,2.35,8.65,17.88,17.31,35.76,25.97,53.63.36.77.81,1.5.96,2.35.28,1.34-.19,2.81-1.2,3.74-.72.67-1.67,1.07-2.65,1.18h-1.15c-1.48-.18-2.85-1.09-3.51-2.43-2.03-4.22-4.04-8.46-6.07-12.68-11.36,0-22.71,0-34.06,0-1.93,4.01-3.85,8.03-5.77,12.04-.25.5-.45,1.04-.82,1.47-1.56,1.87-4.66,2.11-6.54.58-1.43-1.11-1.96-3.21-1.16-4.85,8.95-18.53,17.92-37.06,26.88-55.58.26-.57.53-1.15.96-1.62h0ZM188.43,25.48c-2.65,5.5-5.3,11-7.95,16.5,8.69.02,17.39,0,26.08,0-4.33-9.05-8.67-18.09-12.98-27.14-1.76,3.52-3.43,7.09-5.15,10.63Z"/>
      <path d="M237.41,25.75c3.95-4.03,9.64-6.31,15.29-6.02,5.77.21,11.36,3.06,14.99,7.54,2.88-3.55,6.97-6.11,11.44-7.08,3.35-.74,6.89-.61,10.18.35,4.19,1.24,7.97,3.88,10.55,7.41,2.79,3.78,4.28,8.53,4.02,13.24v22.66h-9.01c0-7.94,0-15.89,0-23.83-.02-2.43-.87-4.84-2.35-6.75-1.48-1.91-3.57-3.37-5.91-4.01-2.68-.76-5.66-.51-8.15.77-3.36,1.66-5.76,5.12-6.16,8.85-.09.72-.06,1.44-.06,2.16v22.81c-3.05-.01-6.09.02-9.13-.02.02-7.88,0-15.77.01-23.65.02-2.38-.76-4.74-2.15-6.67-1.45-2.02-3.58-3.54-5.96-4.22-2.61-.77-5.51-.58-7.97.61-3.59,1.65-6.12,5.34-6.43,9.28-.06,2.1-.06,4.21-.06,6.32v18.35h-9.09v-24.1c.06-5.2,2.26-10.33,5.94-14h0Z"/>
      <path d="M321.95,23.11c5.54-3.46,12.61-4.35,18.83-2.31,4.62,1.46,8.72,4.49,11.51,8.45,1.78,2.49,3.05,5.35,3.71,8.35.68,2.87.48,5.85.51,8.77-.01,5.83.02,11.66-.02,17.5-3.03-.02-6.07,0-9.1-.01,0-7.37,0-14.74,0-22.11-.16-3.2-1.48-6.33-3.69-8.65-1.71-1.83-3.93-3.16-6.35-3.81-3.07-.84-6.45-.51-9.3.89-3.25,1.54-5.83,4.43-6.97,7.83-1.27,3.58-.88,7.69.99,10.98,1.43,2.56,3.71,4.64,6.4,5.81,2.63,1.15,5.64,1.48,8.44.78,1.27-.31,2.64-.72,3.92-.21,2,.67,3.26,2.89,2.97,4.95-.17,1.2-.85,2.32-1.84,3.02-.95.72-2.17.88-3.3,1.15-5.57,1.15-11.57.25-16.44-2.72-2.28-1.37-4.32-3.13-5.99-5.2-2.86-3.49-4.6-7.87-4.95-12.36-.34-4.2.51-8.5,2.47-12.24,1.87-3.62,4.76-6.7,8.21-8.86h0Z"/>
      <path d="M436.25,19.89c5.55-.72,11.37.72,15.91,4.01,3.98,2.84,7.03,6.98,8.49,11.66,1.69,5.31,1.33,11.25-1.02,16.3-2.26,4.86-6.28,8.87-11.16,11.09-5.22,2.38-11.34,2.67-16.76.8-4.85-1.62-9.06-5-11.81-9.3-3.04-4.73-4.14-10.62-3.13-16.13.89-5.04,3.6-9.72,7.47-13.05,3.36-2.92,7.58-4.85,12.01-5.37h0ZM437.51,28.92c-4.36.46-8.33,3.25-10.4,7.09-1.29,2.4-1.84,5.21-1.51,7.92.29,2.41,1.21,4.76,2.7,6.68,1.45,1.89,3.4,3.4,5.61,4.3,2.65,1.11,5.65,1.34,8.43.63,2.57-.66,4.93-2.07,6.71-4.05,2.07-2.26,3.32-5.25,3.51-8.31.32-4.79-2.16-9.61-6.19-12.19-2.59-1.69-5.79-2.45-8.86-2.07Z"/>
      <path d="M485.87,20.51c4.82-1.31,10.09-.99,14.7.97-1.35,2.72-2.74,5.42-4.1,8.13-2.75-.91-5.79-1.04-8.57-.18-4.27,1.27-7.78,4.78-9.06,9.04-.78,2.41-.58,4.97-.6,7.47v17.93c-3.03,0-6.06.01-9.1-.01.02-7.5-.01-15,.02-22.51.23-5.25,2.35-10.39,5.94-14.24,2.87-3.16,6.66-5.48,10.78-6.59h0Z"/>
      <path d="M529.01,17.2h22.28c.56,0,1.05.2,1.48.6.42.4.63.89.63,1.47s-.2,1.07-.59,1.47-.9.6-1.53.6h-22.28v18.83c0,2.57.48,4.96,1.43,7.18.96,2.22,2.27,4.14,3.94,5.78s3.63,2.92,5.87,3.86c2.24.93,4.63,1.4,7.2,1.4,2.31,0,4.45-.36,6.4-1.06s3.82-1.86,5.61-3.47c.19-.19.44-.37.75-.53.16-.06.29-.11.42-.15.12-.03.26-.05.42-.05.47,0,.88.16,1.22.48.47.45.66,1,.59,1.64-.08.64-.34,1.19-.77,1.64-1.91,1.86-4.11,3.27-6.61,4.24-2.5.96-5.17,1.45-8.02,1.45-3.1,0-6.01-.57-8.75-1.71s-5.13-2.7-7.18-4.69-3.66-4.36-4.83-7.1c-1.17-2.75-1.76-5.71-1.76-8.89V3.38c0-.61.2-1.12.61-1.54s.89-.63,1.45-.63c.59,0,1.08.2,1.45.6.37.4.56.93.56,1.56v13.83h0Z"/>
      <path d="M547.44,63.8c-3.24,0-6.34-.61-9.21-1.8-2.87-1.2-5.41-2.86-7.55-4.95-2.15-2.09-3.87-4.62-5.1-7.5-1.23-2.89-1.86-6.04-1.86-9.36V3.38c0-.92.33-1.75.95-2.39.63-.65,1.43-.99,2.32-.99s1.73.34,2.34.99c.59.63.89,1.43.89,2.4v12.61h21.07c.87,0,1.67.32,2.31.94.66.63,1.01,1.44,1.01,2.35s-.32,1.69-.93,2.32c-.62.63-1.44.97-2.39.97h-21.07v17.62c0,2.39.45,4.65,1.33,6.7.89,2.06,2.12,3.87,3.67,5.39,1.55,1.52,3.4,2.73,5.48,3.6,2.07.86,4.34,1.31,6.73,1.31,2.16,0,4.18-.33,5.99-.99,1.8-.65,3.55-1.73,5.2-3.23.22-.23.57-.48,1.01-.7.31-.13.5-.2.67-.24.93-.23,2.02.02,2.77.72.76.73,1.08,1.65.96,2.67-.11.91-.48,1.7-1.11,2.34-2.04,1.99-4.4,3.51-7.05,4.52-2.63,1.01-5.47,1.53-8.46,1.53h.02ZM527,2.43c-.23,0-.41.08-.59.26-.18.19-.26.4-.26.69v36.8c0,3,.56,5.83,1.66,8.41,1.1,2.59,2.64,4.84,4.56,6.71,1.92,1.88,4.21,3.37,6.8,4.44,2.57,1.07,5.36,1.62,8.28,1.62,2.68,0,5.23-.46,7.58-1.37,2.34-.9,4.42-2.24,6.2-3.98.23-.24.37-.53.42-.92.03-.26-.03-.43-.22-.61-.1-.1-.21-.14-.38-.14-.07,0-.12,0-.12.01-.07.02-.16.05-.26.09-.15.09-.28.19-.34.25-1.95,1.76-3.97,3.01-6.06,3.76-2.08.75-4.37,1.13-6.82,1.13-2.72,0-5.3-.5-7.67-1.49-2.37-.99-4.47-2.37-6.25-4.11s-3.19-3.82-4.2-6.17c-1.02-2.36-1.53-4.93-1.53-7.65v-20.05h23.49c.37,0,.54-.12.66-.23.17-.18.25-.36.25-.63,0-.25-.07-.42-.26-.59-.2-.19-.39-.27-.64-.27h-23.49V3.38c0-.44-.13-.63-.24-.74-.1-.11-.25-.21-.57-.21h0Z"/>
      <path d="M567.1,40.21c0-3.1.59-6.01,1.76-8.75s2.78-5.11,4.81-7.13,4.41-3.61,7.13-4.79c2.72-1.17,5.61-1.76,8.68-1.76s6,.59,8.72,1.76,5.09,2.76,7.1,4.79c2.02,2.02,3.6,4.39,4.76,7.13,1.16,2.73,1.73,5.65,1.73,8.75s-.58,5.96-1.73,8.68-2.75,5.1-4.76,7.13c-2.02,2.03-4.38,3.63-7.1,4.81s-5.63,1.76-8.72,1.76-5.96-.59-8.68-1.76-5.1-2.78-7.13-4.81c-2.03-2.03-3.63-4.41-4.81-7.13-1.17-2.72-1.76-5.61-1.76-8.68h0ZM571.17,40.21c0,2.47.48,4.82,1.43,7.04.96,2.22,2.25,4.17,3.89,5.84,1.64,1.67,3.57,3,5.79,3.97s4.61,1.45,7.18,1.45,5-.48,7.22-1.45c2.22-.97,4.15-2.29,5.79-3.97s2.93-3.62,3.87-5.84c.94-2.22,1.4-4.57,1.4-7.04s-.47-4.92-1.4-7.15c-.94-2.24-2.22-4.18-3.87-5.84-1.64-1.65-3.57-2.96-5.79-3.92-2.22-.96-4.63-1.43-7.22-1.43s-4.92.48-7.15,1.43c-2.24.96-4.17,2.26-5.82,3.92s-2.94,3.6-3.89,5.84c-.96,2.24-1.43,4.62-1.43,7.15h0Z"/>
      <path d="M589.47,63.8c-3.22,0-6.29-.63-9.16-1.86-2.85-1.23-5.38-2.93-7.51-5.06-2.13-2.13-3.84-4.65-5.06-7.51-1.23-2.86-1.86-5.94-1.86-9.16s.63-6.35,1.86-9.22c1.23-2.87,2.94-5.39,5.07-7.51,2.13-2.11,4.66-3.81,7.5-5.04,2.86-1.23,5.94-1.86,9.16-1.86s6.34.63,9.2,1.86c2.85,1.23,5.37,2.92,7.48,5.04,2.12,2.11,3.81,4.65,5.02,7.51,1.21,2.87,1.83,5.98,1.83,9.22s-.62,6.29-1.83,9.15c-1.21,2.85-2.9,5.38-5.01,7.51-2.11,2.13-4.63,3.84-7.48,5.07-2.86,1.23-5.96,1.86-9.2,1.86h0ZM589.47,19.01c-2.89,0-5.64.56-8.19,1.66-2.57,1.1-4.84,2.63-6.75,4.53-1.91,1.89-3.44,4.17-4.55,6.75-1.1,2.57-1.66,5.35-1.66,8.27s.56,5.64,1.66,8.19c1.11,2.57,2.64,4.84,4.55,6.75,1.91,1.91,4.19,3.44,6.75,4.55,2.56,1.1,5.31,1.66,8.19,1.66s5.69-.56,8.24-1.66c2.57-1.1,4.83-2.64,6.72-4.55,1.9-1.91,3.41-4.19,4.5-6.75,1.08-2.56,1.64-5.32,1.64-8.2s-.55-5.7-1.64-8.27c-1.09-2.58-2.6-4.85-4.5-6.74-1.9-1.9-4.16-3.42-6.73-4.53-2.56-1.1-5.33-1.66-8.24-1.66h0ZM589.47,59.71c-2.72,0-5.3-.52-7.66-1.56-2.35-1.02-4.43-2.45-6.17-4.22-1.74-1.77-3.14-3.86-4.14-6.21-1.01-2.36-1.53-4.88-1.53-7.51s.51-5.25,1.53-7.63c1.01-2.37,2.4-4.46,4.15-6.21,1.75-1.76,3.83-3.17,6.2-4.18,2.38-1.01,4.95-1.53,7.63-1.53s5.34.51,7.7,1.53c2.35,1.01,4.43,2.41,6.18,4.17,1.74,1.76,3.13,3.86,4.12,6.22.99,2.38,1.5,4.94,1.5,7.62s-.5,5.15-1.5,7.51c-.99,2.35-2.38,4.44-4.12,6.21-1.74,1.78-3.82,3.2-6.17,4.22-2.37,1.03-4.96,1.56-7.71,1.56h0ZM589.47,23.09c-2.35,0-4.6.45-6.67,1.34-2.08.89-3.9,2.11-5.43,3.65-1.53,1.54-2.75,3.38-3.64,5.46-.88,2.07-1.33,4.31-1.33,6.67s.45,4.5,1.33,6.56c.89,2.07,2.11,3.91,3.65,5.47,1.53,1.56,3.35,2.8,5.41,3.7,2.05.9,4.3,1.35,6.69,1.35s4.68-.45,6.74-1.35c2.07-.9,3.89-2.15,5.41-3.7s2.75-3.39,3.62-5.46c.87-2.06,1.31-4.27,1.31-6.56s-.44-4.61-1.31-6.68c-.87-2.08-2.09-3.92-3.61-5.45-1.53-1.54-3.35-2.77-5.41-3.65s-4.33-1.33-6.74-1.33h-.01Z"/>
      <path d="M624.03,41.15c0,2.35.42,4.57,1.27,6.66.85,2.1,2.01,3.93,3.49,5.51,1.48,1.58,3.24,2.84,5.28,3.78,2.03.94,4.24,1.41,6.61,1.41s4.6-.47,6.56-1.41c1.97-.94,3.65-2.21,5.04-3.82,1.39-1.61,2.47-3.49,3.24-5.63s1.15-4.4,1.15-6.78v-20.4c0-.59.2-1.1.59-1.5s.9-.61,1.53-.61c.56,0,1.03.2,1.4.59s.56.9.56,1.53v20.64c0,2.94-.49,5.71-1.48,8.32-.99,2.61-2.36,4.89-4.12,6.85-1.77,1.96-3.88,3.49-6.33,4.62-2.46,1.13-5.17,1.69-8.14,1.69s-5.68-.56-8.21-1.69c-2.53-1.13-4.73-2.66-6.59-4.6-1.86-1.94-3.32-4.2-4.36-6.8-1.05-2.59-1.57-5.36-1.57-8.3v-20.73c0-.63.2-1.13.61-1.5s.89-.56,1.45-.56,1.04.19,1.43.56c.39.37.59.88.59,1.5v20.69h0Z"/>
      <path d="M640.68,63.8c-3.1,0-6.02-.6-8.7-1.8-2.67-1.18-5.01-2.82-6.97-4.87-1.96-2.04-3.51-4.46-4.61-7.18-1.1-2.73-1.66-5.67-1.66-8.75v-20.73c0-.96.34-1.79,1-2.39,1.26-1.16,3.32-1.16,4.55.02.63.6.96,1.42.96,2.38v20.69c0,2.18.4,4.27,1.18,6.21.78,1.95,1.88,3.67,3.25,5.14,1.37,1.46,3.02,2.64,4.9,3.51,1.86.86,3.92,1.3,6.1,1.3s4.25-.44,6.04-1.29c1.81-.86,3.37-2.05,4.65-3.52,1.29-1.49,2.3-3.25,3.01-5.25.72-2,1.08-4.14,1.08-6.37v-20.4c0-.9.32-1.71.93-2.34.62-.64,1.45-.98,2.4-.98.89,0,1.68.33,2.28.96.59.61.9,1.43.9,2.37v20.64c0,3.08-.52,6.02-1.56,8.75-1.04,2.74-2.5,5.17-4.36,7.23-1.87,2.07-4.14,3.72-6.73,4.91-2.6,1.2-5.51,1.8-8.64,1.8v-.02ZM622.01,19.62c-.26,0-.45.07-.63.24-.11.1-.22.25-.22.61v20.73c0,2.77.5,5.41,1.48,7.84.99,2.44,2.37,4.6,4.11,6.42,1.74,1.81,3.83,3.27,6.21,4.33,2.37,1.05,4.96,1.59,7.72,1.59s5.35-.53,7.63-1.58c2.29-1.05,4.29-2.51,5.94-4.33,1.65-1.83,2.97-4.01,3.89-6.46.93-2.46,1.4-5.12,1.4-7.89v-20.64c0-.4-.12-.58-.23-.69-.15-.15-.3-.21-.53-.21-.37,0-.54.12-.65.24-.17.18-.25.38-.25.66v20.4c0,2.51-.41,4.92-1.22,7.18-.82,2.27-1.98,4.3-3.46,6.01-1.5,1.73-3.33,3.12-5.44,4.12-2.12,1.01-4.5,1.53-7.09,1.53s-4.94-.51-7.12-1.52c-2.16-1-4.06-2.36-5.65-4.05-1.58-1.68-2.84-3.67-3.73-5.89-.9-2.23-1.35-4.62-1.35-7.11v-20.69c0-.37-.12-.53-.21-.63-.17-.16-.34-.23-.59-.23h0Z"/>
      <path d="M696.28,22.44c-2.56,0-5,.5-7.32,1.5-2.32,1-4.33,2.37-6.05,4.11-1.72,1.73-3.09,3.78-4.11,6.12-1.02,2.35-1.53,4.85-1.53,7.5v18.25c0,.59-.19,1.08-.56,1.48-.37.39-.83.59-1.36.59-.63,0-1.14-.2-1.55-.59-.4-.39-.61-.88-.61-1.48v-18.25c0-3.19.61-6.19,1.83-9,1.22-2.81,2.87-5.28,4.95-7.39,2.08-2.11,4.52-3.78,7.32-5.02,2.79-1.24,5.79-1.85,8.98-1.85h.47c.69,0,1.21.19,1.57.56s.54.86.54,1.45-.2,1.08-.61,1.45c-.4.37-.91.56-1.5.56h-.47.02Z"/>
      <path d="M675.36,63.18c-.94,0-1.76-.32-2.39-.93-.64-.61-.98-1.43-.98-2.35v-18.25c0-3.34.65-6.53,1.93-9.49,1.27-2.94,3.02-5.55,5.2-7.75,2.18-2.21,4.76-3.98,7.69-5.28,2.94-1.3,6.13-1.96,9.47-1.96h.47c1.02,0,1.85.31,2.45.94.58.6.88,1.39.88,2.29s-.35,1.74-1,2.35c-.63.58-1.43.88-2.32.88h-.47c-2.38,0-4.68.47-6.83,1.4-2.16.93-4.07,2.22-5.67,3.84-1.61,1.62-2.9,3.55-3.85,5.75-.94,2.18-1.42,4.54-1.42,7.02v18.25c0,.91-.31,1.7-.9,2.32-.6.63-1.37.96-2.23.96h-.01ZM696.28,19.62c-3,0-5.86.59-8.49,1.75-2.65,1.16-4.98,2.77-6.94,4.76s-3.54,4.35-4.7,7.02c-1.15,2.65-1.73,5.52-1.73,8.53v18.25c0,.26.07.44.24.6.12.12.31.25.7.25.2,0,.34-.06.48-.21.11-.11.23-.28.23-.64v-18.25c0-2.81.55-5.5,1.62-7.99,1.07-2.48,2.54-4.66,4.35-6.49,1.82-1.84,3.98-3.3,6.43-4.36,2.46-1.06,5.08-1.6,7.8-1.6h.47c.37,0,.56-.13.67-.24.12-.1.22-.25.22-.56,0-.36-.11-.51-.2-.61-.15-.15-.46-.19-.69-.19h-.47.01Z"/>
      <path d="M716.7,40.63c-1.44-.47-2.87-1.01-4.29-1.62-1.42-.61-2.7-1.37-3.82-2.27s-2.03-1.99-2.72-3.24c-.69-1.25-1.03-2.73-1.03-4.46,0-1.91.4-3.57,1.22-4.97.82-1.41,1.88-2.58,3.21-3.52,1.33-.94,2.84-1.64,4.52-2.09s3.41-.68,5.16-.68c2.75,0,5.28.51,7.58,1.53,2.3,1.02,4.06,2.64,5.28,4.85.22.44.29.86.23,1.27-.06.4-.22.74-.47.99-.37.37-.8.56-1.27.56-.25,0-.53-.08-.85-.23-1.38-1.84-2.87-3.14-4.5-3.89-1.62-.75-3.55-1.13-5.77-1.13-1.19,0-2.39.12-3.61.37s-2.32.66-3.3,1.22-1.79,1.31-2.41,2.25c-.63.94-.94,2.1-.94,3.47,0,1.22.26,2.26.8,3.12s1.25,1.6,2.16,2.22,1.96,1.16,3.14,1.59c1.19.44,2.42.85,3.71,1.22,2.07.63,4.03,1.29,5.91,1.99s3.52,1.55,4.95,2.53c1.42.99,2.55,2.15,3.38,3.49.83,1.34,1.24,2.97,1.24,4.88,0,1.78-.39,3.43-1.17,4.95-.78,1.52-1.85,2.83-3.21,3.94s-2.95,1.99-4.76,2.63c-1.81.64-3.75.96-5.82.96-1.62,0-3.21-.16-4.76-.47-1.55-.31-2.98-.79-4.31-1.43s-2.51-1.45-3.54-2.41c-1.03-.97-1.88-2.11-2.53-3.43-.4-.82-.44-1.5-.09-2.07.34-.56.86-.85,1.55-.85s1.37.3,1.97.89c1.06,1.88,2.6,3.32,4.62,4.31s4.4,1.5,7.15,1.5c1.41,0,2.76-.21,4.06-.63s2.45-1.01,3.47-1.76,1.82-1.65,2.41-2.7.89-2.19.89-3.44-.37-2.4-1.1-3.35c-.74-.96-1.72-1.81-2.95-2.56-1.24-.75-2.66-1.41-4.27-1.97-1.61-.56-3.31-1.1-5.09-1.59h0Z"/>
      <path d="M719.23,63.8c-1.69,0-3.38-.17-5-.49-1.64-.33-3.19-.85-4.6-1.53-1.43-.69-2.73-1.58-3.84-2.62-1.13-1.06-2.07-2.33-2.79-3.76-.75-1.5-.44-2.59-.04-3.24.56-.92,1.48-1.42,2.58-1.42s2,.42,2.83,1.24l.2.26c.95,1.67,2.29,2.93,4.11,3.82,1.84.91,4.06,1.37,6.61,1.37,1.27,0,2.51-.2,3.68-.58,1.16-.38,2.22-.91,3.13-1.58.88-.64,1.58-1.43,2.08-2.32.5-.87.74-1.8.74-2.85s-.28-1.87-.85-2.61c-.64-.83-1.53-1.59-2.62-2.26-1.15-.7-2.51-1.33-4.04-1.86-1.58-.55-3.27-1.08-5.02-1.57h-.05c-1.46-.49-2.94-1.05-4.39-1.67-1.52-.65-2.9-1.47-4.11-2.45-1.24-1.01-2.26-2.21-3.02-3.6-.78-1.43-1.18-3.12-1.18-5.04,0-2.11.47-3.99,1.39-5.58.89-1.55,2.1-2.87,3.56-3.9,1.43-1.02,3.09-1.78,4.91-2.27,1.78-.48,3.63-.72,5.47-.72,2.91,0,5.62.55,8.07,1.63,2.54,1.12,4.5,2.93,5.85,5.38.36.71.47,1.38.37,2.03-.1.66-.37,1.23-.81,1.66-.93.94-2.17,1.23-3.51.55l-.26-.13-.17-.23c-1.25-1.67-2.6-2.86-4.04-3.52-1.46-.67-3.23-1.01-5.26-1.01-1.1,0-2.23.12-3.36.35-1.08.23-2.08.59-2.95,1.08-.83.47-1.48,1.08-2.01,1.87-.49.73-.74,1.67-.74,2.79,0,.99.21,1.82.62,2.48.44.71,1.05,1.34,1.81,1.87.82.56,1.79,1.05,2.87,1.46,1.16.43,2.38.83,3.63,1.2,2.1.64,4.11,1.31,5.99,2.02,1.96.74,3.71,1.64,5.22,2.67,1.55,1.08,2.8,2.37,3.72,3.86.94,1.53,1.42,3.39,1.42,5.52,0,1.97-.44,3.82-1.31,5.5-.85,1.66-2.04,3.11-3.52,4.32-1.46,1.2-3.19,2.15-5.12,2.83s-4.03,1.03-6.22,1.03v-.02ZM705.54,53.15c-.3,0-.4.09-.51.26-.11.18-.06.48.14.89.59,1.18,1.35,2.22,2.28,3.08.94.88,2.03,1.62,3.24,2.21,1.23.59,2.59,1.04,4.03,1.34,3.3.66,6.91.62,9.93-.45,1.67-.59,3.15-1.4,4.4-2.42,1.23-1,2.2-2.19,2.9-3.55.69-1.34,1.04-2.81,1.04-4.39,0-1.67-.36-3.1-1.07-4.24-.74-1.2-1.76-2.25-3.03-3.13-1.34-.93-2.91-1.73-4.68-2.4-1.84-.69-3.8-1.35-5.83-1.97-1.29-.38-2.56-.8-3.78-1.24-1.27-.47-2.43-1.05-3.41-1.73-1.04-.72-1.88-1.59-2.5-2.59-.65-1.05-.98-2.31-.98-3.76,0-1.61.39-3.01,1.14-4.14.73-1.09,1.68-1.97,2.83-2.63,1.09-.63,2.32-1.08,3.67-1.35,1.29-.26,2.59-.4,3.86-.4,2.38,0,4.5.42,6.28,1.24,1.72.8,3.32,2.14,4.76,4,.05.01.07.01.07.01.07,0,.2,0,.41-.21.02-.02.09-.09.13-.31.02-.15-.02-.33-.12-.54-1.07-1.96-2.61-3.37-4.68-4.28-2.13-.94-4.52-1.42-7.09-1.42-1.64,0-3.27.21-4.84.64-1.54.42-2.94,1.05-4.14,1.91-1.18.83-2.14,1.89-2.86,3.13-.7,1.21-1.06,2.68-1.06,4.36,0,1.5.3,2.81.88,3.87.61,1.1,1.42,2.07,2.42,2.87,1.04.83,2.22,1.54,3.54,2.1,1.38.59,2.78,1.12,4.17,1.58,1.78.5,3.51,1.04,5.14,1.61,1.69.59,3.2,1.29,4.5,2.08,1.35.82,2.46,1.78,3.29,2.85.9,1.17,1.35,2.54,1.35,4.09,0,1.45-.36,2.82-1.05,4.05-.67,1.19-1.6,2.22-2.75,3.08-1.12.83-2.4,1.48-3.81,1.94-1.42.46-2.91.69-4.43.69-2.93,0-5.52-.55-7.69-1.62-2.17-1.08-3.87-2.64-5.04-4.65-.43-.39-.78-.44-1.01-.44h.01Z"/>
    </g>
  </g>
</svg>