<?xml version="1.0" encoding="UTF-8"?>
<svg id="Capa_2" data-name="Capa 2" xmlns="http://www.w3.org/2000/svg" viewBox="0 0 960.73 293.39">
  <defs>
    <style>
      .cls-1 {
        fill: #fff;
      }
    </style>
  </defs>
  <g id="Capa_1-2" data-name="Capa 1">
    <g>
      <path class="cls-1" d="M920.95,53.81c5.34-7.26,8.26-15.66,8.15-23.95C928.96,18.53,923.15,7.56,913.32,0c-7.62,9.78-10.49,21.86-7.78,32.87,2,8.14,7.02,15.62,14.14,21.33-.27,5.68-.68,11.34-1.23,16.99-.43-4.32-1.54-8.47-3.36-12.27-4.89-10.23-14.77-17.75-26.86-20.48-2.81,12.08-.34,24.24,6.73,33.1,5.24,6.57,12.97,11.25,21.85,13.44-.44,3.14-.93,6.27-1.46,9.39-1.25,7.48-2.75,14.9-4.5,22.27-.28-4.32-1.23-8.51-2.85-12.39-4.62-11.11-14.68-19.62-27.35-23.18-3.64,12.65-1.69,25.68,5.33,35.46,4.93,6.87,12.3,12.06,20.97,14.97-3.19,11.1-6.96,22.02-11.29,32.7.67-6.37.07-12.67-1.84-18.5-4.18-12.72-14.62-23.02-28.38-28.04-5.11,13.72-4.06,28.35,2.89,39.79,4.93,8.12,12.78,14.55,22.27,18.52-5.05,11.12-10.74,21.94-16.96,32.44,1.3-7.49,1.04-14.99-.86-21.99-4.01-14.73-15.29-27.08-30.65-33.62-6.64,15.32-6.31,32.04.93,45.49,4.98,9.25,13.17,16.85,23.31,21.94-3.2,4.99-6.51,9.91-9.92,14.76l-5.68,7.74-2.84,3.87-1.42,1.94-1.52,1.86c-2.16,2.61-4.3,5.24-6.45,7.87,3.67-8.25,5.39-16.99,4.86-25.54-1-16.25-10.1-31.58-24.73-41.73-10.24,14.56-13.51,32.09-8.86,47.69,3.33,11.18,10.7,21.27,20.8,28.88-3.61,3.96-7.19,7.96-10.87,11.86-4.54,4.54-9.14,9.03-13.66,13.65h-.01s-.01.3-.01.3l.31.03c4.96-4.12,9.83-8.36,14.77-12.55,4.69-4.44,9.23-9.05,13.87-13.57,2.32-2.26,4.37-4.77,6.54-7.17l6.44-7.28c.46-.53.94-1.05,1.4-1.59,10.83,6.74,23,9.99,34.72,9.01,16.22-1.35,31.36-10.78,41.19-25.62-14.78-9.93-32.37-12.82-47.87-7.83-5.52,1.78-10.75,4.54-15.52,8.14,7.04-9.8,13.4-20.07,19.14-30.68,10.72,5.3,22.37,7.21,33.21,5.23,15.02-2.74,28.29-12.92,36.11-27.67-14.7-7.92-31.39-9.02-45.4-2.95-6.54,2.83-12.47,7.21-17.45,12.76,3.52-7.27,6.77-14.66,9.75-22.14,1.93-4.83,3.75-9.7,5.46-14.62,10.08,3.47,20.6,3.81,29.93.76,12.73-4.16,23.05-14.58,28.09-28.33-13.71-5.14-28.34-4.11-39.8,2.82-6.13,3.71-11.31,9.09-15.19,15.58,4.16-13.2,7.49-26.66,9.98-40.27,9.7.43,18.97-2.03,26.28-7.15,9.86-6.9,16.01-18.56,16.76-31.7-13.13-.84-25.45,3.87-33.49,12.82-3.11,3.47-5.57,7.55-7.31,12.04,1.7-12.48,2.7-25.05,2.99-37.63Z"/>
      <path class="cls-1" d="M39.78,53.81c-5.34-7.26-8.26-15.66-8.15-23.95.15-11.34,5.96-22.31,15.79-29.86,7.62,9.78,10.49,21.86,7.78,32.87-2,8.14-7.02,15.62-14.14,21.33.27,5.68.68,11.34,1.23,16.99.43-4.32,1.54-8.47,3.36-12.27,4.89-10.23,14.77-17.75,26.86-20.48,2.81,12.08.34,24.24-6.73,33.1-5.24,6.57-12.97,11.25-21.85,13.44.44,3.14.93,6.27,1.46,9.39,1.25,7.48,2.75,14.9,4.5,22.27.28-4.32,1.23-8.51,2.85-12.39,4.62-11.11,14.68-19.62,27.35-23.18,3.64,12.65,1.69,25.68-5.33,35.46-4.93,6.87-12.3,12.06-20.97,14.97,3.19,11.1,6.96,22.02,11.29,32.7-.67-6.37-.07-12.67,1.84-18.5,4.18-12.72,14.62-23.02,28.38-28.04,5.11,13.72,4.06,28.35-2.89,39.79-4.93,8.12-12.78,14.55-22.27,18.52,5.05,11.12,10.74,21.94,16.96,32.44-1.3-7.49-1.04-14.99.86-21.99,4.01-14.73,15.29-27.08,30.65-33.62,6.64,15.32,6.31,32.04-.93,45.49-4.98,9.25-13.17,16.85-23.31,21.94,3.2,4.99,6.51,9.91,9.92,14.76l5.68,7.74,2.84,3.87,1.42,1.94,1.52,1.86c2.16,2.61,4.3,5.24,6.45,7.87-3.67-8.25-5.39-16.99-4.86-25.54,1-16.25,10.1-31.58,24.73-41.73,10.24,14.56,13.51,32.09,8.86,47.69-3.33,11.18-10.7,21.27-20.8,28.88,3.61,3.96,7.19,7.96,10.87,11.86,4.54,4.54,9.14,9.03,13.66,13.65h.01s.01.3.01.3l-.31.03c-4.96-4.12-9.83-8.36-14.77-12.55-4.69-4.44-9.23-9.05-13.87-13.57-2.32-2.26-4.37-4.77-6.54-7.17l-6.44-7.28c-.46-.53-.94-1.05-1.4-1.59-10.83,6.74-23,9.99-34.72,9.01-16.22-1.35-31.36-10.78-41.19-25.62,14.78-9.93,32.37-12.82,47.87-7.83,5.52,1.78,10.75,4.54,15.52,8.14-7.04-9.8-13.4-20.07-19.14-30.68-10.72,5.3-22.37,7.21-33.21,5.23-15.02-2.74-28.29-12.92-36.11-27.67,14.7-7.92,31.39-9.02,45.4-2.95,6.54,2.83,12.47,7.21,17.45,12.76-3.52-7.27-6.77-14.66-9.75-22.14-1.93-4.83-3.75-9.7-5.46-14.62-10.08,3.47-20.6,3.81-29.93.76-12.73-4.16-23.05-14.58-28.09-28.33,13.71-5.14,28.34-4.11,39.8,2.82,6.13,3.71,11.31,9.09,15.19,15.58-4.16-13.2-7.49-26.66-9.98-40.27-9.7.43-18.97-2.03-26.28-7.15-9.86-6.9-16.01-18.56-16.76-31.7,13.13-.84,25.45,3.87,33.49,12.82,3.11,3.47,5.57,7.55,7.31,12.04-1.7-12.48-2.7-25.05-2.99-37.63Z"/>
    </g>
  </g>
</svg>