<?xml version="1.0" encoding="UTF-8"?>
<svg id="Capa_2" data-name="Capa 2" xmlns="http://www.w3.org/2000/svg" xmlns:xlink="http://www.w3.org/1999/xlink" viewBox="0 0 328.21 62.27">
  <defs>
    <style>
      .cls-1 {
        fill: url(#Degradado_sin_nombre_11);
      }

      .cls-2 {
        fill: #fff;
      }
    </style>
    <linearGradient id="Degradado_sin_nombre_11" data-name="Degradado sin nombre 11" x1="145.32" y1="17.25" x2="172.17" y2="17.25" gradientUnits="userSpaceOnUse">
      <stop offset="0" stop-color="#e4df00"/>
      <stop offset="1" stop-color="#98c22b"/>
    </linearGradient>
  </defs>
  <g id="Capa_1-2" data-name="Capa 1">
    <g>
      <path class="cls-1" d="M163.43,33.99V7.71c-2.67,0-9.17.12-18.1,1.24V1.82s9.36-1.43,20.33-1.3l6.51.06v33.42h-8.74Z"/>
      <path class="cls-2" d="M28.46,34.16c-18.8,0-28.46-2.44-28.46-2.44V.25h8.71v25.7c4.45.56,10.91,1.07,19.75,1.07,10.47.06,17.05-.63,19.62-.94V.25h8.78v31.47s-9.28,2.44-28.4,2.44Z"/>
      <path class="cls-2" d="M126.05,33.91V8.21c-4.45-.56-10.91-1.07-19.68-1.07-10.41-.06-17.11.69-19.68,1v25.76h-8.71V2.51s9.28-2.51,28.4-2.51,28.46,2.51,28.46,2.51v31.4h-8.78Z"/>
      <path class="cls-2" d="M222.02,34.16c-18.37,0-28.08-2.44-28.08-2.44V2.7s9.53-2.44,28.08-2.44,28.08,2.44,28.08,2.44v7.15s-10.53-2.38-28.08-2.44c-10.28,0-16.8.63-19.43.94l.06,17.74c2.44.31,8.65.94,19.24.94,18.05,0,28.21-2.51,28.21-2.51v7.21s-9.84,2.44-28.08,2.44Z"/>
      <path class="cls-2" d="M300.12,34.22c-18.49-.06-28.08-2.44-28.08-2.44V2.82s9.09-2.44,28.08-2.44,28.08,2.44,28.08,2.44v29.02s-9.78,2.38-28.08,2.38ZM300.06,7.52c-10.28-.06-16.86.63-19.37.94v17.74c2.76.31,9.78,1,19.5,1,8.71,0,14.92-.44,19.24-.94l.06-17.74v.06c-4.39-.56-10.78-1.07-19.43-1.07Z"/>
      <g>
        <path class="cls-2" d="M1.35,62.17v-11.62h1.23v11.62h-1.23Z"/>
        <path class="cls-2" d="M11.34,62.17v-11.62h4.73c1.24,0,2.33.25,3.26.74.93.49,1.66,1.18,2.18,2.05.52.87.78,1.88.78,3.02s-.26,2.15-.78,3.02c-.52.87-1.25,1.56-2.18,2.05-.94.49-2.02.74-3.26.74h-4.73ZM12.57,61.1h3.44c1.03,0,1.92-.2,2.68-.61.76-.4,1.35-.96,1.77-1.68.42-.71.63-1.54.63-2.46s-.21-1.76-.63-2.47c-.42-.71-1.01-1.26-1.77-1.67-.76-.4-1.65-.61-2.68-.61h-3.44v9.49Z"/>
        <path class="cls-2" d="M30.03,62.17v-11.62h7.97v1.06h-6.74v9.49h6.99v1.06h-8.21ZM31.12,56.79v-1.05h6.14v1.05h-6.14Z"/>
        <path class="cls-2" d="M46.11,62.17v-11.62h1.01l8.02,10.09h-.53v-10.09h1.21v11.62h-1.01l-8-10.09h.53v10.09h-1.23Z"/>
        <path class="cls-2" d="M66.84,62.17v-10.55h-4.08v-1.06h9.39v1.06h-4.08v10.55h-1.23Z"/>
        <path class="cls-2" d="M79.08,62.17v-11.62h1.23v11.62h-1.23Z"/>
        <path class="cls-2" d="M89.07,62.17v-11.62h4.73c1.24,0,2.33.25,3.26.74.93.49,1.66,1.18,2.18,2.05.52.87.78,1.88.78,3.02s-.26,2.15-.78,3.02c-.52.87-1.25,1.56-2.18,2.05-.94.49-2.02.74-3.26.74h-4.73ZM90.3,61.1h3.44c1.03,0,1.92-.2,2.68-.61.76-.4,1.35-.96,1.77-1.68.42-.71.63-1.54.63-2.46s-.21-1.76-.63-2.47c-.42-.71-1.01-1.26-1.77-1.67-.76-.4-1.65-.61-2.68-.61h-3.44v9.49Z"/>
        <path class="cls-2" d="M105.74,62.17l5.31-11.62h1.21l5.31,11.62h-1.29l-4.88-10.9h.5l-4.88,10.9h-1.28ZM107.83,59.06l.37-1h6.75l.37,1h-7.49Z"/>
        <path class="cls-2" d="M124.47,62.17v-11.62h4.73c1.24,0,2.33.25,3.26.74.93.49,1.66,1.18,2.18,2.05.52.87.78,1.88.78,3.02s-.26,2.15-.78,3.02c-.52.87-1.25,1.56-2.18,2.05-.94.49-2.02.74-3.26.74h-4.73ZM125.7,61.1h3.44c1.03,0,1.92-.2,2.68-.61.76-.4,1.35-.96,1.77-1.68.42-.71.63-1.54.63-2.46s-.21-1.76-.63-2.47c-.42-.71-1.01-1.26-1.77-1.67-.76-.4-1.65-.61-2.68-.61h-3.44v9.49Z"/>
        <path class="cls-2" d="M152.48,62.17v-11.62h4.73c1.24,0,2.33.25,3.26.74.93.49,1.66,1.18,2.18,2.05.52.87.78,1.88.78,3.02s-.26,2.15-.78,3.02c-.52.87-1.25,1.56-2.18,2.05-.94.49-2.02.74-3.26.74h-4.73ZM153.71,61.1h3.44c1.03,0,1.92-.2,2.68-.61.76-.4,1.35-.96,1.77-1.68.42-.71.63-1.54.63-2.46s-.21-1.76-.63-2.47c-.42-.71-1.01-1.26-1.77-1.67-.76-.4-1.65-.61-2.68-.61h-3.44v9.49Z"/>
        <path class="cls-2" d="M171.17,62.17v-11.62h7.97v1.06h-6.74v9.49h6.99v1.06h-8.21ZM172.27,56.79v-1.05h6.14v1.05h-6.14Z"/>
        <path class="cls-2" d="M196.58,62.17v-11.62h4.35c.98,0,1.83.16,2.54.47.71.31,1.25.77,1.63,1.36s.57,1.31.57,2.15-.19,1.52-.57,2.12-.93,1.05-1.63,1.37c-.71.32-1.55.48-2.54.48h-3.67l.55-.58v4.25h-1.23ZM197.81,58.02l-.55-.6h3.63c1.16,0,2.04-.25,2.65-.76.6-.5.9-1.21.9-2.13s-.3-1.65-.9-2.16c-.6-.51-1.49-.76-2.65-.76h-3.63l.55-.58v6.99Z"/>
        <path class="cls-2" d="M213.31,62.17v-11.62h4.35c1.47,0,2.63.35,3.48,1.05.85.7,1.27,1.68,1.27,2.93,0,.82-.19,1.52-.57,2.12s-.93,1.04-1.63,1.36-1.55.47-2.54.47h-3.67l.55-.56v4.25h-1.23ZM214.54,58.02l-.55-.58h3.63c1.16,0,2.04-.25,2.65-.76.6-.51.9-1.22.9-2.14s-.3-1.65-.9-2.16c-.6-.51-1.49-.76-2.65-.76h-3.63l.55-.58v6.99ZM221.24,62.17l-2.99-4.21h1.33l3,4.21h-1.34Z"/>
        <path class="cls-2" d="M230.28,62.17v-11.62h7.97v1.06h-6.74v9.49h6.99v1.06h-8.21ZM231.38,56.79v-1.05h6.14v1.05h-6.14Z"/>
        <path class="cls-2" d="M251.38,62.27c-.87,0-1.68-.15-2.42-.44s-1.38-.71-1.92-1.24c-.54-.53-.97-1.16-1.27-1.88-.3-.72-.46-1.5-.46-2.36s.15-1.64.46-2.36c.3-.72.73-1.34,1.28-1.88.55-.53,1.19-.94,1.93-1.24s1.55-.44,2.42-.44,1.63.14,2.37.42c.74.28,1.37.71,1.88,1.27l-.78.78c-.48-.49-1-.84-1.58-1.05s-1.2-.32-1.86-.32-1.34.12-1.94.36c-.6.24-1.12.58-1.56,1.01-.44.44-.79.95-1.04,1.53-.25.58-.37,1.22-.37,1.92s.12,1.34.37,1.92.59,1.09,1.04,1.53c.44.44.96.77,1.56,1.01s1.25.36,1.94.36,1.28-.11,1.86-.33c.58-.22,1.1-.57,1.58-1.06l.78.78c-.51.56-1.13.99-1.88,1.28-.74.29-1.54.43-2.39.43Z"/>
        <path class="cls-2" d="M263.08,62.17v-11.62h1.23v11.62h-1.23Z"/>
        <path class="cls-2" d="M276.27,62.27c-.86,0-1.69-.14-2.48-.42-.79-.28-1.4-.64-1.83-1.09l.48-.95c.41.4.96.73,1.65,1,.69.27,1.42.41,2.18.41s1.33-.09,1.78-.27.8-.43,1.01-.74.32-.65.32-1.03c0-.45-.13-.82-.39-1.1-.26-.28-.6-.49-1.02-.66-.42-.16-.89-.3-1.39-.42s-1.02-.25-1.53-.39c-.51-.14-.98-.32-1.4-.56-.43-.23-.77-.54-1.03-.92s-.39-.88-.39-1.5c0-.58.15-1.1.46-1.58.3-.48.77-.87,1.4-1.16s1.44-.44,2.42-.44c.65,0,1.3.09,1.94.27s1.2.43,1.66.75l-.42.98c-.5-.33-1.03-.58-1.58-.73s-1.1-.23-1.62-.23c-.7,0-1.27.09-1.73.28-.45.19-.79.44-1,.75-.22.32-.32.67-.32,1.07,0,.45.13.82.39,1.1.26.28.6.49,1.03.65.43.16.89.29,1.4.42.51.12,1.01.25,1.52.4.5.14.97.33,1.39.56.43.23.77.53,1.03.91s.39.87.39,1.48c0,.56-.16,1.09-.46,1.57-.31.48-.78.87-1.42,1.16-.64.29-1.45.44-2.45.44Z"/>
        <path class="cls-2" d="M288.25,62.17v-11.62h1.23v11.62h-1.23Z"/>
        <path class="cls-2" d="M303.32,62.27c-.87,0-1.68-.15-2.43-.44s-1.39-.71-1.94-1.25c-.55-.54-.97-1.16-1.28-1.88-.3-.71-.46-1.5-.46-2.35s.15-1.63.46-2.35c.3-.71.73-1.34,1.28-1.88.55-.54,1.19-.95,1.93-1.24s1.55-.44,2.44-.44,1.68.15,2.42.44c.74.29,1.39.71,1.93,1.24.55.53.97,1.16,1.28,1.88.3.72.46,1.5.46,2.36s-.15,1.64-.46,2.36c-.3.72-.73,1.34-1.28,1.88-.55.53-1.19.94-1.93,1.24-.74.29-1.55.44-2.42.44ZM303.32,61.17c.7,0,1.34-.12,1.93-.36s1.11-.58,1.54-1.01.78-.95,1.02-1.53.37-1.22.37-1.92-.12-1.34-.37-1.92c-.24-.58-.58-1.09-1.02-1.53-.44-.44-.95-.77-1.54-1.01-.59-.24-1.24-.36-1.93-.36s-1.34.12-1.94.36c-.6.24-1.12.58-1.56,1.01-.44.44-.79.95-1.03,1.53-.24.58-.37,1.22-.37,1.92s.12,1.32.37,1.91c.24.59.59,1.1,1.03,1.54.44.44.96.77,1.56,1.01s1.25.36,1.94.36ZM302.24,49.6l2.27-2.06h1.58l-2.69,2.06h-1.16Z"/>
        <path class="cls-2" d="M317.15,62.17v-11.62h1.01l8.02,10.09h-.53v-10.09h1.21v11.62h-1.01l-8-10.09h.53v10.09h-1.23Z"/>
      </g>
    </g>
  </g>
</svg>