<?xml version="1.0" encoding="UTF-8"?>
<svg id="Capa_2" data-name="Capa 2" xmlns="http://www.w3.org/2000/svg" viewBox="0 0 198.58 91.09">
  <defs>
    <style>
      .cls-1 {
        fill: #353535;
      }
    </style>
  </defs>
  <g id="Layer_1" data-name="Layer 1">
    <path class="cls-1" d="M77.3,0h18.6c4.87.29,9.44,2.3,13.59,4.76,3.93,2.36,7.63,5.2,10.53,8.77,3.34,4.01,5.64,8.74,7.76,13.46,1.86,4.05,3.67,8.25,6.74,11.55,1.6,1.72,3.56,3.1,5.72,4.03,2.68,1.17,5.61,1.63,8.51,1.78,2.6.23,5.21.18,7.81.18,5.65.03,11.3-.15,16.95-.07,2.12.05,4.27-.06,6.36.37,4.81.94,9.15,3.68,12.47,7.25,1.29,1.37,2.36,2.93,3.24,4.59,1.82,3.15,2.84,6.74,3,10.37v1.39c-.1,4.1-1.35,8.15-3.57,11.6-2.78,4.35-7.04,7.71-11.88,9.48-2.74,1.03-5.67,1.47-8.59,1.57-5-.22-9.99-1.82-14.04-4.8-2.02-1.5-3.71-3.41-5.09-5.51-1.49-2.29-2.88-4.64-4.13-7.07-3.25-5.97-6.69-11.84-10.23-17.65-2.7-4.27-7.08-7.45-12.01-8.61-3.1-.81-6.32-.64-9.49-.72-16.61-.23-33.22,0-49.83-.17-1.14-.03-2.28.04-3.41-.14-4.28-.57-8.3-2.57-11.51-5.42-4.04-3.57-6.92-8.51-7.81-13.85-.46-2.55-.29-5.17.03-7.72,1.09-7.2,5.98-13.56,12.39-16.89,2.95-1.53,6.25-2.41,9.58-2.42,2.77-.07,5.55,0,8.32-.14Z"/>
    <path class="cls-1" d="M20.83,44.95c4.55-.58,9.26.09,13.44,2,4.47,2.03,8.31,5.45,10.77,9.71,3.19,5.46,3.88,12.28,1.87,18.27-1.6,4.86-4.91,9.11-9.16,11.95-3.54,2.39-7.72,3.79-11.97,4.09-1.18.15-2.37.15-3.55,0-5.37-.37-10.61-2.55-14.6-6.17-4.14-3.7-6.91-8.92-7.49-14.46-.58-5.09.67-10.36,3.47-14.65,3.77-5.91,10.29-9.9,17.23-10.74Z"/>
  </g>
</svg>