<?xml version="1.0" encoding="UTF-8"?>
<svg id="Capa_2" data-name="Capa 2" xmlns="http://www.w3.org/2000/svg" viewBox="0 0 1234.11 107.92">
  <defs>
    <style>
      .cls-1 {
        fill: #59ff2b;
      }

      .cls-2, .cls-3 {
        fill: #fff;
      }

      .cls-3 {
        stroke: #fff;
        stroke-miterlimit: 10;
        stroke-width: 1.72px;
      }
    </style>
  </defs>
  <g id="Layer_1" data-name="Layer 1">
    <g>
      <path class="cls-1" d="M83.81,7.66h20.17c5.28.31,10.24,2.5,14.73,5.16,4.26,2.56,8.27,5.63,11.42,9.51,3.62,4.35,6.11,9.47,8.41,14.6,2.02,4.39,3.98,8.95,7.31,12.53,1.73,1.86,3.86,3.37,6.2,4.37,2.9,1.27,6.08,1.77,9.22,1.93,2.82.25,5.65.19,8.47.2,6.13.03,12.25-.16,18.38-.08,2.3.05,4.63-.07,6.9.4,5.22,1.02,9.93,3.99,13.52,7.86,1.39,1.49,2.56,3.18,3.52,4.98,1.98,3.41,3.08,7.31,3.25,11.25v1.51c-.11,4.44-1.46,8.84-3.87,12.57-3.01,4.72-7.63,8.36-12.88,10.28-2.98,1.11-6.15,1.59-9.32,1.7-5.42-.24-10.84-1.97-15.22-5.21-2.2-1.62-4.02-3.7-5.52-5.97-1.62-2.48-3.12-5.03-4.48-7.66-3.52-6.48-7.26-12.84-11.09-19.14-2.93-4.63-7.68-8.07-13.02-9.33-3.36-.88-6.85-.69-10.29-.78-18.01-.25-36.02,0-54.03-.18-1.23-.03-2.48.04-3.7-.15-4.64-.62-9-2.78-12.48-5.87-4.38-3.88-7.5-9.23-8.47-15.01-.49-2.77-.31-5.6.04-8.37,1.18-7.8,6.48-14.7,13.44-18.32,3.2-1.66,6.78-2.61,10.39-2.62,3.01-.08,6.02,0,9.02-.15Z"/>
      <path class="cls-1" d="M22.59,56.4c4.93-.63,10.04.1,14.57,2.17,4.85,2.2,9.02,5.91,11.67,10.53,3.45,5.92,4.21,13.31,2.03,19.81-1.73,5.27-5.33,9.88-9.93,12.96-3.84,2.59-8.37,4.11-12.98,4.44-1.28.16-2.57.16-3.85,0-5.82-.4-11.5-2.77-15.84-6.69-4.49-4.01-7.49-9.68-8.12-15.67-.62-5.52.73-11.23,3.76-15.89,4.09-6.4,11.16-10.73,18.68-11.65Z"/>
    </g>
    <g>
      <path class="cls-2" d="M1219.96,85.26c.78-.14,1.95-.24,3.15-.24,1.64,0,2.76.27,3.52.91.63.52.98,1.32.98,2.29,0,1.47-1,2.47-2.07,2.86v.05c.81.3,1.3,1.1,1.59,2.2.36,1.42.66,2.74.9,3.18h-2.15c-.17-.34-.44-1.27-.76-2.69-.32-1.49-.86-1.96-2.05-2h-1.05v4.69h-2.07v-11.26ZM1222.03,90.31h1.24c1.41,0,2.29-.75,2.29-1.88,0-1.25-.88-1.83-2.24-1.83-.66,0-1.08.05-1.29.1v3.61Z"/>
      <path class="cls-2" d="M1223.66,101.22c-2.79,0-5.41-1.09-7.39-3.06-1.97-1.97-3.06-4.6-3.06-7.39s1.09-5.41,3.06-7.39c1.97-1.97,4.6-3.06,7.39-3.06s5.41,1.09,7.39,3.06c1.97,1.97,3.06,4.6,3.06,7.39s-1.09,5.41-3.06,7.39c-1.97,1.97-4.6,3.06-7.39,3.06ZM1223.66,82.25c-4.7,0-8.52,3.82-8.52,8.52s3.82,8.52,8.52,8.52,8.52-3.82,8.52-8.52-3.82-8.52-8.52-8.52Z"/>
    </g>
    <g>
      <path class="cls-2" d="M651.55,70.18c.01-22.86-.01-45.71.01-68.57,4.94-.09,9.88-.09,14.82,0,0,23.17,0,46.34,0,69.51-.22,8.34-3.39,16.58-8.87,22.87-5.24,6.13-12.53,10.5-20.45,12.11-9.19,1.91-19.09.23-27.07-4.74-6.96-4.34-12.52-10.99-15.29-18.73-3.19-8.68-2.93-18.55.71-27.05,3.03-7.15,8.39-13.28,15.04-17.3,8.64-5.18,19.46-6.7,29.13-3.8,2.02.47,3.94,1.62,5,3.44,1.74,2.64,1.39,6.35-.65,8.73-1.44,1.74-3.73,2.76-5.99,2.57-1.57-.15-3.06-.71-4.61-.95-8.58-1.72-17.87,2.45-22.48,9.85-2.79,4.29-4,9.58-3.34,14.66.56,4.37,2.46,8.55,5.37,11.85,2.98,3.39,7.03,5.83,11.42,6.88,4.16,1.04,8.62.79,12.64-.69,4.41-1.62,8.29-4.67,10.87-8.6,2.37-3.54,3.63-7.79,3.71-12.05Z"/>
      <path class="cls-2" d="M308.98,4.99c2.72-3.19,8.26-3.38,11.12-.29,1.04,1.09,1.55,2.53,2.22,3.84,14.12,29.17,28.24,58.34,42.37,87.51.58,1.25,1.32,2.45,1.56,3.83.45,2.19-.31,4.59-1.96,6.11-1.17,1.1-2.73,1.74-4.32,1.92h-1.87c-2.41-.3-4.65-1.78-5.73-3.97-3.32-6.89-6.59-13.8-9.9-20.69-18.53-.01-37.05,0-55.58,0-3.15,6.54-6.28,13.1-9.42,19.64-.4.82-.74,1.69-1.34,2.4-2.54,3.05-7.61,3.45-10.67.94-2.33-1.81-3.19-5.24-1.9-7.91,14.61-30.23,29.24-60.46,43.85-90.69.43-.93.87-1.87,1.56-2.64ZM306.35,42.43c-4.33,8.97-8.64,17.95-12.97,26.92,14.18.03,28.37,0,42.55.01-7.06-14.76-14.14-29.51-21.18-44.28-2.87,5.75-5.59,11.57-8.4,17.35Z"/>
      <path class="cls-2" d="M386.27,42.88c6.45-6.57,15.73-10.3,24.94-9.82,9.42.34,18.53,5,24.45,12.31,4.7-5.79,11.38-9.97,18.67-11.55,5.47-1.21,11.24-1,16.61.57,6.84,2.02,13,6.33,17.22,12.09,4.56,6.17,6.99,13.92,6.56,21.6,0,12.33,0,24.65,0,36.98-4.9,0-9.8,0-14.7,0-.01-12.96,0-25.92,0-38.88-.04-3.96-1.42-7.89-3.83-11.02-2.41-3.12-5.82-5.5-9.64-6.54-4.38-1.24-9.23-.83-13.3,1.25-5.49,2.71-9.4,8.35-10.05,14.44-.15,1.17-.1,2.35-.1,3.52,0,12.41,0,24.81,0,37.22-4.97-.02-9.93.03-14.9-.03.04-12.86,0-25.73.02-38.59.04-3.88-1.24-7.74-3.5-10.89-2.36-3.29-5.84-5.77-9.73-6.88-4.26-1.26-8.99-.94-13,1-5.85,2.7-9.99,8.72-10.49,15.14-.1,3.43-.1,6.87-.09,10.31v29.94c-4.94,0-9.89,0-14.83,0,0-13.11,0-26.22,0-39.33.1-8.49,3.68-16.85,9.69-22.84Z"/>
      <path class="cls-2" d="M524.2,38.56c9.04-5.65,20.58-7.09,30.72-3.77,7.54,2.39,14.22,7.33,18.78,13.79,2.9,4.07,4.98,8.73,6.05,13.62,1.11,4.69.78,9.54.83,14.31-.02,9.52.04,19.03-.03,28.55-4.95-.04-9.9,0-14.85-.02-.01-12.02.01-24.05-.01-36.07-.26-5.22-2.42-10.32-6.02-14.11-2.79-2.98-6.42-5.16-10.36-6.22-5.01-1.37-10.52-.83-15.18,1.45-5.3,2.51-9.51,7.22-11.38,12.78-2.07,5.84-1.44,12.54,1.62,17.92,2.33,4.18,6.06,7.57,10.45,9.48,4.29,1.88,9.21,2.41,13.77,1.27,2.07-.51,4.31-1.18,6.39-.34,3.26,1.09,5.32,4.71,4.84,8.07-.28,1.96-1.38,3.79-3,4.93-1.55,1.18-3.54,1.44-5.38,1.88-9.08,1.88-18.87.4-26.82-4.44-3.72-2.23-7.05-5.11-9.78-8.49-4.67-5.69-7.5-12.84-8.07-20.17-.56-6.86.83-13.87,4.03-19.97,3.05-5.91,7.77-10.93,13.39-14.45Z"/>
      <path class="cls-2" d="M710.69,33.32c9.06-1.17,18.55,1.18,25.96,6.55,6.5,4.63,11.47,11.39,13.85,19.02,2.76,8.66,2.17,18.35-1.67,26.6-3.68,7.93-10.25,14.48-18.21,18.09-8.51,3.89-18.51,4.36-27.35,1.3-7.91-2.64-14.78-8.15-19.27-15.17-4.96-7.71-6.75-17.32-5.1-26.32,1.45-8.23,5.87-15.86,12.19-21.3,5.48-4.76,12.37-7.91,19.59-8.76ZM712.77,48.05c-7.11.75-13.59,5.31-16.97,11.56-2.11,3.92-3,8.5-2.46,12.93.47,3.94,1.97,7.76,4.41,10.9,2.36,3.09,5.55,5.54,9.15,7.02,4.32,1.81,9.22,2.19,13.76,1.02,4.19-1.07,8.05-3.38,10.94-6.6,3.38-3.69,5.42-8.56,5.72-13.56.53-7.82-3.52-15.68-10.1-19.89-4.23-2.75-9.44-3.99-14.45-3.38Z"/>
      <path class="cls-2" d="M791.66,34.32c7.87-2.14,16.47-1.61,23.98,1.58-2.21,4.43-4.47,8.84-6.69,13.26-4.49-1.49-9.44-1.7-13.99-.3-6.97,2.07-12.7,7.8-14.79,14.75-1.27,3.93-.94,8.11-.98,12.18,0,9.75,0,19.5,0,29.26-4.95,0-9.89.02-14.84-.02.04-12.24-.02-24.48.03-36.72.38-8.56,3.84-16.96,9.69-23.23,4.68-5.16,10.86-8.94,17.59-10.76Z"/>
      <path class="cls-3" d="M862.05,28.93h36.35c.92,0,1.72.33,2.41.98.69.66,1.03,1.45,1.03,2.4s-.32,1.74-.96,2.4c-.64.66-1.47.98-2.49.98h-36.35v30.73c0,4.19.78,8.09,2.33,11.71,1.56,3.62,3.7,6.76,6.43,9.43,2.73,2.67,5.92,4.77,9.57,6.29,3.65,1.52,7.56,2.28,11.75,2.28,3.77,0,7.26-.58,10.45-1.73,3.19-1.15,6.24-3.04,9.15-5.66.31-.31.71-.6,1.22-.86.26-.1.48-.18.69-.24.2-.05.43-.08.69-.08.77,0,1.43.26,1.99.79.77.73,1.08,1.63.96,2.67-.13,1.05-.55,1.94-1.26,2.67-3.11,3.04-6.71,5.34-10.79,6.92-4.08,1.57-8.44,2.36-13.08,2.36-5.05,0-9.81-.93-14.27-2.79-4.46-1.86-8.37-4.41-11.71-7.66-3.34-3.25-5.97-7.11-7.88-11.59-1.91-4.48-2.87-9.31-2.87-14.5V6.37c0-1,.33-1.83.99-2.51.66-.68,1.45-1.02,2.37-1.02.97,0,1.76.33,2.37.98.61.66.92,1.51.92,2.55v22.56Z"/>
      <path class="cls-3" d="M892.12,104.95c-5.29,0-10.34-.99-15.03-2.94-4.68-1.95-8.82-4.66-12.32-8.07-3.51-3.41-6.31-7.53-8.32-12.23-2.01-4.71-3.03-9.85-3.03-15.28V6.37c0-1.5.54-2.85,1.55-3.9,1.03-1.06,2.34-1.62,3.79-1.62s2.83.56,3.82,1.61c.96,1.03,1.45,2.34,1.45,3.91v20.58h34.37c1.42,0,2.72.53,3.77,1.53,1.08,1.03,1.65,2.35,1.65,3.83s-.53,2.76-1.52,3.78c-1.01,1.03-2.35,1.58-3.9,1.58h-34.37v28.75c0,3.9.73,7.58,2.17,10.93,1.45,3.36,3.46,6.32,5.99,8.8,2.53,2.48,5.54,4.46,8.94,5.87,3.38,1.41,7.08,2.13,10.98,2.13,3.53,0,6.82-.54,9.77-1.61,2.94-1.06,5.79-2.83,8.49-5.27.36-.38.93-.79,1.64-1.15.5-.21.82-.32,1.1-.39,1.51-.38,3.29.03,4.52,1.17,1.24,1.19,1.77,2.69,1.57,4.36-.18,1.49-.79,2.77-1.81,3.82-3.33,3.25-7.18,5.72-11.5,7.38-4.29,1.65-8.93,2.49-13.8,2.49ZM858.76,4.82c-.38,0-.67.13-.96.42-.3.31-.43.65-.43,1.13v60.05c0,4.89.91,9.51,2.71,13.72,1.8,4.22,4.31,7.9,7.44,10.95,3.14,3.06,6.87,5.5,11.09,7.25,4.2,1.75,8.75,2.64,13.51,2.64,4.37,0,8.54-.75,12.37-2.23,3.81-1.47,7.21-3.65,10.12-6.49.38-.39.6-.87.68-1.5.05-.43-.05-.7-.36-1-.17-.16-.35-.23-.62-.23-.12,0-.19.01-.2.02-.12.03-.26.08-.42.15-.25.14-.45.31-.56.41-3.18,2.87-6.47,4.91-9.89,6.14-3.39,1.23-7.13,1.85-11.12,1.85-4.43,0-8.64-.82-12.51-2.43-3.86-1.61-7.29-3.86-10.19-6.7-2.9-2.84-5.21-6.23-6.86-10.06-1.66-3.85-2.5-8.05-2.5-12.49v-32.71h38.33c.61,0,.88-.19,1.07-.38.28-.29.4-.59.4-1.02,0-.4-.12-.68-.42-.96-.32-.31-.63-.44-1.04-.44h-38.33V6.37c0-.71-.22-1.03-.39-1.2-.17-.18-.4-.35-.93-.35Z"/>
      <path class="cls-3" d="M924.19,66.47c0-5.05.96-9.81,2.87-14.27,1.91-4.46,4.53-8.34,7.84-11.63s7.19-5.89,11.63-7.81c4.44-1.91,9.16-2.87,14.16-2.87s9.79.96,14.23,2.87c4.44,1.91,8.3,4.51,11.59,7.81,3.29,3.29,5.88,7.17,7.77,11.63,1.89,4.46,2.83,9.22,2.83,14.27s-.94,9.72-2.83,14.16c-1.89,4.44-4.48,8.32-7.77,11.63-3.29,3.32-7.15,5.93-11.59,7.84-4.44,1.91-9.18,2.87-14.23,2.87s-9.72-.96-14.16-2.87c-4.44-1.91-8.32-4.53-11.63-7.84-3.32-3.32-5.93-7.19-7.84-11.63-1.91-4.44-2.87-9.16-2.87-14.16ZM930.84,66.47c0,4.03.78,7.86,2.33,11.48,1.56,3.62,3.67,6.8,6.35,9.53,2.68,2.73,5.83,4.89,9.45,6.47,3.62,1.58,7.52,2.37,11.71,2.37s8.16-.79,11.78-2.37c3.62-1.58,6.77-3.74,9.45-6.47,2.68-2.73,4.78-5.9,6.31-9.53,1.53-3.62,2.29-7.45,2.29-11.48s-.77-8.02-2.29-11.67c-1.53-3.65-3.63-6.82-6.31-9.53-2.68-2.7-5.83-4.83-9.45-6.39-3.62-1.56-7.55-2.33-11.78-2.33s-8.02.78-11.67,2.33c-3.65,1.56-6.81,3.69-9.49,6.39-2.68,2.7-4.8,5.88-6.35,9.53-1.56,3.65-2.33,7.54-2.33,11.67Z"/>
      <path class="cls-3" d="M960.69,104.95c-5.25,0-10.27-1.02-14.94-3.03-4.65-2-8.77-4.78-12.25-8.26-3.48-3.47-6.26-7.59-8.26-12.25-2.01-4.66-3.03-9.69-3.03-14.94s1.02-10.36,3.03-15.05c2.01-4.68,4.79-8.8,8.27-12.26,3.48-3.45,7.6-6.22,12.24-8.22,4.67-2.01,9.69-3.03,14.94-3.03s10.35,1.02,15.01,3.03c4.65,2,8.76,4.77,12.21,8.22,3.46,3.45,6.21,7.58,8.19,12.26,1.98,4.69,2.99,9.75,2.99,15.04s-1.01,10.26-2.99,14.93c-1.98,4.65-4.73,8.77-8.18,12.25-3.45,3.48-7.56,6.26-12.21,8.27-4.67,2.01-9.72,3.03-15.01,3.03ZM960.69,31.87c-4.71,0-9.2.91-13.37,2.71-4.19,1.8-7.9,4.29-11.02,7.39-3.12,3.09-5.62,6.8-7.42,11.01-1.8,4.19-2.71,8.73-2.71,13.49s.91,9.21,2.71,13.37c1.81,4.19,4.3,7.9,7.43,11.01,3.12,3.12,6.83,5.62,11.02,7.43,4.17,1.8,8.67,2.71,13.37,2.71s9.28-.91,13.45-2.71c4.19-1.8,7.88-4.3,10.97-7.42,3.1-3.12,5.57-6.83,7.35-11.01,1.77-4.17,2.67-8.68,2.67-13.38s-.9-9.3-2.68-13.5c-1.78-4.21-4.25-7.91-7.35-11-3.1-3.1-6.79-5.58-10.98-7.39-4.17-1.8-8.69-2.71-13.45-2.71ZM960.69,98.29c-4.44,0-8.65-.85-12.5-2.54-3.84-1.67-7.23-3.99-10.07-6.89-2.84-2.89-5.12-6.3-6.76-10.13-1.65-3.85-2.49-7.97-2.49-12.26s.84-8.57,2.49-12.45c1.64-3.86,3.92-7.27,6.77-10.14,2.85-2.87,6.25-5.17,10.12-6.82,3.88-1.65,8.07-2.49,12.45-2.49s8.71.84,12.56,2.49c3.84,1.65,7.23,3.94,10.08,6.81,2.84,2.87,5.11,6.29,6.73,10.15,1.62,3.88,2.45,8.06,2.45,12.43s-.82,8.4-2.45,12.25c-1.62,3.84-3.88,7.25-6.72,10.14-2.84,2.9-6.23,5.22-10.07,6.89-3.86,1.68-8.09,2.54-12.58,2.54ZM960.69,38.53c-3.84,0-7.51.73-10.89,2.18-3.39,1.45-6.37,3.45-8.86,5.96-2.49,2.52-4.49,5.51-5.94,8.91-1.44,3.38-2.17,7.04-2.17,10.89s.73,7.35,2.17,10.7c1.45,3.38,3.45,6.38,5.95,8.92,2.49,2.54,5.46,4.57,8.83,6.04,3.35,1.47,7.02,2.21,10.92,2.21s7.64-.74,10.99-2.21c3.37-1.47,6.34-3.5,8.83-6.04,2.49-2.54,4.48-5.53,5.9-8.91,1.42-3.36,2.14-6.96,2.14-10.71s-.72-7.52-2.14-10.9c-1.42-3.4-3.41-6.39-5.89-8.9-2.49-2.51-5.46-4.52-8.82-5.96-3.36-1.44-7.06-2.17-11-2.17Z"/>
      <path class="cls-3" d="M1017.08,68c0,3.83.69,7.45,2.07,10.87,1.38,3.42,3.28,6.42,5.7,8.99,2.42,2.58,5.29,4.63,8.61,6.16,3.32,1.53,6.91,2.3,10.79,2.3s7.5-.77,10.71-2.3c3.21-1.53,5.96-3.61,8.23-6.24,2.27-2.63,4.03-5.69,5.28-9.18,1.25-3.49,1.87-7.18,1.87-11.06v-33.29c0-.97.32-1.79.96-2.45.64-.66,1.47-.99,2.49-.99.92,0,1.68.32,2.29.96.61.64.92,1.47.92,2.49v33.67c0,4.8-.8,9.32-2.41,13.58-1.61,4.26-3.85,7.98-6.73,11.17-2.88,3.19-6.33,5.7-10.33,7.54-4.01,1.84-8.43,2.75-13.28,2.75s-9.26-.92-13.39-2.75c-4.13-1.84-7.72-4.34-10.75-7.5-3.04-3.16-5.41-6.86-7.12-11.1-1.71-4.23-2.56-8.75-2.56-13.54v-33.82c0-1.02.33-1.84.99-2.45.66-.61,1.45-.92,2.37-.92s1.7.31,2.33.92c.64.61.96,1.43.96,2.45v33.75Z"/>
      <path class="cls-3" d="M1044.25,104.95c-5.05,0-9.83-.98-14.19-2.93-4.35-1.93-8.18-4.6-11.38-7.94-3.2-3.33-5.73-7.27-7.52-11.72-1.8-4.45-2.71-9.25-2.71-14.28v-33.82c0-1.57.56-2.92,1.63-3.9,2.06-1.9,5.42-1.89,7.42.03,1.03.98,1.57,2.32,1.57,3.88v33.75c0,3.55.65,6.96,1.92,10.13,1.28,3.18,3.06,5.99,5.3,8.38,2.24,2.38,4.93,4.3,8,5.72,3.04,1.4,6.39,2.12,9.96,2.12s6.93-.71,9.86-2.1c2.95-1.4,5.5-3.34,7.58-5.74,2.1-2.43,3.75-5.31,4.91-8.56,1.17-3.26,1.76-6.76,1.76-10.39v-33.29c0-1.47.52-2.79,1.51-3.82,1.01-1.05,2.36-1.6,3.91-1.6,1.45,0,2.74.54,3.72,1.56.96,1,1.47,2.34,1.47,3.86v33.67c0,5.02-.85,9.82-2.54,14.28-1.69,4.47-4.08,8.44-7.12,11.8-3.05,3.38-6.75,6.07-10.98,8.01-4.25,1.95-8.99,2.94-14.1,2.94ZM1013.79,32.87c-.42,0-.74.12-1.03.39-.18.16-.36.41-.36.99v33.82c0,4.52.81,8.83,2.42,12.8,1.61,3.98,3.86,7.5,6.71,10.47,2.84,2.96,6.25,5.34,10.13,7.06,3.86,1.72,8.09,2.59,12.59,2.59s8.73-.87,12.45-2.58c3.74-1.71,7-4.09,9.69-7.07,2.7-2.99,4.84-6.54,6.35-10.54,1.51-4.01,2.28-8.35,2.28-12.88v-33.67c0-.65-.2-.94-.37-1.12-.24-.25-.49-.35-.87-.35-.61,0-.88.2-1.06.39-.28.29-.4.62-.4,1.08v33.29c0,4.09-.67,8.03-1.99,11.72-1.33,3.71-3.23,7.01-5.65,9.81-2.44,2.83-5.43,5.09-8.87,6.73-3.46,1.65-7.35,2.49-11.56,2.49s-8.06-.83-11.62-2.48c-3.53-1.63-6.63-3.85-9.22-6.6-2.58-2.74-4.63-5.98-6.09-9.61-1.47-3.64-2.21-7.54-2.21-11.6v-33.75c0-.61-.19-.87-.35-1.02-.27-.26-.56-.37-.96-.37Z"/>
      <path class="cls-3" d="M1134.96,37.47c-4.18,0-8.16.82-11.94,2.45-3.78,1.63-7.07,3.86-9.87,6.7-2.81,2.83-5.04,6.16-6.7,9.99-1.66,3.83-2.49,7.91-2.49,12.24v29.77c0,.97-.31,1.77-.92,2.41-.61.64-1.35.96-2.22.96-1.02,0-1.86-.32-2.53-.96-.66-.64-.99-1.44-.99-2.41v-29.77c0-5.2.99-10.1,2.98-14.69,1.99-4.59,4.68-8.61,8.07-12.05,3.39-3.44,7.37-6.17,11.94-8.19,4.56-2.02,9.45-3.02,14.65-3.02h.77c1.12,0,1.98.31,2.56.92s.88,1.4.88,2.37-.33,1.76-1,2.37c-.66.61-1.48.92-2.45.92h-.77Z"/>
      <path class="cls-3" d="M1100.83,103.95c-1.53,0-2.87-.52-3.9-1.51-1.05-1-1.6-2.33-1.6-3.83v-29.77c0-5.45,1.06-10.66,3.15-15.48,2.08-4.8,4.93-9.06,8.48-12.65,3.55-3.6,7.77-6.5,12.55-8.61,4.8-2.12,10-3.19,15.45-3.19h.77c1.67,0,3.02.51,3.99,1.53.94.98,1.43,2.27,1.43,3.74s-.57,2.84-1.63,3.83c-1.02.94-2.33,1.44-3.79,1.44h-.77c-3.89,0-7.64.77-11.15,2.29-3.52,1.52-6.64,3.63-9.25,6.27-2.62,2.64-4.73,5.8-6.28,9.38-1.54,3.56-2.32,7.41-2.32,11.46v29.77c0,1.48-.51,2.78-1.47,3.78-.98,1.02-2.24,1.56-3.64,1.56ZM1134.96,32.87c-4.9,0-9.56.96-13.86,2.85-4.32,1.9-8.13,4.52-11.33,7.77-3.2,3.25-5.78,7.1-7.67,11.45-1.87,4.32-2.82,9-2.82,13.91v29.77c0,.43.11.72.39.98.2.19.51.41,1.15.41.33,0,.55-.1.79-.35.18-.18.37-.46.37-1.04v-29.77c0-4.59.89-8.98,2.65-13.03,1.75-4.04,4.14-7.6,7.1-10.59,2.97-3,6.5-5.39,10.49-7.12,4.01-1.73,8.29-2.61,12.72-2.61h.77c.6,0,.91-.21,1.1-.39.19-.17.36-.4.36-.92,0-.58-.18-.84-.33-1-.24-.25-.75-.31-1.13-.31h-.77Z"/>
      <path class="cls-3" d="M1168.28,67.16c-2.35-.77-4.68-1.65-7-2.64-2.32-.99-4.4-2.23-6.24-3.71-1.84-1.48-3.32-3.24-4.44-5.28-1.12-2.04-1.68-4.46-1.68-7.27,0-3.11.66-5.82,1.99-8.11,1.33-2.3,3.07-4.21,5.24-5.74,2.17-1.53,4.63-2.67,7.38-3.41,2.75-.74,5.56-1.11,8.42-1.11,4.49,0,8.61.83,12.36,2.49,3.75,1.66,6.62,4.3,8.61,7.92.36.72.48,1.4.38,2.07-.1.66-.36,1.2-.77,1.61-.61.61-1.3.92-2.07.92-.41,0-.87-.13-1.38-.38-2.25-3.01-4.69-5.13-7.35-6.35-2.65-1.22-5.79-1.84-9.41-1.84-1.94,0-3.9.2-5.89.61-1.99.41-3.79,1.07-5.39,1.99s-2.92,2.14-3.94,3.67c-1.02,1.53-1.53,3.42-1.53,5.66,0,1.99.43,3.69,1.3,5.09.87,1.4,2.04,2.61,3.52,3.63,1.48,1.02,3.19,1.89,5.13,2.6,1.94.72,3.95,1.38,6.05,1.99,3.37,1.02,6.58,2.1,9.64,3.25,3.06,1.15,5.75,2.53,8.07,4.13,2.32,1.61,4.16,3.51,5.51,5.7,1.35,2.19,2.03,4.85,2.03,7.96,0,2.91-.64,5.6-1.91,8.07-1.28,2.48-3.02,4.62-5.24,6.43-2.22,1.81-4.81,3.24-7.77,4.29-2.96,1.04-6.12,1.57-9.49,1.57-2.65,0-5.24-.26-7.77-.77-2.53-.51-4.87-1.29-7.04-2.33-2.17-1.04-4.09-2.36-5.78-3.94-1.68-1.58-3.06-3.44-4.13-5.59-.66-1.33-.72-2.45-.15-3.37.56-.92,1.4-1.38,2.53-1.38s2.24.49,3.21,1.45c1.73,3.06,4.25,5.41,7.54,7.04,3.29,1.63,7.18,2.45,11.67,2.45,2.3,0,4.5-.34,6.62-1.03,2.12-.69,4-1.65,5.66-2.87,1.66-1.22,2.97-2.69,3.94-4.4.97-1.71,1.45-3.58,1.45-5.62s-.6-3.91-1.8-5.47c-1.2-1.56-2.81-2.95-4.82-4.17-2.02-1.22-4.34-2.3-6.96-3.21-2.63-.92-5.4-1.79-8.3-2.6Z"/>
      <path class="cls-3" d="M1172.42,104.95c-2.76,0-5.51-.27-8.16-.8-2.68-.54-5.2-1.38-7.51-2.49-2.34-1.13-4.45-2.57-6.27-4.28-1.85-1.73-3.37-3.8-4.55-6.14-1.23-2.45-.72-4.23-.07-5.28.92-1.5,2.41-2.32,4.21-2.32s3.26.68,4.61,2.03l.32.43c1.55,2.73,3.74,4.78,6.7,6.24,3,1.49,6.63,2.24,10.79,2.24,2.08,0,4.1-.32,6.01-.94,1.9-.62,3.62-1.49,5.1-2.58,1.43-1.05,2.57-2.33,3.4-3.78.81-1.42,1.2-2.94,1.2-4.65s-.45-3.05-1.39-4.26c-1.05-1.36-2.49-2.6-4.28-3.69-1.88-1.15-4.1-2.17-6.59-3.04-2.58-.9-5.34-1.76-8.19-2.56l-.08-.02c-2.39-.78-4.8-1.69-7.17-2.7-2.48-1.06-4.73-2.4-6.7-3.99-2.03-1.64-3.69-3.61-4.93-5.87-1.28-2.33-1.93-5.09-1.93-8.22,0-3.45.76-6.51,2.26-9.1,1.46-2.53,3.42-4.68,5.81-6.36,2.34-1.66,5.04-2.9,8.01-3.7,2.91-.78,5.92-1.18,8.93-1.18,4.74,0,9.17.89,13.16,2.66,4.14,1.83,7.35,4.78,9.54,8.78.58,1.16.77,2.25.6,3.32-.17,1.08-.61,2-1.32,2.71-1.52,1.53-3.54,2-5.73.9l-.42-.21-.28-.38c-2.04-2.73-4.25-4.66-6.59-5.74-2.38-1.1-5.27-1.65-8.58-1.65-1.79,0-3.64.19-5.49.57-1.77.37-3.39.96-4.81,1.77-1.35.77-2.42,1.77-3.28,3.05-.8,1.19-1.2,2.73-1.2,4.56,0,1.61.34,2.97,1.01,4.05.72,1.16,1.72,2.19,2.96,3.05,1.34.92,2.92,1.72,4.69,2.38,1.89.7,3.88,1.35,5.92,1.95,3.42,1.04,6.7,2.14,9.78,3.3,3.2,1.2,6.06,2.67,8.51,4.36,2.53,1.76,4.57,3.87,6.07,6.29,1.54,2.5,2.32,5.53,2.32,9,0,3.21-.72,6.23-2.13,8.98-1.39,2.71-3.33,5.08-5.75,7.05-2.39,1.95-5.2,3.5-8.36,4.62s-6.57,1.68-10.15,1.68ZM1150.07,87.58c-.49,0-.66.15-.84.43-.18.29-.1.78.23,1.45.96,1.93,2.21,3.62,3.72,5.03,1.53,1.44,3.31,2.65,5.28,3.6,2.01.97,4.22,1.7,6.57,2.18,5.38,1.08,11.28,1.01,16.2-.73,2.73-.96,5.14-2.29,7.18-3.95,2-1.63,3.59-3.58,4.73-5.8,1.12-2.18,1.69-4.59,1.69-7.17,0-2.72-.58-5.05-1.74-6.92-1.2-1.95-2.87-3.67-4.95-5.11-2.18-1.51-4.75-2.82-7.64-3.91-3-1.12-6.2-2.21-9.52-3.21-2.1-.62-4.18-1.3-6.16-2.03-2.08-.77-3.96-1.72-5.56-2.83-1.7-1.17-3.07-2.59-4.08-4.22-1.06-1.71-1.6-3.77-1.6-6.13,0-2.63.63-4.91,1.86-6.76,1.19-1.78,2.74-3.22,4.61-4.29,1.78-1.02,3.79-1.76,5.98-2.21,2.11-.43,4.23-.65,6.29-.65,3.89,0,7.34.68,10.24,2.02,2.81,1.3,5.42,3.49,7.77,6.53.08.02.12.02.12.02.11,0,.33,0,.67-.34.04-.04.15-.15.21-.51.04-.25-.03-.54-.2-.88-1.75-3.19-4.26-5.5-7.64-6.99-3.48-1.54-7.37-2.32-11.56-2.32-2.67,0-5.33.35-7.9,1.04-2.52.68-4.79,1.72-6.76,3.11-1.92,1.36-3.49,3.08-4.67,5.11-1.14,1.98-1.73,4.38-1.73,7.12,0,2.45.49,4.58,1.44,6.32.99,1.8,2.32,3.38,3.95,4.69,1.69,1.36,3.63,2.51,5.77,3.43,2.25.96,4.53,1.82,6.8,2.57,2.91.82,5.73,1.7,8.38,2.63,2.75.96,5.22,2.1,7.34,3.39,2.21,1.34,4.01,2.91,5.36,4.65,1.47,1.91,2.21,4.15,2.21,6.68,0,2.37-.58,4.6-1.71,6.6-1.1,1.94-2.61,3.63-4.49,5.02-1.82,1.35-3.92,2.41-6.22,3.16-2.31.75-4.74,1.13-7.23,1.13-4.78,0-9-.89-12.55-2.65-3.54-1.76-6.31-4.31-8.23-7.58-.7-.63-1.27-.71-1.64-.71Z"/>
    </g>
  </g>
</svg>