<?xml version="1.0" encoding="UTF-8"?>
<svg id="Capa_2" data-name="Capa 2" xmlns="http://www.w3.org/2000/svg" viewBox="0 0 451.97 98.33">
  <defs>
    <style>
      .cls-1 {
        fill: #6fa02e;
      }

      .cls-2 {
        fill: #fff;
      }

      .cls-3 {
        fill: #109b39;
      }
    </style>
  </defs>
  <g id="Capa_1-2" data-name="Capa 1">
    <g>
      <path class="cls-1" d="M139.21.31c28.31-.43,56.63-.1,84.95-.2,56,0,112-.05,168-.04,9.29.07,18.97-.88,27.74,2.91,16.49,5.97,29.27,21.27,31.77,38.68.32,7.51.96,15.37-1.83,22.53-2.71,7.61-6.66,14.98-12.67,20.51-8.86,8.27-20.72,13.94-33.02,13.62-64.35,0-128.7,0-193.05-.06-6.94.21-12.54-4.86-16.29-10.2-8.32-12.2-11.72-26.81-17.95-40.05-6.41-13.49-14.43-26.38-25.05-36.96-3.8-4.04-8.45-7.11-12.6-10.74Z"/>
      <path class="cls-2" d="M0,.2c34.73-.16,69.47-.01,104.2-.11,7.09-.37,12.6,4.7,17.45,9.17,12.36,11.94,21.4,26.9,28.41,42.49,4.83,11.44,8.22,23.58,14.84,34.19,2.83,5.06,7.4,8.8,12.29,11.76-34.7-.13-69.41,0-104.11-.06-6.28.21-11.95-3.37-15.61-8.28-7.71-10.05-11.3-22.42-15.87-34.05-6.91-16.3-15.85-32.04-28.34-44.72C9.36,6.5,4.62,3.39,0,.2Z"/>
      <path class="cls-2" d="M117.18.06c5.45.3,11.58-1.13,16.36,2.21,8.23,5.61,15.14,13,20.94,21.06,3.45,4.74,6.91,9.59,8.95,15.14-4.68,1.26-10.94,1.61-13.86-3.09C141.28,21.66,131.42,8.1,117.18.06Z"/>
      <path class="cls-2" d="M161.11,59.8c3.49-.69,7.13-1.51,10.67-.67,2.39.39,2.99,3.11,3.86,4.97,2.83,8.07,6.13,16.06,10.82,23.26,2.88,4.45,7.14,7.76,11.69,10.39-6.9.09-14.8.3-19.99-5.11-8.76-8.98-12.8-21.31-17.05-32.84Z"/>
      <path class="cls-3" d="M77.03,27.98c2.59-1.48,5.43-2.51,8.36-3.07.56-.09,1.14-.14,1.7,0,0,.24.02.48.03.72-2.89,1.71-5.52,3.93-7.36,6.76-3.4,4.96-4.46,11.42-2.9,17.22,1.31,4.97,4.49,9.44,8.83,12.21,3.24,2.09,7.07,3.31,10.94,3.28,5.77.14,11.5-2.44,15.34-6.72,1.29-1.33,2.23-2.93,3.2-4.49.14-.04.42-.13.56-.17.11.14.32.42.42.56-.77,5.55-3.29,10.86-7.25,14.84-3.91,4.08-9.19,6.78-14.77,7.63-4.93.77-10.09.1-14.66-1.93-5.95-2.61-10.85-7.53-13.45-13.49-2.46-5.55-2.88-11.97-1.19-17.8,1.83-6.51,6.33-12.2,12.2-15.55Z"/>
      <path class="cls-3" d="M99.97,26.44c.14-.55.74-.51,1.17-.41,1.19,2.93,3.55,5.34,6.45,6.58.67.22.52,1.19-.14,1.32-2.84,1.22-5.1,3.59-6.29,6.43-.15.06-.47.18-.63.25-.27-.22-.56-.44-.67-.79-1.24-2.77-3.62-4.96-6.44-6.06-.03-.23-.09-.7-.12-.93,2.9-1.25,5.43-3.45,6.67-6.39Z"/>
      <path class="cls-3" d="M111.31,41.7c.77-.43,1.22-1.21,1.63-1.95.61,1.04,1.42,1.97,2.55,2.46-1.07.61-1.97,1.45-2.55,2.54-.45-1.02-1.21-1.85-2.22-2.33-.15-.42.35-.52.59-.73Z"/>
      <path class="cls-3" d="M90.95,46.96c.26-.39.39-.96.92-1.08.74,1.75,2.12,3.19,3.88,3.93l.14.31c-.64.54-1.46.82-2.08,1.39-.88.72-1.43,1.73-1.95,2.72-.51-.15-.65-.69-.91-1.08-.7-1.29-1.92-2.23-3.25-2.8-.01-.19-.03-.38-.04-.57,1.35-.58,2.59-1.52,3.29-2.83Z"/>
    </g>
  </g>
</svg>