<?xml version="1.0" encoding="UTF-8"?>
<svg id="Capa_2" data-name="Capa 2" xmlns="http://www.w3.org/2000/svg" viewBox="0 0 25.01 24.97">
  <defs>
    <style>
      .cls-1 {
        fill: #a1c568;
      }
    </style>
  </defs>
  <g id="Capa_1-2" data-name="Capa 1">
    <g>
      <path class="cls-1" d="M6.32,1.51C7.55.8,8.91.31,10.31.04c.27-.04.55-.07.81,0,0,.11,0,.23.01.34-1.38.82-2.64,1.88-3.52,3.23-1.63,2.37-2.13,5.46-1.39,8.23.62,2.37,2.15,4.51,4.22,5.84,1.55,1,3.38,1.58,5.23,1.57,2.76.06,5.5-1.17,7.33-3.21.62-.64,1.07-1.4,1.53-2.15.07-.02.2-.06.27-.08.05.07.15.2.2.27-.37,2.65-1.57,5.19-3.47,7.09-1.87,1.95-4.39,3.24-7.06,3.65-2.36.37-4.82.05-7-.92-2.85-1.25-5.18-3.6-6.43-6.45C-.12,14.79-.32,11.73.49,8.94,1.36,5.83,3.51,3.11,6.32,1.51Z"/>
      <path class="cls-1" d="M17.28.77c.06-.26.35-.24.56-.2.57,1.4,1.69,2.55,3.09,3.15.32.1.25.57-.06.63-1.36.58-2.44,1.71-3.01,3.07-.07.03-.22.09-.3.12-.13-.1-.27-.21-.32-.38-.59-1.32-1.73-2.37-3.08-2.9-.01-.11-.04-.33-.06-.44,1.38-.6,2.6-1.65,3.19-3.05Z"/>
      <path class="cls-1" d="M22.7,8.06c.37-.2.58-.58.78-.93.29.5.68.94,1.22,1.18-.51.29-.94.69-1.22,1.22-.21-.49-.58-.88-1.06-1.11-.07-.2.17-.25.28-.35Z"/>
      <path class="cls-1" d="M12.97,10.58c.13-.19.19-.46.44-.52.36.84,1.01,1.53,1.85,1.88l.07.15c-.31.26-.7.39-1,.66-.42.34-.68.83-.93,1.3-.24-.07-.31-.33-.43-.52-.34-.62-.92-1.07-1.55-1.34,0-.09-.01-.18-.02-.27.64-.28,1.24-.72,1.57-1.35Z"/>
    </g>
  </g>
</svg>