<?xml version="1.0" encoding="UTF-8"?>
<svg id="Capa_2" data-name="Capa 2" xmlns="http://www.w3.org/2000/svg" viewBox="0 0 84.81 60.1">
  <defs>
    <style>
      .cls-1 {
        fill: #8f8f8f;
      }
    </style>
  </defs>
  <g id="Capa_1-2" data-name="Capa 1">
    <path class="cls-1" d="M7.08.18C8.4-.03,9.73.1,11.06,0c21.17,0,42.34,0,63.51,0,1.96-.02,4,.09,5.76,1.03,2.17,1.16,3.83,3.3,4.29,5.73.18.81.19,1.65.18,2.48-.02,14.08,0,28.16-.01,42.23,0,2.47-1,4.99-2.93,6.58-1.66,1.42-3.88,2.06-6.05,2.04-22.23,0-44.46,0-66.69,0-2.22.01-4.53-.57-6.21-2.09C1.06,56.46-.03,54.06,0,51.65c.01-14.19-.01-28.38,0-42.57-.02-1.44.23-2.91.83-4.23C1.91,2.32,4.4.58,7.08.18ZM14.33,7.2c.35.71,1.05,1.11,1.64,1.59,8.29,6.61,16.61,13.18,24.89,19.8.43.33.86.75,1.42.82.52.07.96-.27,1.34-.57,8.84-7.06,17.71-14.08,26.56-21.13.08-.17.16-.34.23-.52-8.43-.04-16.86,0-25.29-.02-10.26.01-20.52-.02-30.79.02ZM76.53,11.74c-10.15,8.05-20.3,16.11-30.45,24.18-1.09.83-2.2,1.86-3.63,1.95-1.34-.03-2.43-.96-3.45-1.74-10.24-8.14-20.49-16.28-30.74-24.41-.29-.24-.63-.42-.97-.57-.1.31-.21.61-.21.94,0,12.83,0,25.67,0,38.5,0,.63.01,1.31.34,1.87.53.65,1.47.52,2.22.57,21.88,0,43.76,0,65.64,0,.67-.02,1.45.04,1.99-.44.45-.48.41-1.19.44-1.8.01-12.78,0-25.56,0-38.34,0-.37,0-.74-.09-1.09-.42-.25-.77.18-1.09.39Z"/>
  </g>
</svg>