<?xml version="1.0" encoding="UTF-8"?>
<svg id="Capa_2" data-name="Capa 2" xmlns="http://www.w3.org/2000/svg" viewBox="0 0 106.71 611.08">
  <defs>
    <style>
      .cls-1 {
        fill: #a1c568;
      }

      .cls-2 {
        fill: #282829;
      }
    </style>
  </defs>
  <g id="Capa_1-2" data-name="Capa 1">
    <path class="cls-1" d="M6.53,611.08c-1.11,0-2.98-.17-4.34-1.48-1.58-1.52-1.6-3.66-1.6-3.68L0,15.9c0-.5.25-2.03,1.41-3.06,1.11-.99,2.54-1.04,3.15-1.06,2.3-.07,7.63.03,15.69.54.28.02.49.25.47.53-.02.27-.23.48-.53.47-8.03-.5-13.32-.6-15.6-.53-.54.02-1.67.05-2.52.8-.89.8-1.07,2.03-1.07,2.31l.58,590.02s.04,1.76,1.3,2.96c1.34,1.29,3.42,1.21,4.2,1.18,2.77-.1,32.94-1.25,76.36-3.05.63-.03,6.31-.44,9.38-5.3,2.03-3.2,1.78-7.84-.71-13.4-.11-.25,0-.55.25-.66.25-.12.55,0,.66.25,2.64,5.88,2.86,10.84.65,14.35-3.35,5.28-9.5,5.73-10.19,5.76-43.42,1.8-73.6,2.95-76.36,3.05-.15,0-.35.01-.58.01Z"/>
    <path class="cls-2" d="M101.91,597.6c-28.01,1.28-56.03,2.56-84.04,3.84-1.58.07-2.91-1.1-2.91-2.56L14.62,2.56c0-1.48,1.36-2.66,2.95-2.55,28.85,1.84,57.7,3.68,86.55,5.52,1.46.09,2.59,1.22,2.58,2.57-.72,195.65-1.45,391.31-2.17,586.96,0,1.36-1.16,2.48-2.63,2.55Z"/>
  </g>
</svg>