<?xml version="1.0" encoding="UTF-8"?>
<svg id="Capa_2" data-name="Capa 2" xmlns="http://www.w3.org/2000/svg" viewBox="0 0 544.57 165.77">
  <defs>
    <style>
      .cls-1 {
        fill: #fff;
      }

      .cls-2 {
        fill: #7cb928;
      }
    </style>
  </defs>
  <g id="Capa_1-2" data-name="Capa 1">
    <g>
      <path class="cls-2" d="M251.29,0h17.15c4.49.27,8.71,2.12,12.53,4.39,3.62,2.18,7.03,4.79,9.71,8.09,3.08,3.7,5.2,8.05,7.15,12.41,1.72,3.73,3.38,7.61,6.22,10.65,1.48,1.59,3.28,2.86,5.27,3.72,2.47,1.08,5.17,1.5,7.84,1.64,2.39.21,4.8.16,7.2.17,5.21.03,10.42-.14,15.63-.07,1.96.04,3.93-.06,5.86.34,4.44.87,8.44,3.39,11.5,6.68,1.19,1.27,2.17,2.7,2.99,4.23,1.68,2.9,2.62,6.22,2.76,9.56v1.29c-.1,3.78-1.24,7.52-3.29,10.69-2.56,4.01-6.49,7.11-10.96,8.74-2.53.95-5.23,1.36-7.92,1.45-4.61-.2-9.21-1.68-12.94-4.43-1.87-1.38-3.42-3.14-4.7-5.08-1.37-2.11-2.65-4.28-3.81-6.51-3-5.51-6.17-10.92-9.43-16.27-2.49-3.94-6.53-6.87-11.07-7.94-2.86-.75-5.83-.59-8.75-.66-15.31-.21-30.63,0-45.95-.15-1.05-.03-2.11.04-3.15-.13-3.94-.53-7.65-2.37-10.61-4.99-3.73-3.3-6.38-7.84-7.2-12.77-.42-2.35-.26-4.76.03-7.12,1-6.64,5.51-12.5,11.43-15.57,2.72-1.41,5.76-2.22,8.83-2.23,2.56-.07,5.12,0,7.67-.13Z"/>
      <path class="cls-2" d="M199.23,41.44c4.19-.54,8.54.09,12.39,1.85,4.12,1.87,7.67,5.03,9.93,8.96,2.94,5.03,3.58,11.32,1.73,16.84-1.47,4.48-4.53,8.4-8.44,11.02-3.26,2.2-7.12,3.5-11.04,3.77-1.09.14-2.19.14-3.27,0-4.95-.34-9.78-2.35-13.47-5.69-3.81-3.41-6.37-8.23-6.9-13.33-.53-4.69.62-9.55,3.2-13.51,3.48-5.44,9.49-9.12,15.89-9.9Z"/>
    </g>
    <path class="cls-1" d="M226.12,143.81c0-13.3,0-26.6,0-39.9,2.87-.05,5.75-.05,8.62,0,0,13.48,0,26.97,0,40.45-.13,4.85-1.97,9.65-5.16,13.31-3.05,3.57-7.29,6.11-11.9,7.05-5.35,1.11-11.11.14-15.75-2.76-4.05-2.53-7.29-6.39-8.9-10.9-1.86-5.05-1.71-10.8.42-15.74,1.76-4.16,4.88-7.73,8.75-10.07,5.03-3.01,11.32-3.9,16.95-2.21,1.18.27,2.29.94,2.91,2,1.01,1.54.81,3.7-.38,5.08-.84,1.01-2.17,1.6-3.49,1.5-.91-.08-1.78-.41-2.68-.56-4.99-1-10.4,1.43-13.08,5.73-1.62,2.5-2.33,5.58-1.94,8.53.33,2.54,1.43,4.98,3.13,6.9,1.74,1.97,4.09,3.39,6.64,4,2.42.6,5.02.46,7.36-.4,2.57-.95,4.82-2.72,6.33-5.01,1.38-2.06,2.11-4.53,2.16-7.01Z"/>
    <path class="cls-1" d="M26.78,105.88c1.58-1.86,4.81-1.97,6.47-.17.61.63.9,1.47,1.29,2.24,8.22,16.97,16.44,33.95,24.65,50.92.34.73.77,1.43.91,2.23.26,1.28-.18,2.67-1.14,3.56-.68.64-1.59,1.01-2.51,1.12h-1.09c-1.4-.18-2.7-1.03-3.33-2.31-1.93-4.01-3.83-8.03-5.76-12.04-10.78,0-21.56,0-32.34,0-1.83,3.81-3.65,7.62-5.48,11.43-.23.48-.43.99-.78,1.39-1.48,1.78-4.43,2.01-6.21.55-1.35-1.05-1.86-3.05-1.11-4.61,8.5-17.59,17.01-35.18,25.52-52.77.25-.54.51-1.09.91-1.54ZM25.25,127.66c-2.52,5.22-5.03,10.45-7.55,15.66,8.25.02,16.51,0,24.76,0-4.11-8.59-8.23-17.17-12.32-25.77-1.67,3.34-3.25,6.73-4.89,10.1Z"/>
    <path class="cls-1" d="M71.75,127.92c3.75-3.82,9.15-5.99,14.51-5.72,5.48.2,10.78,2.91,14.23,7.16,2.73-3.37,6.62-5.8,10.87-6.72,3.18-.71,6.54-.58,9.67.33,3.98,1.18,7.57,3.68,10.02,7.03,2.66,3.59,4.07,8.1,3.82,12.57,0,7.17,0,14.35,0,21.52-2.85,0-5.7,0-8.56,0,0-7.54,0-15.08,0-22.62-.02-2.31-.83-4.59-2.23-6.42-1.4-1.82-3.39-3.2-5.61-3.81-2.55-.72-5.37-.49-7.74.73-3.2,1.58-5.47,4.86-5.85,8.4-.08.68-.06,1.37-.06,2.05,0,7.22,0,14.44,0,21.66-2.89-.01-5.78.02-8.67-.02.02-7.49,0-14.97,0-22.46.02-2.26-.72-4.51-2.04-6.34-1.37-1.91-3.4-3.36-5.66-4-2.48-.73-5.23-.55-7.57.58-3.41,1.57-5.81,5.07-6.1,8.81-.06,2-.06,4-.05,6v17.42c-2.88,0-5.75,0-8.63,0,0-7.63,0-15.26,0-22.89.06-4.94,2.14-9.81,5.64-13.29Z"/>
    <path class="cls-1" d="M152.02,125.41c5.26-3.29,11.98-4.13,17.88-2.19,4.39,1.39,8.28,4.27,10.93,8.03,1.69,2.37,2.9,5.08,3.52,7.92.65,2.73.45,5.55.48,8.33-.01,5.54.02,11.08-.02,16.61-2.88-.02-5.76,0-8.64,0,0-7,0-13.99,0-20.99-.15-3.04-1.41-6.01-3.5-8.21-1.62-1.74-3.74-3-6.03-3.62-2.92-.8-6.12-.48-8.83.84-3.08,1.46-5.53,4.2-6.62,7.44-1.21,3.4-.84,7.3.94,10.43,1.36,2.43,3.53,4.4,6.08,5.51,2.5,1.1,5.36,1.4,8.02.74,1.2-.29,2.51-.69,3.72-.2,1.9.63,3.09,2.74,2.82,4.7-.17,1.14-.8,2.21-1.74,2.87-.9.69-2.06.84-3.13,1.09-5.28,1.1-10.98.23-15.61-2.58-2.16-1.3-4.1-2.98-5.69-4.94-2.72-3.31-4.37-7.47-4.7-11.74-.32-3.99.48-8.07,2.34-11.62,1.77-3.44,4.52-6.36,7.79-8.41Z"/>
    <path class="cls-1" d="M260.53,122.36c5.27-.68,10.8.68,15.11,3.81,3.78,2.7,6.68,6.63,8.06,11.07,1.6,5.04,1.26,10.68-.97,15.48-2.14,4.61-5.97,8.43-10.6,10.53-4.95,2.26-10.77,2.54-15.91.76-4.61-1.54-8.6-4.74-11.21-8.83-2.88-4.49-3.93-10.08-2.97-15.32.85-4.79,3.41-9.23,7.1-12.39,3.19-2.77,7.2-4.61,11.4-5.1ZM261.74,130.93c-4.13.44-7.91,3.09-9.88,6.73-1.23,2.28-1.74,4.95-1.43,7.52.27,2.29,1.15,4.52,2.57,6.34,1.37,1.8,3.23,3.22,5.32,4.09,2.51,1.05,5.37,1.28,8,.59,2.44-.62,4.69-1.97,6.37-3.84,1.96-2.15,3.15-4.98,3.33-7.89.31-4.55-2.05-9.12-5.88-11.58-2.46-1.6-5.49-2.32-8.41-1.97Z"/>
    <path class="cls-1" d="M307.65,122.94c4.58-1.24,9.58-.94,13.96.92-1.29,2.58-2.6,5.14-3.89,7.71-2.61-.87-5.5-.99-8.14-.17-4.06,1.21-7.39,4.54-8.61,8.59-.74,2.29-.55,4.72-.57,7.09,0,5.67,0,11.35,0,17.03-2.88,0-5.76.01-8.63,0,.02-7.12-.01-14.25.02-21.37.22-4.98,2.23-9.87,5.64-13.52,2.73-3,6.32-5.2,10.24-6.26Z"/>
    <path class="cls-1" d="M348.61,119.81h21.15c.53,0,1,.19,1.4.57.4.38.6.85.6,1.39s-.19,1.01-.56,1.39c-.37.38-.85.57-1.45.57h-21.15v17.88c0,2.44.45,4.71,1.36,6.81.9,2.1,2.15,3.93,3.74,5.49,1.59,1.55,3.44,2.77,5.57,3.66,2.12.88,4.4,1.33,6.83,1.33,2.2,0,4.22-.33,6.08-1.01,1.85-.67,3.63-1.77,5.32-3.29.18-.18.42-.35.71-.5.15-.06.28-.11.4-.14.12-.03.25-.05.4-.05.45,0,.83.15,1.16.46.45.43.63.95.56,1.56-.07.61-.32,1.13-.73,1.56-1.81,1.77-3.9,3.11-6.28,4.02-2.38.91-4.91,1.37-7.61,1.37-2.94,0-5.71-.54-8.3-1.62-2.6-1.08-4.87-2.57-6.81-4.46-1.94-1.89-3.47-4.14-4.59-6.75-1.11-2.61-1.67-5.42-1.67-8.44v-34.94c0-.58.19-1.07.58-1.46.39-.4.85-.59,1.38-.59.56,0,1.02.19,1.38.57.36.38.53.88.53,1.49v13.13Z"/>
    <path class="cls-1" d="M366.11,164.04c-3.08,0-6.02-.58-8.75-1.71-2.72-1.13-5.13-2.71-7.17-4.7-2.04-1.99-3.67-4.38-4.84-7.12-1.17-2.74-1.76-5.73-1.76-8.89v-34.94c0-.87.31-1.66.9-2.27.6-.62,1.36-.94,2.21-.94s1.65.32,2.22.94c.56.6.84,1.36.84,2.27v11.97h20c.82,0,1.58.31,2.2.89.63.6.96,1.37.96,2.23s-.31,1.61-.88,2.2c-.58.6-1.37.92-2.27.92h-20v16.73c0,2.27.43,4.41,1.26,6.36.84,1.96,2.02,3.68,3.49,5.12,1.47,1.44,3.23,2.59,5.2,3.42,1.97.82,4.12,1.24,6.39,1.24,2.05,0,3.97-.32,5.69-.94,1.71-.62,3.37-1.65,4.94-3.07.21-.22.54-.46.96-.67.29-.12.48-.19.64-.23.88-.22,1.92.02,2.63.68.72.69,1.03,1.56.92,2.54-.11.87-.46,1.61-1.05,2.22-1.94,1.89-4.18,3.33-6.69,4.3-2.5.96-5.2,1.45-8.03,1.45ZM346.7,105.77c-.22,0-.39.07-.56.25-.18.18-.25.38-.25.66v34.94c0,2.85.53,5.53,1.58,7.99,1.05,2.46,2.51,4.6,4.33,6.37,1.83,1.78,4,3.2,6.45,4.22,2.45,1.02,5.09,1.54,7.86,1.54,2.54,0,4.97-.44,7.2-1.3,2.22-.85,4.2-2.12,5.89-3.77.22-.23.35-.51.4-.87.03-.25-.03-.41-.21-.58-.1-.09-.21-.14-.36-.14-.07,0-.11,0-.12.01-.07.02-.15.05-.24.09-.14.08-.26.18-.32.24-1.85,1.67-3.77,2.85-5.76,3.57-1.97.71-4.15,1.07-6.47,1.07-2.58,0-5.03-.48-7.28-1.41-2.25-.94-4.24-2.25-5.93-3.9-1.69-1.65-3.03-3.62-3.99-5.86-.96-2.24-1.45-4.68-1.45-7.27v-19.03h22.3c.36,0,.51-.11.62-.22.16-.17.23-.34.23-.59,0-.23-.07-.4-.24-.56-.19-.18-.37-.25-.61-.25h-22.3v-14.28c0-.41-.13-.6-.22-.7-.1-.11-.23-.21-.54-.21Z"/>
    <path class="cls-1" d="M384.77,141.65c0-2.94.56-5.71,1.67-8.3,1.11-2.6,2.63-4.85,4.56-6.77s4.19-3.43,6.77-4.54c2.58-1.11,5.33-1.67,8.24-1.67s5.7.56,8.28,1.67c2.58,1.11,4.83,2.63,6.75,4.54s3.42,4.17,4.52,6.77c1.1,2.6,1.65,5.37,1.65,8.3s-.55,5.66-1.65,8.24c-1.1,2.58-2.61,4.84-4.52,6.77-1.91,1.93-4.16,3.45-6.75,4.56-2.58,1.11-5.34,1.67-8.28,1.67s-5.66-.56-8.24-1.67c-2.58-1.11-4.84-2.63-6.77-4.56-1.93-1.93-3.45-4.19-4.56-6.77-1.11-2.58-1.67-5.33-1.67-8.24ZM388.64,141.65c0,2.35.45,4.57,1.36,6.68.9,2.11,2.14,3.96,3.7,5.54,1.56,1.59,3.39,2.84,5.5,3.76,2.11.92,4.38,1.38,6.81,1.38s4.75-.46,6.86-1.38c2.11-.92,3.94-2.17,5.5-3.76,1.56-1.59,2.78-3.44,3.67-5.54.89-2.11,1.34-4.33,1.34-6.68s-.45-4.67-1.34-6.79c-.89-2.12-2.11-3.97-3.67-5.54-1.56-1.57-3.39-2.81-5.5-3.72-2.11-.91-4.39-1.36-6.86-1.36s-4.67.45-6.79,1.36c-2.12.91-3.96,2.14-5.52,3.72-1.56,1.57-2.79,3.42-3.7,5.54-.91,2.12-1.36,4.39-1.36,6.79Z"/>
    <path class="cls-1" d="M406.01,164.04c-3.05,0-5.98-.59-8.69-1.76-2.71-1.17-5.1-2.78-7.13-4.81-2.02-2.02-3.64-4.42-4.81-7.13-1.17-2.71-1.76-5.64-1.76-8.69s.59-6.03,1.76-8.76c1.17-2.72,2.79-5.12,4.81-7.13,2.02-2.01,4.42-3.62,7.12-4.78,2.71-1.17,5.64-1.76,8.69-1.76s6.02.59,8.74,1.76c2.71,1.17,5.1,2.78,7.1,4.79,2.01,2.01,3.62,4.41,4.77,7.13,1.15,2.73,1.74,5.67,1.74,8.75s-.58,5.97-1.74,8.69c-1.15,2.71-2.75,5.1-4.76,7.13-2.01,2.02-4.4,3.64-7.11,4.81-2.71,1.17-5.65,1.76-8.74,1.76ZM406.01,121.52c-2.74,0-5.36.53-7.78,1.58-2.44,1.05-4.59,2.5-6.41,4.3-1.81,1.8-3.27,3.95-4.32,6.4-1.05,2.44-1.58,5.08-1.58,7.85s.53,5.36,1.58,7.78c1.05,2.44,2.5,4.59,4.32,6.41,1.82,1.82,3.97,3.27,6.41,4.32,2.42,1.05,5.04,1.58,7.78,1.58s5.4-.53,7.83-1.58c2.44-1.05,4.58-2.5,6.38-4.32,1.8-1.82,3.24-3.97,4.28-6.41,1.03-2.43,1.56-5.05,1.56-7.79s-.52-5.41-1.56-7.86c-1.04-2.45-2.47-4.6-4.27-6.4-1.8-1.8-3.95-3.25-6.39-4.3-2.42-1.05-5.06-1.58-7.83-1.58ZM406.01,160.17c-2.58,0-5.03-.5-7.27-1.48-2.23-.97-4.21-2.32-5.86-4.01-1.65-1.68-2.98-3.67-3.93-5.9-.96-2.24-1.45-4.64-1.45-7.13s.49-4.99,1.45-7.24c.96-2.24,2.28-4.23,3.94-5.9,1.66-1.67,3.64-3.01,5.89-3.97,2.26-.96,4.69-1.45,7.24-1.45s5.07.49,7.31,1.45c2.23.96,4.21,2.29,5.86,3.97,1.66,1.67,2.97,3.66,3.92,5.91.95,2.26,1.42,4.69,1.42,7.24s-.48,4.89-1.43,7.13c-.94,2.23-2.26,4.22-3.91,5.9-1.65,1.69-3.63,3.04-5.86,4.01-2.24.98-4.71,1.48-7.32,1.48ZM406.01,125.39c-2.24,0-4.37.43-6.34,1.27-1.97.84-3.71,2.01-5.15,3.47-1.45,1.46-2.61,3.21-3.46,5.19-.84,1.97-1.27,4.1-1.27,6.34s.43,4.27,1.26,6.22c.84,1.97,2.01,3.71,3.46,5.19,1.45,1.48,3.18,2.66,5.14,3.51,1.95.85,4.09,1.28,6.35,1.28s4.44-.43,6.4-1.28c1.96-.86,3.69-2.04,5.14-3.51,1.45-1.48,2.61-3.22,3.44-5.19.83-1.96,1.24-4.05,1.24-6.23s-.42-4.37-1.25-6.34c-.83-1.98-1.98-3.72-3.43-5.18-1.45-1.46-3.17-2.63-5.13-3.47-1.96-.84-4.11-1.27-6.4-1.27Z"/>
    <path class="cls-1" d="M438.83,142.54c0,2.23.4,4.33,1.2,6.32.8,1.99,1.91,3.73,3.32,5.23,1.41,1.5,3.08,2.69,5.01,3.58,1.93.89,4.02,1.34,6.28,1.34s4.36-.45,6.23-1.34c1.87-.89,3.47-2.1,4.79-3.63,1.32-1.53,2.34-3.31,3.07-5.34.73-2.03,1.09-4.18,1.09-6.43v-19.37c0-.56.19-1.04.56-1.42.37-.39.85-.58,1.45-.58.53,0,.98.19,1.34.56.36.37.53.85.53,1.45v19.59c0,2.79-.47,5.43-1.4,7.9-.93,2.48-2.24,4.65-3.92,6.5-1.68,1.86-3.68,3.32-6.01,4.39-2.33,1.07-4.91,1.6-7.73,1.6s-5.39-.53-7.79-1.6-4.49-2.52-6.26-4.36c-1.77-1.84-3.15-3.99-4.14-6.46-.99-2.46-1.49-5.09-1.49-7.88v-19.68c0-.59.19-1.07.58-1.42.39-.36.85-.53,1.38-.53s.99.18,1.36.53c.37.36.56.83.56,1.42v19.64Z"/>
    <path class="cls-1" d="M454.63,164.04c-2.94,0-5.72-.57-8.26-1.7-2.53-1.12-4.76-2.68-6.62-4.62-1.86-1.94-3.33-4.23-4.38-6.82-1.04-2.59-1.58-5.38-1.58-8.31v-19.68c0-.91.33-1.7.95-2.27,1.2-1.11,3.16-1.1,4.32.02.6.57.91,1.35.91,2.26v19.64c0,2.07.38,4.05,1.12,5.89.74,1.85,1.78,3.49,3.09,4.87,1.3,1.38,2.87,2.5,4.65,3.33,1.77.82,3.72,1.23,5.8,1.23s4.03-.41,5.74-1.22c1.72-.82,3.2-1.94,4.41-3.34,1.22-1.41,2.18-3.09,2.86-4.98.68-1.9,1.02-3.93,1.02-6.05v-19.37c0-.86.3-1.62.88-2.22.59-.61,1.37-.93,2.28-.93.84,0,1.59.31,2.17.91.56.58.86,1.36.86,2.24v19.59c0,2.92-.5,5.71-1.48,8.31-.98,2.6-2.38,4.91-4.14,6.87-1.78,1.96-3.93,3.53-6.39,4.66-2.47,1.13-5.23,1.71-8.21,1.71ZM436.91,122.1c-.24,0-.43.07-.6.23-.1.1-.21.24-.21.58v19.68c0,2.63.47,5.14,1.41,7.45.94,2.32,2.25,4.37,3.9,6.09,1.65,1.72,3.63,3.1,5.89,4.11,2.24,1,4.71,1.5,7.32,1.5s5.08-.5,7.25-1.5c2.17-1,4.07-2.38,5.64-4.11,1.57-1.74,2.81-3.8,3.69-6.14.88-2.33,1.33-4.86,1.33-7.5v-19.59c0-.38-.11-.55-.21-.65-.14-.14-.29-.2-.51-.2-.35,0-.51.11-.62.23-.16.17-.23.36-.23.63v19.37c0,2.38-.39,4.67-1.16,6.82-.77,2.16-1.88,4.08-3.29,5.71-1.42,1.64-3.16,2.96-5.16,3.92-2.02.96-4.28,1.45-6.73,1.45s-4.69-.49-6.76-1.44c-2.05-.95-3.86-2.24-5.37-3.84-1.5-1.6-2.7-3.48-3.55-5.59-.85-2.12-1.29-4.39-1.29-6.75v-19.64c0-.35-.11-.5-.2-.59-.16-.15-.32-.21-.56-.21Z"/>
    <path class="cls-1" d="M507.42,124.77c-2.43,0-4.75.48-6.95,1.42-2.2.95-4.11,2.25-5.74,3.9-1.63,1.65-2.93,3.58-3.9,5.81s-1.45,4.6-1.45,7.12v17.32c0,.56-.18,1.03-.53,1.4-.36.37-.79.56-1.29.56-.59,0-1.08-.19-1.47-.56-.39-.37-.58-.84-.58-1.4v-17.32c0-3.03.58-5.88,1.74-8.55,1.16-2.67,2.72-5.01,4.7-7.01,1.97-2,4.29-3.59,6.95-4.76,2.66-1.17,5.5-1.76,8.53-1.76h.45c.65,0,1.15.18,1.49.53s.51.82.51,1.38-.19,1.02-.58,1.38c-.39.36-.86.53-1.42.53h-.45Z"/>
    <path class="cls-1" d="M487.56,163.46c-.89,0-1.67-.3-2.27-.88-.61-.58-.93-1.36-.93-2.23v-17.32c0-3.17.62-6.2,1.83-9.01,1.21-2.79,2.87-5.27,4.93-7.36,2.07-2.1,4.52-3.78,7.3-5.01,2.79-1.23,5.82-1.86,8.99-1.86h.45c.97,0,1.76.3,2.32.89.54.57.83,1.32.83,2.18s-.33,1.65-.95,2.23c-.59.55-1.36.84-2.2.84h-.45c-2.26,0-4.45.45-6.49,1.33-2.05.89-3.86,2.11-5.38,3.65-1.52,1.54-2.75,3.37-3.66,5.46-.9,2.07-1.35,4.31-1.35,6.67v17.32c0,.86-.3,1.62-.86,2.2-.57.59-1.3.91-2.12.91ZM507.42,122.1c-2.85,0-5.57.56-8.06,1.66-2.51,1.11-4.73,2.63-6.59,4.52-1.86,1.89-3.37,4.13-4.46,6.66-1.09,2.51-1.64,5.24-1.64,8.09v17.32c0,.25.07.42.22.57.12.11.29.24.67.24.19,0,.32-.06.46-.2.1-.11.22-.27.22-.61v-17.32c0-2.67.52-5.22,1.54-7.58,1.02-2.35,2.41-4.42,4.13-6.16,1.73-1.75,3.79-3.14,6.11-4.14,2.33-1.01,4.82-1.52,7.4-1.52h.45c.35,0,.53-.12.64-.23.11-.1.21-.23.21-.53,0-.34-.1-.49-.19-.58-.14-.15-.44-.18-.66-.18h-.45Z"/>
    <path class="cls-1" d="M526.81,142.05c-1.37-.45-2.72-.96-4.07-1.54-1.35-.58-2.56-1.3-3.63-2.16-1.07-.86-1.93-1.88-2.58-3.07-.65-1.19-.98-2.6-.98-4.23,0-1.81.39-3.38,1.16-4.72.77-1.34,1.79-2.45,3.05-3.34,1.26-.89,2.69-1.55,4.3-1.98,1.6-.43,3.24-.65,4.9-.65,2.61,0,5.01.48,7.19,1.45,2.18.96,3.85,2.5,5.01,4.61.21.42.28.82.22,1.2-.06.39-.21.7-.45.94-.36.36-.76.53-1.2.53-.24,0-.5-.07-.8-.22-1.31-1.75-2.73-2.98-4.27-3.7-1.54-.71-3.37-1.07-5.48-1.07-1.13,0-2.27.12-3.43.36-1.16.24-2.2.62-3.14,1.16s-1.7,1.25-2.29,2.14c-.59.89-.89,1.99-.89,3.3,0,1.16.25,2.14.76,2.96.5.82,1.19,1.52,2.05,2.11.86.59,1.85,1.1,2.98,1.51,1.13.42,2.3.8,3.52,1.16,1.96.59,3.83,1.22,5.61,1.89,1.78.67,3.35,1.47,4.7,2.4,1.35.93,2.42,2.04,3.21,3.32.79,1.28,1.18,2.82,1.18,4.63,0,1.69-.37,3.26-1.11,4.7-.74,1.44-1.76,2.69-3.05,3.74-1.29,1.05-2.8,1.89-4.52,2.49s-3.56.91-5.52.91c-1.54,0-3.05-.15-4.52-.45-1.47-.3-2.83-.75-4.1-1.36-1.26-.61-2.38-1.37-3.36-2.29-.98-.92-1.78-2-2.4-3.25-.39-.77-.42-1.42-.09-1.96.33-.53.82-.8,1.47-.8s1.31.28,1.87.85c1.01,1.78,2.47,3.15,4.39,4.1,1.91.95,4.18,1.42,6.79,1.42,1.34,0,2.62-.2,3.85-.6,1.23-.4,2.33-.96,3.3-1.67.96-.71,1.73-1.57,2.29-2.56.56-.99.85-2.08.85-3.27s-.35-2.28-1.05-3.18c-.7-.91-1.63-1.71-2.81-2.43-1.17-.71-2.52-1.34-4.05-1.87-1.53-.53-3.14-1.04-4.83-1.51Z"/>
    <path class="cls-1" d="M529.22,164.04c-1.61,0-3.21-.16-4.75-.47-1.56-.31-3.03-.8-4.37-1.45-1.36-.66-2.59-1.49-3.65-2.49-1.07-1.01-1.96-2.21-2.65-3.58-.72-1.43-.42-2.46-.04-3.08.53-.87,1.41-1.35,2.45-1.35s1.9.4,2.68,1.18l.19.25c.9,1.59,2.18,2.78,3.9,3.63,1.74.87,3.86,1.31,6.28,1.31,1.21,0,2.38-.18,3.5-.54,1.11-.36,2.11-.87,2.97-1.5.83-.61,1.5-1.35,1.98-2.2.47-.83.7-1.71.7-2.71s-.26-1.77-.81-2.48c-.61-.79-1.45-1.51-2.49-2.15-1.1-.67-2.38-1.26-3.83-1.77-1.5-.52-3.11-1.03-4.76-1.49h-.05c-1.39-.47-2.79-1-4.17-1.59-1.44-.62-2.75-1.4-3.9-2.32-1.18-.95-2.15-2.1-2.87-3.41-.74-1.35-1.12-2.96-1.12-4.78,0-2.01.44-3.79,1.31-5.3.85-1.47,1.99-2.72,3.38-3.7,1.36-.96,2.93-1.69,4.66-2.15,1.69-.45,3.44-.69,5.2-.69,2.76,0,5.34.52,7.66,1.55,2.41,1.07,4.28,2.78,5.55,5.11.34.67.45,1.31.35,1.93-.1.63-.36,1.16-.77,1.57-.89.89-2.06,1.17-3.33.53l-.24-.12-.16-.22c-1.19-1.59-2.48-2.71-3.83-3.34-1.38-.64-3.07-.96-5-.96-1.04,0-2.12.11-3.2.33-1.03.21-1.97.56-2.8,1.03-.79.45-1.41,1.03-1.91,1.78-.46.69-.7,1.59-.7,2.66,0,.94.2,1.73.58,2.35.42.68,1,1.27,1.72,1.77.78.54,1.7,1,2.73,1.38,1.1.41,2.26.79,3.44,1.13,1.99.6,3.9,1.25,5.69,1.92,1.86.7,3.53,1.55,4.95,2.54,1.47,1.02,2.66,2.25,3.53,3.66.9,1.46,1.35,3.22,1.35,5.24,0,1.87-.42,3.63-1.24,5.23-.81,1.58-1.94,2.96-3.35,4.1-1.39,1.13-3.03,2.04-4.86,2.69s-3.82.98-5.9.98ZM516.21,153.93c-.28,0-.39.08-.49.25-.1.17-.06.45.14.84.56,1.12,1.29,2.1,2.16,2.93.89.84,1.92,1.54,3.07,2.1,1.17.56,2.46.99,3.82,1.27,3.13.63,6.56.59,9.43-.42,1.59-.56,2.99-1.33,4.18-2.3,1.16-.95,2.09-2.08,2.75-3.38.65-1.27.99-2.67.99-4.17,0-1.59-.34-2.94-1.01-4.03-.7-1.13-1.67-2.14-2.88-2.98-1.27-.88-2.76-1.64-4.45-2.27-1.75-.65-3.61-1.28-5.54-1.87-1.22-.36-2.43-.76-3.58-1.18-1.21-.45-2.3-1-3.24-1.65-.99-.68-1.79-1.51-2.37-2.46-.62-1-.93-2.2-.93-3.57,0-1.53.36-2.86,1.08-3.93.69-1.04,1.59-1.88,2.68-2.5,1.04-.59,2.21-1.02,3.48-1.29,1.23-.25,2.46-.38,3.66-.38,2.27,0,4.27.4,5.96,1.17,1.63.75,3.15,2.03,4.52,3.8.05.01.07.01.07.01.06,0,.19,0,.39-.2.02-.02.09-.09.12-.3.02-.14-.02-.31-.12-.51-1.02-1.86-2.48-3.2-4.44-4.07-2.02-.9-4.29-1.35-6.73-1.35-1.55,0-3.1.2-4.6.61-1.47.39-2.79,1-3.93,1.81-1.12.79-2.03,1.79-2.72,2.97-.67,1.15-1,2.55-1,4.14,0,1.43.28,2.66.84,3.68.58,1.05,1.35,1.97,2.3,2.73.98.79,2.11,1.46,3.36,2,1.31.56,2.64,1.06,3.96,1.49,1.69.48,3.33.99,4.88,1.53,1.6.56,3.04,1.22,4.27,1.97,1.29.78,2.34,1.69,3.12,2.71.85,1.11,1.29,2.42,1.29,3.89,0,1.38-.33,2.67-1,3.84-.64,1.13-1.52,2.11-2.61,2.92-1.06.78-2.28,1.4-3.62,1.84-1.34.44-2.76.66-4.21.66-2.78,0-5.24-.52-7.3-1.54-2.06-1.02-3.67-2.51-4.79-4.41-.41-.37-.74-.41-.96-.41Z"/>
  </g>
</svg>