<?xml version="1.0" encoding="UTF-8"?>
<svg id="Capa_2" data-name="Capa 2" xmlns="http://www.w3.org/2000/svg" viewBox="0 0 670.85 45.07">
  <defs>
    <style>
      .cls-1 {
        fill: #7bd555;
      }
    </style>
  </defs>
  <g id="Layer_1" data-name="Layer 1">
    <g>
      <path class="cls-1" d="M217.01,1.05c.75-2.13,4.29-.71,3.53,1.58.08,13.34.07,26.69.01,40.03.38,2.15-1.72,2.81-3.39,2.2-.89-4.01-.24-8.18-.42-12.25.19-10.51-.37-21.09.27-31.56Z"/>
      <path class="cls-1" d="M34.45,1.72c1.22-1.14,2.89.69,2.6,2,.08,12.64.09,25.29-.01,37.93.25,1.28-1.32,2.93-2.54,1.96-1.62-.6-1.11-2.57-1.26-3.88.03-11.37.03-22.75,0-34.12.19-1.28-.4-3.31,1.21-3.89Z"/>
      <path class="cls-1" d="M66.96,2.02c.76-2.24,4.08-.68,3.5,1.54.11,12.37.02,24.74.05,37.11.05,1.29-.19,4.32-2.2,3.53-1.89.22-1.5-2.33-1.65-3.48.21-12.89-.39-25.86.3-38.7Z"/>
      <path class="cls-1" d="M400.7,2.03c1.22-1.79,3.64-.06,3.25,1.72.05,12.6.06,25.2,0,37.8.26,1.39-1.22,3.07-2.64,2.25-1.74-1.16-.98-3.46-1.19-5.19.16-11.97-.19-23.96.17-35.93l.42-.65Z"/>
      <path class="cls-1" d="M467.18,1.51c1.71-1.3,3.99-.05,3.49,2.13.07,12.67.06,25.35,0,38.03.38,2.14-1.7,3.36-3.45,2.17-.8-6.35-.14-12.81-.35-19.2.21-7.71-.42-15.46.31-23.13Z"/>
      <path class="cls-1" d="M625.69,1.55c.74-1.67,3.76-.73,3.32,1.18.13,13.27.16,26.56-.01,39.83.2,2.32-3.6,2.71-3.61.2-.36-11.71,0-23.44-.16-35.15.09-2.01-.26-4.13.46-6.06Z"/>
      <path class="cls-1" d="M116.97,3c.53-1.66,3.37-1.33,3.43.59.31,12.01.04,24.04.14,36.06.04,1.3-.15,4.33-2.2,3.53-2.3-.08-1.44-3.06-1.67-4.53.24-11.88-.37-23.82.3-35.65Z"/>
      <path class="cls-1" d="M184.61,4.86c1.19-.02,2.66.29,2.47,1.83.23,10,.02,20.01.1,30.01-.12,1.21.22,3.84-1.77,3.54-2.12.63-1.95-2.31-2.05-3.57-.08-9,.01-18-.04-27,.21-1.62-.39-3.81,1.29-4.81Z"/>
      <path class="cls-1" d="M192,4.97c1.05-2.15,4.04-.61,3.53,1.63.07,10.68.07,21.38,0,32.07.22,1.91-1.4,3.45-3.17,2.28-1.15-2.22-.46-4.89-.64-7.29.22-9.56-.38-19.18.28-28.69Z"/>
      <path class="cls-1" d="M208.75,4.7c.94-1.26,3.5-.89,3.32.99.2,11.29.19,22.62,0,33.92.22,2.27-3.68,2.28-3.53.03-.43-6.32.07-12.68-.1-19.01.25-5.3-.58-10.68.31-15.93Z"/>
      <path class="cls-1" d="M225.76,6.13c.78-1.31,3.47-.08,3.06,1.46.12,10.01.12,20.05,0,30.06.3,2.71-3.9,2.6-3.7.04-.04-10.32-.29-20.69.14-31l.5-.56Z"/>
      <path class="cls-1" d="M583.92,5.96c.54-1.61,3.37-1.31,3.37.62.42,9.68.03,19.4.19,29.09.16,2.07-.19,5.83-3.2,4.4-1.21-2.61-.47-5.61-.67-8.39.24-8.56-.4-17.2.31-25.72Z"/>
      <path class="cls-1" d="M633.88,5.82c.48-1.77,3.72-1.36,3.46.73.38,9.36.01,18.74.17,28.11-.16,1.96.39,4.29-1.08,5.89-3.18.68-2.83-2.89-2.81-4.95.23-9.92-.31-19.89.26-29.78Z"/>
      <path class="cls-1" d="M392.02,7.01c.52-1.9,3.9-1.37,3.56.62.15,10.01.17,20.03-.01,30.04.25,2.39-3.82,2.31-3.65-.08-.09-10.19-.29-20.41.1-30.58Z"/>
      <path class="cls-1" d="M542.61,6.89c1.23-1.68,3.45.34,3.1,1.93.09,8.96.01,17.92.04,26.88.19,1.49-.55,3.71-2.48,3.25-1.98-1.05-1.2-3.51-1.39-5.31.21-8.74-.28-17.51.23-26.23l.5-.52Z"/>
      <path class="cls-1" d="M483.73,8.86c.26-2.31,3.98-1.55,3.53.72.15,8.36.04,16.73.05,25.1.28,1.63-1.06,2.69-1.95,3.83-.77-1.17-2-2.28-1.78-3.84.08-8.6-.21-17.22.15-25.81Z"/>
      <path class="cls-1" d="M642.69,8.01c1.28-1.5,3.24.11,3.05,1.71.03,8.82.23,17.67-.1,26.48-.4,2.45-3.87,1.6-3.62-.64-.18-7.99,0-15.97-.08-23.96.22-1.15-.4-2.82.75-3.59Z"/>
      <path class="cls-1" d="M242.54,8.81c1.14-1.51,3.28.33,2.99,1.79.05,8.35.23,16.72-.09,25.05-1.11,2.14-3.87,1.19-3.64-1.1.01-8.41-.29-16.85.15-25.24l.59-.5Z"/>
      <path class="cls-1" d="M25.72,10.1c.68-1.51,3.37.12,2.99,1.47.15,7.36.13,14.74.01,22.1.19,2.57-3.95,2.72-3.69,0-.06-7.63-.3-15.31.12-22.93l.57-.64Z"/>
      <path class="cls-1" d="M167.01,10.02c.47-1.6,3.34-1.44,3.39.52.4,8.05.41,16.17-.02,24.23-.07,2.24-3.75,1.86-3.55-.26-.24-8.15-.56-16.38.18-24.49Z"/>
      <path class="cls-1" d="M200.31,9.62c1.63-1.5,4.17-.15,3.53,2.06.01,7.67.19,15.34-.09,23,.42,2.24-4.06,2.08-3.6-.05-.1-8.32-.4-16.71.16-25.01Z"/>
      <path class="cls-1" d="M475.81,10.06c1.25-1.51,3.47-.08,3.16,1.65.05,7.5.18,15.02-.06,22.51-.15,2.49-3.97,1.8-3.68-.51-.06-7.69-.22-15.39.09-23.06l.49-.59Z"/>
      <path class="cls-1" d="M.76,11.06c.6-1.52,3.27.2,2.94,1.47.15,6.7.13,13.42,0,20.12.38,2.54-3.93,2.69-3.6.08-.05-6.99-.29-14.03.13-21.01l.52-.66Z"/>
      <path class="cls-1" d="M17.4,10.46c2.25-1.17,3.31,1.23,3.08,3.12-.09,6.68.25,13.37-.19,20.03-.41,1.91-3.46,1.82-3.52-.22-.33-6.23-.02-12.49-.15-18.74.13-1.39-.26-3.06.78-4.19Z"/>
      <path class="cls-1" d="M42.58,10.82c.92-1.27,2.94.32,2.81,1.56.19,6.82.19,13.66,0,20.48.17,2.2-3.41,2.79-3.6.46-.34-6.22-.03-12.48-.15-18.71.24-1.22-.45-3.12.94-3.79Z"/>
      <path class="cls-1" d="M58.82,10.86c.52-1.6,3.45-.73,3.18.97.25,6.92.1,13.87.08,20.79.19,1.78-.98,2.93-2.78,2.57-1.9-2.76-.73-6.38-1.03-9.52.33-4.9-.71-10.07.55-14.81Z"/>
      <path class="cls-1" d="M75.59,10.88c1.06-1.9,3.64.1,3.19,1.76,0,7.02.22,14.06-.12,21.07-.7,1.74-2.79,1.67-3.53.01-.39-6.01-.03-12.05-.18-18.07.22-1.56-.46-3.48.64-4.77Z"/>
      <path class="cls-1" d="M100.65,10.98c1.06-1.8,3.55.13,3.14,1.75.07,6.61.08,13.24,0,19.85.18,1.32-1.08,2.85-2.52,2.34-1.87-1.15-1.11-3.53-1.31-5.33.15-5.99-.19-11.99.17-17.97l.52-.64Z"/>
      <path class="cls-1" d="M108.84,10.99c.47-1.52,3.37-.78,3.18.86.19,7.17.22,14.38-.01,21.55,0,2-3.2,2.19-3.48.22-.57-5.63-.06-11.33-.26-16.98.14-1.87-.35-3.95.57-5.65Z"/>
      <path class="cls-1" d="M125.29,10.53c1.69-1.26,4.09-.14,3.51,2.1.03,7.01.18,14.04-.09,21.05.45,2.16-4.06,2.14-3.58.02-.13-7.71-.42-15.48.16-23.17Z"/>
      <path class="cls-1" d="M141.84,11.94c.19-2.39,3.9-1.62,3.64.56.18,7.05.02,14.11.05,21.17-.62.39-1.85,1.16-2.47,1.55-.89-1.37-1.59-2.89-1.37-4.56.11-6.24-.19-12.49.15-18.72Z"/>
      <path class="cls-1" d="M175.59,11.05c1.35-1.44,3.36-.2,3.21,1.59.04,6.97.28,13.96-.13,20.91-.7,2.21-3.72,1.07-3.58-.87-.05-6.97-.26-13.97.11-20.92l.39-.71Z"/>
      <path class="cls-1" d="M250.38,10.61l1.02-.55c.54.11,1.61.34,2.15.45.81,6.66.13,13.44.37,20.15-.37,1.43.76,4.51-1.56,4.51-2.18.84-2.41-2.17-2.3-3.56.18-6.99-.39-14.04.32-21Z"/>
      <path class="cls-1" d="M334.36,10.43c1.57-.83,3.1.54,2.88,2.17.08,6.94.29,13.92-.11,20.85-.22,2.07-3.27,2.1-3.49.03-.7-5.59.02-11.24-.25-16.85.19-2.03-.5-4.55.97-6.2Z"/>
      <path class="cls-1" d="M342.74,11.06c.8-.96,3.13.19,2.82,1.44.15,6.75.17,13.53-.01,20.28.17,2.45-4.05,2.17-3.66-.22-.22-5.99-.03-11.99-.1-17.98.21-1.13-.33-2.88.95-3.52Z"/>
      <path class="cls-1" d="M359.41,10.73c1.42-.46,2.9.27,2.78,1.9.08,6.96.24,13.94-.09,20.88-.68,1.98-3.88,1.2-3.53-.9-.04-6.92-.26-13.86.12-20.76l.72-1.12Z"/>
      <path class="cls-1" d="M375.7,11.07c1.35-1.55,3.48-.1,3.22,1.69.04,6.8.17,13.62-.06,20.41-.14,2.01-2.89,2.23-3.56.39-.44-5.96-.03-11.95-.2-17.92.17-1.5-.36-3.28.6-4.57Z"/>
      <path class="cls-1" d="M409.54,10.54c1.21-1.27,3.06.62,2.69,2.01.05,6.98.22,13.98-.09,20.96-.2,1.99-3.3,1.98-3.46-.01-.35-6.29-.04-12.6-.16-18.9.29-1.28-.56-3.44,1.02-4.06Z"/>
      <path class="cls-1" d="M417.44,10.57c1.64-1.07,3.36.21,3.2,2.05.08,6.69.1,13.38-.01,20.06.28,2-2.68,3.41-3.57,1.22-.54-5.05-.06-10.16-.22-15.23.18-2.68-.54-5.58.6-8.1Z"/>
      <path class="cls-1" d="M425.76,10.91c.6-1.47,3.44-.66,3.1,1.03.25,7.1.19,14.24.03,21.34-.07,2.04-3.06,2.36-3.58.31-.27-7.31-.28-14.66,0-21.96l.45-.72Z"/>
      <path class="cls-1" d="M459.5,10.7c1.13-1.35,3.09.47,2.75,1.86.05,6.98.26,14-.11,20.98-.49,2.37-3.98,1.32-3.52-.93,0-7.14-.36-14.34.2-21.45l.68-.46Z"/>
      <path class="cls-1" d="M509.66,11.07c1.03-.6,2.75.19,2.59,1.52.29,6.67.33,13.4-.02,20.07.12,2.3-3.73,2.21-3.53-.05-.02-7.07-.57-14.26.29-21.27l.67-.27Z"/>
      <path class="cls-1" d="M559.52,10.54c1.3-1.14,3.12.47,2.83,1.96.18,6.76.2,13.55-.01,20.31.4,2.33-3.41,3.11-3.59.63-.34-6.27-.03-12.55-.16-18.82.24-1.32-.49-3.27.93-4.08Z"/>
      <path class="cls-1" d="M567.57,10.98c.98-1.8,3.51.05,3.15,1.63.07,6.68.09,13.36-.01,20.04.35,2.19-2.81,3.3-3.65,1.07-.26-7.37-.23-14.77-.01-22.14l.52-.6Z"/>
      <path class="cls-1" d="M592.58,10.83c1.05-1.83,3.56.17,3.15,1.76.07,6.69.09,13.38-.01,20.07.34,2.17-2.83,3.39-3.63,1.06-.29-7.39-.24-14.82-.03-22.21l.52-.68Z"/>
      <path class="cls-1" d="M609.3,10.48c1.61-.62,3.23.35,3.11,2.15.12,6.72.15,13.46-.02,20.17.14,1.92-2.42,3.09-3.5,1.28-.59-5.13-.09-10.32-.26-15.47.14-2.7-.48-5.59.67-8.13Z"/>
      <path class="cls-1" d="M617.52,10.87c1.12-1.83,3.6.03,3.22,1.71.08,6.69.1,13.4,0,20.09.34,2.17-2.84,3.36-3.63,1.06-.29-7.38-.24-14.79-.03-22.17l.45-.69Z"/>
      <path class="cls-1" d="M158.86,11.98c.46-1.5,3.35-.81,3.18.84.21,6.53.21,13.1,0,19.63.11,2.01-3.46,2.25-3.49.16-.53-4.98-.11-10.01-.25-15.01.11-1.86-.28-3.89.56-5.62Z"/>
      <path class="cls-1" d="M500.65,11.58l.8-.75c.51.09,1.54.29,2.05.39,1.15,3.66.43,7.6.63,11.38-.2,3.82.54,7.8-.65,11.49-3.09,1.67-3.57-2.32-3.39-4.46.25-6-.62-12.16.56-18.05Z"/>
      <path class="cls-1" d="M8.78,12.98l.52-.76c3.8-.62,2.59,4.11,2.8,6.4-.38,4.7.79,9.68-.68,14.2-.53.06-1.61.18-2.15.25-1.79-2.42-.77-5.66-1.04-8.44.29-3.85-.62-7.96.55-11.65Z"/>
      <path class="cls-1" d="M234.37,12.41c1.65-.51,2.92.54,2.78,2.24.04,5.62.23,11.26-.1,16.87-.14,1.93-3.26,1.98-3.44.05-.4-4.64-.06-9.3-.18-13.94.13-1.75-.4-3.81.94-5.22Z"/>
      <path class="cls-1" d="M534.52,12.71c1.12-1.32,3.06.4,2.79,1.79.16,5.67.4,11.4-.15,17.05-.58,2.37-3.91,1.29-3.5-.94-.03-5.8-.32-11.64.17-17.43l.69-.47Z"/>
      <path class="cls-1" d="M550.83,13.14c1.23-.88,3.42-.21,3.14,1.54.02,5.75.46,11.58-.25,17.29-1.73,1.42-3.92-.05-3.47-2.19.2-5.52-.73-11.27.58-16.64Z"/>
      <path class="cls-1" d="M650.84,13.05c1.14-1.69,3.64-.27,3.23,1.63-.04,5.79.32,11.63-.21,17.4-1.14,1.85-3.74.57-3.53-1.38-.08-5.68-.25-11.39.1-17.07l.41-.58Z"/>
      <path class="cls-1" d="M50.75,14.08c.7-1.47,3.3.12,2.96,1.46.09,4.98.36,10.01-.16,14.96-.8,1.81-2.25,1.19-3.4.13-.31-5.29-.37-10.64.03-15.92l.57-.63Z"/>
      <path class="cls-1" d="M92.28,13.43c1.69-.78,3.29.25,3.18,2.12.09,5.03.24,10.09-.11,15.11-.83,2.38-4.14,1.2-3.63-1.12.2-5.34-.74-10.89.56-16.11Z"/>
      <path class="cls-1" d="M133.82,13.89c.51-1.58,3.48-.81,3.22.93.2,5.21.21,10.44-.01,15.65,0,2.02-3.36,2.26-3.53.16-.17-5.54-.72-11.31.32-16.74Z"/>
      <path class="cls-1" d="M266.97,14.04c.68-1.53,3.44-1.46,3.47.49.31,5.38.27,10.81.03,16.19-.34,2.29-3.74,1.88-3.59-.33-.16-5.44-.32-10.93.09-16.35Z"/>
      <path class="cls-1" d="M325.93,14.27c1.15-1.1,3-.05,2.91,1.45.15,4.81.31,9.67-.1,14.47-.61,1.86-3.34,1.41-3.49-.43-.24-5.02-.38-10.11.12-15.12l.56-.37Z"/>
      <path class="cls-1" d="M350.85,14.14c1.23-1.47,3.24,0,3.04,1.62.07,4.82.27,9.67-.12,14.49-.38,1.93-3.72,1.66-3.55-.45-.18-5.06-.26-10.14.06-15.19l.57-.47Z"/>
      <path class="cls-1" d="M367.15,14.46c.97-1.21,2.23-.66,3.3.08.42,4.71.2,9.47.17,14.2.35,1.72-1.33,2.57-2.32,3.58-.82-1.42-1.72-2.91-1.49-4.63.13-4.4-.38-8.88.34-13.23Z"/>
      <path class="cls-1" d="M384.33,13.54c1.62-.53,2.97.35,2.87,2.1.17,4.35.09,8.71.06,13.06.27,1.58-1.05,2.63-1.88,3.76-2.94-2.48-1.57-6.53-1.88-9.84.26-3-.67-6.32.83-9.08Z"/>
      <path class="cls-1" d="M433.9,13.97c.51-1.5,3.37-1.12,3.27.67.25,5.33.23,10.69.01,16.03-.06,2.14-3.54,2.02-3.52-.08-.07-5.52-.5-11.16.24-16.62Z"/>
      <path class="cls-1" d="M442.31,13.49c1.52-.82,2.6-.48,3.24,1.03.31,5.05.15,10.14.1,15.2.19,1.95-1.62,3.21-3.31,2.09-.91-2.97-.35-6.14-.5-9.2.13-3.03-.38-6.16.47-9.12Z"/>
      <path class="cls-1" d="M450.71,13.89c.47-1.73,3.54-.67,3.19,1.02.19,5.17.21,10.36-.01,15.52.02,2.81-4.26,1.98-3.68-.68.18-5.25-.72-10.79.5-15.86Z"/>
      <path class="cls-1" d="M492.53,13.98c1-1.81,3.45.02,3.14,1.59.07,5.03.22,10.08-.11,15.1-.66,1.71-2.83,1.7-3.54.04-.26-5.36-.24-10.75-.01-16.12l.52-.61Z"/>
      <path class="cls-1" d="M517.66,13.98c.8-1.57,3.37.2,3.01,1.63.13,4.67.14,9.36,0,14.04.24,2.06-2.84,3.18-3.6,1-.31-5.33-.31-10.7-.01-16.03l.6-.64Z"/>
      <path class="cls-1" d="M525.68,13.61c.72-1.54,3.57-.72,3.26,1.05.19,5.3.19,10.61,0,15.9.29,2.32-3.57,2.62-3.61.22-.06-5.69-.66-11.59.34-17.17Z"/>
      <path class="cls-1" d="M600.79,14.01c1.25-1.66,3.56-.22,3.25,1.61.03,4.91.23,9.83-.12,14.73.1,2.64-4.05,1.75-3.61-.63.12-5.19-.72-10.71.48-15.71Z"/>
      <path class="cls-1" d="M667.76,14.08c.65-1.45,3.31.12,2.97,1.43.16,4.7.16,9.42,0,14.12.21,1.98-2.89,3.04-3.57.92-.36-5.25-.36-10.57.01-15.82l.58-.65Z"/>
      <path class="cls-1" d="M83.82,14.77c.45-1.66,3.48-.75,3.2.96.2,4.62.21,9.27,0,13.89.09,2.21-3.56,2.36-3.57.03-.08-4.92-.73-10.1.38-14.88Z"/>
      <path class="cls-1" d="M275.72,14.99c.8-1.53,3.13-.39,3.1,1.04.14,4.61.32,9.28-.11,13.89-.95,2.02-3.88.78-3.57-1.22.18-4.51-.83-9.48.58-13.71Z"/>
      <path class="cls-1" d="M575.68,14.62c.76-1.5,3.58-.76,3.28,1.04.21,4.63.21,9.28,0,13.9.04,2.18-3.45,2.54-3.6.17-.1-5.01-.6-10.18.32-15.11Z"/>
      <path class="cls-1" d="M659.31,14.35c.54-.07,1.62-.2,2.17-.26,1.77,2.48.77,5.75,1.05,8.59-.28,2.81.72,6.06-1.06,8.52-3.46.67-2.76-3.38-2.83-5.54.29-3.74-.68-7.74.67-11.31Z"/>
      <path class="cls-1" d="M150.62,15.91l.61-.71c.54.14,1.62.43,2.16.57.92,4.2.45,8.66.31,12.95-.64,2.48-4.16,1.2-3.64-1.07.15-3.87-.73-8.13.56-11.74Z"/>
      <path class="cls-1" d="M258.91,16.1l.43-.68c.53.01,1.6.03,2.14.04,1.37,2.84.53,6.16.77,9.2-.01,2.07.42,6.2-2.94,5.19-1.6-4.2-1-9.38-.4-13.75Z"/>
      <path class="cls-1" d="M284.42,15.53c1.55-.53,2.81.46,2.74,2.08.07,3.82.38,7.71-.26,11.49-1.16,1.53-3.66.5-3.36-1.39.25-3.99-1.08-8.58.88-12.18Z"/>
      <path class="cls-1" d="M317.62,15.77c1.12-1.43,3.23.41,2.96,1.83.11,3.66.22,7.36-.11,11.02-.82,1.39-2.62,1.9-3.45.21-.43-4.15-.4-8.4,0-12.55l.6-.51Z"/>
      <path class="cls-1" d="M292.25,16.45c.54-.1,1.62-.31,2.16-.41,2.13,2.32.93,5.8,1.25,8.65.29,2.08-.53,5.76-3.33,4.04-1-3.95-.81-8.29-.08-12.28Z"/>
      <path class="cls-1" d="M300.69,17.02c1.38-1.46,3.39-.03,3.2,1.72.05,3.03.3,6.11-.2,9.1-.93,1.92-3.85.74-3.55-1.21.08-3.16-.67-6.65.55-9.61Z"/>
      <path class="cls-1" d="M308.78,17.01c2.45-2.61,4.11,1.39,3.49,3.59-.52,2.81,1.38,7.18-1.87,8.68-1.31-.4-1.94-1.26-1.87-2.56-.05-3.23-.32-6.51.25-9.71Z"/>
    </g>
  </g>
</svg>