<?xml version="1.0" encoding="UTF-8"?>
<svg id="Capa_2" data-name="Capa 2" xmlns="http://www.w3.org/2000/svg" viewBox="0 0 242.28 325.43">
  <defs>
    <style>
      .cls-1 {
        fill: #fff;
      }
    </style>
  </defs>
  <g id="Capa_1-2" data-name="Capa 1">
    <g>
      <g>
        <path class="cls-1" d="M56.44,157.91c3.78-.1,7.57.07,11.35-.1,13.77,0,27.54,0,41.31,0,5.72-.15,11.44-.05,17.16-.08,12.85.15,25.7.04,38.56.08,6.73-.05,13.46.13,20.19.07,4.56.12,9.54,2.02,11.79,6.23,2.58,5.36,5.46,10.58,8.29,15.82,2.93,5.32,5.8,10.67,8.82,15.93,1.58-.14,3.26.17,4.78-.37-.74-1.32-1.46-2.68-1.7-4.19-.36-1.95-.3-4.28,1.2-5.75.93-.97,2.34-1.15,3.62-1.26,3.65-.21,7.31.35,10.85,1.25,2.7.76,5.45,1.67,7.68,3.41,1.23.91,1.84,2.42,1.95,3.92v.42c-.2,3.81-2.97,7.8-6.94,8.27-6.05.05-12.11,0-18.17.02,2.46,3.76,5.15,7.39,7.77,11.05-.5.49-.76,1.15-1.1,1.74-3.26,5.89-6.55,11.76-9.81,17.66-5.16.64-10.15,2.28-14.87,4.44-3.89,1.77-7.73,3.71-11.19,6.24-1.43,1.06-2.78,2.27-3.78,3.76-4.69.9-9.38,1.8-14.08,2.68.32-2.69-.31-5.86-2.7-7.46-2.68-1.86-6.11-1.6-9.21-1.48-14.66.02-29.31.29-43.97.23-3.92-.17-7.85.05-11.77-.14-5.92.06-11.84-.14-17.77-.07-3.29-.08-6.97-.52-9.83,1.48-2.38,1.61-3.02,4.77-2.69,7.46-4.49-.83-8.96-1.72-13.45-2.54-.36-.04-.7-.19-.88-.5-1.9-2.55-4.65-4.27-7.34-5.88-6.78-3.8-14.05-7.1-21.82-8.14-.3,0-.52-.15-.64-.44-3.52-6.35-7.05-12.7-10.59-19.04l-.18.16c2.66-3.72,5.3-7.45,7.93-11.19-6.08,0-12.17.02-18.25-.02-3.9-.44-6.62-4.29-6.95-8.01v-.69c.11-1.05.37-2.13,1.04-2.98,1.25-1.56,3.16-2.4,4.95-3.17,4.42-1.66,9.16-2.58,13.89-2.46,1.46.08,3.13.19,4.22,1.3,1.4,1.39,1.54,3.56,1.24,5.41-.2,1.65-.99,3.11-1.75,4.55,1.52.49,3.19.22,4.77.35,5.34-9.5,10.6-19.06,15.63-28.73.88-1.69,1.51-3.55,2.84-4.96,2.4-2.72,6.07-3.96,9.6-4.26ZM56.99,163.42c-1.56.2-3.1.83-4.21,1.97-.99.89-1.43,2.18-2.07,3.31-5.23,10.13-10.49,20.25-15.72,30.38-.4.77-.72,1.79-.15,2.56.45.56,1.22.7,1.89.73,35,.02,70-.02,105,.02.93-4.83,3.48-9.35,7.19-12.59,3.93-3.5,9.14-5.54,14.4-5.58,4.83-.11,9.69,1.41,13.58,4.29,4.54,3.28,7.76,8.34,8.77,13.86,6.52.02,13.03,0,19.55,0,.92.02,2.12-.18,2.47-1.18.16-.73-.05-1.48-.39-2.12-5.61-10.84-11.22-21.69-16.84-32.53-1.1-1.79-3.1-2.91-5.17-3.14-3.29-.14-6.59-.12-9.89-.11-14.67.05-29.33-.11-44-.07-4.32.05-8.64-.16-12.97-.09-10.54.22-21.09-.04-31.63.16h-24.1c-1.9,0-3.8-.05-5.7.11ZM154.65,193.12c-3.25,2.15-5.58,5.53-6.65,9.25,10.47.05,20.95,0,31.42.02-1.33-5.04-5.23-9.3-10.13-11.06-4.79-1.8-10.43-1.12-14.65,1.79Z"/>
        <path class="cls-1" d="M6.05,228.62c3.46-4.91,6.95-9.79,10.4-14.71,3.33,6,6.67,11.98,9.99,17.98-2.77-.28-5.6-.05-8.27.7-3.05.84-6.07,2.85-7.05,5.99-.57,2-.79,4.22-.11,6.22.74,2.13,2.85,3.34,4.87,4.05,3.93,1.34,8.09,1.79,12.19,2.34,7.01.81,14.03,1.65,21.08,1.98,2.32.02,4.68.14,6.96-.39.87-.23,1.78-.6,2.31-1.36.61-.98.68-2.19.46-3.29,4.5.9,9.02,1.7,13.52,2.61.44,2.1,1.06,4.16,1.56,6.25,2.03,7.85,3.88,15.75,6.14,23.54.74,2.65,1.86,5.3,3.83,7.28,2,1.97,4.7,3.01,7.4,3.59,4.64.97,9.41.9,14.13.89,12.25,0,24.51,0,36.76,0,4.71-.2,9.68-.42,13.89-2.78,3.17-1.76,4.97-5.14,5.93-8.52,2.87-10.01,5.28-20.15,7.83-30.24,4.51-.91,9.03-1.72,13.55-2.61-.4,1.55.01,3.6,1.65,4.26,2.36,1,5,.76,7.51.8,4.84-.18,9.67-.68,14.49-1.18,4.72-.53,9.44-1,14.12-1.84,3-.63,6.26-1.18,8.66-3.24,1.97-1.73,2.07-4.62,1.65-7.02-.35-2.75-2.31-5.05-4.73-6.27-3.33-1.71-7.22-2.05-10.9-1.77,3.31-6,6.66-11.98,9.98-17.97,3.45,4.92,6.95,9.81,10.41,14.72,1.22,1.86,1.95,3.99,2.5,6.14.71,2.82.39,5.73.46,8.6.06,1.86-.08,3.72-.07,5.59.63.71,1.27,1.43,1.58,2.35.46,1.22.37,2.54.37,3.82,0,21.5,0,43,0,64.51.03,1.93-.94,3.88-2.61,4.89-1.09.74-2.44.9-3.73.9-5.63,0-11.25,0-16.88,0-1.34,0-2.75-.22-3.85-1.04-1.48-.98-2.34-2.72-2.39-4.47-.05-2.49.03-4.97-.03-7.46-2.23,0-4.46,0-6.69,0-1.63.08-3.38-.08-4.69-1.13-1.76-1.25-2.38-3.51-2.24-5.57-5.63,0-11.25,0-16.88,0-3.22.03-6.51.05-9.61-.94-2.72-.83-5.25-2.24-8.08-2.71-4.19-.8-8.49-.39-12.73-.49-10.65-.04-21.29.04-31.94.08-11.35-.15-22.71-.04-34.06-.08-2.84-.02-5.72.27-8.42,1.18-1.95.62-3.78,1.57-5.76,2.12-2.53.74-5.19.89-7.81.85h-18.37c0,1.29-.05,2.65-.71,3.8-.96,1.82-2.99,2.95-5.03,2.91-2.63,0-5.26,0-7.88,0-.08,2.63.05,5.26-.06,7.88-.2,2.83-2.82,5.13-5.64,5.05-5.62.06-11.24,0-16.86.03-1.4,0-2.88-.03-4.1-.79-1.79-.97-2.85-3.01-2.81-5.02,0-22.1,0-44.2,0-66.3-.08-1.73.9-3.19,1.94-4.47.02-1.83-.12-3.66-.06-5.48.07-2.8-.24-5.64.41-8.39.52-2.23,1.3-4.44,2.56-6.37ZM12.52,276.46c-.77.17-1.46.74-1.6,1.53-.07,1.42,0,2.84.18,4.24.56,4.28,1.69,8.73,4.58,12.07,1.7,2.03,4.3,3.22,6.95,3.18,11.63.02,23.27,0,34.9.01,1.82-.02,3.67.08,5.47-.27,1.77-.55,3.36-1.54,5-2.38.85-.53,1.88-.92,2.44-1.8.37-.83-.43-1.44-1.01-1.86-3.68-2.71-7.52-5.18-11.35-7.67-1.87-1.2-4.11-1.53-6.26-1.9-11.87-1.98-23.75-3.96-35.74-5.16-1.18-.08-2.39-.34-3.56,0ZM225.11,276.56c-11.93,1.28-23.77,3.23-35.6,5.23-1.92.31-3.87.76-5.51,1.86-3.76,2.46-7.54,4.88-11.16,7.55-.58.42-1.37,1.02-1.02,1.84.6.95,1.72,1.36,2.65,1.92,2.22,1.13,4.44,2.66,7.05,2.51,12.51.06,25.03,0,37.54.03,1.82,0,3.69-.28,5.26-1.26,2.32-1.44,3.9-3.81,4.91-6.3,1.49-3.67,2.18-7.66,2.12-11.62.04-.87-.65-1.6-1.46-1.82-1.58-.46-3.21,0-4.8.06Z"/>
        <path class="cls-1" d="M78.48,245.97c28.37-.03,56.75,0,85.13-.01.83.02,1.61.58,1.87,1.38.51,1.25-.49,2.81-1.86,2.82-28.38,0-56.76.02-85.14-.01-2.34-.19-2.34-4,0-4.18Z"/>
        <path class="cls-1" d="M79.96,253.48c3.67-.17,7.37-.02,11.05-.07h70.81c1.26,0,2.27,1.43,1.86,2.62-.2.96-1.19,1.63-2.16,1.57-26.91,0-53.83,0-80.74,0-.96.05-1.96-.59-2.16-1.56-.36-1.04.33-2.23,1.35-2.56Z"/>
        <path class="cls-1" d="M82.35,260.68c25.58-.08,51.17,0,76.76-.04,1.01-.12,2.15.42,2.43,1.45.48,1.21-.52,2.73-1.82,2.75-25.71,0-51.42,0-77.13,0-1.33,0-2.35-1.53-1.85-2.75.23-.72.86-1.3,1.62-1.41Z"/>
        <path class="cls-1" d="M83.9,267.93c.61-.31,1.32-.18,1.98-.2,23.91,0,47.83,0,71.74,0,1.2.04,2.09,1.33,1.82,2.48-.16,1.01-1.14,1.74-2.15,1.71-24.11,0-48.22,0-72.33,0-.89.01-1.78-.56-2.06-1.43-.35-.95.1-2.09.99-2.57Z"/>
        <path class="cls-1" d="M86.62,275.21c22.85-.05,45.71,0,68.57-.03,1.34-.09,2.46,1.42,2.01,2.69-.24.88-1.09,1.53-2,1.51-22.7,0-45.4,0-68.1,0-1.33.07-2.41-1.36-2.05-2.62.16-.77.83-1.37,1.57-1.56Z"/>
        <path class="cls-1" d="M88.1,282.42c.34-.2.71-.31,1.11-.3,20.89,0,41.78,0,62.66,0,.88,0,1.91-.15,2.6.53,1.03.8.94,2.57-.12,3.31-.52.44-1.23.38-1.86.37-21.25-.02-42.51,0-63.76-.02-1.83-.28-2.27-3.03-.63-3.88Z"/>
      </g>
      <path class="cls-1" d="M95.01,6.95C102.49,2.65,111.06.35,119.67.04c1.93-.12,3.86.07,5.79.2,10.23.77,20.18,4.7,28.24,11.05,3.17,2.46,6,5.34,8.58,8.41,2.11,2.51,4.02,5.19,5.68,8.02,3.94,6.65,6.42,14.16,7.11,21.86.83,8.65-.49,17.42-3.38,25.59-2.44,6.97-5.95,13.53-10.1,19.64-3.97,5.76-8.2,11.33-12.46,16.88-9.16,11.89-18.52,23.63-27.98,35.28-2.62-3.07-5.07-6.27-7.63-9.39-9.29-11.65-18.61-23.29-27.47-35.28-1.92-2.6-3.84-5.2-5.65-7.87-3.5-5.23-6.54-10.78-8.86-16.63-2.69-6.75-4.31-13.94-4.61-21.2v-3.58c.13-2.51.35-5.02.8-7.49,1.22-7.12,3.96-13.97,7.95-19.99,4.9-7.55,11.47-14.09,19.31-18.57ZM117.84,29.27c-7.12.81-13.85,4.63-18.15,10.38-3.39,4.47-5.28,10.1-5.13,15.72,0,4.1,1.11,8.18,3.07,11.78,2.45,4.52,6.28,8.25,10.82,10.64,8.11,4.35,18.45,4.14,26.37-.55,3.52-2.06,6.57-4.93,8.79-8.36,2.79-4.25,4.26-9.37,4.11-14.46-.07-4.29-1.29-8.55-3.46-12.25-2.74-4.69-6.97-8.47-11.92-10.7-4.51-2.05-9.59-2.8-14.5-2.2Z"/>
    </g>
  </g>
</svg>