<?xml version="1.0" encoding="UTF-8"?>
<svg id="Capa_2" data-name="Capa 2" xmlns="http://www.w3.org/2000/svg" viewBox="0 0 263.79 263.94">
  <defs>
    <style>
      .cls-1 {
        fill: #fff;
      }

      .cls-2 {
        fill: #7ed957;
      }
    </style>
  </defs>
  <g id="Layer_1" data-name="Layer 1">
    <path class="cls-2" d="M122.22.41c28.51-2.35,57.54,5.4,81.55,20.81,29.01,18.65,50.07,49.15,57.26,82.88,3.11,13.08,3.03,26.6,2.45,39.95-2.48,28.11-14.32,55.32-33.28,76.24-25.17,28.35-63.24,45.15-101.22,43.54-11.15.27-22.25-1.62-32.94-4.7-26.66-7.4-50.73-23.54-67.8-45.32C10.02,190.78-.32,161.49,0,132.08c-.37-31.79,11.79-63.4,32.79-87.2C55.2,19.06,88.17,2.8,122.22.41ZM102.21,79.29c-3.37,1.54-5.78,5.05-5.58,8.81-.01,29.34-.02,58.67.01,88.01-.5,6.83,7.77,12.02,13.62,8.21,25.41-14.54,50.69-29.3,76.07-43.89,3.07-1.61,5.53-4.76,5.34-8.36.12-3.57-2.25-6.76-5.33-8.34-25.17-14.5-50.3-29.05-75.44-43.58-2.53-1.68-5.9-2.13-8.69-.86Z"/>
    <path class="cls-1" d="M102.21,79.29c2.79-1.27,6.16-.82,8.69.86,25.14,14.53,50.27,29.08,75.44,43.58,3.08,1.58,5.45,4.77,5.33,8.34.19,3.6-2.27,6.75-5.34,8.36-25.38,14.59-50.66,29.35-76.07,43.89-5.85,3.81-14.12-1.38-13.62-8.21-.03-29.34-.02-58.67-.01-88.01-.2-3.76,2.21-7.27,5.58-8.81Z"/>
  </g>
</svg>