<?xml version="1.0" encoding="UTF-8"?>
<svg id="Capa_2" data-name="Capa 2" xmlns="http://www.w3.org/2000/svg" viewBox="0 0 80.34 80.33">
  <defs>
    <style>
      .cls-1 {
        fill: #8f8f8f;
      }
    </style>
  </defs>
  <g id="Capa_1-2" data-name="Capa 1">
    <g>
      <path class="cls-1" d="M37.08.13c3.4-.3,6.83-.05,10.2.47,5.75.91,11.35,2.96,16.18,6.23,4.77,3.2,8.73,7.56,11.54,12.56,7.49,13.25,7.09,30.6-1.14,43.43-3.51,5.49-8.49,10.03-14.31,12.97-5.97,3.05-12.7,4.44-19.38,4.54-7.25-.1-14.58-1.75-20.91-5.37-5.21-2.95-9.64-7.22-12.85-12.26C0,52.65-1.6,39.84,1.6,28.42c1.53-5.47,4.18-10.64,7.88-14.96,4.39-5.22,10.3-9.08,16.77-11.2,3.5-1.17,7.16-1.85,10.83-2.13ZM37.42,6.82c-6.48.5-12.92,2.63-18.11,6.61-4.55,3.45-8.04,8.21-10.12,13.5-2.77,6.98-3.23,14.83-1.4,22.11,1.35,5.38,4.01,10.46,7.83,14.51,3.79,4.05,8.72,6.97,14.03,8.52,3.41,1.01,6.96,1.5,10.52,1.56,7.13-.09,14.37-2.02,20.19-6.25,4.83-3.46,8.55-8.38,10.74-13.88,3.47-8.66,3.39-18.69-.25-27.28-2-4.75-5.14-9.03-9.16-12.26-4.61-3.75-10.33-6.02-16.19-6.84-2.67-.38-5.39-.55-8.08-.29Z"/>
      <path class="cls-1" d="M37.57,16.52c3.62-.49,7.41-.12,10.75,1.42,3.02,1.35,5.56,3.85,6.79,6.94,1.5,3.75.87,8.33-1.76,11.44-1.78,2.11-3.99,3.79-5.98,5.7-1.22.93-2.25,2.15-2.74,3.62-.42,1.03-.3,2.21-.8,3.21-.63,1.36-1.99,2.36-3.48,2.53-1,.1-2.04.02-2.96-.41-1.48-.67-2.57-2.15-2.75-3.77-.17-2.31.2-4.69,1.31-6.74.91-1.78,2.37-3.19,3.84-4.52,1.3-1.21,2.66-2.37,3.94-3.6.82-.82,1.52-1.86,1.61-3.05.1-1.15-.5-2.25-1.37-2.97-1.55-1.27-3.79-1.64-5.66-.93-1.66.54-2.51,2.19-3.21,3.66-.45.99-.63,2.08-1.18,3.03-.59,1.11-1.59,2.02-2.82,2.37-1.45.42-3.09.19-4.38-.6-1.23-.77-1.96-2.16-2.15-3.57-.27-1.97.19-4,1.13-5.75,1.13-1.97,2.63-3.75,4.48-5.07,2.18-1.55,4.74-2.54,7.38-2.94Z"/>
      <path class="cls-1" d="M38.39,52.82c1.78-.4,3.79-.05,5.19,1.17,1.73,1.5,2.29,4.08,1.6,6.23-.43,1.4-1.43,2.63-2.78,3.25-1.49.68-3.25.72-4.78.19-1.48-.52-2.66-1.74-3.17-3.22-.83-2.25-.21-5.05,1.7-6.56.65-.52,1.43-.88,2.24-1.06Z"/>
    </g>
  </g>
</svg>