<?xml version="1.0" encoding="UTF-8"?>
<svg id="Capa_2" data-name="Capa 2" xmlns="http://www.w3.org/2000/svg" viewBox="0 0 319.58 319.25">
  <defs>
    <style>
      .cls-1 {
        fill: #44393a;
      }
    </style>
  </defs>
  <g id="Layer_1" data-name="Layer 1">
    <path class="cls-1" d="M128.3,3.15c40.42-8.25,84.01-.12,118.5,22.64,36.28,23.4,62.49,62.24,69.89,104.84,8.89,43.95-3.14,91.36-30.56,126.66-29.44,38.54-77.45,62.61-126.06,61.94-38.69.6-77.24-14.27-106.08-39.99C25.73,254.36,6.74,219.2,1.66,181.87c-7.1-47.01,8.92-96.59,41.35-131.2C65.63,26.54,95.8,9.43,128.3,3.15ZM111.03,94.62c17.23,14.57,34.52,29.05,51.97,43.41-.12-9.55-.21-19.08-.21-28.6,27.27,1.72,52.03,24,54.44,51.57,2.69,20.74-7.01,42.47-24.4,54.14-18.47,13.15-45.13,13.88-64.09,1.27-16.66-10.28-27.15-29.57-27-49.09-9.7,0-19.38-.03-29.05.06.33,35.31,23.19,69.44,56.71,81.38,32.44,12.94,71.89,2.87,94.77-23.28,24.27-26.06,29.17-67.53,12.06-98.67-14.06-26.87-43.05-44.92-73.37-45.8-.15-9.92-.06-19.86.12-29.78-17.41,14.39-34.67,28.9-51.97,43.38Z"/>
  </g>
</svg>