<?xml version="1.0" encoding="UTF-8"?>
<svg id="Capa_2" data-name="Capa 2" xmlns="http://www.w3.org/2000/svg" viewBox="0 0 659.4 330.84">
  <g id="Layer_1" data-name="Layer 1">
    <g>
      <path d="M9.9,11.3C12.65,5.33,19,1.99,25.21.79c9.67-1.71,20.07-.44,28.67,4.47-1.4,3.44-2.82,6.87-4.15,10.34-6.93-3.51-15.01-5.87-22.73-3.74-2.85.76-5.45,3.37-5.04,6.5.12,2.14,1.97,3.6,3.84,4.31,8.28,3.37,18.02,3.31,25.35,8.87,7.08,5.25,6.7,16.63.84,22.66-5.34,5.55-13.45,7.21-20.89,7.14-8.38-.12-17-1.99-23.99-6.79,1.54-3.43,3.09-6.84,4.6-10.28,7.47,4.77,16.72,7.34,25.52,5.45,3.3-.57,6.59-3.76,5.27-7.33-1.87-3.69-6.47-4.35-10.07-5.4-6.64-1.85-14.08-2.69-19.45-7.4-5.23-4.37-5.81-12.39-3.08-18.29Z"/>
      <path d="M374.03,11.19c12.06-14.51,37.36-15.08,49.75-.69-2.91,2.73-5.85,5.42-8.79,8.13-6.56-7.86-19.33-9.28-27.27-2.76-7.25,5.8-8.59,17.05-4.08,24.91,6.22,11.15,23.59,11.73,31.35,1.92,2.94,2.72,5.91,5.4,8.79,8.19-12.35,14.35-37.51,13.86-49.63-.53-9.26-10.81-9.31-28.3-.12-39.17Z"/>
      <path d="M521.28.64c10.6-1.89,22.32.73,30.14,8.41,11.03,10.34,12.01,29.22,2.33,40.77-11.79,14.57-36.22,15.39-49.45,2.38-10.3-9.94-11.61-27.43-3.35-39.01,4.69-6.74,12.3-11.16,20.33-12.55ZM521.49,12.8c-11.83,3.8-15.63,19.96-8.46,29.52,5.95,8.53,19.39,9.78,27.13,3.01,8.49-7.15,8.52-21.93.11-29.16-5.04-4.46-12.51-5.49-18.78-3.37Z"/>
      <path d="M604.39.62c9.39-1.42,19.42-.14,27.73,4.65-1.4,3.47-2.82,6.93-4.22,10.4-7.13-3.84-15.86-6.2-23.74-3.4-4.01,1.22-5.65,7.47-1.6,9.65,8.45,4.22,18.81,3.69,26.6,9.42,7.54,5.36,6.99,17.47.5,23.45-6,5.63-14.72,6.89-22.63,6.48-7.61-.43-15.33-2.36-21.68-6.71,1.54-3.45,3.09-6.89,4.67-10.33,7.14,4.76,16.03,7.11,24.55,5.7,2.9-.48,6.28-2.31,6.44-5.6.28-2.73-2.17-4.61-4.42-5.51-8.02-3.18-17.36-3.23-24.49-8.49-6.33-4.52-7.04-14-3.23-20.37,3.21-5.47,9.47-8.32,15.52-9.34Z"/>
      <path d="M85.16,1.08c14.93,0,29.85-.01,44.77.01.01,3.66.01,7.33,0,11-10.38,0-20.76-.01-31.14,0-.01,4.28,0,8.56-.01,12.83,9.17.06,18.34,0,27.52.03.01,3.55.01,7.1,0,10.66-9.17.01-18.33,0-27.5,0-.03,4.57-.02,9.14,0,13.71,10.75.02,21.5,0,32.25.02v10.98c-15.29.01-30.59.01-45.88.01,0-19.75,0-39.5,0-59.25Z"/>
      <path d="M161.17,1.08c8.98.02,17.96-.05,26.95.03,6.86.14,14.1,2.14,19.01,7.19,5.77,5.9,6.8,15.37,3.75,22.84-1.91,4.7-6.01,8.05-10.47,10.22,4.4,6.33,8.82,12.64,13.22,18.96-4.9.02-9.8,0-14.69.02-3.87-5.49-7.62-11.06-11.49-16.53-4.19.02-8.38.01-12.57.02-.01,5.5-.01,10.99,0,16.49-4.58.02-9.15.01-13.72,0,0-19.74-.01-39.49,0-59.24ZM174.88,12.26c-.02,6.87,0,13.75-.01,20.62,6.11-.31,12.58,1.03,18.41-1.33,7.29-3.01,7.21-15.26-.21-18.05-5.8-2.19-12.15-.91-18.19-1.24Z"/>
      <path d="M234.89,1.09c4.9-.03,9.8.03,14.7-.05,6.15,14.05,12.08,28.21,18.08,42.33,6.21-14.06,12.2-28.2,18.33-42.29,4.54,0,9.08-.01,13.62.01-8.53,19.75-17.09,39.49-25.64,59.23-4.52.01-9.05.02-13.57-.01-8.48-19.75-17.04-39.47-25.52-59.22Z"/>
      <path d="M323.92,1.09c4.56-.02,9.13-.02,13.7,0,.01,19.74.01,39.49,0,59.24-4.57,0-9.14,0-13.7-.01,0-19.74-.02-39.49,0-59.23Z"/>
      <path d="M452.29,1.08c4.57,0,9.14-.01,13.71.01,0,19.74,0,39.49,0,59.23-4.57.01-9.14.01-13.71,0,0-19.74,0-39.49,0-59.24Z"/>
      <path d="M0,105.62c22.98-.01,45.95,0,68.93,0,8.05,54.6,16.06,109.2,24.12,163.79,33.29-52.79,66.27-105.78,99.5-158.61,1.95-3.3,5.69-5.45,9.56-5.18,23.57.01,47.14-.01,70.72.01-28.96,46.16-57.81,92.38-86.83,138.5-24.26,6.26-48.49,12.66-72.75,18.93-4.1,1.04-7.66,3.42-11.46,5.18,25.27-3.46,50.51-7.05,75.77-10.52-14.12,22.53-28.25,45.07-42.37,67.61-1.86,3.13-5.15,5.72-8.96,5.5H33.15C22.04,255.77,11.08,180.69,0,105.62Z"/>
      <path d="M331.97,111.19c1.84-3.2,5.27-5.67,9.07-5.55,23.82-.06,47.64,0,71.46-.02-19.79,31.58-39.56,63.17-59.41,94.71-30.71,8.05-61.42,16.09-92.13,24.11,23.64-37.76,47.34-75.5,71.01-113.25Z"/>
      <path d="M471.4,111.59c2.05-3.85,6.34-6.33,10.72-5.98,41.34.03,82.67-.03,124.01.04,14.32.32,29.74,4.02,39.86,14.82,10.16,10.91,13.54,26.31,13.41,40.83-.26,19.17-6.06,38.41-17.31,54.01-10,13.78-23.69,25.07-39.62,31.29-19.72,7.97-41.24,9.57-62.29,9.97-27.53.05-55.06-.03-82.59.03-14.4,22.99-28.85,45.94-43.28,68.91-1.73,2.87-4.63,5.37-8.15,5.31-24.04.03-48.09,0-72.14.01,21.74-34.78,43.57-69.51,65.36-104.25,50.21-7.05,100.43-14.1,150.64-21.14,10.52-1.62,22.12-2.45,30.57-9.69,11.77-9.66,12.84-29.28,2.43-40.3-5.3-5.71-13.25-8.34-20.91-8.09-9.2.36-18.02,3.18-26.87,5.43-35.73,9.34-71.46,18.7-107.2,28.02,14.42-23.1,28.92-46.14,43.36-69.22Z"/>
      <path d="M246.18,248.07c28.16-3.93,56.31-7.93,84.48-11.84-18.58,29.7-37.21,59.36-55.79,89.06-1.85,3.05-5.01,5.7-8.77,5.53-23.94.03-47.89.01-71.83.01,17.29-27.6,34.59-55.19,51.91-82.76Z"/>
    </g>
  </g>
</svg>