<?xml version="1.0" encoding="UTF-8"?>
<svg id="Capa_2" data-name="Capa 2" xmlns="http://www.w3.org/2000/svg" viewBox="0 0 447.87 117.58">
  <defs>
    <style>
      .cls-1 {
        fill: #94a0ae;
      }

      .cls-2 {
        fill: #7ed957;
      }

      .cls-3 {
        fill: #fefefe;
      }
    </style>
  </defs>
  <g id="Layer_1" data-name="Layer 1">
    <path class="cls-2" d="M219.91.91c4.71-1.72,10.24-.96,14.32,1.96,2.49,1.66,4.37,4.11,5.58,6.82.63,1.44,1.07,3,1.01,4.58-.06,1.42.11,2.86-.11,4.26-.53,2.44-1.89,4.61-3.47,6.51-2.75,3.31-5.45,6.67-7.88,10.23-1.57,2.4-3.2,4.81-4.13,7.54-.17-.14-.29-.32-.35-.52-.82-2.19-2.11-4.17-3.34-6.15-1.97-2.96-4.11-5.8-6.36-8.55-1.13-1.43-2.36-2.79-3.42-4.28-1.58-2.39-2.65-5.23-2.48-8.13.18-6.33,4.65-12.24,10.63-14.26ZM221.57,10.31c-.67.42-1.2,1.12-1.22,1.93-.13,1.28.96,2.55,2.26,2.54,1.81.01,3.63-.01,5.45,0,.63,0,1.27.23,1.72.69.87.98,1.2,2.34,2.13,3.27,1.18,1.12,3.4.53,3.87-1.03.51-1.34-.5-2.88-1.87-3.12-1.26-.16-2.55.11-3.79-.16-.87-.3-1.3-1.18-1.62-1.97-.56-1.34-1.87-2.47-3.39-2.36-1.17.07-2.41-.19-3.53.2ZM216.99,14.79c-1.04.45-1.7,1.72-1.33,2.81.23.92,1.11,1.53,2.01,1.71,1.44.26,2.98-1.04,2.79-2.54-.08-1.63-2.04-2.61-3.46-1.98Z"/>
    <g>
      <path d="M221.57,10.31c1.12-.39,2.36-.13,3.53-.2,1.52-.11,2.83,1.02,3.39,2.36.32.8.75,1.67,1.62,1.97,1.25.27,2.53,0,3.79.16,1.37.24,2.39,1.78,1.87,3.12-.47,1.56-2.69,2.15-3.87,1.03-.93-.94-1.26-2.29-2.13-3.27-.44-.46-1.08-.69-1.72-.69-1.82-.02-3.63,0-5.45,0-1.3.01-2.39-1.26-2.26-2.54.02-.81.55-1.51,1.22-1.93Z"/>
      <path d="M216.99,14.79c1.43-.63,3.38.34,3.46,1.98.19,1.5-1.36,2.8-2.79,2.54-.9-.18-1.77-.79-2.01-1.71-.37-1.1.3-2.36,1.33-2.81Z"/>
    </g>
    <g>
      <path class="cls-3" d="M0,28.99c11.33-2,22.64-4.16,33.97-6.2-.83,2.2-1.87,4.31-2.67,6.52,1.17,1.19,2.28,2.43,3.46,3.6.42.5.98.9,1.27,1.5-10.72,1.98-21.46,3.9-32.17,5.94,2,10.42,3.85,20.86,5.78,31.29.12,1.43,0,2.87.11,4.3-.12.11-.24.21-.37.33-.46-1.45-1.09-2.84-1.52-4.3C5.26,57.64,2.58,43.33,0,28.99ZM15.54,28.35c-.49.1-1.01.13-1.48.31-.94.4-1.34,1.66-.82,2.54.29.59.94.9,1.57.95,1.66-.17,3.29-.65,4.95-.76,1.44.16,1.86,1.83,2.94,2.55.76.43,1.8.29,2.37-.39.76-.78.58-2.22-.38-2.77-1.38-.86-2.98.53-4.41-.08-.91-.6-1.22-1.85-2.3-2.25-.75-.48-1.64-.27-2.45-.11ZM11.3,32.68c-1.28.34-1.78,2.12-.78,3.04,1.06,1.26,3.35.26,3.26-1.35.05-1.25-1.39-2.03-2.48-1.68Z"/>
      <path class="cls-3" d="M114.44,32.11c2.83-.99,5.77-1.74,8.77-1.97,2.35-.07,4.7.22,6.99.78-.22.91-.48,1.8-.7,2.71-2.02-.61-4.16-.78-6.26-.71-2.64.32-5.28.88-7.77,1.84-.34-.89-.69-1.77-1.03-2.65Z"/>
      <path class="cls-3" d="M136.66,37.31c.55-.74,1.12-1.47,1.67-2.2,4.27,3.16,7.34,7.66,9.47,12.47-.84.39-1.7.75-2.55,1.14-1.88-4.42-4.73-8.51-8.59-11.41Z"/>
      <path class="cls-3" d="M98.13,50.08c1.59-5.09,4.65-9.68,8.67-13.17.61.71,1.21,1.43,1.82,2.14-3.65,3.11-6.44,7.25-7.8,11.86-.9-.28-1.79-.57-2.69-.83Z"/>
      <path class="cls-3" d="M230.45,41.71c4.89-1.73,10.11-2.41,15.28-2.48.02.92.06,1.85.07,2.78-4.9.1-9.85.75-14.48,2.42-.29-.9-.59-1.8-.87-2.71Z"/>
      <path class="cls-3" d="M254.57,39.62c5.12.55,10.15,1.77,15.05,3.33-.3.91-.58,1.82-.89,2.71-4.69-1.61-9.55-2.7-14.48-3.28.1-.92.21-1.85.32-2.77Z"/>
      <path class="cls-3" d="M312.07,41.97c5.05-.77,10.16-1.2,15.27-1.17v2.77c-4.98.06-9.99.34-14.89,1.24-.13-.95-.29-1.89-.38-2.84Z"/>
      <path class="cls-3" d="M335.94,43.85c.07-.94.16-1.88.24-2.82,5.1.47,10.18,1.19,15.19,2.3-.17.91-.42,1.81-.62,2.72-4.89-1.02-9.83-1.83-14.81-2.2Z"/>
      <path class="cls-3" d="M288.89,48.7c4.69-2.1,9.55-3.85,14.56-5.02.22.92.42,1.85.64,2.77-4.81,1.22-9.56,2.75-14.08,4.8-.38-.85-.76-1.7-1.11-2.55Z"/>
      <path class="cls-3" d="M209.03,52.99c4.26-2.85,8.51-5.8,13.22-7.89.39.85.79,1.69,1.19,2.54-2.3,1.08-4.52,2.33-6.67,3.7-2.11,1.23-4.14,2.6-6.15,3.98-.52-.78-1.07-1.54-1.58-2.32Z"/>
      <path class="cls-3" d="M359.81,45.67c4.87,1.58,9.62,3.54,14.18,5.87-.43.83-.85,1.66-1.27,2.48-4.44-2.24-9.01-4.23-13.77-5.7.28-.89.58-1.77.86-2.65Z"/>
      <path class="cls-3" d="M277.81,46.28c4.73,2.05,9.18,4.74,13.29,7.85-.55.74-1.11,1.47-1.67,2.2-3.93-3.01-8.25-5.5-12.74-7.59.39-.81.75-1.64,1.12-2.46Z"/>
      <path class="cls-3" d="M268.9,62.37c3.53-3.78,7.68-6.95,12.11-9.6.46.8.95,1.58,1.42,2.37-4.21,2.53-8,5.68-11.46,9.15-.69-.64-1.38-1.28-2.07-1.92Z"/>
      <path class="cls-3" d="M380.04,58.31c.49-.79,1.01-1.57,1.51-2.37,4.29,2.84,8.32,6.07,12.11,9.55-.64.69-1.28,1.38-1.92,2.08-3.62-3.42-7.54-6.52-11.7-9.26Z"/>
      <path class="cls-3" d="M147.56,56.67c.93-.17,1.86-.35,2.79-.5.87,5.18.75,10.53-.49,15.64-.9-.23-1.8-.46-2.7-.68,1.09-4.73,1.19-9.67.4-14.46Z"/>
      <path class="cls-3" d="M190.4,67.8c3.85-3.26,7.73-6.49,11.7-9.6.58.73,1.17,1.47,1.75,2.2-3.97,3.1-7.84,6.34-11.72,9.54-.56-.73-1.15-1.43-1.73-2.14Z"/>
      <path class="cls-3" d="M96.85,59.04c.93-.02,1.86-.04,2.79-.06.08,4.83,1.54,9.57,3.9,13.78-.79.48-1.59.94-2.39,1.41-2.64-4.59-4.13-9.84-4.3-15.13Z"/>
      <path class="cls-3" d="M437.15,64.24c1.76-1.74,3.48-3.51,5.26-5.23.17,1.65.36,3.29.53,4.94,1.64.19,3.29.33,4.93.52-1.73,1.76-3.49,3.49-5.23,5.24-1.11-.12-2.22-.22-3.33-.34-3.42,3.4-6.83,6.81-10.25,10.2.34,1.41-.57,3-2.02,3.28-1.59.42-3.24-1-3.18-2.62-.03-1.71,1.85-3.07,3.46-2.47.66-.65,1.32-1.31,1.97-1.97-2.35-1.59-5.87-.8-7.3,1.65-1.68,2.53-.58,6.36,2.2,7.58,1.8.91,4.05.62,5.62-.63,1.32-1.12,2.12-2.85,1.95-4.59,1.03-1.04,2.07-2.07,3.11-3.1.88,2.18.98,4.71.07,6.89-1.32,3.51-5.04,5.94-8.79,5.74-2.97-.05-5.8-1.77-7.37-4.26-1.82-2.89-1.86-6.84.04-9.7,1.25-1.94,3.25-3.37,5.48-3.94,2.42-.58,5.08-.16,7.16,1.22.2.09.37.38.63.3.64-.59,1.24-1.23,1.88-1.84-3.35-2.87-8.43-3.53-12.4-1.61-3.34,1.48-5.88,4.63-6.65,8.2-.92,4.05.48,8.5,3.56,11.28,1.45,1.42,3.33,2.29,5.27,2.82,4.74,1.16,10.11-.96,12.68-5.13,2.38-3.53,2.5-8.33.5-12.05.92-.92,1.84-1.84,2.76-2.77,2.46,3.84,3.12,8.78,1.71,13.12-1.79,5.87-7.35,10.4-13.49,10.85-2.36.13-4.81.04-7-.94-4.52-1.66-8.1-5.59-9.43-10.2-.68-2.1-.58-4.34-.5-6.52.46-3.78,2.46-7.3,5.33-9.78,3.58-3.06,8.57-4.41,13.21-3.46,2.62.52,5.08,1.76,7.12,3.48.29-.28.58-.56.87-.84-.13-1.11-.25-2.22-.37-3.33Z"/>
      <path class="cls-3" d="M295.89,61.81c.66-.66,1.33-1.32,1.99-1.98,3.67,3.7,6.77,7.96,9.07,12.64-.83.43-1.7.79-2.54,1.19-2.17-4.38-5.15-8.33-8.52-11.86Z"/>
      <path class="cls-3" d="M263.49,69.55c.79.49,1.58.98,2.38,1.46-2.45,4.17-4.21,8.79-4.78,13.61-.93-.12-1.86-.22-2.78-.34.59-5.22,2.46-10.25,5.18-14.73Z"/>
      <path class="cls-3" d="M397.56,73.67c.72-.6,1.43-1.2,2.15-1.8,3.31,3.94,6.3,8.15,8.92,12.59-.83.47-1.65.95-2.47,1.41-2.46-4.33-5.38-8.39-8.59-12.19Z"/>
      <path class="cls-3" d="M171.45,81.97c4.18-2.75,8.26-5.65,12.18-8.75.58.74,1.18,1.46,1.74,2.21-3.98,3.18-8.12,6.16-12.41,8.91-.51-.79-1.01-1.58-1.51-2.37Z"/>
      <path class="cls-3" d="M9.45,76.31c1.29-.12,2.56-.55,3.87-.44-.79.43-1.69.53-2.56.72-1.13.17-2.26.52-3.41.36.68-.27,1.4-.42,2.1-.64Z"/>
      <path class="cls-3" d="M144.36,78.88c.87.4,1.71.86,2.57,1.29-.75,1.5-1.65,2.9-2.55,4.31-1.87,3.02-4.44,5.51-6.84,8.11-.67-.67-1.33-1.36-1.99-2.04,2.14-2.32,4.38-4.56,6.21-7.14.91-1.48,1.9-2.93,2.6-4.53Z"/>
      <path class="cls-3" d="M106.25,81.4c.72-.6,1.43-1.21,2.15-1.8,3.28,3.61,7.15,6.69,11.46,8.98-.45.83-.9,1.66-1.35,2.48-4.6-2.48-8.78-5.75-12.25-9.66Z"/>
      <path class="cls-3" d="M10.47,81.8c.85-.4,1.7-.79,2.54-1.19,2.09,4.44,4.76,8.6,8.04,12.25-.68.64-1.37,1.28-2.06,1.92-3.51-3.84-6.34-8.27-8.52-12.99Z"/>
      <path class="cls-3" d="M307.19,81.52c.9-.19,1.8-.38,2.71-.56,1.08,5.12,1.11,10.45.08,15.59-.93-.19-1.86-.38-2.78-.56,1.01-4.75,1.01-9.71,0-14.46Z"/>
      <path class="cls-3" d="M150.27,91.79c4.76-1.41,9.39-3.25,13.77-5.59.43.82.85,1.65,1.28,2.48-4.55,2.41-9.35,4.33-14.29,5.77-.32-.87-.5-1.77-.76-2.66Z"/>
      <path class="cls-3" d="M126.71,94.45c.26-.89.53-1.77.8-2.66,4.67,1.46,9.62,1.9,14.49,1.47.08.94.16,1.88.24,2.82-2.65.2-5.32.23-7.97-.02-2.53-.45-5.1-.79-7.55-1.61Z"/>
      <path class="cls-3" d="M258.31,93.27c.93-.1,1.86-.19,2.79-.28.33,2.36.77,4.73,1.57,6.98.84,2.26,2.13,4.33,3.6,6.23-.72.58-1.43,1.17-2.15,1.75-3.39-4.16-5.19-9.4-5.81-14.68Z"/>
      <path class="cls-3" d="M116.44,103.85c4.42-2.22,8.66-4.78,12.65-7.7.56.75,1.12,1.51,1.67,2.27-1.97,1.41-3.92,2.88-6,4.13-2.33,1.38-4.71,2.68-7.13,3.88-.39-.86-.83-1.7-1.19-2.58Z"/>
      <path class="cls-3" d="M27.1,98.8c3.9,3.03,8.16,5.59,12.66,7.62-.36.85-.75,1.69-1.11,2.54-4.71-2.13-9.12-4.89-13.22-8.02.55-.72,1.12-1.42,1.66-2.14Z"/>
      <path class="cls-3" d="M294.14,113.03c4.38-1.84,8.09-5.19,10.43-9.32.82.45,1.64.9,2.47,1.36-2.67,4.66-6.81,8.49-11.78,10.55-.37-.87-.75-1.73-1.11-2.6Z"/>
      <path class="cls-3" d="M94.22,111.28c4.88-1.06,9.66-2.48,14.41-4.01.32.89.64,1.77.95,2.66-4.83,1.73-9.8,3.03-14.8,4.12-.19-.92-.38-1.85-.56-2.77Z"/>
      <path class="cls-3" d="M47.72,109.36c4.77,1.43,9.65,2.42,14.58,3.1-.1.92-.22,1.84-.32,2.77-5.08-.71-10.15-1.69-15.05-3.23.27-.88.54-1.76.79-2.64Z"/>
      <path class="cls-3" d="M271.05,113.82c.48-.79.95-1.58,1.43-2.37,4.12,2.39,8.94,3.54,13.7,3.35.04.91.1,1.83.15,2.75-5.31.3-10.7-1.03-15.28-3.72Z"/>
      <path class="cls-3" d="M70.82,113.19c4.99.19,9.99-.14,14.95-.69.13.95.22,1.9.33,2.85-5.1.45-10.24.8-15.36.61.02-.92.05-1.85.08-2.77Z"/>
    </g>
    <g>
      <path class="cls-1" d="M15.54,28.35c.81-.16,1.7-.37,2.45.11,1.08.4,1.39,1.65,2.3,2.25,1.43.61,3.03-.79,4.41.08.96.55,1.14,1.98.38,2.77-.57.68-1.61.82-2.37.39-1.08-.73-1.5-2.39-2.94-2.55-1.67.11-3.29.6-4.95.76-.63-.05-1.28-.36-1.57-.95-.51-.87-.12-2.14.82-2.54.47-.18.99-.21,1.48-.31Z"/>
      <path class="cls-1" d="M11.3,32.68c1.1-.34,2.54.44,2.48,1.68.09,1.61-2.2,2.61-3.26,1.35-1-.91-.5-2.69.78-3.04Z"/>
    </g>
  </g>
</svg>