<?xml version="1.0" encoding="UTF-8"?>
<svg id="Capa_2" data-name="Capa 2" xmlns="http://www.w3.org/2000/svg" viewBox="0 0 29.59 29.59">
  <defs>
    <style>
      .cls-1 {
        fill: #a1c568;
        stroke: #a1c568;
        stroke-linecap: round;
        stroke-miterlimit: 10;
        stroke-width: .89px;
      }
    </style>
  </defs>
  <g id="Capa_1-2" data-name="Capa 1">
    <g>
      <path class="cls-1" d="M19.32,7.26c1.17-2.12,2.34-4.28,2.35-4.31.08-.16.1-.35.04-.52-.06-.17-.18-.32-.34-.4-.34-.17-.75-.04-.93.3-.01.02-1.1,2.22-2.14,4.41-2.23,4.67-2.19,4.69-1.87,4.86.05.03.1.05.15.05.25,0,.63-.6,2.73-4.39Z"/>
      <path class="cls-1" d="M14.95,6c-.04-2.42-.11-4.88-.11-4.91,0-.18-.09-.35-.22-.48-.14-.12-.31-.19-.49-.18-.38.02-.67.34-.65.72,0,.02.16,2.47.35,4.89.38,4.88.45,5.14.76,5.14.02,0,.04,0,.06,0,.36-.02.41-.02.32-5.19Z"/>
      <path class="cls-1" d="M9.57,7.72c2.4,3.5,2.86,4.11,3.12,4.11.06,0,.1-.03.16-.06.3-.19.35-.22-2.32-4.66-1.25-2.08-2.54-4.17-2.55-4.19-.2-.32-.63-.41-.95-.21-.15.1-.26.25-.3.43-.04.18,0,.36.1.52.01.02,1.38,2.06,2.75,4.06Z"/>
      <path class="cls-1" d="M2.33,9.13s2.22,1.1,4.41,2.14c3.33,1.6,4.3,2.03,4.64,2.03.14,0,.17-.07.22-.16.16-.32.19-.37-4.34-2.88-2.12-1.17-4.28-2.34-4.31-2.35-.16-.08-.35-.1-.52-.04-.17.06-.32.18-.4.34-.17.34-.04.75.3.93Z"/>
      <path class="cls-1" d="M11.2,14.96c-.02-.36-.02-.41-5.19-.32-2.42.04-4.88.11-4.91.11-.38.02-.67.34-.65.72,0,.18.09.35.22.48.13.12.29.18.46.18.01,0,.02,0,.04,0,.02,0,2.47-.16,4.89-.35,5.16-.4,5.16-.45,5.14-.81Z"/>
      <path class="cls-1" d="M11.76,16.74s0,0,0,0c-.19-.3-.22-.35-4.66,2.32-2.08,1.25-4.17,2.54-4.19,2.55-.15.1-.26.25-.3.43-.04.18,0,.36.09.52.1.15.25.26.43.3.05.01.1.02.15.02.13,0,.26-.04.37-.11.02-.01,2.06-1.38,4.06-2.75,4.27-2.93,4.24-2.97,4.05-3.27Z"/>
      <path class="cls-1" d="M13.14,17.99c-.32-.16-.37-.19-2.88,4.34-1.17,2.12-2.34,4.28-2.35,4.31-.08.16-.1.35-.04.52.06.17.18.32.34.4.1.05.21.08.31.08.25,0,.49-.14.61-.38.01-.02,1.1-2.22,2.14-4.41,2.23-4.67,2.19-4.69,1.87-4.86Z"/>
      <path class="cls-1" d="M14.96,18.39c-.36.02-.41.02-.32,5.19.04,2.42.11,4.88.11,4.91.02.37.32.65.69.65.01,0,.02,0,.03,0,.38-.02.67-.34.65-.72,0-.02-.16-2.47-.35-4.89-.4-5.16-.45-5.16-.81-5.14Z"/>
      <path class="cls-1" d="M20.01,21.87c-2.92-4.27-2.97-4.24-3.27-4.05-.3.19-.35.22,2.32,4.66,1.25,2.08,2.54,4.17,2.55,4.19.13.2.35.32.58.32.13,0,.26-.04.37-.11.32-.2.41-.63.2-.95-.01-.02-1.38-2.06-2.75-4.06Z"/>
      <path class="cls-1" d="M27.26,20.45s-2.22-1.1-4.41-2.14c-4.67-2.23-4.69-2.19-4.86-1.87-.16.32-.19.37,4.34,2.88,2.12,1.17,4.28,2.34,4.31,2.35.1.05.21.08.31.08.07,0,.14-.01.21-.03.17-.06.32-.18.4-.34.17-.34.04-.75-.3-.93Z"/>
      <path class="cls-1" d="M28.42,13.46s-2.47.16-4.89.35c-5.16.4-5.16.45-5.14.81.01.26.02.36,2.02.36.75,0,1.77-.01,3.17-.04,2.42-.04,4.88-.11,4.91-.11.38-.02.67-.34.65-.72-.02-.38-.34-.67-.72-.65Z"/>
      <path class="cls-1" d="M17.82,12.85c.05.08.09.14.2.14.31,0,1.18-.49,4.46-2.46,2.08-1.25,4.17-2.54,4.19-2.55.32-.2.41-.63.21-.95-.1-.15-.25-.26-.43-.3-.18-.04-.36,0-.52.1-.02.01-2.06,1.38-4.06,2.75-4.27,2.93-4.24,2.97-4.05,3.27Z"/>
    </g>
  </g>
</svg>