<?xml version="1.0" encoding="UTF-8"?>
<svg id="Capa_2" data-name="Capa 2" xmlns="http://www.w3.org/2000/svg" viewBox="0 0 451.97 98.33">
  <defs>
    <style>
      .cls-1 {
        fill: #6fa02e;
      }

      .cls-2 {
        fill: #fff;
      }

      .cls-3 {
        fill: #109b39;
        stroke: #109b39;
        stroke-linecap: round;
        stroke-linejoin: round;
        stroke-width: 3px;
      }
    </style>
  </defs>
  <g id="Capa_1-2" data-name="Capa 1">
    <g>
      <path class="cls-1" d="M139.21.31c28.31-.43,56.63-.1,84.95-.2,56,0,112-.05,168-.04,9.29.07,18.97-.88,27.74,2.91,16.49,5.97,29.27,21.27,31.77,38.68.32,7.51.96,15.37-1.83,22.53-2.71,7.61-6.66,14.98-12.67,20.51-8.86,8.27-20.72,13.94-33.02,13.62-64.35,0-128.7,0-193.05-.06-6.94.21-12.54-4.86-16.29-10.2-8.32-12.2-11.72-26.81-17.95-40.05-6.41-13.49-14.43-26.38-25.05-36.96-3.8-4.04-8.45-7.11-12.6-10.74Z"/>
      <path class="cls-2" d="M0,.2c34.73-.16,69.47-.01,104.2-.11,7.09-.37,12.6,4.7,17.45,9.17,12.36,11.94,21.4,26.9,28.41,42.49,4.83,11.44,8.22,23.58,14.84,34.19,2.83,5.06,7.4,8.8,12.29,11.76-34.7-.13-69.41,0-104.11-.06-6.28.21-11.95-3.37-15.61-8.28-7.71-10.05-11.3-22.42-15.87-34.05-6.91-16.3-15.85-32.04-28.34-44.72C9.36,6.5,4.62,3.39,0,.2Z"/>
      <path class="cls-2" d="M117.18.06c5.45.3,11.58-1.13,16.36,2.21,8.23,5.61,15.14,13,20.94,21.06,3.45,4.74,6.91,9.59,8.95,15.14-4.68,1.26-10.94,1.61-13.86-3.09C141.28,21.66,131.42,8.1,117.18.06Z"/>
      <path class="cls-2" d="M161.11,59.8c3.49-.69,7.13-1.51,10.67-.67,2.39.39,2.99,3.11,3.86,4.97,2.83,8.07,6.13,16.06,10.82,23.26,2.88,4.45,7.14,7.76,11.69,10.39-6.9.09-14.8.3-19.99-5.11-8.76-8.98-12.8-21.31-17.05-32.84Z"/>
      <path class="cls-3" d="M101.48,36.7c2.28-4.11,4.53-8.29,4.56-8.34.16-.32.19-.68.09-1.02-.11-.34-.34-.61-.66-.78-.65-.34-1.46-.08-1.8.58-.02.04-2.12,4.31-4.15,8.54-4.33,9.04-4.23,9.09-3.61,9.41.1.05.19.1.29.1.49,0,1.23-1.17,5.29-8.5Z"/>
      <path class="cls-3" d="M93,34.27c-.08-4.69-.22-9.45-.22-9.5-.02-.35-.17-.68-.43-.92-.26-.24-.6-.36-.96-.34-.73.03-1.3.66-1.27,1.4,0,.05.32,4.79.68,9.47.73,9.45.87,9.96,1.47,9.96.03,0,.07,0,.11,0,.7-.03.8-.04.63-10.06Z"/>
      <path class="cls-3" d="M82.6,37.6c4.64,6.78,5.54,7.96,6.04,7.96.11,0,.2-.06.3-.13.59-.38.68-.43-4.49-9.03-2.42-4.02-4.91-8.07-4.94-8.12-.4-.62-1.22-.8-1.84-.4-.3.19-.51.49-.58.84-.08.35-.01.7.19,1.01.03.04,2.67,3.99,5.32,7.86Z"/>
      <path class="cls-3" d="M68.56,40.34s4.31,2.12,8.54,4.15c6.46,3.09,8.33,3.93,8.99,3.93.26,0,.33-.13.42-.31.32-.62.37-.71-8.4-5.57-4.11-2.28-8.29-4.53-8.34-4.56-.32-.16-.68-.19-1.02-.09-.34.11-.61.34-.78.66-.34.65-.08,1.46.58,1.8Z"/>
      <path class="cls-3" d="M85.74,51.63c-.03-.7-.04-.8-10.06-.63-4.69.08-9.45.22-9.5.22-.73.03-1.3.66-1.27,1.39.02.35.17.68.43.92.25.22.56.35.9.35.02,0,.05,0,.07,0,.05,0,4.79-.32,9.47-.68,10-.77,9.99-.88,9.96-1.57Z"/>
      <path class="cls-3" d="M86.84,55.07s0,0,0,0c-.38-.59-.43-.68-9.03,4.49-4.02,2.42-8.07,4.91-8.12,4.94-.3.19-.51.49-.58.84-.08.35-.01.7.18,1,.19.3.49.51.84.58.09.02.19.03.28.03.25,0,.5-.07.73-.22.04-.03,3.99-2.67,7.86-5.32,8.27-5.67,8.21-5.76,7.84-6.34Z"/>
      <path class="cls-3" d="M89.51,57.5c-.62-.32-.71-.37-5.57,8.4-2.28,4.11-4.53,8.29-4.56,8.34-.16.32-.19.68-.08,1.02.11.34.34.62.66.78.19.1.4.15.61.15.48,0,.95-.26,1.19-.73.02-.04,2.12-4.31,4.15-8.54,4.33-9.04,4.23-9.09,3.61-9.41Z"/>
      <path class="cls-3" d="M93.04,58.26c-.7.03-.8.04-.63,10.06.08,4.69.22,9.45.22,9.5.03.71.62,1.27,1.33,1.27.02,0,.04,0,.06,0,.73-.03,1.3-.66,1.27-1.4,0-.05-.32-4.79-.68-9.47-.77-10-.88-9.99-1.57-9.96Z"/>
      <path class="cls-3" d="M102.82,65c-5.67-8.27-5.76-8.21-6.34-7.84-.59.38-.68.43,4.49,9.03,2.42,4.02,4.91,8.07,4.94,8.12.25.4.68.61,1.12.61.25,0,.49-.07.72-.21.62-.4.8-1.22.4-1.85-.03-.04-2.67-3.99-5.32-7.86Z"/>
      <path class="cls-3" d="M116.86,62.26s-4.31-2.12-8.54-4.15c-9.04-4.33-9.09-4.23-9.41-3.61-.32.62-.37.71,8.4,5.57,4.11,2.28,8.29,4.53,8.34,4.56.19.1.4.15.61.15.14,0,.27-.02.41-.06.34-.11.62-.34.78-.66.34-.65.08-1.46-.58-1.8Z"/>
      <path class="cls-3" d="M119.1,48.72s-4.79.32-9.47.68c-10,.77-9.99.88-9.96,1.57.02.51.03.7,3.92.7,1.44,0,3.43-.03,6.14-.07,4.69-.08,9.45-.22,9.5-.22.73-.03,1.3-.66,1.27-1.39-.03-.73-.66-1.31-1.4-1.27Z"/>
      <path class="cls-3" d="M98.57,47.53c.1.15.17.27.39.27.6,0,2.3-.95,8.64-4.76,4.02-2.42,8.07-4.91,8.12-4.94.62-.4.8-1.22.4-1.84-.19-.3-.49-.51-.84-.58-.35-.08-.7-.01-1.01.19-.04.03-3.99,2.67-7.86,5.32-8.27,5.67-8.21,5.76-7.84,6.34Z"/>
    </g>
  </g>
</svg>