<?xml version="1.0" encoding="UTF-8"?>
<svg id="Capa_2" data-name="Capa 2" xmlns="http://www.w3.org/2000/svg" viewBox="0 0 65.11 65.12">
  <defs>
    <style>
      .cls-1 {
        fill: #109b39;
      }
    </style>
  </defs>
  <g id="Layer_1" data-name="Layer 1">
    <g>
      <path class="cls-1" d="M32.2.04c1.04-.24,2.14.61,2.16,1.68.01,3.67,0,7.34,0,11.02,0,.94-.87,1.77-1.81,1.74-.94.03-1.8-.8-1.81-1.74,0-3.64,0-7.28,0-10.92-.02-.84.63-1.63,1.46-1.77Z"/>
      <path class="cls-1" d="M10.48,9.09c.6-.13,1.25.07,1.67.51,2.53,2.53,5.06,5.06,7.59,7.59.46.46.63,1.17.44,1.79-.21.73-.91,1.28-1.67,1.29-.49.03-.98-.17-1.33-.51-2.53-2.53-5.06-5.06-7.59-7.59-.48-.45-.67-1.18-.48-1.81.17-.63.72-1.14,1.37-1.27Z"/>
      <path class="cls-1" d="M53.85,9.09c.62-.14,1.31.06,1.74.54.51.53.63,1.38.3,2.03-.17.38-.51.63-.79.93-2.4,2.4-4.8,4.81-7.21,7.21-.71.69-1.97.61-2.59-.16-.61-.68-.57-1.81.08-2.45,2.48-2.49,4.97-4.96,7.45-7.45.28-.31.63-.56,1.04-.65Z"/>
      <path class="cls-1" d="M31.07,18.17c3.71-.4,7.55.71,10.46,3.04,3.1,2.43,5.13,6.18,5.44,10.11.33,3.65-.8,7.41-3.11,10.27-2.18,2.74-5.38,4.65-8.84,5.23-3.77.66-7.8-.24-10.9-2.5-2.86-2.04-4.93-5.15-5.68-8.58-.96-4.2.07-8.8,2.77-12.16,2.38-3.04,6.02-5.05,9.86-5.42ZM31.08,21.81c-1.79.25-3.51.95-4.96,2.03-2.39,1.76-4.01,4.53-4.33,7.48-.27,2.31.23,4.71,1.42,6.71,1.56,2.68,4.31,4.63,7.36,5.19,2.17.42,4.46.14,6.47-.78,2.63-1.18,4.74-3.45,5.72-6.16.79-2.14.87-4.54.23-6.73-.5-1.73-1.44-3.33-2.71-4.6-2.35-2.41-5.86-3.61-9.19-3.13Z"/>
      <path class="cls-1" d="M1.29,30.83c.29-.09.6-.08.91-.08,3.51,0,7.02,0,10.54,0,.94,0,1.77.86,1.74,1.81.03.94-.8,1.8-1.74,1.81-3.61.01-7.22,0-10.83,0-.41,0-.84-.1-1.17-.36-.56-.41-.85-1.16-.69-1.83.13-.63.62-1.17,1.24-1.36Z"/>
      <path class="cls-1" d="M52.13,30.78c.4-.06.8-.02,1.21-.03,3.19,0,6.39,0,9.58,0,.42,0,.85,0,1.23.21.72.37,1.12,1.25.91,2.03-.18.79-.94,1.4-1.76,1.38-3.64,0-7.28,0-10.92,0-.91,0-1.71-.8-1.74-1.71-.07-.88.61-1.75,1.49-1.88Z"/>
      <path class="cls-1" d="M17.97,44.92c.91-.27,1.96.31,2.21,1.23.21.66-.02,1.42-.53,1.88-2.52,2.51-5.03,5.03-7.54,7.54-.7.71-2,.65-2.63-.13-.49-.55-.58-1.41-.22-2.05.14-.29.39-.5.61-.72,2.42-2.42,4.84-4.84,7.26-7.26.23-.23.52-.42.84-.5Z"/>
      <path class="cls-1" d="M46.07,44.95c.63-.23,1.38-.06,1.86.42,2.53,2.53,5.06,5.06,7.59,7.59.48.46.67,1.19.48,1.82-.17.58-.65,1.06-1.23,1.22-.63.19-1.35,0-1.81-.48l-7.02-7.02c-.39-.4-.88-.77-1.02-1.35-.27-.89.27-1.91,1.15-2.2Z"/>
      <path class="cls-1" d="M32.11,50.7c1.07-.31,2.26.58,2.25,1.69,0,3.64,0,7.28,0,10.92.02.93-.78,1.78-1.71,1.8-1,.08-1.93-.8-1.91-1.8,0-3.61,0-7.22,0-10.83-.03-.82.57-1.59,1.37-1.78Z"/>
    </g>
  </g>
</svg>