<?xml version="1.0" encoding="UTF-8"?>
<svg id="Capa_2" data-name="Capa 2" xmlns="http://www.w3.org/2000/svg" xmlns:xlink="http://www.w3.org/1999/xlink" viewBox="0 0 3360.24 1080">
  <defs>
    <style>
      .cls-1 {
        fill: #fff;
      }

      .cls-2 {
        fill: none;
        stroke: #fff;
        stroke-miterlimit: 10;
        stroke-width: 6px;
      }

      .cls-3 {
        fill: url(#Degradado_sin_nombre_23);
      }
    </style>
    <linearGradient id="Degradado_sin_nombre_23" data-name="Degradado sin nombre 23" x1="1929.43" y1="437" x2="2093.36" y2="437" gradientUnits="userSpaceOnUse">
      <stop offset="0" stop-color="#d6ff18"/>
      <stop offset="1" stop-color="#16ff94"/>
    </linearGradient>
  </defs>
  <g id="Layer_1" data-name="Layer 1">
    <g>
      <path d="M0,0h1080v1080H0V0Z"/>
      <g>
        <path class="cls-1" d="M305.02,303.19c130.09.14,260.18.01,390.27.07,2.57.24,5.43.64,7.2,2.76,14.43,14.96,29.47,29.33,43.86,44.33,9.9,9.56,19.2,19.76,29.44,28.96.17,132.5.34,265,.51,397.5h-107.52l-.12-185.36c-.32-2.09,1.38-3.5,2.65-4.85,8.69-8.32,16.96-17.08,25.76-25.29,1.51-1.64,3.75-3.26,3.52-5.75-.04-32.81.13-65.62-.09-98.43-105.93,105.61-211.86,211.21-317.79,316.82-1.38,2.03-4.26,1.5-5.6-.28-21.65-22.04-43.68-43.71-65.44-65.65-2.39-2.52-5.15-4.71-7.23-7.51.02-1.56,1.54-2.43,2.41-3.51,105.54-105.62,211.08-211.24,316.62-316.86-32.42-.52-64.87-.04-97.31-.24-1.85.13-4.14-.44-5.47,1.23-9.61,9.63-19.28,19.21-28.83,28.9-1,.94-2.08,2.11-3.6,1.88-61.04-.01-122.07-.03-183.11-.04-.34-.32-1.01-.96-1.35-1.28-.13-32.03-.01-64.07-.05-96.1.09-3.81-.58-7.8,1.27-11.3Z"/>
        <path class="cls-1" d="M584.12,734.92h19.12c.4.02,4.3.33,6.43,3.73,1.6,2.55,1.69,6.01-.1,8.58-1.6,2.3-4.05,2.94-4.74,3.09,1.02,1.09,2.04,2.21,3.07,3.38.99,1.12,1.95,2.24,2.88,3.34-.55.38-1.51.95-2.82,1.16-2.39.39-4.25-.65-4.8-.98-1.61-2.32-3.21-4.65-4.82-6.97-3.01,0-6.03,0-9.04.01,0,2.69-.02,5.38-.02,8.07h-5.09c-.18-7.8-.05-15.61-.08-23.41ZM590.09,739.12c-.06,2.09-.09,4.18-.07,6.28,4.25-.12,8.52.12,12.77-.16.32-.18,1.08-.68,1.51-1.65.07-.16.72-1.7-.14-3.14-.44-.73-1.06-1.1-1.37-1.25-4.24,0-8.48-.04-12.71-.08Z"/>
        <rect class="cls-1" x="303.74" y="303.19" width="9.15" height="108.67" rx="1.34" ry="1.34"/>
        <rect class="cls-1" x="338.21" y="676.89" width="22.21" height="108.09" rx="1.34" ry="1.34" transform="translate(-414.54 461.09) rotate(-45)"/>
        <ellipse class="cls-2" cx="597.49" cy="746.62" rx="27.45" ry="27.35"/>
      </g>
    </g>
    <rect x="1070.76" width="2289.47" height="1080"/>
    <g>
      <path class="cls-1" d="M989.73,758.33v-66.5h9.5v66.5h-9.5Z"/>
      <path class="cls-1" d="M1057.18,758.33v-66.5h28.03c7.09,0,13.35,1.39,18.76,4.18,5.42,2.79,9.63,6.68,12.63,11.69,3.01,5,4.51,10.8,4.51,17.38s-1.5,12.38-4.51,17.38c-3.01,5-7.22,8.9-12.63,11.69-5.42,2.79-11.67,4.18-18.76,4.18h-28.03ZM1066.68,750.06h17.96c5.51,0,10.28-1.04,14.3-3.13,4.02-2.09,7.14-5.02,9.36-8.79,2.22-3.77,3.33-8.12,3.33-13.06s-1.11-9.37-3.33-13.11c-2.22-3.74-5.34-6.65-9.36-8.74-4.02-2.09-8.79-3.13-14.3-3.13h-17.96v49.97Z"/>
      <path class="cls-1" d="M1173.65,758.33v-66.5h46.93v8.27h-37.43v49.97h38.76v8.27h-48.26ZM1182.3,728.59v-8.08h34.2v8.08h-34.2Z"/>
      <path class="cls-1" d="M1275.3,758.33v-66.5h7.79l43.99,54.62h-4.08v-54.62h9.5v66.5h-7.79l-43.99-54.62h4.08v54.62h-9.5Z"/>
      <path class="cls-1" d="M1403.64,758.33v-58.23h-22.8v-8.27h55v8.27h-22.8v58.23h-9.41Z"/>
      <path class="cls-1" d="M1484.2,758.33v-66.5h9.5v66.5h-9.5Z"/>
      <path class="cls-1" d="M1551.65,758.33v-66.5h28.03c7.09,0,13.35,1.39,18.76,4.18,5.42,2.79,9.63,6.68,12.63,11.69,3.01,5,4.51,10.8,4.51,17.38s-1.5,12.38-4.51,17.38c-3.01,5-7.22,8.9-12.63,11.69-5.42,2.79-11.67,4.18-18.76,4.18h-28.03ZM1561.15,750.06h17.96c5.51,0,10.28-1.04,14.3-3.13,4.02-2.09,7.14-5.02,9.36-8.79,2.22-3.77,3.33-8.12,3.33-13.06s-1.11-9.37-3.33-13.11c-2.22-3.74-5.34-6.65-9.36-8.74-4.02-2.09-8.79-3.13-14.3-3.13h-17.96v49.97Z"/>
      <path class="cls-1" d="M1657.1,758.33l30.11-66.5h9.41l30.21,66.5h-9.97l-26.88-61.18h3.8l-26.88,61.18h-9.79ZM1669.93,741.7l2.56-7.6h37.43l2.76,7.6h-42.75Z"/>
      <path class="cls-1" d="M1774.71,758.33v-66.5h28.03c7.09,0,13.35,1.39,18.76,4.18,5.42,2.79,9.63,6.68,12.63,11.69,3.01,5,4.51,10.8,4.51,17.38s-1.5,12.38-4.51,17.38c-3.01,5-7.22,8.9-12.63,11.69-5.42,2.79-11.67,4.18-18.76,4.18h-28.03ZM1784.21,750.06h17.96c5.51,0,10.28-1.04,14.3-3.13,4.02-2.09,7.14-5.02,9.36-8.79,2.22-3.77,3.33-8.12,3.33-13.06s-1.11-9.37-3.33-13.11c-2.22-3.74-5.34-6.65-9.36-8.74-4.02-2.09-8.79-3.13-14.3-3.13h-17.96v49.97Z"/>
      <path class="cls-1" d="M1954.74,758.33v-66.5h28.03c7.09,0,13.35,1.39,18.76,4.18,5.42,2.79,9.63,6.68,12.63,11.69,3.01,5,4.51,10.8,4.51,17.38s-1.5,12.38-4.51,17.38c-3.01,5-7.22,8.9-12.63,11.69-5.42,2.79-11.67,4.18-18.76,4.18h-28.03ZM1964.24,750.06h17.96c5.51,0,10.28-1.04,14.3-3.13,4.02-2.09,7.14-5.02,9.36-8.79,2.22-3.77,3.33-8.12,3.33-13.06s-1.11-9.37-3.33-13.11c-2.22-3.74-5.34-6.65-9.36-8.74-4.02-2.09-8.79-3.13-14.3-3.13h-17.96v49.97Z"/>
      <path class="cls-1" d="M2071.2,758.33v-66.5h46.93v8.27h-37.43v49.97h38.76v8.27h-48.26ZM2079.85,728.59v-8.08h34.2v8.08h-34.2Z"/>
      <path class="cls-1" d="M2236.41,758.33v-66.5h25.94c5.83,0,10.8.92,14.92,2.75,4.12,1.84,7.28,4.5,9.5,7.98,2.22,3.48,3.33,7.63,3.33,12.45s-1.11,8.95-3.33,12.4c-2.22,3.45-5.38,6.11-9.5,7.98-4.12,1.87-9.09,2.8-14.92,2.8h-20.71l4.27-4.46v24.6h-9.5ZM2245.91,734.67l-4.27-4.75h20.42c6.08,0,10.69-1.3,13.82-3.9,3.13-2.6,4.7-6.27,4.7-11.02s-1.57-8.42-4.7-11.02c-3.13-2.6-7.74-3.9-13.82-3.9h-20.42l4.27-4.75v39.33Z"/>
      <path class="cls-1" d="M2342.05,758.33v-66.5h25.94c8.61,0,15.39,2.04,20.33,6.13,4.94,4.08,7.41,9.77,7.41,17.05,0,4.81-1.11,8.95-3.33,12.4-2.22,3.45-5.38,6.1-9.5,7.93-4.12,1.84-9.09,2.76-14.92,2.76h-20.71l4.27-4.37v24.6h-9.5ZM2351.55,734.67l-4.27-4.66h20.42c6.08,0,10.69-1.31,13.82-3.94,3.13-2.63,4.7-6.32,4.7-11.07s-1.57-8.42-4.7-11.02c-3.13-2.6-7.74-3.9-13.82-3.9h-20.42l4.27-4.75v39.33ZM2386.51,758.33l-16.91-24.13h10.17l17.1,24.13h-10.36Z"/>
      <path class="cls-1" d="M2449.11,758.33v-66.5h46.93v8.27h-37.43v49.97h38.76v8.27h-48.26ZM2457.76,728.59v-8.08h34.2v8.08h-34.2Z"/>
      <path class="cls-1" d="M2580.4,759.09c-5.07,0-9.74-.84-14.01-2.52-4.27-1.68-7.98-4.05-11.12-7.12-3.13-3.07-5.59-6.67-7.36-10.78-1.77-4.12-2.66-8.65-2.66-13.58s.89-9.47,2.66-13.58c1.77-4.12,4.24-7.71,7.41-10.78,3.17-3.07,6.89-5.45,11.16-7.12,4.27-1.68,8.94-2.52,14.01-2.52s9.86.87,14.2,2.61c4.34,1.74,8.03,4.32,11.07,7.74l-6.17,5.98c-2.53-2.66-5.38-4.64-8.55-5.94-3.17-1.3-6.55-1.95-10.17-1.95s-7.21.63-10.4,1.9c-3.2,1.27-5.97,3.04-8.31,5.32-2.34,2.28-4.17,4.99-5.46,8.12-1.3,3.13-1.95,6.54-1.95,10.21s.65,7.08,1.95,10.21c1.3,3.14,3.12,5.84,5.46,8.12,2.34,2.28,5.11,4.05,8.31,5.32,3.2,1.27,6.67,1.9,10.4,1.9s7-.65,10.17-1.95c3.17-1.3,6.02-3.31,8.55-6.03l6.17,5.98c-3.04,3.42-6.73,6.02-11.07,7.79-4.34,1.77-9.11,2.66-14.3,2.66Z"/>
      <path class="cls-1" d="M2656.4,758.33v-66.5h9.5v66.5h-9.5Z"/>
      <path class="cls-1" d="M2743.23,759.09c-5.07,0-9.91-.77-14.54-2.33-4.62-1.55-8.27-3.56-10.93-6.03l3.52-7.41c2.53,2.22,5.76,4.05,9.69,5.51,3.93,1.46,8.01,2.19,12.26,2.19,3.86,0,7-.44,9.4-1.33,2.41-.89,4.18-2.1,5.32-3.66,1.14-1.55,1.71-3.31,1.71-5.27,0-2.28-.75-4.12-2.23-5.51-1.49-1.39-3.42-2.52-5.79-3.37s-4.99-1.6-7.84-2.23c-2.85-.63-5.72-1.38-8.6-2.23s-5.51-1.95-7.88-3.28c-2.38-1.33-4.29-3.12-5.75-5.37-1.46-2.25-2.19-5.15-2.19-8.69s.9-6.57,2.71-9.45c1.8-2.88,4.59-5.19,8.36-6.94,3.77-1.74,8.57-2.61,14.39-2.61,3.86,0,7.7.51,11.5,1.52,3.8,1.01,7.09,2.47,9.88,4.37l-3.13,7.6c-2.85-1.9-5.86-3.28-9.03-4.13s-6.24-1.28-9.21-1.28c-3.74,0-6.81.48-9.21,1.43-2.41.95-4.17,2.22-5.27,3.8-1.11,1.58-1.66,3.36-1.66,5.32,0,2.34.74,4.21,2.23,5.6,1.49,1.39,3.42,2.5,5.79,3.33,2.38.82,4.99,1.57,7.84,2.23,2.85.67,5.71,1.41,8.6,2.23,2.88.82,5.51,1.9,7.89,3.23s4.29,3.1,5.75,5.32c1.46,2.22,2.18,5.07,2.18,8.55s-.92,6.48-2.75,9.36c-1.84,2.88-4.67,5.19-8.5,6.94-3.83,1.74-8.66,2.61-14.49,2.61Z"/>
      <path class="cls-1" d="M2820.85,758.33v-66.5h9.5v66.5h-9.5Z"/>
      <path class="cls-1" d="M2918.32,759.09c-5.07,0-9.77-.85-14.11-2.56-4.34-1.71-8.09-4.1-11.26-7.17-3.17-3.07-5.64-6.67-7.41-10.78-1.77-4.12-2.66-8.61-2.66-13.49s.89-9.37,2.66-13.49c1.77-4.12,4.24-7.71,7.41-10.78,3.17-3.07,6.9-5.46,11.21-7.17,4.31-1.71,9.03-2.56,14.16-2.56s9.74.84,14.01,2.52c4.27,1.68,8.01,4.05,11.21,7.12,3.2,3.07,5.67,6.67,7.41,10.78,1.74,4.12,2.61,8.65,2.61,13.58s-.87,9.47-2.61,13.58c-1.74,4.12-4.21,7.71-7.41,10.78-3.2,3.07-6.94,5.45-11.21,7.12-4.28,1.68-8.95,2.52-14.01,2.52ZM2918.32,750.63c3.67,0,7.08-.63,10.21-1.9,3.14-1.27,5.86-3.05,8.17-5.37,2.31-2.31,4.12-5.02,5.42-8.12,1.3-3.1,1.95-6.49,1.95-10.17s-.65-7.06-1.95-10.17c-1.3-3.1-3.1-5.81-5.42-8.12-2.31-2.31-5.04-4.1-8.17-5.37-3.13-1.27-6.54-1.9-10.21-1.9s-7.17.63-10.31,1.9c-3.13,1.27-5.88,3.06-8.22,5.37-2.34,2.31-4.17,5.02-5.46,8.12-1.3,3.1-1.95,6.49-1.95,10.17s.65,7.06,1.95,10.17c1.3,3.1,3.12,5.81,5.46,8.12,2.34,2.31,5.08,4.1,8.22,5.37,3.13,1.27,6.57,1.9,10.31,1.9ZM2911.19,686.41l12.92-12.35h11.59l-15.96,12.35h-8.55Z"/>
      <path class="cls-1" d="M3006.1,758.33v-66.5h7.79l43.99,54.62h-4.08v-54.62h9.5v66.5h-7.79l-43.99-54.62h4.08v54.62h-9.5Z"/>
    </g>
    <g>
      <path class="cls-1" d="M1161.62,539.62c-113.58,0-171.88-14.77-171.88-14.77v-190.06h52.62v155.23c26.88,3.41,65.88,6.44,119.26,6.44,63.23.38,102.98-3.79,118.5-5.68v-155.98h53v190.06s-56.03,14.77-171.51,14.77Z"/>
      <path class="cls-1" d="M1751.1,538.11v-155.23c-26.88-3.41-65.88-6.44-118.88-6.44-62.85-.38-103.36,4.16-118.88,6.06v155.6h-52.62v-189.68s56.03-15.14,171.51-15.14,171.88,15.14,171.88,15.14v189.68h-53Z"/>
      <path class="cls-3" d="M2039.98,539.24v-160.53c-16.28,0-56.03.76-110.55,7.57v-43.54s57.17-8.71,124.18-7.95l39.75.38v204.07h-53.38Z"/>
      <path class="cls-1" d="M2399.27,539.62c-110.93,0-169.61-14.77-169.61-14.77v-175.29s57.55-14.77,169.61-14.77,169.61,14.77,169.61,14.77v43.16s-63.61-14.39-169.61-14.77c-62.09,0-101.47,3.79-117.37,5.68l.38,107.14c14.77,1.89,52.25,5.68,116.23,5.68,109.04,0,170.37-15.14,170.37-15.14v43.54s-59.44,14.77-169.61,14.77Z"/>
      <path class="cls-1" d="M2871.01,540c-111.69-.38-169.61-14.77-169.61-14.77v-174.91s54.9-14.77,169.61-14.77,169.61,14.77,169.61,14.77v175.29s-59.06,14.39-169.61,14.39ZM2870.64,378.72c-62.09-.38-101.84,3.79-116.99,5.68v107.14c16.66,1.89,59.06,6.06,117.75,6.06,52.62,0,90.11-2.65,116.23-5.68l.38-107.14v.38c-26.5-3.41-65.12-6.44-117.37-6.44Z"/>
    </g>
  </g>
</svg>