<?xml version="1.0" encoding="UTF-8"?>
<svg id="Capa_2" data-name="Capa 2" xmlns="http://www.w3.org/2000/svg" viewBox="0 0 645 859.06">
  <defs>
    <style>
      .cls-1 {
        fill: #a1c568;
      }

      .cls-2 {
        fill: #94c464;
      }

      .cls-3 {
        fill: #282726;
      }

      .cls-4 {
        fill: #363a2f;
      }

      .cls-5 {
        fill: #24261f;
      }

      .cls-6 {
        fill: #282829;
      }
    </style>
  </defs>
  <g id="Capa_1-2" data-name="Capa 1">
    <g>
      <path class="cls-4" d="M633.42,786.28l-596.28,26.83c-6.15.28-11.14-4.48-11.14-10.63V146.85c0-6.15,4.99-11.36,11.14-11.64l596.28-26.83c6.15-.28,11.14,4.48,11.14,10.63v655.62c0,6.15-4.99,11.36-11.14,11.64Z"/>
      <path class="cls-3" d="M644.69,785.25c-326.7,41.91-565.9,72.23-581.69,73.66-7.73.7-11.91-1.03-14.25-3.56-2.52-2.73-2.68-7.68-3-17.58-.12-3.79.03-5.08.04-18.49,0-1.17,0-2.31,0-4.58,0-13.05-.07-43.3-.09-68.15,0-4.85,0-12.23,0-21.33,1.08-.92,2.79-2.15,5.1-2.8,5.18-1.47,9.92.86,11.52,1.51,4.68,1.9,13.02,1.72,29.05-8.03,9.95-2.5,18.08-3,23.65-3,14.16,0,30.04,2.56,30.04,2.56,9.56,1.54,15.1,3.11,19.83-.28,3.74-2.68,2.44-5.22,6.12-8.49,6.68-5.95,17.98-3.83,26.73-2.19,8.27,1.55,6.81,2.72,13.6,3.6,5.62.73,15.74,2.05,24.7-2.98,3.15-1.77,3.94-3.08,7.03-3.76,5.18-1.14,7.92,1.43,12.97,1.57,4.99.14,7.4-2.23,13.29-5.17,10.74-5.36,11.15-1.69,27.04-7.36,9.44-3.37,14.03-6.36,22.51-5.8,2.64.17,2.1.46,6.56,1.1,7.71,1.1,18.6,2.66,29.54-.63,3.23-.97,6.11-2.26,10.47-1.88,3.38.29,4.43,1.3,7.19,1.41,5.53.21,9.74-3.54,11.25-4.7,7.89-6.04,22.05-2.45,42.2-1.41,10.68.55,24.26-.78,51.42-3.45,8.77-.86,17.21-1.84,26.42-6.73,7.04-3.75,13.79-9.39,15.47-10.81,4-3.37,6.94-6.35,8.4-7.89.41-.43.55-.75.98-1.04,1.43-.96,2.82-.13,5.37-.16,1.68-.02,1.33-.38,4.39-.78.72-.09,2.61-.32,5.01-.31,3.98.01,4.26.65,6.11.16,2.32-.62,2.37-1.75,4.23-1.88,2.02-.14,2.36,1.18,4.86,1.72,2.84.61,3.19-.93,7.2-.78,1.87.07,4.21.49,5.8.78,2.05.37,3.31.71,4.07,0,.86-.8.09-1.98.78-2.66,1.33-1.31,4.8,2.46,9.4,1.88,2.84-.36,3.11-2,5.95-1.88,2.27.1,2.4,1.16,5.17,1.41,2.71.24,3.27-.72,5.48-.16,1.82.46,1.69,1.18,3.76,1.88,2.64.89,5.04.46,5.8.31,3.16-.61,3.04-1.96,5.33-2.04,2.58-.09,3.42,1.6,6.11,1.41,1.51-.11,2.7-.75,3.45-1.25.73-.33,1.71-.8,2.82-1.41.45-.25,1.15-.63,1.88-1.1,2.62-1.67,2.55-2.45,3.92-2.98,1.42-.54,1.97.11,3.1.15,0,0,.43.01,1.13-.15,1.18-.28,2.95-1.55,4.68-3.6,0,.54.02,15.27.02,15.81.04,31.65.1,100.65.11,132.29Z"/>
      <path class="cls-5" d="M43.29,31.72c1.22-4.57,6.72-3.13,10.23-3.23,193.76,12.69,387.52,25.77,581.3,38.55,3.53.44,9.6-.31,9.93,4.7.54,27.14-.08,54.32.25,81.47-3.77-.86-7.05,1.05-10.47,2.18-10.31-.61-20.97-.75-30.97,2.03-6.84-.76-13.69-.19-20.53-.11-7.59,3.84-16.53,1.11-24.25,4.36-4.6,1.68-9.31,3.04-13.75,5.05-4.6.21-9.02,1.3-12.94,3.67-3.59-.32-7.36-.57-10.31,1.84-6.18.1-12.36,1.05-18.54.67-4.71-.9-9.06-3.04-13.46-4.8-4.83.97-9.35-.86-13.34-3.36-5.02,1.4-10.2,1.32-15.26.32-2.61,1.17-5.06,3.36-8.07,3.12-12.9-.65-26.01.04-38.62,2.85-9.44-1.45-18.29,2.96-27.5,4.19-.66-.36-1.31-.73-1.97-1.09-10.76.42-21.82.44-32.07,4.17-.81-.52-2.43-1.51-3.24-2.01-4.34,2.2-9,1.59-13.05-.84-7.49,1.32-15.39,3.75-22.79.61-12.82-.27-25.7.11-38.41-1.36-1.93.52-3.82,1.13-5.68,1.8-4.6-.59-9.17-1.22-13.77-1.76-.85.4-2.55,1.19-3.4,1.57-8.48-1.22-17.09-.36-25.57-1.66-6.55-1.19-13.29,1.09-19.64-.96-.85.48-2.53,1.41-3.36,1.89-6.18-2.96-12.94-1.2-19.41-.67-.87.46-2.63,1.4-3.5,1.85-4.13-1.59-8.69-3-12.73-.34-8.01,4.34-17.26,3.36-25.99,4.28-4.65,6.37-12.84,3.61-19.45,3.88-7.74,1.47-15.78,2.14-22.96,5.52-.93-2.98-.75-6.14-.79-9.21.23-33.78,0-67.53.1-101.31.08-3.15-.1-8.01-4.19-8.53-17.32-1.72-34.76-2.52-52.08-4.24.19-11.7-.44-23.42.23-35.08Z"/>
      <g>
        <path class="cls-2" d="M530.67,648.12c-1.68-.21-2.48.2-2.82.45-.21.15-.74.58-1.06.85-.34.28-.62.53-.8.69.79.53,1.35.57,1.74.47.08-.02.2-.07.44-.17.47-.19.85-.36,1.11-.48.47-.6.94-1.21,1.4-1.81Z"/>
        <path class="cls-2" d="M525.85,650.25c-1.03.4-2.3.49-3.03,1.41-1.17,1.25-2.48,2.52-4.17,3.13-2.11.7-4.25,1.36-6.24,2.4-1.85.9-2.94,2.65-4.66,3.72-1.85,1.13-1.97,3.47-3.85,4.57-2.19,1.25-4.39-.3-6.62.48-1.5.66-2.72,1.83-4.28,2.38-2.79,1.04-5.72.98-8.57,1.61-3.06.71-6.17,1.21-9.24,1.26,2.42.04,4.82.15,7.2.36,2.2.24,4.57-.51,6.7.02.87.09,1.78.56,2.67,0,2.42-1.22,4.97-2.16,7.38-3.43,1.29,0,2.36.62,3.47,1.02,3.17-1.39,4.72-4.35,6.35-6.93,2.61-2.23,5.49-4.3,8.55-5.96,3.22-1.39,5.94-3.65,8.35-6.04Z"/>
        <path class="cls-2" d="M528.13,650.98c-2.46,1.76-4.76,3.76-7.46,5.2-2.65,1.41-5.2,3-7.5,4.88-1.71,1.42-2.96,3.19-4.31,4.87,1.98-.65,3.85-1.63,5.86-2.21.94-.33,2-.52,2.75-1.23.99-1.09,1.55-2.42,2.64-3.44,1.48-1.42,3.21-2.65,4.39-4.29,1-1.41,2.25-2.67,3.64-3.79Z"/>
        <path class="cls-2" d="M454.26,670.62c-.97-.05-2.57-.15-4.54-.44-2.57-.38-3.87-.8-7.09-1.44-1.15-.23-2.9-.56-5.09-.89-2.18-.19-4.59-.28-7.2-.22-1.85.04-3.58.16-5.21.33-3.01-.05-6.56.11-10.48.71-4.91.75-9.08,1.98-12.41,3.22,14.69-.22,20.27-.93,22.4-1.62.59-.19,2.1-.77,4.22-.88,1.61-.09,2.4.15,4.21.09,1.68-.05,3.04-.32,3.9-.53.22-.09,3.22-1.33,5.89.47,1.84,1.25,2.82,3.66,2.52,6.63-1.25-1.69-1.73-3.84-3.23-5.35-2.69-.73-6.94-1.54-12.13-1.1-5.19.43-9.24,1.92-11.77,3.08,4.36.09,10.87-2.56,13.49,1.86-7.06-2.53-14.77.87-22.03,1.02-14.51-.47-27.74,7.49-42.05,9.09,15.5,3.01,7.44-2.98,21.36-3.4,5.35,1.13,10.48-3.11,15.8-1.8,1.82.08,3.61.32,5.21.98,4.18.37,9.08-1.16,13.24.52,5.21.87,10.67.74,15.68,2.5,4.81-.74,9.74-1.71,14.46-.72,1.44.59,2.99,1.16,4.74.85,7.73.71,15.5-7.27,22.57-2.25,4.59-1.3,8.02-5.36,12.8-6.21,7.79-1.2,17.17-3.72,22.29-10.12-5.3,1.38-7.2,2.24-7.81,2.8-.09.08-.44.42-1.02.71-.87.43-1.66.45-1.81.46-2.03.11-20.9,5.74-28.74,7.75-5.82,1.5-14.37,3.27-25.45,4.05-6.98-.27-14.04-1.12-19.41-6.07,3.23.47,5.6,2.39,8.14,3.92,1.88,1.28,4.55.24,6.82.33,4.91.56,9.75,2.03,14.77.89,2.06-.4,3.89-1.49,5.7-2.52,2.46-1.35,5.23-.51,7.79-1.38,3.5-2.39,7.79-.82,11.25-3.1-8.36-.85-16.57.28-24.8,1.74-4.44,2.33-9.78,3.79-14.6,1.98,4.29-1.28,9.83,1.02,12.11-3.82,3.68.13,7.09,1.1,10.39-1.23-2.54-.49-5.49-.88-8.78-1-2.2-.08-4.24-.02-6.09.11Z"/>
        <path class="cls-2" d="M323.89,680.74c-3.36.14-6.48-.87-9.88-.47,3.18.54,5.86,2.18,9.15,2.41,1.97.12,3.91-.8,5.73-1.61-1.67-.11-3.3-.4-5-.33Z"/>
        <path class="cls-2" d="M312.09,680.59c-2.86,1.03-5.91,1.24-8.64,2.72,1.51.08,3.03.35,4.59.05,1.57-.58,2.78-1.77,4.05-2.78Z"/>
        <path class="cls-2" d="M198.2,699.03c-3.41-.5-6.75-1.26-10.26-1.44-4.19-.16-8.03,2.29-11.75,4.15-3.73,1.89-5.74,5.53-9.1,7.85-2.72,1.9-5.21,4.24-8.36,5.46-4.11,1.22-7.7-.71-11.37-1.49l1.24,1.4c.03.28.09.84.12,1.12-1.83-.96-3.49-2.21-5.63-2.69-4.39-.91-8.87-1.8-13.6-1.36-3.46.34-6.66-.49-9.66-1.54-3.49-.82-7.57-1.55-11.26.25-2.52,1.21-4.94,2.62-7.36,4.01,2.71-.32,4.92-2.59,7.64-2.43,1.96,0,3.85-1.34,5.79-1.05,2.31.29,4.75.23,6.88,1.02,2.56.81,4.69,2.45,7.53,2.69,1.92.18,3.76.61,5.57,1.08,1.92.58,3.9-.82,5.86-.95,1.26.24,2.34.88,3.44,1.4,1.25.65,1.64,2.27,3.21,2.47,2.34.19,4.26,1.29,6.53,1.65,1.68-.86,3.41-.23,5.12-.76,1.35-.43,2.69-.29,4.02-.35,1.38-.62,2.73-1.32,4.17-1.82,2.49-1.11,3.66-3.56,4.85-5.63-2.15.49-4.43.9-6.31,2.2-2.08,1.36-4.02,3.19-6.56,3.63-3.58.87-7.12.26-10.05-1.18.29-.3.57-.59.85-.87,2.09,1.46,5.12,1.68,7.9,1.18,2.6-.52,4.2-2.69,6.07-4.26,2.4-1.22,5.14-1.13,7.59-2.15,2.18-1.98,3.9-4.35,6.22-6.19,1.42-.65,2.98-.74,4.46-1.05,1.92-.29,3.88-1.08,5.77-.8,3.61.53,7.52-1.2,10.43-3.53Z"/>
        <path class="cls-2" d="M319.79,683.13c-1.6-.53-3.24-1.14-5.06-1.04-1.72.37-3.28,1.33-4.95,1.89-2.56,1.02-5.34.87-7.86,2.04-2.77,1.2-5.48,2.56-8.35,3.53,1.87-.1,3.63.29,5.46.32,2.54-.7,5-1.97,7.64-2.12,1.57-.26,3.3.17,4.72-.86,2.58-1.71,5.61-2.49,8.4-3.77Z"/>
        <path class="cls-2" d="M202.36,696.97c-2.5-1.35-5.74.04-8.59,0,2.61,1.03,5.66.93,8.59,0Z"/>
        <path class="cls-2" d="M107.45,708.69c-3.84,1.11-7.19,3.43-10.87,4.94-3.1,1.57-6.55,1.75-9.75,2.97-1.71.9-3.46,1.73-5.18,2.61-2.25.58-4.52,1.02-6.73,1.85-1.5.18-3.02.2-4.54.45-1.23.23-2.18-.68-3.43-.36-1.16.13-2.41.58-3.48.17-2.33-.72-4.9-.85-7.32-1.34-3.51.22-6.94-.14-10.45.08v1.64c2.5.18,5.08.12,7.47.69,4.33,1.15,9.1.9,13.75.66,2.64-.17,5.18.96,7.85-.08,1.54-.49,3.11-.8,4.67-1.14,1.93-.38,3.25-2.02,5.02-2.77,5.32-2.12,11-3.28,16.04-6.11,2.52-1.07,5.09-2.24,6.95-4.27Z"/>
        <path class="cls-2" d="M286.47,688.36c-1.08-.14-1.93-.75-3.01-.89-1.72-.03-3,1.43-4.55,2.02-1.84.33-3.69.26-5.53.59-1.52.38-2.95,1.15-4.49,1.5-1.78.53-3.96.83-5.12,2.44-1.25,1.67-2.97,2.98-4.63,4.3,2.51.33,4.29-1.76,6.2-3.07,3.24-2.43,7.22-3.66,11.08-4.55,1.47-.51,2.04.98,2.86,1.64-2.47-.04-5.05.15-7.42,1.3-3.92,1.47-6.87,4.99-11.1,5.63-1.57.42-3.05.06-4.41-.4-1.32.17-2.61.58-3.91.9-1.29.36-2.56.77-3.85,1.17,1.19-.12,2.39-.29,3.56-.28,1.24.09,2.29.64,3.52.76,2.1-.51,3.99-1.73,6.1-2.16,1.37-.39,2.9-.47,4.07-1.39,1.94-1.44,3.86-3.03,6.18-3.87,1.96-.52,4-.02,5.92-.92,2.91-1.28,5.91-2.59,9.05-2.82,2.25.03,3.9-1.89,6.08-2.18,1.4-.19,2.66-.88,3.8-1.7-.61.22-1.23.43-1.86.63-1.54.62-2.91-.51-4.46.05-1.38.35-2.7.97-4.09,1.31Z"/>
        <path class="cls-2" d="M214.01,701.95c1.2.66,2.71.71,4.12.86,2.27.22,4.48.66,6.78.79,3.11.17,6.07-2,9.18-1.88,2.17-1.51,4.67-3.01,7.31-2.49-2.59,2.24-6.02,2.87-9.16,3.93-2.38.8-4.68,1.85-7.03,2.74-2.37.94-4.87.93-7.3,1.38,1.69.6,3.55,1.05,5.5.57,4.35-.94,8.37-3.14,12.65-4.34-2.8,1.65-5.51,3.43-8.02,5.46-3.05,1.42-6.4,2.02-9.53,3.29,1.39.21,2.83.49,4.3.08,3.06-.8,6.19-1.8,8.82-3.66,4.05-2.81,8.55-5.68,13.51-6.16-2.17,1.8-4.67,3.16-6.94,4.84-1.95,1.41-4.44,1.56-6.52,2.7-1.28.91-2.16,2.38-3.76,2.86-1.65.44-3.32.76-4.94,1.38-1.84.75-3.73.36-5.58.41-1.26-.27-2.18-1.14-3.41-1.5-2.32-.92-5.1-.95-7.24-2.16-1.17-.61-2.68-.76-3.58-1.71-.83-.81-1.93-1.37-3.21-1.54-2.82-.4-5.54-1.04-8.34-1.51-2.56-.75-5.27-1.59-8.17-1.1-2.15.29-3.43,2.36-5.42,3.05-.25-.09-.75-.26-1-.34,1.69-2.1,4.32-3.24,6.95-3.56,4.03-.79,8.25-.16,12.13-2.1,1.96-.81,3.78-2.48,5.94-2.41,1.03.61,1.6,1.68,2.4,2.5-.12-1.32-.26-2.63-.43-3.93,2.7,1.53,4.46,4.1,7.53,5.16,2.44.86,4.2,2.58,6.34,3.83-1.02-1.9-2.37-3.87-4.74-4.54-1.42-.49-3.29-.45-4.11-1.73-1.16-1.47-2.61-2.7-4.18-3.8,2.68-.61,5.35.64,6.13,2.84,1.36.12,1.94,1.26,2.99,1.81ZM205.45,703.47c1.99,1.87,4.92,2.56,7.49,3.65,1.41.56,2.09,1.87,2.94,2.93.27-.19.8-.57,1.06-.76-.68-1.42-1.7-2.72-3.25-3.43-1.34-.51-3.22,0-4.19-1.12-.99-1.03-2.34-1.67-4.05-1.26Z"/>
        <path class="cls-2" d="M396.53,673.83c-1.82.3-3.64.91-5.46.88-2.5-.04-4.95,1.24-6.96,2.74,4.26-.08,8.57-1.54,12.42-3.62Z"/>
        <path class="cls-2" d="M353.57,680.27c-3.42-.68-7.07.24-10.59.12-1.08.15-2.06.79-3.1,1.15,4.15,1.84,9.17-.46,13.69-1.27Z"/>
        <path class="cls-2" d="M171.75,702.13c-2.55.2-4.53,2.08-6.88,2.94-1.51.62-3.12.87-4.63,1.5-.56.88-.92,1.93-1.98,2.5-1.76,1.1-3.21,2.56-4.51,4.09-.79.05-1.59.12-2.37.08,1.58.78,3.33,1.55,5.31,1.31,2.17-.73,3.8-2.41,5.57-3.75,1.69-1.38,3.87-2.29,5.14-4.06,1.28-1.66,2.84-3.12,4.35-4.61Z"/>
        <path class="cls-2" d="M340.75,684.58c-5.76-.37-11.64.04-17.47.2-2.97.14-6.34.98-8.49,3.27,4.05-.52,8.15-.81,12.09-.4,2.24.2,4.27,1.09,6.6.94,1.5-.5,2.91-1.4,4.51-1.34,4.25-.26,8.53-.36,12.66.05,2.64-.71,5.31-.9,7.95-1.55,1.33-.4,2.64-.88,3.93-1.38-2.1.06-4.21.34-6.32.51-2.96.23-5.61-.91-8.58-.61-2.3.21-4.62.5-6.87.31Z"/>
        <path class="cls-2" d="M358.67,682c-2.55.03-5.13-.06-7.71.6,2.5,1.47,5.78.7,8.75.27,2-.39,3.75.35,5.6.59,2.27.09,4.64-.48,6.73-1.58-4.44-.1-8.93.15-13.38.13Z"/>
        <path class="cls-2" d="M311.17,689.29c-4.47-.93-8.92,2.15-13.44,1.99-4.95-.04-10,.87-14.87,2.41-4.21,1.35-8.87,1.29-12.66,3.91-5.81,4.11-13.14,5.3-19.76,4.94.02.19.04.58.05.77,1.48.53,2.92,1.43,4.72,1.09,2.53-.43,5.07-.4,7.59-1.04,2.21-.54,3.58-2.61,5.77-3.21,1.89-.51,3.51-1.67,5.34-2.31,2.01.07,3.98.47,6.04.17,2.24-.48,4.3-1.7,6.53-2.2,2.92-.65,5.59-2.47,8.59-2.65,2.01-.08,4.05.37,6.06-.52,1.65-.72,3.39-.6,5.08-.85,1.8-.51,3.34-1.64,4.98-2.5Z"/>
        <path class="cls-2" d="M53.6,723.86c-2.52-.7-5.25-.77-7.91-1.08v2.43c1.05-.26,2.11-.41,3.13-.29,1.62.17,3.22-.57,4.78-1.06Z"/>
        <path class="cls-2" d="M93.37,717.55c-3.71,1.11-7.28,2.64-10.75,4.4.51.04,1.03.07,1.53.1,2.3-.35,4.46-1.37,6.71-1.95.89-.81,1.62-1.74,2.5-2.56Z"/>
        <path class="cls-2" d="M65.64,724.64c-2.82-.29-5.67-.41-8.57-.32,1.24.51,2.42,1.22,3.86,1.34,1.59.05,3.17-.56,4.71-1.02Z"/>
        <path class="cls-2" d="M527.66,652.44c-1.08.81-2.31,1.87-3.56,3.23-1.44,1.57-2.48,3.1-3.23,4.39-.42.76-1.09,1.8-2.15,2.83-1.08,1.05-2.16,1.71-2.94,2.11-4.3,1.48-7.54,3.01-9.78,4.19-2.4,1.26-4.69,2.66-7.23,3.01-.4.05-1.9.23-3.91.71-.12.03-.97.23-1.91.51-3.01.89-5.55,2.14-6.95,2.67-3.79,1.45-4.2-.38-9.59.63-3.07.58-2.84,1.15-9,3-3.17.95-4.75,1.43-6.41,1.63-3.28.4-3.53-.28-10.04-.58-4.26-.2-5.15-.51-7.93-.54-1.93-.02-3.6-.78-5.12-1.63-2.18-1.24-4.55-2.26-6.37-3.9,3.23.47,5.6,2.39,8.14,3.92,1.88,1.28,4.55.24,6.82.33,2.1.11,3.99.87,6.11.92,2.87.07,5.69.89,8.66-.03,2.12-1.69,4.08-2.66,5.48-3.23,1.19-.48,3.09-.91,6.88-1.75.6-.13,1.66-.36,3.07-.43.69-.03,1.26-.02,1.65,0,1.35-.29,2.72-.58,4.11-.87,1.19-.24,2.38-.48,3.55-.71-6.13,1.11-9.9,1.12-12.26.88-1.16-.12-3.27-.43-5.97-.08-.71.09-1.37.32-3.53.53-1.01.1-2.03.2-3.03.41-2.12.59-3.89,2.16-6.08,2.48-2.91.38-5.92.43-8.51-.51,3.29-.78,6.56-.36,9.83-1,.96-.78,1.42-1.94,2.28-2.82,2.05-.28,3.86.58,5.88.48,1.59-.24,3.05-1.04,4.51-1.71,2.03-.37,4.06-.37,6.06-.3,2.42.04,4.82.15,7.2.36,2.2.24,4.57-.51,6.7.02.87.09,1.78.56,2.67,0,2.42-1.22,4.97-2.16,7.38-3.43,1.29,0,2.36.62,3.47,1.02,3.17-1.39,4.72-4.35,6.35-6.93,2.61-2.23,5.49-4.3,8.55-5.96,3.22-1.39,5.94-3.65,8.35-6.04l.14-.14c.29-.14,1.24-.53,2.3-.18.37.12.67.3.88.46-.5.69-1,1.37-1.5,2.06ZM520.67,656.18c-2.65,1.41-5.2,3-7.5,4.88-1.71,1.42-2.96,3.19-4.31,4.87,1.98-.65,3.85-1.63,5.86-2.21.94-.33,2-.52,2.75-1.23.99-1.09,1.55-2.42,2.64-3.44,1.48-1.42,3.21-2.65,4.39-4.29,1-1.41,2.25-2.67,3.64-3.79-2.46,1.76-4.76,3.76-7.46,5.2Z"/>
        <path class="cls-2" d="M323.16,682.68c1.97.12,3.91-.8,5.73-1.61,1.18.04,2.36.07,3.56-.07,2.59-.35,4.87.72,7.44.54,4.16,1.84,9.17-.46,13.69-1.27,4.03.97,8.42.31,12.7.01,2.43-.19,4.69.45,7.09.4,2.41-.35,4.63-1.82,7.07-1.89,1.32-.05,2.64-.46,3.68-1.35,4.26-.08,8.57-1.54,12.42-3.62,1.98-.35,3.89-1.04,5.71-1.94,4.06-.81,7.24-.87,9.41-.76,1.79.08,3.99.33,7.13-.13.67-.1,1.58-.26,3.38-.68,4.12-.95,5.24-1.21,6.72-1.5,1.85-.36,4.56-.71,8.07-.51.84-.17,2.37-.34,4.11.2.79.25,1.42.58,1.91.89,6.71,4.56,10.82,4.71,13.38,3.89,1.09-.35,3.3-1.33,6.41-1.2,2.43.1,4.43.84,4.41,1.32-.03.57-2.93.27-3.76,1.91-.4.79.06,1.27-.25,2.72,0,0-.26,1.2-1.2,2.55-1.26,1.81-8.7,2.36-18.44.25-.45-2.23-.84-4.62-1.12-7.17-.11-1.01-.2-2-.27-2.96-.36.19-.93.44-1.66.57-2.15.4-3.62-.58-5.4-1.02-1.06-.26-1.78-.22-5.73.41-9.14,1.45-11.08,2.16-11.12,2.01-.08-.29,8.25-1.38,8.99-1.02.14.07.55.3,1.17.48.79.22,1.18.34,2.34.39.81.04,2.9,1.52,8.1,7.11-.97-.35-2.44-.9-4.21-1.6-7.54-2.99-6.8-3.4-8.6-3.63-4.94-.64-10.47,2.31-12.79,1.8-1-.22-1.91-.54-3.55-.65-3.12-.21-5.35.57-7.24,1.12-5.21,1.51-4.78.34-11.02,1.89-3.13.77-5.73,1.68-10.01,3.18-3.21,1.12-4.86,1.8-7.63,2.32-2.56.48-4.72.58-6.16.59-3.01.13-6.04.52-9.06,1.11,1.33-.4,2.64-.88,3.93-1.38-2.1.06-4.21.34-6.32.51-2.96.23-5.61-.91-8.58-.61-2.3.21-4.62.5-6.87.31-5.76-.37-11.64.04-17.47.2-2.97.14-6.34.98-8.49,3.27-1.24.27-2.46.66-3.61,1.24-4.47-.93-8.92,2.15-13.44,1.99-4.95-.04-10,.87-14.87,2.41-4.21,1.35-8.87,1.29-12.66,3.91-5.81,4.11-13.14,5.3-19.76,4.94.02.19.04.58.05.77-1.69-.49-3.51-.71-5.33-.81-4.96.48-9.46,3.36-13.51,6.16-2.63,1.86-5.76,2.86-8.82,3.66-1.47.41-2.91.13-4.3-.08,3.12-1.26,6.47-1.87,9.53-3.29,2.51-2.03,5.22-3.8,8.02-5.46-4.29,1.21-8.3,3.41-12.65,4.34-1.95.47-3.82.03-5.5-.57,2.43-.45,4.93-.44,7.3-1.38,2.35-.89,4.65-1.94,7.03-2.74,3.14-1.06,6.57-1.69,9.16-3.93,2.24.26,4.49-1.11,6.73-.85,1.62.06,2.87.92,4.3,1.39-1.29.36-2.56.77-3.85,1.17,1.19-.12,2.39-.29,3.56-.28,1.24.09,2.29.64,3.52.76,2.1-.51,3.99-1.73,6.1-2.16,1.37-.39,2.9-.47,4.07-1.39,1.94-1.44,3.86-3.03,6.18-3.87,1.96-.52,4-.02,5.92-.92,2.91-1.28,5.91-2.59,9.05-2.82,2.25.03,3.9-1.89,6.08-2.18,1.4-.19,2.66-.88,3.8-1.7.29-.11.86-.33,1.15-.45.2-.16.59-.49.79-.66,1.72-.09,3.21-1.03,4.63-1.95,1.51.08,3.03.35,4.59.05,1.57-.58,2.78-1.77,4.05-2.78.64-.15,1.28-.28,1.92-.32,3.18.54,5.86,2.18,9.15,2.41ZM314.73,682.1c-1.72.37-3.28,1.33-4.95,1.89-2.56,1.02-5.34.87-7.86,2.04-2.77,1.2-5.48,2.56-8.35,3.53,1.87-.1,3.63.29,5.46.32,2.54-.7,5-1.97,7.64-2.12,1.57-.26,3.3.17,4.72-.86,2.58-1.71,5.61-2.49,8.4-3.77-1.6-.53-3.24-1.14-5.06-1.04ZM350.96,682.6c2.5,1.47,5.78.7,8.75.27,2-.39,3.75.35,5.6.59,2.27.09,4.64-.48,6.73-1.58-4.44-.1-8.93.15-13.38.13-2.55.03-5.13-.06-7.71.6Z"/>
        <path class="cls-2" d="M193.77,696.98c-1.65-.38-3.36-.71-5.14-.63-1.84.5-3.74.99-5.57.72-1.24.53-2.45,1.14-3.69,1.68-1.85.8-3.87.79-5.74,1.53-.55.46-.73,1.14-1.1,1.7-.2.04-.6.12-.8.15-1.51,1.49-3.07,2.95-4.35,4.61-1.27,1.77-3.45,2.68-5.14,4.06-1.77,1.34-3.4,3.01-5.57,3.75-1.98.24-3.73-.53-5.31-1.31-1.08-.68-2.53-.32-3.81-.48-.95-.33-1.74-1.07-2.9-.88-1.61.09-3.06-.48-4.7-.2-1.19-1.2-3.24-.45-4.89-.51-2.52-.11-5-.43-7.57-.34-1.21-.8-2.65-1.23-4.23-1.31-1.79-.09-3.1-1.09-4.47-1.91-.91-.05-1.85.36-2.78.33-.89-.22-1.64-.81-2.66-.68-1.01.03-2.2.33-2.88-.44-1.69-.23-3.46-.42-5.23.06-1.67.45-3.07,1.53-4.59,2.33-2.51,1.35-5.24,2.32-7.6,3.94-1.94,1.43-4.6,1.63-6.23,3.48,3.2-1.21,6.65-1.4,9.75-2.97,3.69-1.52,7.04-3.83,10.87-4.94-1.86,2.02-4.43,3.2-6.95,4.27-5.04,2.83-10.73,3.99-16.04,6.11-1.78.74-3.09,2.39-5.02,2.77-1.56.34-3.13.65-4.67,1.14-2.67,1.04-5.2-.09-7.85.08-4.64.23-9.42.48-13.75-.66-2.39-.57-4.97-.52-7.47-.69v1.08c2.66.31,5.39.38,7.91,1.08,1.21-.05,2.39.1,3.47.46,2.89-.09,5.75.03,8.57.32,3.51-1.11,6.77.8,10.29-.49,2.7-.95,5.45-1.63,8.23-2.1-.5-.04-1.02-.07-1.53-.1,3.47-1.76,7.05-3.29,10.75-4.4,2.37-1.57,5.16-2.11,7.83-2.79,2.42-1.39,4.84-2.8,7.36-4.01,3.69-1.8,7.77-1.08,11.26-.25,3,1.06,6.2,1.89,9.66,1.54,4.73-.43,9.21.46,13.6,1.36,2.14.48,3.8,1.73,5.63,2.69-.03-.28-.09-.84-.12-1.12l-1.24-1.4c3.67.77,7.26,2.71,11.37,1.49,3.15-1.22,5.64-3.56,8.36-5.46,3.36-2.31,5.37-5.96,9.1-7.85,3.72-1.87,7.56-4.31,11.75-4.15,3.5.18,6.85.94,10.26,1.44-2.91,2.33-6.82,4.06-10.43,3.53-1.89-.28-3.85.51-5.77.8-1.48.31-3.04.4-4.46,1.05-2.32,1.85-4.05,4.22-6.22,6.19-2.45,1.02-5.19.94-7.59,2.15-1.88,1.57-3.47,3.74-6.07,4.26-2.77.51-5.81.29-7.9-1.18-.28.28-.57.58-.85.87,2.93,1.44,6.47,2.05,10.05,1.18,2.54-.44,4.48-2.27,6.56-3.63,1.88-1.3,4.17-1.71,6.31-2.2,1.2-2.23,3.81-3.32,6.24-3.82-.25-.09-.75-.26-1-.34,1.69-2.1,4.32-3.24,6.95-3.56,4.03-.79,8.25-.16,12.13-2.1,1.96-.81,3.78-2.48,5.94-2.41,1.03.61,1.6,1.68,2.4,2.5-.12-1.32-.26-2.63-.43-3.93,2.7,1.53,4.46,4.1,7.53,5.16,2.44.86,4.2,2.58,6.34,3.83-1.02-1.9-2.37-3.87-4.74-4.54-1.42-.49-3.29-.45-4.11-1.73-1.16-1.47-2.61-2.7-4.18-3.8-.9.14-1.76-.02-2.52-.35-2.92.94-5.98,1.04-8.59,0Z"/>
        <path class="cls-2" d="M52.02,718.61c-2.1-.03-4.22.07-6.33.07v1.38c3.51-.22,6.94.14,10.45-.08-1.26-.65-2.67-1.08-4.12-1.37Z"/>
        <path class="cls-2" d="M279.28,692.33c-.81-.66-1.39-2.15-2.86-1.64-3.86.89-7.84,2.12-11.08,4.55-1.91,1.3-3.7,3.4-6.2,3.07-.93.21-1.85.4-2.79.55,1.36.46,2.84.82,4.41.4,4.23-.63,7.18-4.15,11.1-5.63,2.37-1.16,4.95-1.34,7.42-1.3Z"/>
        <path class="cls-2" d="M209.5,704.72c-.99-1.03-2.34-1.67-4.05-1.26,1.99,1.87,4.92,2.56,7.49,3.65,1.41.56,2.09,1.87,2.94,2.93.27-.19.8-.57,1.06-.76-.68-1.42-1.7-2.72-3.25-3.43-1.34-.51-3.22,0-4.19-1.12Z"/>
        <path class="cls-5" d="M530.67,648.12c-.46.43-1.18,1.12-2.02,2-1.25,1.32-1.35,1.58-2.07,2.15-1.15.91-1.45.69-2.73,1.66-.7.53-.6.59-2.07,1.99-1.31,1.24-1.52,1.32-2.65,2.4-.8.77-1.31,1.32-2.32,2.4-.85.92-1.96,2.15-3.23,3.64-.28.62-.73,1.44-1.49,2.23-1.49,1.57-3.24,2.12-4.06,2.32-1.14,1.22-3.21,3.13-6.34,4.53-3.43,1.52-6.5,1.7-8.21,1.68-4.79.85-8.21,4.91-12.8,6.21-1.59-.94-3.35-1.85-5.39-1.93-2.71.25-5.26,1.55-7.83,2.49-3.02,1.26-6.23,1.23-9.35,1.69-1.75.3-3.29-.26-4.74-.85-1.36-.6-3.05-.1-4.55-.3-3.22-.55-6.62.77-9.92,1.02-.7.06-1.2-.37-1.8-.55-1.36-.53-2.98-.4-4.4-.81-2.96-1.01-6.49-.18-9.48-1.14-2.3-.83-4.91-.73-7.43-.89-1.92-.07-4.02,1.09-5.81.37-1.6-.66-3.39-.89-5.21-.98-1.95-.1-3.99-.76-5.98.22-3.11,1.5-6.6,1.89-9.82,1.58-2.69-.33-5.4.88-8.06,1.52-2,.45-2.81,3.07-5.02,2.89-2.8-.19-5.47-.85-8.27-1.01-3.01.13-6.04.52-9.06,1.11-2.64.65-5.32.84-7.95,1.55-4.13-.41-8.41-.31-12.66-.05-1.6-.06-3.01.84-4.51,1.34-2.33.15-4.36-.74-6.6-.94-3.94-.41-8.04-.12-12.09.4-1.24.27-2.46.66-3.61,1.24-1.64.86-3.19,1.99-4.98,2.5-1.69.25-3.43.13-5.08.85-2,.89-4.04.44-6.06.52-3,.18-5.66,2-8.59,2.65-2.24.51-4.29,1.72-6.53,2.2-2.06.3-4.03-.09-6.04-.17-1.83.63-3.45,1.8-5.34,2.31-2.18.61-3.55,2.67-5.77,3.21-2.51.64-5.06.61-7.59,1.04-1.79.34-3.23-.56-4.72-1.09-1.69-.49-3.51-.71-5.33-.81-2.17,1.8-4.67,3.16-6.94,4.84-1.95,1.41-4.44,1.56-6.52,2.7-1.28.91-2.16,2.38-3.76,2.86-1.65.44-3.32.76-4.94,1.38-1.84.75-3.73.36-5.58.41-1.26-.27-2.18-1.14-3.41-1.5-2.32-.92-5.1-.95-7.24-2.16-1.17-.61-2.68-.76-3.58-1.71-.83-.81-1.93-1.37-3.21-1.54-2.82-.4-5.54-1.04-8.34-1.51-2.56-.75-5.27-1.59-8.17-1.1-2.15.29-3.43,2.36-5.42,3.05-2.44.51-5.05,1.59-6.24,3.82-1.2,2.07-2.36,4.52-4.85,5.63-1.43.5-2.78,1.2-4.17,1.82-1.33.06-2.67-.08-4.02.35-1.72.53-3.44-.1-5.12.76-2.27-.36-4.19-1.46-6.53-1.65-1.58-.19-1.96-1.82-3.21-2.47-1.1-.52-2.18-1.16-3.44-1.4-1.96.13-3.94,1.54-5.86.95-1.81-.47-3.65-.9-5.57-1.08-2.85-.23-4.97-1.88-7.53-2.69-2.13-.78-4.57-.72-6.88-1.02-1.94-.29-3.83,1.05-5.79,1.05-2.73-.16-4.93,2.11-7.64,2.43-2.67.69-5.46,1.23-7.83,2.79-.88.81-1.62,1.75-2.5,2.56-2.26.57-4.41,1.6-6.71,1.95-2.78.47-5.53,1.14-8.23,2.1-3.52,1.28-6.78-.62-10.29.49-1.54.46-3.12,1.08-4.71,1.02-1.44-.13-2.62-.83-3.86-1.34-1.08-.36-2.26-.51-3.47-.46-1.56.48-3.16,1.23-4.78,1.06-1.02-.12-2.08.03-3.13.29v2.71c2.12.88,4.57,1.02,7.01.9,2.34-.14,4.56.29,6.8.6,2.91.42,5.96-.59,8.93-.59,4.52.02,9.14-.65,13.62-1.99,3.51-.74,7.06-1.67,10.22-3.55,3.14-1.88,6.41-3.59,9.94-4.54,4.32-1.18,8.68-3.23,13.09-2.84,5.14.18,9.34,2.65,14.21,3.55,2.74.63,5.66.66,8.56.7,2.95.04,5.37,1.39,7.8,2.51,3.8,1.77,8.41,2.27,12.95,1.5,4.86-.41,10.01-2.49,13.13-6.36,2.67-3.34,6.48-5.84,10.6-7.33,2.3-.71,4.71-.73,6.88-.25,3.05.66,6.17,1.17,9.13,2.05,3.24.95,6,2.69,9.21,3.69,2.84.9,5.65,1.87,8.6,2.55,2.49.62,5.25.06,7.88-.33,4.37-.92,8.11-3.63,12.11-5.54,2.72-1.28,5.27-2.87,7.93-4.24,2.61-1.36,5.36-.59,7.85-.17,2.61.54,5.43-.08,8.15-.38,4.33-.36,8-3.26,12.1-4.59,1.84-.53,3.72-.57,5.57-.83,6.68-.77,12.93-4.65,19.64-4.94,3.25-.77,6.59-.75,9.74-2.04,3.32-1.16,6.55-2.82,10.01-3.37,3.71-.28,7.4-.21,10.96.3,4.13.63,8.5-.77,12.74-.94,4.2-.08,8.38.26,12.62-.33,3.84-1,7.73-1.45,11.61-1.87,3.43-.36,6.62.77,10.09.14,3.58-.24,6.65-2.75,10.2-3.17,2.84-.38,5.68-.65,8.52-1.02,3.03-.36,6.07-1.69,9.09-1.39,3.53.31,6.98,1.02,10.62.85,5.19-.27,10.05.9,15.07,1.35,4.71.44,9.21,2.03,14.17,1.15,6.59-1.19,12.6,1.42,19.18.32,3.94-.51,7.65-2.5,11.6-2.89,3.41-.53,6.68.82,10.1-.49,4.03-1.6,7.71-4.3,12.04-4.93,6.75-.99,10.63-2.83,14.65-5.3,4.61-2.84,7.26-6.34,7.99-7.34,1.34-1.84,1.42-2.4,2.98-5.05,1.41-2.4,3.62-5.77,6.93-9.6.23-.42.47-.85.72-1.27.49-.85.99-1.67,1.48-2.47Z"/>
      </g>
      <path class="cls-4" d="M23.59,77.61l1.49-16.36-.59-54.42c.06-.53.44-3.27,2.9-5.2,0,0,1.97-1.56,5.13-1.64,6.55-.15,434.64,30.44,586.81,41.33.6.12,2.31.54,3.76,2.08,1.4,1.49,1.74,3.14,1.84,3.76.28,18.08.56,36.16.84,54.24L23.59,77.61Z"/>
      <path class="cls-1" d="M46.03,23.8c1.21-4.57,6.69-3.13,10.18-3.23,192.76,12.69,385.51,25.77,578.29,38.55,3.52.44,9.55-.31,9.87,4.7.54,27.14-.08,54.32.25,81.47-3.75-.86-7.01,1.05-10.41,2.18-10.26-.61-20.86-.75-30.81,2.03-6.8-.76-13.62-.19-20.42-.11-7.55,3.84-16.44,1.11-24.13,4.36-4.57,1.68-9.26,3.04-13.68,5.05-4.57.21-8.97,1.3-12.87,3.67-3.57-.32-7.32-.57-10.26,1.84-6.15.1-12.29,1.05-18.44.67-4.69-.9-9.01-3.04-13.39-4.8-4.8.97-9.3-.86-13.27-3.36-4.99,1.4-10.14,1.32-15.18.32-2.59,1.17-5.03,3.36-8.03,3.12-12.83-.65-25.88.04-38.42,2.85-9.39-1.45-18.19,2.96-27.36,4.19-.65-.36-1.31-.73-1.96-1.09-10.7.42-21.71.44-31.91,4.17-.81-.52-2.42-1.51-3.23-2.01-4.32,2.2-8.95,1.59-12.99-.84-7.45,1.32-15.31,3.75-22.67.61-12.76-.27-25.57.11-38.21-1.36-1.92.52-3.8,1.13-5.65,1.8-4.57-.59-9.12-1.22-13.7-1.76-.85.4-2.54,1.19-3.38,1.57-8.43-1.22-17-.36-25.43-1.66-6.51-1.19-13.22,1.09-19.54-.96-.85.48-2.52,1.41-3.34,1.89-6.15-2.96-12.87-1.2-19.31-.67-.86.46-2.61,1.4-3.48,1.85-4.11-1.59-8.64-3-12.66-.34-7.97,4.34-17.17,3.36-25.86,4.28-4.63,6.37-12.77,3.61-19.34,3.88-7.7,1.47-15.69,2.14-22.84,5.52-.92-2.98-.75-6.14-.79-9.21.23-33.78,0-67.53.1-101.31.08-3.15-.1-8.01-4.17-8.53-17.23-1.72-34.58-2.52-51.81-4.24.19-11.7-.44-23.42.23-35.08Z"/>
      <g>
        <path class="cls-1" d="M6.53,667.05c-1.11,0-2.98-.17-4.34-1.48-1.58-1.52-1.6-3.66-1.6-3.68L0,71.87c0-.5.25-2.03,1.41-3.06,1.11-.99,2.54-1.04,3.15-1.06,2.3-.07,7.63.03,15.69.54.28.02.49.25.47.53-.02.27-.23.48-.53.47-8.03-.5-13.32-.6-15.6-.53-.54.02-1.67.05-2.52.8-.89.8-1.07,2.03-1.07,2.31l.58,590.02s.04,1.76,1.3,2.96c1.34,1.29,3.42,1.21,4.2,1.18,2.77-.1,32.94-1.25,76.36-3.05.63-.03,6.31-.44,9.38-5.3,2.03-3.2,1.78-7.84-.71-13.4-.11-.25,0-.55.25-.66.25-.12.55,0,.66.25,2.64,5.88,2.86,10.84.65,14.35-3.35,5.28-9.5,5.73-10.19,5.76-43.42,1.8-73.6,2.95-76.36,3.05-.15,0-.35.01-.58.01Z"/>
        <path class="cls-6" d="M101.91,653.57c-28.01,1.28-56.03,2.56-84.04,3.84-1.58.07-2.91-1.1-2.91-2.56l-.34-596.32c0-1.48,1.36-2.66,2.95-2.55,28.85,1.84,57.7,3.68,86.55,5.52,1.46.09,2.59,1.22,2.58,2.57-.72,195.65-1.45,391.31-2.17,586.96,0,1.36-1.16,2.48-2.63,2.55Z"/>
      </g>
    </g>
  </g>
</svg>