<?xml version="1.0" encoding="UTF-8"?>
<svg id="Capa_2" data-name="Capa 2" xmlns="http://www.w3.org/2000/svg" viewBox="0 0 1989.31 215.6">
  <defs>
    <style>
      .cls-1 {
        fill: #fff;
      }
    </style>
  </defs>
  <g id="Layer_1" data-name="Layer 1">
    <g>
      <path class="cls-1" d="M796.01.04h30.36c0,46.69,0,93.37.02,140.06-.1,13.64-3.9,27.27-11.04,38.9-7.23,12.13-18.05,21.97-30.53,28.49-10.15,4.69-21.12,8.36-32.45,7.81-12.24.63-24.42-2.29-35.43-7.53-13.76-6.95-25.2-18.2-32.71-31.62-9.73-17.87-11.93-39.69-5.74-59.09,4.2-13.46,12.13-25.82,22.94-34.91,19.39-17.15,48.11-22.86,72.61-14.49,5.53,2.04,9.82,7.43,9.91,13.43.52,8.04-6.25,16.14-14.54,15.94-4.73-.27-9.25-2.05-13.99-2.4-12.64-1.67-25.5,3.19-35.02,11.41-7.42,6.88-12.66,16.13-14.4,26.12-2.02,11.9.99,24.51,8.01,34.31,6.3,8.4,15.43,14.67,25.6,17.4,13.37,3.48,28.35.31,38.97-8.59,11.12-8.4,17.28-22.37,17.38-36.15.07-46.36,0-92.73.05-139.09Z"/>
      <path class="cls-1" d="M1207.77,10c-.13-3.64,1.04-7.19,3.39-9.98,6.21.02,12.42.06,18.64-.02,2.06,2.59,3.21,5.8,3.19,9.13.08,13.47,0,26.94.03,40.41,22.96.03,45.93-.06,68.89.04,6.97-.02,13.05,6.55,12.56,13.48-.18,6.32-5.71,11.88-12.07,11.92-23.12.15-46.25.01-69.38.06,0,18.01.01,36.02,0,54.03-.1,7.79.59,15.73,3.49,23.04,5.47,14.87,17.82,27.12,32.94,32.03,9.19,3.49,19.25,4,28.94,2.94,10.62-1.41,20.19-7.04,27.95-14.23,4.77-4.27,12.79-3.45,16.82,1.46,4.51,4.9,3.44,12.98-.88,17.63-14.38,14.76-35.45,21.98-55.85,21.29-18.35.04-36.3-7.27-50.33-18.91-17.71-14.72-28.18-37.53-28.26-60.52-.14-41.26-.03-82.53-.06-123.8Z"/>
      <path class="cls-1" d="M96.01,4.62c5.46-4.89,14.34-4.59,19.9-.05,2.88,2.35,4.2,5.95,5.76,9.2,29.42,61.19,59.01,122.29,88.53,183.42,3.22,6.08,1.27,14.72-4.9,18.07-4.6.64-9.29.12-13.92.29-4.2.5-6.93-3.42-8.61-6.69-6.58-13.91-13.35-27.73-19.79-41.7-38.03-.23-76.07-.13-114.11-.05-6.56,14.08-13.37,28.05-20.12,42.05-1.48,2.9-3.73,6.41-7.42,6.37-4.94-.16-9.98.45-14.85-.36-5.86-3.31-8.18-11.4-5.15-17.39C31.15,135.71,61.09,73.7,90.95,11.64c1.22-2.64,2.72-5.22,5.06-7.02ZM62.27,138.54c29.05,0,58.11-.01,87.16,0-14.48-30.32-28.94-60.65-43.39-91-14.81,30.23-29.24,60.64-43.77,91Z"/>
      <path class="cls-1" d="M1415,52.8c18.93-3.1,39.09-.09,55.52,10.09,18.01,10.67,31.27,28.83,36.54,49.03,5.32,20.77,2.38,43.62-8.82,61.99-10,17.3-26.92,30.14-45.87,36.15-20.47,5.94-43.43,3.88-61.97-6.89-16.73-8.99-29.81-24.27-36.44-42.04-8.86-22.93-6.36-49.96,6.68-70.82,11.72-19.44,31.9-33.72,54.36-37.51ZM1417.98,77.87c-14.26,3.37-27.6,11.92-35.3,24.57-10.22,15.78-11.59,36.92-3.27,53.81,7.97,16.98,25.07,29.65,43.88,31.24,15.64,1.97,31.94-3.38,43.44-14.17,13.44-12.29,20.12-31.45,17.19-49.44-2.51-18.12-14.66-34.59-31.46-41.97-10.62-5.26-22.94-6.15-34.48-4.04Z"/>
      <path class="cls-1" d="M1848.97,52.79c11.49-2.06,23.62-1.66,34.76,2.05,8.16,2.96,16.11,7.33,21.55,14.27,2.88,3.84,6.28,7.92,6.35,12.98.13,5.54-3.99,10.5-9.23,11.94-3.71.73-8.15-.35-10.36-3.59-5.1-6.98-12.87-12.33-21.58-13.33-9.4-1.12-19.49-.7-27.92,4.04-4.12,2.55-7.68,6.69-7.95,11.72-1.03,5.41,1.35,11.05,5.7,14.34,8.07,6.17,18.25,8.19,27.66,11.44,15.43,4.89,31.92,10.4,42.6,23.31,6.59,7.27,8.78,17.47,8.11,27.04-.71,11.52-6.65,22.4-15.31,29.9-14.6,12.64-35.07,16.69-53.8,13.44-18.02-2.34-35.79-13.07-43.23-30.12-2.4-5.68.35-12.76,6.05-15.19,5.48-2.51,12.06-.05,15.92,4.24,1.94,2.68,3.58,5.62,6.15,7.79,8.05,7.29,19.42,9.55,29.99,9.43,7.63.21,14.83-3.14,21-7.37,5.9-4.18,9.29-11.88,7.68-19.03-1.92-5.5-7.01-8.95-11.73-11.91-14.66-8.51-32.21-9.92-47.08-17.99-10.83-5.25-20.2-14.45-23.79-26.12-2.48-9.59-1.88-20.24,2.7-29.13,6.99-13.38,21.16-21.73,35.76-24.15Z"/>
      <path class="cls-1" d="M1532.8,54.56c7.49-3.43,17.41,1.96,17.74,10.41.23,23.94-.02,47.9.13,71.85.18,17.58,9.6,35.01,24.72,44.17,15.91,10.43,38.55,9.55,53.3-2.62,12.76-10.08,19.12-26.6,19.35-42.56.15-23.57-.09-47.14.12-70.7.35-7.75,8.89-13.4,16.21-11.05,5.69,1.31,9.21,7.32,8.96,12.93-.05,23.7.14,47.4-.09,71.09-.54,22.35-10.08,44.92-27.58,59.21-13.48,11.44-31.44,17.28-49.07,15.97-21.78-.66-42.72-12.28-55.59-29.73-10.18-13.57-15.63-30.5-15.62-47.43-.06-23.36-.03-46.72,0-70.07-.1-4.89,3.16-9.33,7.43-11.47Z"/>
      <path class="cls-1" d="M1772.92,54.76c6.33-.76,12.91-1.97,19.23-.56,8.89,2.27,11.53,15.35,4.55,21.15-5.21,4.98-12.81,2.74-19.17,4.2-16.18,2.36-30.96,12.26-39.57,26.11-5.75,9.06-9.22,19.63-9.27,30.4-.17,20.65-.01,41.3-.08,61.95.08,4.44-1.91,9.06-5.77,11.45-4.96,2.91-11.89,2.31-15.9-1.94-2.58-2.41-3.64-5.99-3.6-9.44-.03-19.68,0-39.37-.01-59.05-.69-26.72,12.51-53.25,34.03-69.04,10.41-7.78,22.7-13.2,35.56-15.23Z"/>
      <path class="cls-1" d="M255.04,81.71c11.95-11.15,28.06-17.55,44.37-17.9,20.75-.44,41.46,9.05,54.28,25.46,9.48-11.86,23.1-20.06,37.8-23.61,15.76-3.86,32.93-1.56,47.2,6.16,19.34,10.26,32.83,30.43,35.48,52.12.92,6.32.46,12.71.54,19.07,0,22.93.01,45.86,0,68.78-10.04,0-20.08.01-30.12,0,0-25.9-.02-51.81.02-77.71.64-14.57-7.69-28.95-20.66-35.6-9.6-4.78-21.27-5.2-31.22-1.24-13.96,5.37-23.83,19.81-23.78,34.77.04,26.59,0,53.19.02,79.78-10.18.01-20.35,0-30.53,0,.07-26.26.01-52.53.04-78.79,0-9.03-2.91-18.27-8.98-25.05-8.31-9.73-21.73-15.47-34.5-13.13-14,2.1-26.06,12.85-30.17,26.34-2.09,6.06-1.59,12.56-1.74,18.86-.03,23.92,0,47.85-.01,71.77h-30.38c0-26.57-.01-53.15,0-79.72-.04-18.92,8.24-37.72,22.33-50.36Z"/>
      <path class="cls-1" d="M528.36,80.01c15.05-12.07,34.98-17.69,54.13-15.77,12.04,1.07,23.58,5.56,33.75,11.99,15.48,10.32,27.18,26.33,31.81,44.4,2.45,8.2,2.58,16.85,2.56,25.34-.09,21.94.08,43.88-.09,65.82h-30.4c-.01-23.61,0-47.22,0-70.84.12-11.3-3.92-22.72-11.47-31.18-7.43-8.93-18.71-14.41-30.24-15.35-13.47-1.02-27.15,4.45-36.43,14.24-8.63,9.08-13.22,21.93-12.13,34.43.64,9.69,4.54,19.14,10.89,26.5,8.93,10.48,22.81,16.44,36.58,15.61,7.03-.04,13.95-4.22,20.96-1.82,8.93,3.05,12.79,15.24,7.35,22.93-3.95,5.99-11.68,7.01-18.14,8.39-17.02,1.99-35.01-.15-49.95-9.03-14.59-8.67-27-21.77-33.09-37.77-6.51-16.45-7.03-35.18-1.51-51.98,4.7-14.11,13.71-26.75,25.42-35.91Z"/>
      <path class="cls-1" d="M914.95,64.81c16.14-2.54,33.21.15,47.52,8.13,20.82,11.21,35.71,32.68,38.92,56.11,3.14,21.63-3.52,44.58-18.2,60.85-8.63,9.82-19.95,17.19-32.21,21.64-22.15,7.05-47.74,4.51-67.03-8.88-12.47-8.69-22.47-21.07-28.03-35.25-6.41-16.46-6.7-35.12-1.19-51.87,4.17-11.98,11.2-23.04,20.67-31.53,10.84-10.21,24.92-16.75,39.55-19.2ZM921,94.83c-15.52,1.99-29.81,12.48-35.89,26.97-5.26,11.67-4.96,25.55.46,37.11,4.47,9.81,12.5,18.09,22.49,22.29,10.61,4.6,23.16,5.7,33.99,1.18,9.65-3.56,18.07-10.49,23.31-19.36,6.83-11.44,8.28-25.91,3.7-38.44-3.67-9.8-10.43-18.6-19.5-23.95-8.59-4.8-18.72-7.65-28.56-5.8Z"/>
      <path class="cls-1" d="M1058.01,78.73c20.78-15.8,50.18-19.46,74.11-8.93-4.51,9.1-9.07,18.17-13.7,27.21-9.82-2.8-20.51-3.59-30.27-.13-11.19,3.86-20.65,12.32-25.95,22.87-3.55,6.84-4.83,14.6-4.79,22.25.09,23.26.03,46.53.05,69.79-10.13.01-20.26,0-30.39.01.02-25.25-.04-50.5.1-75.74.91-22.47,12.63-44.17,30.84-57.33Z"/>
      <path class="cls-1" d="M1962.93,161.79c6.14-1.68,12.9.02,18.02,3.64,7.46,5.41,10.24,15.99,7.05,24.53-3.44,9.85-14.96,16.03-25.05,13.34-8.3-2.13-15.36-9.39-16.14-18.09-1.57-10.41,5.71-21.33,16.12-23.42ZM1963.83,165.55c-5.36,1.5-10.05,5.38-12.08,10.6-2.95,7.18-.29,16.18,6.07,20.61,5.54,4.24,13.88,4.41,19.61.42,6.27-3.96,9.47-12.27,7.22-19.39-2.3-8.69-12.08-14.64-20.82-12.24Z"/>
      <path class="cls-1" d="M1960.4,170.97c4.43-.24,9.64-1.51,13.49,1.44,3.67,2.97,2.26,9.09-1.97,10.76,3.6,2.58,3.5,7.33,4.89,11.14-1.48-.02-2.94-.03-4.36-.03-.83-2.63-1.31-5.37-2.35-7.92-1.05-2.02-3.59-1.74-5.46-1.92-.05,3.28-.03,6.56-.02,9.85h-4.22c-.01-7.77,0-15.55,0-23.32ZM1964.63,173.87c-.02,2.57-.02,5.16.02,7.74,2-.19,4.35.19,6.06-1.2,1.31-1.3,1.44-3.54.48-5.06-1.68-1.86-4.34-1.53-6.56-1.48Z"/>
    </g>
  </g>
</svg>