<?xml version="1.0" encoding="UTF-8"?>
<svg id="Capa_2" data-name="Capa 2" xmlns="http://www.w3.org/2000/svg" viewBox="0 0 280.23 279.81">
  <defs>
    <style>
      .cls-1 {
        fill: #8f8f8f;
      }
    </style>
  </defs>
  <g id="Layer_1" data-name="Layer 1">
    <g>
      <path class="cls-1" d="M102.63,5.03c39.95-11.16,84.68-3.51,118.42,20.68,8.67,6.22,16.9,13.18,23.83,21.33,22.23,24.81,35.03,57.81,35.33,91.12.32,14.94-2.24,29.82-6.36,44.14-6.85,20.97-18.41,40.4-33.96,56.07-22.73,23.26-53.88,38.02-86.24,41.01-11.61.67-23.31.69-34.86-.83-10.57-1.86-20.98-4.59-30.98-8.52-18.16-7.42-34.8-18.53-48.45-32.64C18.11,215.47,4.25,186.46.98,156.09-3.8,116.81,9.18,75.76,35.84,46.48,53.51,26.64,77.06,12.17,102.63,5.03ZM124.67,7.2c-27.44,3.17-53.78,15.13-74.19,33.76-16.24,14.51-28.72,33.19-36.17,53.64-15.4,41.37-8.17,90.2,18.64,125.3,3.78,5.14,8.11,9.83,12.48,14.48,21.89,21.9,51.52,36.2,82.45,38.72,35.08,3.46,71.25-7.9,98.11-30.71,20.02-16.73,35.02-39.37,42.4-64.39,7.29-24.39,7.36-50.79.21-75.22-6.61-22.98-19.72-43.99-37.16-60.32-8.26-7.67-17.44-14.36-27.34-19.75-23.99-13.34-52.21-18.59-79.43-15.51Z"/>
      <path class="cls-1" d="M119.39,26.23c25.7-4.76,53.06-.47,75.99,12.12,28.4,15.27,49.89,42.98,57.24,74.42,6.09,24.95,3.6,51.95-7.14,75.29-4.33,9.72-10.21,18.76-17.06,26.89-7.56,8.82-16.39,16.57-26.21,22.79-1.19.91-2.65,1.09-4.1,1.08-.29.84-.57,1.69-.84,2.54-2.45.15-4.36,1.84-6.53,2.79-8.55,4.11-17.57,7.29-26.88,9.13-32.46,6.84-67.82-.84-94.04-21.3-6.53-5-12.56-10.67-17.9-16.94-18.02-20.81-27.85-48.39-27.56-75.88.06-31.57,13.79-62.85,37.18-84.09,1.75-1.59,3.49-3.18,5.3-4.71,15.16-12.24,33.3-20.83,52.55-24.13ZM101.16,37.88c-32.18,12.07-57.88,40.27-66.63,73.53-.3,2.54-.28,5.13.23,7.64.1,3.59,2.13,7.51,5.8,8.51,4.04.82,8.26.34,12.15-.94,8.58-2.3,16.69-5.98,24.79-9.57,7.36-3.32,14.62-6.86,22.03-10.06,13.08-5.8,26.7-11.48,41.2-12.02,10.29.21,20.39,2.81,29.98,6.39,8.47,2.8,16.64,6.48,24.81,10.08,11.88,5.11,23.62,11,36.35,13.68,3.68.8,7.93.66,10.83-2.04,2.79-4.25,2.69-9.59,2.25-14.46-5.06-16.85-14.33-32.41-26.67-44.95-17.48-18.2-41.56-29.75-66.63-32.43-17.02-1.97-34.5.54-50.49,6.64ZM127.53,103.15c-11.57,3.48-22.72,8.2-33.62,13.37-15.06,6.73-29.88,14.7-46.25,17.71-6.01,1.01-12.31-1.01-16.46-5.49-1.04,12.11-.42,24.42,2.3,36.28,13.33-8.58,30.31-11.57,45.7-7.56,17.69,4.09,32.4,17.21,40.48,33.24,1.62,3.69,3.11,7.44,4.2,11.32,4.18,14.97,3.26,31.46-2.94,45.74,12.64,2.11,25.74,2.18,38.37-.01-8.51-19.7-7.14-43.55,4.03-61.95,8.66-14.54,23.41-25.76,40.19-28.86,7.94-1.95,16.3-1.55,24.24.23,6.84,1.29,13.16,4.39,19.2,7.77,1.35-6.14,1.55-12.43,2.48-18.64.16-6.75.65-13.73-1.43-20.25-2.85,5.51-9.79,5.98-15.26,5.52-9.17-1.05-17.65-4.98-26.17-8.29-16.45-7.04-32.55-15.21-49.92-19.75-9.46-2.62-19.62-2.84-29.14-.38ZM206.76,162.76c-11.07,1.69-21.31,7.34-29.21,15.21-8.96,8.88-14.75,20.75-16.71,33.17-2.09,11.77,0,23.97,4.53,34.94,1.39-.16,2.8-.21,4.16-.59,7.66-2.4,15.26-5.15,22.25-9.13,22.38-11.85,40.21-31.84,49.75-55.28,1.27-3.28,2.78-6.53,3.17-10.06-11.21-6.85-24.82-10.97-37.94-8.26ZM37.5,169.88c-1.16.71-2.8,1.58-1.71,3.19,1.47,4.42,2.94,8.86,5.08,13.01,12.68,27.74,37.61,49.59,66.84,58.35,2.29.88,4.65,1.65,7.15,1.6.27-.67.81-2,1.08-2.67,3.82-10.04,5.15-21.07,3.49-31.7-2.27-16.92-12.31-32.45-26.61-41.72-8.47-5.19-18.29-7.8-28.17-8.18-9.54.62-18.91,3.23-27.15,8.12Z"/>
      <path class="cls-1" d="M138.85,118.41c6.94-.21,14.16,2.44,18.82,7.71,5.49,5.71,7.51,14.36,5.55,21.98-1.59,7.41-7.27,13.88-14.44,16.38-12.18,5.63-28.04-2.33-31.48-15.15-2.52-7.98-.45-17.17,5.29-23.25,4.09-4.65,10.16-7.21,16.26-7.67ZM137.22,124.98c-6.45,1.09-11.98,6.03-13.91,12.25-.86,3.2-.7,6.59-.13,9.82,1.96,6.84,8.37,12.1,15.42,12.83,9.79,1.07,19.47-7.74,18.99-17.66.46-10.4-10.26-19.23-20.37-17.24Z"/>
    </g>
  </g>
</svg>