<?xml version="1.0" encoding="UTF-8"?>
<svg id="Capa_2" data-name="Capa 2" xmlns="http://www.w3.org/2000/svg" viewBox="0 0 242.55 242.43">
  <defs>
    <style>
      .cls-1 {
        fill: #fff;
      }
    </style>
  </defs>
  <g id="Layer_1" data-name="Layer 1">
    <g>
      <path class="cls-1" d="M100.54,7.42c25.7-4.76,53.06-.47,75.99,12.12,28.4,15.27,49.89,42.98,57.24,74.42,6.09,24.95,3.6,51.95-7.14,75.29-4.33,9.72-10.21,18.76-17.06,26.89-7.56,8.82-16.39,16.57-26.21,22.79-1.19.91-2.65,1.09-4.1,1.08-.29.84-.57,1.69-.84,2.54-2.45.15-4.36,1.84-6.53,2.79-8.55,4.11-17.57,7.29-26.88,9.13-32.46,6.84-67.82-.84-94.04-21.3-6.53-5-12.56-10.67-17.9-16.94-18.02-20.81-27.85-48.39-27.56-75.88.06-31.57,13.79-62.85,37.18-84.09,1.75-1.59,3.49-3.18,5.3-4.71,15.16-12.24,33.3-20.83,52.55-24.13ZM82.31,19.07C50.13,31.14,24.43,59.34,15.68,92.6c-.3,2.54-.28,5.13.23,7.64.1,3.59,2.13,7.51,5.8,8.51,4.04.82,8.26.34,12.15-.94,8.58-2.3,16.69-5.98,24.79-9.57,7.36-3.32,14.62-6.86,22.03-10.06,13.08-5.8,26.7-11.48,41.2-12.02,10.29.21,20.39,2.81,29.98,6.39,8.47,2.8,16.64,6.48,24.81,10.08,11.88,5.11,23.62,11,36.35,13.68,3.68.8,7.93.66,10.83-2.04,2.79-4.25,2.69-9.59,2.25-14.46-5.06-16.85-14.33-32.41-26.67-44.95-17.48-18.2-41.56-29.75-66.63-32.43-17.02-1.97-34.5.54-50.49,6.64ZM108.68,84.34c-11.57,3.48-22.72,8.2-33.62,13.37-15.06,6.73-29.88,14.7-46.25,17.71-6.01,1.01-12.31-1.01-16.46-5.49-1.04,12.11-.42,24.42,2.3,36.28,13.33-8.58,30.31-11.57,45.7-7.56,17.69,4.09,32.4,17.21,40.48,33.24,1.62,3.69,3.11,7.44,4.2,11.32,4.18,14.97,3.26,31.46-2.94,45.74,12.64,2.11,25.74,2.18,38.37-.01-8.51-19.7-7.14-43.55,4.03-61.95,8.66-14.54,23.41-25.76,40.19-28.86,7.94-1.95,16.3-1.55,24.24.23,6.84,1.29,13.16,4.39,19.2,7.77,1.35-6.14,1.55-12.43,2.48-18.64.16-6.75.65-13.73-1.43-20.25-2.85,5.51-9.79,5.98-15.26,5.52-9.17-1.05-17.65-4.98-26.17-8.29-16.45-7.04-32.55-15.21-49.92-19.75-9.46-2.62-19.62-2.84-29.14-.38ZM187.91,143.95c-11.07,1.69-21.31,7.34-29.21,15.21-8.96,8.88-14.75,20.75-16.71,33.17-2.09,11.77,0,23.97,4.53,34.94,1.39-.16,2.8-.21,4.16-.59,7.66-2.4,15.26-5.15,22.25-9.13,22.38-11.85,40.21-31.84,49.75-55.28,1.27-3.28,2.78-6.53,3.17-10.06-11.21-6.85-24.82-10.97-37.94-8.26ZM18.65,151.07c-1.16.71-2.8,1.58-1.71,3.19,1.47,4.42,2.94,8.86,5.08,13.01,12.68,27.74,37.61,49.59,66.84,58.35,2.29.88,4.65,1.65,7.15,1.6.27-.67.81-2,1.08-2.67,3.82-10.04,5.15-21.07,3.49-31.7-2.27-16.92-12.31-32.45-26.61-41.72-8.47-5.19-18.29-7.8-28.17-8.18-9.54.62-18.91,3.23-27.15,8.12Z"/>
      <path class="cls-1" d="M121.34,242.43c-26.61,0-52.98-8.71-73.76-24.92-6.89-5.28-13.2-11.24-18.7-17.71C10.24,178.27-.3,149.28,0,120.29.07,87.25,14.64,54.3,38.99,32.19l.37-.33c1.63-1.48,3.32-3.02,5.08-4.51.03-.03.06-.05.1-.08C60.81,14.13,79.84,5.4,99.57,2.01c27.23-5.04,55.5-.52,79.6,12.71,29.86,16.06,52.29,45.22,59.95,77.99,6.43,26.33,3.77,54.35-7.5,78.84-4.35,9.76-10.36,19.25-17.85,28.13-8.04,9.38-17.22,17.37-27.3,23.79-1.03.74-2.1,1.22-3.12,1.52-.86,1.74-2.61,2.92-4.59,3.05-.38.02-1.36.59-2.08,1-.73.42-1.55.88-2.48,1.3-9.34,4.48-18.8,7.69-28.12,9.53-8.16,1.72-16.46,2.56-24.73,2.56ZM109.65,224.43c7.78.82,15.65.82,23.26.01-6.36-20.01-3.91-42.54,6.87-60.31,9.73-16.33,26.08-28.07,43.74-31.39,8.12-1.96,17.03-1.89,26.51.22,4.95.95,9.61,2.73,13.85,4.74.13-1.16.26-2.35.38-3.55.24-2.33.49-4.73.84-7.15.02-.65.04-1.31.05-1.97.08-2.72.16-5.36.05-7.91-2.99,1.02-6.84,1.52-11.77,1.1-.05,0-.11,0-.16-.02-8.37-.96-15.96-4-23.3-6.95-1.41-.57-2.82-1.13-4.23-1.68-.06-.02-.12-.05-.17-.07-3.9-1.67-7.82-3.42-11.62-5.11-12.13-5.41-24.67-11.01-37.53-14.37-8.78-2.43-17.83-2.56-26.27-.4-9.83,2.96-20.24,7.11-32.74,13.04-.04.02-.08.04-.11.05-2.86,1.28-5.78,2.63-8.6,3.94-12.29,5.7-24.99,11.6-38.9,14.16-4.23.71-8.53.27-12.43-1.17-.07,6.18.35,12.22,1.25,18.05,13.39-6.38,28.97-8.05,43.04-4.41,18.36,4.27,34.83,17.76,44.08,36.11.04.09.09.18.12.26,2.06,4.7,3.44,8.42,4.46,12.04,3.95,14.15,3.68,29.07-.67,42.71ZM196.25,148.62c-2.48,0-4.9.24-7.24.72-.09.02-.19.04-.28.05-9.47,1.45-18.76,6.3-26.16,13.67-7.96,7.89-13.34,18.58-15.16,30.13,0,.03-.01.07-.02.1-1.55,8.7-.62,18.24,2.66,27.81,6.32-2.01,13.53-4.57,20.14-8.34.05-.03.1-.05.15-.08,20.95-11.09,38.17-30.23,47.23-52.49.19-.49.42-1.06.65-1.64.49-1.23.97-2.43,1.36-3.59-7.85-4.18-15.86-6.35-23.33-6.35ZM22.96,154.94c1.17,3.46,2.36,6.75,3.94,9.81.04.08.08.16.11.23,12.06,26.38,35.77,47.08,63.42,55.37.13.04.26.08.39.13.59.23,1.14.43,1.67.6,3.14-8.95,4.05-18.39,2.65-27.39,0-.04-.01-.08-.02-.12-2.04-15.19-11.04-29.31-24.09-37.8-7.2-4.4-15.89-6.92-25.16-7.33-8.3.58-16.17,2.81-22.91,6.48ZM187.91,143.95h.01-.01ZM23.04,103.41c2.77.51,5.91.23,9.09-.82.1-.03.2-.06.3-.09,7.73-2.07,15.02-5.31,22.74-8.73l1.25-.55c2.85-1.29,5.72-2.62,8.58-3.95,4.39-2.04,8.94-4.16,13.5-6.13,14.07-6.24,27.99-11.9,43.18-12.47.11,0,.21,0,.32,0,9.76.2,20.12,2.39,31.69,6.7,8.06,2.67,15.86,6.11,23.4,9.44l1.8.79c2.2.95,4.44,1.94,6.69,2.94,9.67,4.29,18.8,8.34,28.58,10.4,1.18.26,3.84.68,5.48-.33,1.36-2.61,1.33-6.18,1.04-9.74-4.82-15.75-13.52-30.31-25.16-42.14-16.38-17.05-39.43-28.27-63.29-30.82-15.78-1.83-32.34.36-47.95,6.31,0,0-.02,0-.03.01-30.59,11.47-54.75,38.04-63.14,69.39-.21,2.01-.14,3.87.2,5.53.06.31.1.62.11.94.04,1.48.79,2.99,1.64,3.32ZM75.06,97.71h0,0ZM82.31,19.07h0,0ZM100.54,7.42h0,0Z"/>
    </g>
    <g>
      <path class="cls-1" d="M120.08,98.61c6.55-.2,13.37,2.3,17.77,7.28,5.18,5.39,7.09,13.56,5.24,20.75-1.5,7-6.86,13.1-13.63,15.46-11.5,5.31-26.47-2.2-29.72-14.3-2.38-7.53-.42-16.21,4.99-21.95,3.86-4.39,9.59-6.81,15.35-7.24ZM118.55,104.82c-6.09,1.03-11.31,5.69-13.13,11.56-.81,3.02-.66,6.22-.12,9.27,1.85,6.46,7.9,11.42,14.56,12.11,9.24,1.01,18.38-7.31,17.93-16.67.43-9.82-9.69-18.15-19.23-16.28Z"/>
      <path class="cls-1" d="M121.39,148.34c-3.82,0-7.73-.87-11.44-2.61-7.17-3.36-12.6-9.58-14.53-16.67-2.83-9.07-.48-19.35,5.99-26.24,4.41-4.98,11.09-8.15,18.34-8.7.07,0,.13,0,.2-.01,8.2-.25,16.12,3.01,21.21,8.73,6.06,6.35,8.53,16.08,6.31,24.83-1.84,8.42-8.23,15.7-16.32,18.61-3.05,1.37-6.37,2.06-9.75,2.06ZM109.68,124.62c1.4,4.54,5.84,8.17,10.63,8.66,3.15.34,6.58-.91,9.18-3.36,2.56-2.41,3.94-5.55,3.79-8.62,0-.14,0-.28,0-.42.14-3.19-1.37-6.38-4.14-8.77-2.85-2.45-6.48-3.53-9.72-2.89-.04,0-.08.01-.12.02-4.36.74-8.19,4.1-9.56,8.38-.5,1.94-.52,4.23-.06,6.99ZM104.73,105.85h0,0ZM118.55,104.82h0,0Z"/>
    </g>
  </g>
</svg>